<svg width="320" height="320" viewBox="0 0 320 320" fill="none" xmlns="http://www.w3.org/2000/svg">
<path d="M15.0554 183.185C14.5321 192.08 8.77822 200.195 11.3926 206.731C20.8111 230.277 35.9852 265.858 77.845 278.939C105.054 290.974 148.483 298.822 192.436 305.101C277.725 267.428 296.039 230.591 306.504 192.08C316.969 153.569 314.352 134.523 306.504 124.058L243.191 110.977L169.936 117.256C114.472 124.058 55.3454 142.372 15.0554 183.185Z" fill="#C5FF7C"/>
<path d="M15.0554 183.708C10.3462 181.964 1.66028 175.127 4.59046 161.732C7.52064 148.337 53.2524 99.2911 75.752 76.4426L152.669 33.0132L231.679 46.0943L303.364 101.558C307.201 104.524 313.725 114.116 309.12 128.767C304.515 143.418 153.716 171.499 78.8915 183.708H15.0554Z" fill="#217B1F"/>
<path d="M195.052 41.9084L212.843 25.1645C225.4 17.839 240.051 5.28109 279.818 25.1645C293.213 31.862 299.702 63.187 298.655 80.6286C298.655 84.8146 294.888 94.8609 279.818 101.558C264.749 108.256 228.889 90.3959 212.843 80.6286L195.052 41.9084Z" fill="#217B1F"/>
<path d="M152.79 69.6164C149.374 57.3869 140.288 32.2977 131.274 29.7769C120.006 26.626 86.4935 14.0473 61.4608 23.2782C36.4281 32.5092 17.8635 73.8728 15.9485 83.1537C14.4166 90.5784 28.8135 121.838 36.2034 136.539C42.4794 140.627 57.7792 148.637 68.7711 147.979C79.763 147.32 119.749 131.003 138.368 122.927C145.816 110.658 159.128 82.8186 152.79 69.6164Z" fill="#217B1F"/>
<mask id="mask0_10_39" style="mask-type:alpha" maskUnits="userSpaceOnUse" x="15" y="19" width="140" height="130">
<path d="M152.79 69.6164C149.374 57.3869 140.288 32.2977 131.274 29.7769C120.006 26.626 86.4935 14.0473 61.4608 23.2782C36.4281 32.5092 17.8635 73.8728 15.9485 83.1537C14.4166 90.5784 28.8135 121.838 36.2034 136.539C42.4794 140.627 57.7792 148.637 68.7711 147.979C79.763 147.32 119.749 131.003 138.368 122.927C145.816 110.658 159.128 82.8186 152.79 69.6164Z" fill="#217B1F"/>
</mask>
<g mask="url(#mask0_10_39)">
<path d="M38.0271 37.9132C64.2948 41.7597 128.19 53.8735 151.626 82.1203L157.005 92.0802L148.134 119.632C119.588 117.675 49.6873 122.66 34.1195 136.345C18.5517 150.031 11.8849 92.9353 10.4975 62.677L38.0271 37.9132Z" fill="#FF4444"/>
</g>
<mask id="mask1_10_39" style="mask-type:alpha" maskUnits="userSpaceOnUse" x="195" y="14" width="104" height="90">
<path d="M195.052 41.9084L212.843 25.1645C225.4 17.839 240.051 5.28109 279.818 25.1645C293.213 31.862 299.702 63.187 298.655 80.6286C298.655 84.8146 294.888 94.8609 279.818 101.558C264.749 108.256 228.889 90.3959 212.843 80.6286L195.052 41.9084Z" fill="#217B1F"/>
</mask>
<g mask="url(#mask1_10_39)">
<path d="M208.657 71.2102C219.47 54.1174 246.958 19.932 270.4 19.932C293.841 19.932 301.097 59.0011 301.794 78.5356L291.33 95.2795C284.353 89.6982 260.772 80.21 222.261 86.9075C183.75 93.6051 197.145 79.2333 208.657 71.2102Z" fill="#FF4444"/>
</g>
<path d="M279.132 38.7689C278.304 48.293 278.139 81.4595 287.409 94.233C287.684 87.5101 291.547 56.4166 279.132 38.7689Z" fill="black"/>
<path d="M279.132 38.7689C278.304 48.293 278.139 81.4595 287.409 94.233C287.684 87.5101 291.547 56.4166 279.132 38.7689Z" fill="black"/>
<path fill-rule="evenodd" clip-rule="evenodd" d="M278.735 37.295L279.56 38.4678C285.855 47.4159 287.999 59.7247 288.552 70.5711C288.986 79.0894 288.44 86.7849 288.119 91.3043C288.032 92.542 287.961 93.5415 287.931 94.2545L287.87 95.7592L286.985 94.5403C284.611 91.2688 282.863 86.7269 281.581 81.6452C280.297 76.5559 279.471 70.8861 278.963 65.3301C277.946 54.2207 278.194 43.5169 278.611 38.7236L278.735 37.295ZM279.541 40.3193C279.206 45.5724 279.09 55.237 280.005 65.2347C280.51 70.7575 281.329 76.3697 282.596 81.3892C283.699 85.7615 285.134 89.6548 286.976 92.6444C287.006 92.202 287.041 91.7144 287.078 91.1853C287.399 86.6519 287.937 79.0654 287.507 70.6244C286.982 60.339 285.021 48.9013 279.541 40.3193Z" fill="black"/>
<path d="M67.38 46.0943C66.3335 57.9546 66.1242 99.2562 77.8449 115.163C78.1938 106.791 83.0774 68.0707 67.38 46.0943Z" fill="black"/>
<path d="M67.38 46.0943C66.3335 57.9546 66.1242 99.2562 77.8449 115.163C78.1938 106.791 83.0774 68.0707 67.38 46.0943Z" fill="black"/>
<path fill-rule="evenodd" clip-rule="evenodd" d="M66.9833 44.6385L67.8059 45.7902C75.7437 56.9032 78.4533 72.2021 79.1524 85.7032C79.7012 96.302 79.0117 105.872 78.6061 111.502C78.4948 113.046 78.4049 114.294 78.3678 115.185L78.3059 116.67L77.4238 115.473C74.4359 111.418 72.2305 105.78 70.6111 99.4579C68.9898 93.1284 67.9464 86.0746 67.3038 79.1596C66.019 65.3323 66.3328 52.0102 66.8589 46.0483L66.9833 44.6385ZM67.7869 47.609C67.3423 54.056 67.1639 66.3432 68.3458 79.0628C68.9852 85.944 70.0217 92.9394 71.6249 99.1983C73.0662 104.825 74.9579 109.825 77.4087 113.61C77.4517 112.955 77.5054 112.209 77.565 111.381C77.9712 105.737 78.6521 96.2776 78.1073 85.7573C77.4366 72.8038 74.9088 58.3623 67.7869 47.609Z" fill="black"/>
<path d="M170.868 142.285L153.208 151.362L144.23 142.581L170.868 142.285Z" fill="black"/>
<path d="M246.786 124.98L262.116 125.449L265.464 116.345L246.786 124.98Z" fill="black"/>
<path d="M154.905 32.2688L141.775 40.1183C141.775 38.0251 138.273 34.0131 136.522 32.2688L112.361 24.9427C103.958 21.1749 84.6988 20.233 76.12 20.233L58.7872 24.9427C52.1342 30.0012 39.0383 40.1183 39.8787 40.1183C40.719 40.1183 32.8755 51.282 28.8487 56.8638C24.6468 64.5388 16.243 81.6681 16.243 88.7849C16.243 97.681 26.7478 119.66 28.8487 123.846C30.9496 128.032 5.73829 151.057 4.68782 165.186C3.84744 176.49 12.0411 182.455 16.243 184.025L10.9907 203.91L31.4749 246.297L58.7872 272.986L122.866 295.487L193.248 307C209.705 298.976 245.246 280.94 255.751 272.986C266.256 265.032 285.339 241.762 293.568 231.122L315.628 161.523V136.928L310.901 130.649V119.66V110.763L307.749 104.484L293.568 95.0645L301.446 83.552L298.82 56.8638L289.366 32.2688L281.487 24.9427L255.751 15H236.842L213.732 24.9427L197.45 40.1183L154.905 32.2688Z" stroke="black" stroke-width="4"/>
</svg>
