<svg width="320" height="320" viewBox="0 0 320 320" fill="none" xmlns="http://www.w3.org/2000/svg">
<g clip-path="url(#clip0_91_159)">
<path d="M257.038 116.228C243.247 93.1983 201.435 105.874 182.252 115.09C181.93 142.627 192.708 157.937 198.137 162.15C208.026 149.26 222.856 142.67 235.845 144.777C246.236 146.463 243.172 157.961 240.341 163.5C246.68 163.329 252.691 168.669 254.904 171.36L266.847 164.302C269.323 157.873 270.828 139.257 257.038 116.228Z" fill="#5C1425"/>
<path d="M113.034 70.6801L30.3538 101.622C11.1597 117.491 -18.1644 159.068 18.0919 198.416C28.9175 208.049 52.1623 218.648 76.4657 205.144L73.1623 215.898L197.827 233.503C196.697 222.734 197.24 199.419 208.449 192.304C219.657 185.19 226.053 196.891 227.849 203.631C223.949 207.999 215.697 222.226 213.891 244.189C211.634 271.643 240.786 282.441 256.337 283.779C271.888 285.117 300.268 248.489 291.389 230.616C282.509 212.743 268.808 273.563 248.637 250.441C228.466 227.319 272.809 222.668 265.366 182.87C257.922 143.072 213.99 160.547 197.721 152.356C184.705 145.804 182.51 109.744 183.039 92.5335C168.339 66.3632 130.244 67.0603 113.034 70.6801Z" fill="#D72F57"/>
<path d="M173.208 303.898C147.951 301.4 136.529 244.634 133.975 216.564L186.886 215.652L195.553 226.555L199.262 243.984C205.578 241.996 213.346 240.088 222.802 238.473C255.223 232.937 267.343 250.198 269.35 259.52C281.403 272.971 296.263 293.975 259.283 270.382C213.057 240.89 204.78 307.022 173.208 303.898Z" fill="#D72F57"/>
<path d="M128.118 133.445L125.718 146.133C111.252 157.599 86.3347 191.552 75.6845 207.095L59.4398 212.281L44.7789 210.336L27.1439 206.715L9.90884 189.122L1.38322 165.642C16.6861 204.827 46.053 200.254 69.5749 193.31C88.3925 187.754 103.028 168.411 107.993 159.433C116.514 148.193 108.929 129.82 104.071 122.039L112.993 127.073L128.118 133.445Z" fill="url(#paint0_linear_91_159)" fill-opacity="0.7"/>
<path d="M128.118 133.445L125.718 146.133C111.252 157.599 86.3347 191.552 75.6845 207.095L59.4398 212.281L44.7789 210.336L27.1439 206.715L9.90884 189.122L1.38322 165.642C16.6861 204.827 46.053 200.254 69.5749 193.31C88.3925 187.754 103.028 168.411 107.993 159.433C116.514 148.193 108.929 129.82 104.071 122.039L112.993 127.073L128.118 133.445Z" fill="url(#paint1_linear_91_159)" fill-opacity="0.6"/>
<path fill-rule="evenodd" clip-rule="evenodd" d="M114.273 64.3061L97.216 85.3164C91.0637 83.9903 93.3363 93.116 95.2417 97.8446L117.955 99.4048L114.946 90.6656L112.55 83.7078C111.606 78.287 117.531 75.957 120.612 75.4695L126.746 84.683L132.88 93.8964L155.649 91.5081L146.778 83.0745C143.821 80.2633 136.339 73.1298 130.067 67.0849C123.796 61.0401 116.925 62.7137 114.273 64.3061Z" fill="#D72F57"/>
<path d="M120.612 75.4695C117.531 75.957 111.606 78.287 112.55 83.7078L114.946 90.6656C116.38 92.4004 118.58 92.724 122.248 91.0689C127.631 88.6404 127.489 85.7998 126.746 84.683L120.612 75.4695Z" fill="#3E032D"/>
<path d="M163.122 98.7622C156.407 98.6703 146.939 86.5258 143.044 80.465C153.656 89.3047 164.294 93.6628 168.287 94.7369C169.363 96.117 169.836 98.8541 163.122 98.7622Z" fill="#100202" fill-opacity="0.25"/>
<path d="M108.392 74.1471L93.7786 99.0692C97.2597 91.4354 98.4122 79.9173 81.9962 83.3429L67.5154 88.3877C73.4184 85.7417 78.1816 84.1389 81.9962 83.3429L108.392 74.1471Z" fill="#100202" fill-opacity="0.25"/>
<ellipse cx="118.595" cy="84.513" rx="1.19082" ry="6.31877" transform="rotate(-5.9883 118.595 84.513)" fill="#EE9004"/>
<path fill-rule="evenodd" clip-rule="evenodd" d="M183.325 116.36C184.031 120.033 183.628 119.131 182.757 116.21L183.325 116.36ZM183.925 87.0016L179.689 97.2112C184.854 100.575 185.242 99.5582 187.011 94.4901C188.425 90.4356 185.543 87.8084 183.925 87.0016Z" fill="#3E032D"/>
<path d="M182.912 77.3427L169.266 91.9571L176.702 114.614L182.757 116.21C181.63 112.432 179.721 105.277 178.418 100.274L179.689 97.2112L183.925 87.0016C185.543 87.8084 188.425 90.4356 187.011 94.4901C185.242 99.5582 184.854 100.575 179.689 97.2112L178.418 100.274C179.721 105.277 181.63 112.432 182.757 116.21L183.325 116.36C181.301 105.831 188.68 97.2446 190.195 89.7618C191.407 83.7755 185.845 78.9881 182.912 77.3427Z" fill="#D72F57"/>
<ellipse rx="1.18403" ry="4.51872" transform="matrix(0.944839 0.327534 -0.285727 0.958311 183.656 93.4544)" fill="#EE9004"/>
<path d="M53.9617 191.817C43.2056 245.362 62.7833 228.615 73.9166 213.549L127.91 222.777C64.9747 286.163 28.8991 264.765 18.7282 246.142C13.2451 229.345 18.8229 204.272 25.862 185.829C22.9241 179.968 21.1243 171.037 21.1143 158.034C21.0731 104.43 43.6385 108.185 54.9263 116.763C56.8775 118.033 59.1523 122.843 59.9082 133.117C60.5475 141.807 60.1003 154.406 57.4518 172.078C69.363 170.506 68.9798 177.272 66.8369 181.531C63.2441 184.954 58.8029 188.438 54.1132 191.059C54.0631 191.311 54.0126 191.563 53.9617 191.817Z" fill="#D72F57"/>
<path d="M19.9238 152.15L22.5923 177.589L35.3691 191.086L30.1861 141.676C31.72 116.587 48.8783 116.799 57.2657 120.041L49.5753 114.418L39.749 110.997L31.3147 116.333L23.4961 127.54L19.9238 152.15Z" fill="url(#paint2_linear_91_159)" fill-opacity="0.5"/>
<path d="M52.7839 191.46C41.4699 200.172 30.2155 192.672 26.0025 187.833C22.3408 191.782 19.0644 208.529 17.8839 216.409C34.4966 212.29 46.5991 219.337 50.5738 223.376L52.7839 191.46Z" fill="#030303" fill-opacity="0.2"/>
<path d="M46.2362 174.698L58.4939 173.412L60.4406 135.087L49.6558 141.664L45.4143 166.863L46.2362 174.698Z" fill="#090000" fill-opacity="0.2"/>
<path d="M157.873 134.065L154.087 126.551C155.888 131.622 154.288 133.217 153.262 133.381L157.873 134.065Z" fill="#020000"/>
<path d="M178.696 132.511L179.565 126.852C179.422 130.574 180.653 131.469 181.286 131.45L178.696 132.511Z" fill="#020000"/>
<path d="M173.503 207.589C175.031 232.855 185.038 235.844 189.851 234.18L199.207 247.6L197.551 205.067L214.607 189.373C212.637 189.911 206.304 192.23 196.727 197.208C187.149 202.185 176.081 177.192 171.743 164.074L173.444 180.283L173.503 207.589Z" fill="url(#paint3_linear_91_159)" fill-opacity="0.35"/>
<path d="M107.863 267.307C100.062 261.642 101.377 249.76 103.01 244.527L127.145 222.453L134.361 223.624L140.053 250.537L145.181 268.363C138.302 277.743 117.616 274.387 107.863 267.307Z" fill="#7C2036"/>
<path d="M146.386 192.075L155.903 238.588L136.086 186.721L142.792 157.808L132.595 153.433L114.257 168.719L117.105 160.502L134.676 142.327L127.357 103.501L143.63 121.591L153.023 140.402L161.598 155.835L146.386 192.075Z" fill="url(#paint4_linear_91_159)" fill-opacity="0.3"/>
<path d="M114.549 64.1829L109.674 71.7536L121.356 70.5282L133.156 74.9378L127.458 65.6524L120.623 63.5456L114.549 64.1829Z" fill="#D9D9D9" fill-opacity="0.3"/>
<path d="M79.8056 199.906L106.593 171.755L103.734 180.502L68.5298 227.423L79.8056 199.906Z" fill="url(#paint5_linear_91_159)" fill-opacity="0.3"/>
<path d="M88.7125 252.413L105.248 201.212L131.47 180.158C131.321 191.855 149.828 261.925 160.222 269.561L160.726 269.885C160.56 269.794 160.392 269.686 160.222 269.561L140.995 257.188L133.323 223.955L128.512 223.175L105.944 241.505L88.7125 252.413Z" fill="url(#paint6_linear_91_159)" fill-opacity="0.7"/>
<path d="M218.815 222.832L198.391 230.514C196.757 213.055 200.834 203.087 203.076 200.286C205.291 194.481 211.575 184.271 218.992 189.873C226.409 195.475 228.47 201.907 228.573 204.422L220.251 213.568L218.815 222.832Z" fill="#7C2036"/>
<path d="M255.758 165.849C268.382 154.403 284.45 144.914 297.322 158.598C310.193 172.282 301.69 198.292 296.885 215.506C292.257 231.582 286.301 264.069 299.507 265.412C316.014 267.091 325.011 279.046 308.607 279.884C292.202 280.721 279.893 274.225 272.086 260.963C267.288 252.814 269.872 235.485 272.1 221.98L275.652 199.066L262.729 209.964C266.81 183.636 264.143 172.208 255.758 165.849Z" fill="#7C2036"/>
</g>
<defs>
<linearGradient id="paint0_linear_91_159" x1="94.5773" y1="107.117" x2="9.28604" y2="116.501" gradientUnits="userSpaceOnUse">
<stop stop-color="#F215F7"/>
<stop offset="1" stop-color="#BD4DBF" stop-opacity="0"/>
</linearGradient>
<linearGradient id="paint1_linear_91_159" x1="94.5773" y1="107.117" x2="9.28604" y2="116.501" gradientUnits="userSpaceOnUse">
<stop/>
<stop offset="1" stop-color="#BD4DBF" stop-opacity="0"/>
</linearGradient>
<linearGradient id="paint2_linear_91_159" x1="-20.5751" y1="63.9086" x2="40.7438" y2="172.149" gradientUnits="userSpaceOnUse">
<stop stop-color="#FDE512"/>
<stop offset="1" stop-color="#FFE91F" stop-opacity="0"/>
<stop offset="1" stop-color="#6100FF" stop-opacity="0.77"/>
</linearGradient>
<linearGradient id="paint3_linear_91_159" x1="182.747" y1="188.742" x2="220.633" y2="221.441" gradientUnits="userSpaceOnUse">
<stop/>
<stop offset="1" stop-color="#F900B3"/>
</linearGradient>
<linearGradient id="paint4_linear_91_159" x1="126.46" y1="130.321" x2="149.535" y2="224.688" gradientUnits="userSpaceOnUse">
<stop stop-color="#FFD1A7"/>
<stop offset="1" stop-color="#FFD1A7" stop-opacity="0"/>
</linearGradient>
<linearGradient id="paint5_linear_91_159" x1="70.0604" y1="188.009" x2="122.854" y2="211.007" gradientUnits="userSpaceOnUse">
<stop stop-color="#F7DD55"/>
<stop offset="1" stop-color="#FFFCEB" stop-opacity="0"/>
</linearGradient>
<linearGradient id="paint6_linear_91_159" x1="116.026" y1="181.778" x2="123.058" y2="248.811" gradientUnits="userSpaceOnUse">
<stop stop-color="#1B012B"/>
<stop offset="1" stop-color="#D72F57"/>
</linearGradient>
<clipPath id="clip0_91_159">
<rect width="320" height="320" fill="white"/>
</clipPath>
</defs>
</svg>
