<svg width="320" height="320" viewBox="0 0 320 320" fill="none" xmlns="http://www.w3.org/2000/svg">
<g clip-path="url(#clip0_8_2)">
<path d="M264.5 56.5L251 65.5C245.833 69 235.1 82.9 233.5 110.5C231.9 138.1 236.167 153 238.5 157L251 132C255.5 130.833 264.5 121.3 264.5 92.5C264.5 63.7 270.5 54.1667 273.5 53L264.5 56.5Z" fill="#483E7E"/>
<path d="M179 65.5L174 102.5L170 140.5L238.5 157C236.167 153 231.9 138.1 233.5 110.5C235.1 82.9 245.833 69 251 65.5L264.5 56.5H251C233.4 61.7 225 86.3333 223 98L220 71C214.461 81.2871 214.009 101.228 214.484 110.208C214.49 110.305 214.495 110.403 214.5 110.5C214.495 110.404 214.489 110.307 214.484 110.208C213.111 86.7663 190.287 70.6454 179 65.5Z" fill="#B85F9B"/>
<path d="M288 280.5C296.75 277.001 297 274.5 297 269.5L229.721 235.198H191.721C183.221 235.365 163.121 229.798 150.721 206.198C138.321 182.598 135 165.5 125.5 163.5H110L91 173C90.8333 149.833 68.4182 173.388 82 220.5C98 276 123.221 277 154.5 274.5C185.779 272 178.5 269.5 215 269.5C239.299 269.5 275 285.698 288 280.5Z" fill="#B85F9B"/>
<path d="M203 119.5C217 111 255.6 99.1 278 119.5C270.333 117.333 253.4 115.1 247 123.5C258 130.333 281 146.6 285 157C283.667 159 281.8 165 285 173C288 184 293.6 208.9 292 220.5C290 235 288 231.5 299.5 243C301 244.167 307 258.5 300.5 268C289.574 283.969 283.333 265.167 276 250.5L255.5 237L185.5 140.5L203 119.5Z" fill="#B85F9B"/>
<path d="M299.5 243C288 231.5 290 235 292 220.5C293.6 208.9 288 184 285 173C281.8 165 283.667 159 285 157C281 146.6 258 130.333 247 123.5C253.4 115.1 270.333 117.333 278 119.5C255.6 99.1 217 111 203 119.5L185.5 140.5L255.5 237M299.5 243L255.5 237M299.5 243C301 244.167 307 258.5 300.5 268C289.574 283.969 283.333 265.167 276 250.5L255.5 237" stroke="#B85F9B"/>
<path d="M86.0968 83.598C113.846 90.6689 124.804 105.93 125.637 129.675C126.075 142.167 121.914 170.025 113.394 162.448L110.756 148.19L105.362 168.51L101.054 134.222C98.4648 150.464 82.8766 156.906 90.5754 173.788L86.7871 178.048C57.4403 179.408 72.4006 147.806 66.5069 156.375C59.294 166.862 65.7167 190.589 78.8977 201.372L92.4852 184.113C119.261 170.346 167.57 156.8 168.389 143.632C169.207 130.463 161.439 113.391 157.453 106.502C147.944 97.2434 123.969 78.3217 104.143 76.7006C64.8503 67.6971 31.4905 88.0214 15.2838 99.3671C34.6259 86.71 67.2288 78.7901 86.0968 83.598Z" fill="#B85F9B"/>
<path d="M6.42794 106.47C42.5235 166.913 24.3462 189.597 78.8977 201.372C65.7167 190.589 59.294 166.862 66.5069 156.375C72.4006 147.806 57.4403 179.408 86.7871 178.048L90.5754 173.788C82.8766 156.906 98.4648 150.464 101.054 134.222L105.362 168.51L110.756 148.19L113.394 162.448C121.914 170.025 126.075 142.167 125.637 129.675C124.804 105.93 113.846 90.6689 86.0968 83.598C67.2288 78.7901 34.6259 86.71 15.2838 99.3671C11.869 101.602 8.86753 103.984 6.42794 106.47Z" fill="#483E7E"/>
<path d="M271 184.258L268 197C265.935 204.229 267.424 208.614 271 215.866C281 211.231 285.513 213.5 292 200.5C298.487 187.5 285.513 184.258 281.5 178C278.289 172.994 273.162 180.086 271 184.258Z" fill="#C73C3C"/>
<path fill-rule="evenodd" clip-rule="evenodd" d="M196.899 76C199.092 76.1306 197.937 76.6681 195.1 77.5039C195.678 76.8507 196.282 76.3375 196.899 76Z" fill="#810000"/>
<path d="M296.5 251.5C288.559 238 281.5 244 281.5 244C274.269 243.373 270.136 250.542 267.35 255.376C266.444 256.947 265.681 258.271 265 259L287.5 271.5C298 265.5 299.594 256.761 296.5 251.5Z" fill="#483E7E"/>
<path d="M183.145 186.919C191.871 188.752 203.041 192.919 207.298 206.919C211.554 220.919 199.404 223.752 194.798 224.419C186.049 226.419 174.298 224.419 161.798 216.919C146.935 208.001 155.397 198.748 161.798 193.419C170.806 185.919 178.978 188.586 183.145 186.919Z" fill="#C73C3C"/>
<path fill-rule="evenodd" clip-rule="evenodd" d="M170.044 85.9396C149.215 100.079 137.988 125.452 137.23 136.346L126.5 163L107.5 174.5L141.5 244L188.5 237C219.5 240 222 259 238.5 271.5C247.927 278.641 255.232 283.661 262 285.534C267.079 286.939 271.856 286.572 277 284C278.764 283.118 280.251 282.212 281.5 281.306C283.285 280.011 284.585 278.718 285.513 277.5C287.471 274.932 287.777 272.7 287.5 271.5L265 259C265.681 258.271 266.444 256.947 267.35 255.376C270.136 250.542 274.269 243.373 281.5 244C281.027 231.322 265.239 234.291 257 220.5C246.701 203.261 252.509 194.426 249.842 184.258C248.303 178.388 262.358 152.641 255.052 145.071C252.233 142.15 248.472 135.246 244 133.5C257.089 120.503 281 137.091 262 122.208C238.59 103.87 204.467 121.96 215.376 115.558C224.104 110.437 224.144 98.3067 226.373 90.3378C225.073 81.9743 224.976 77.7992 225.029 76.2748C224.684 78.4611 222.806 85.2657 214.409 89.4037C197.718 97.6294 205.825 106.714 194.798 102.918C186.868 100.188 189.958 83.3128 195.1 77.5039C189.007 79.2988 175.156 82.4693 170.044 85.9396ZM207.298 206.919C203.041 192.919 191.871 188.752 183.145 186.919C178.978 188.586 170.806 185.919 161.798 193.419C155.397 198.748 146.935 208.001 161.798 216.919C174.298 224.419 186.049 226.419 194.798 224.419C199.404 223.752 211.554 220.919 207.298 206.919Z" fill="#B85F9B"/>
<path d="M287.5 276.663L287.5 301L292 301L296.5 292.5C297.343 290.875 298.908 284.4 298.421 271.5C295.808 273.391 292.152 274.734 287.5 276.663Z" fill="#FFF2AD"/>
<path d="M277 284C271.856 286.572 267.079 286.939 262 285.534C264 288.523 268 298.2 268 313L274 315.5L281.5 307L281.5 281.306C280.251 282.212 278.764 283.118 277 284Z" fill="#FFF2AD"/>
<ellipse cx="164" cy="200" rx="7" ry="4" fill="#FFDCDC"/>
<ellipse cx="274.835" cy="185.5" rx="3.8567" ry="3.04253" transform="rotate(-28.087 274.835 185.5)" fill="#FFDCDC"/>
</g>
<defs>
<clipPath id="clip0_8_2">
<rect width="320" height="320" fill="white"/>
</clipPath>
</defs>
</svg>
