<svg width="125" height="111" viewBox="0 0 125 111" fill="none" xmlns="http://www.w3.org/2000/svg">
<path d="M82.2212 29.0883C87.9308 25.6153 103.673 20.7531 112.808 29.0883C109.682 28.203 102.776 27.2905 100.166 30.7226C104.652 33.5146 114.032 40.161 115.663 44.4103C115.119 45.2274 114.358 47.679 115.663 50.9477C116.887 55.4421 119.17 65.6159 118.518 70.3555C117.702 76.2801 116.887 74.85 121.577 79.5488C122.188 80.0254 124.635 85.8818 121.984 89.7634C117.528 96.2882 114.983 88.6058 111.993 82.6132L103.632 77.0972L75.0842 37.6686L82.2212 29.0883Z" fill="#B85F9B"/>
<path fill-rule="evenodd" clip-rule="evenodd" d="M82.8939 29.8751L76.3752 37.712L104.202 76.1441L118.703 78.1252C118.539 77.9578 118.39 77.8019 118.256 77.6558C117.662 77.0112 117.212 76.4192 117.003 75.6958C116.796 74.9782 116.865 74.2593 116.984 73.4762C117.032 73.1656 117.087 72.8476 117.147 72.4965C117.253 71.8829 117.377 71.1683 117.508 70.216C117.81 68.0217 117.433 64.4371 116.789 60.7348C116.159 57.1036 115.298 53.4977 114.694 51.2714C113.487 48.2047 113.909 45.6984 114.528 44.3634C114.129 43.5657 113.417 42.618 112.439 41.5688C111.303 40.3501 109.875 39.0658 108.34 37.8114C105.272 35.3032 101.842 32.9686 99.6276 31.5903L98.6749 30.9974L99.3546 30.1036C100.948 28.008 103.734 27.3587 106.256 27.2656C106.942 27.2403 107.631 27.2551 108.304 27.2994C104.665 25.5869 100.441 25.2454 96.3363 25.6761C90.7907 26.2581 85.6554 28.2342 82.8939 29.8751ZM121.01 80.5023L107.941 78.7168L112.782 81.9109L112.905 82.1563C113.284 82.9167 113.655 83.702 114.019 84.4712L114.026 84.486C114.389 85.2538 114.744 86.0049 115.101 86.7194C115.827 88.1743 116.519 89.3961 117.217 90.2222C117.933 91.0691 118.456 91.2713 118.849 91.2266C119.298 91.1755 120.067 90.7614 121.143 89.1866C122.251 87.5647 122.336 85.4498 122 83.5582C121.835 82.6283 121.575 81.7989 121.326 81.184C121.21 80.8967 121.1 80.667 121.01 80.5023ZM122.268 78.7973C122.386 78.9016 122.475 79.0157 122.535 79.0982C122.616 79.2088 122.693 79.3333 122.766 79.463C122.913 79.7231 123.067 80.0473 123.216 80.4161C123.515 81.1546 123.816 82.1213 124.008 83.2003C124.385 85.3265 124.369 88.0805 122.826 90.3402C121.673 92.0279 120.454 93.1002 119.079 93.2565C117.648 93.4192 116.512 92.5497 115.661 91.5424C114.792 90.5144 114.009 89.0998 113.277 87.6327C112.911 86.8989 112.548 86.1314 112.188 85.3708L112.176 85.3459C111.851 84.6585 111.529 83.9764 111.202 83.3147L102.916 77.8478L73.7931 37.6251L81.5467 28.3035L81.692 28.2151C84.6771 26.3994 90.1847 24.2676 96.1238 23.6443C102.059 23.0214 108.624 23.8886 113.495 28.333L112.531 30.0712C111.044 29.6503 108.644 29.2218 106.331 29.3072C104.495 29.375 102.897 29.7577 101.798 30.5501C104.013 31.9846 106.949 34.0376 109.629 36.2285C111.204 37.5159 112.708 38.8644 113.929 40.1742C115.134 41.4659 116.135 42.7943 116.615 44.0436L116.804 44.537L116.511 44.9769C116.17 45.4902 115.418 47.5841 116.61 50.5683L116.631 50.6225L116.647 50.6789C117.265 52.9517 118.15 56.6503 118.798 60.3845C119.44 64.0777 119.878 67.9497 119.528 70.4951C119.395 71.4617 119.253 72.284 119.142 72.9301C119.085 73.2634 119.036 73.5498 119 73.785C118.884 74.5469 118.889 74.8751 118.962 75.1278C119.033 75.3748 119.208 75.6766 119.755 76.2705C120.116 76.6626 120.579 77.1207 121.192 77.7271C121.508 78.0404 121.865 78.3934 122.268 78.7973Z" fill="#B85F9B"/>
<path fill-rule="evenodd" clip-rule="evenodd" d="M82.8939 29.8751L76.3752 37.712L104.202 76.1441L118.703 78.1252C118.539 77.9578 118.39 77.8019 118.256 77.6558C117.662 77.0112 117.212 76.4192 117.003 75.6958C116.796 74.9782 116.865 74.2593 116.984 73.4762C117.032 73.1656 117.087 72.8476 117.147 72.4965C117.253 71.8829 117.377 71.1683 117.508 70.216C117.81 68.0217 117.433 64.4371 116.789 60.7348C116.159 57.1036 115.298 53.4977 114.694 51.2714C113.487 48.2047 113.909 45.6984 114.528 44.3634C114.129 43.5657 113.417 42.618 112.439 41.5688C111.303 40.3501 109.875 39.0658 108.34 37.8114C105.272 35.3032 101.842 32.9686 99.6276 31.5903L98.6749 30.9974L99.3546 30.1036C100.948 28.008 103.734 27.3587 106.256 27.2656C106.942 27.2403 107.631 27.2551 108.304 27.2994C104.665 25.5869 100.441 25.2454 96.3363 25.6761C90.7907 26.2581 85.6554 28.2342 82.8939 29.8751ZM121.01 80.5023L107.941 78.7168L112.782 81.9109L112.905 82.1563C113.284 82.9167 113.655 83.702 114.019 84.4712L114.026 84.486C114.389 85.2538 114.744 86.0049 115.101 86.7194C115.827 88.1743 116.519 89.3961 117.217 90.2222C117.933 91.0691 118.456 91.2713 118.849 91.2266C119.298 91.1755 120.067 90.7614 121.143 89.1866C122.251 87.5647 122.336 85.4498 122 83.5582C121.835 82.6283 121.575 81.7989 121.326 81.184C121.21 80.8967 121.1 80.667 121.01 80.5023ZM122.268 78.7973C122.386 78.9016 122.475 79.0157 122.535 79.0982C122.616 79.2088 122.693 79.3333 122.766 79.463C122.913 79.7231 123.067 80.0473 123.216 80.4161C123.515 81.1546 123.816 82.1213 124.008 83.2003C124.385 85.3265 124.369 88.0805 122.826 90.3402C121.673 92.0279 120.454 93.1002 119.079 93.2565C117.648 93.4192 116.512 92.5497 115.661 91.5424C114.792 90.5144 114.009 89.0998 113.277 87.6327C112.911 86.8989 112.548 86.1314 112.188 85.3708L112.176 85.3459C111.851 84.6585 111.529 83.9764 111.202 83.3147L102.916 77.8478L73.7931 37.6251L81.5467 28.3035L81.692 28.2151C84.6771 26.3994 90.1847 24.2676 96.1238 23.6443C102.059 23.0214 108.624 23.8886 113.495 28.333L112.531 30.0712C111.044 29.6503 108.644 29.2218 106.331 29.3072C104.495 29.375 102.897 29.7577 101.798 30.5501C104.013 31.9846 106.949 34.0376 109.629 36.2285C111.204 37.5159 112.708 38.8644 113.929 40.1742C115.134 41.4659 116.135 42.7943 116.615 44.0436L116.804 44.537L116.511 44.9769C116.17 45.4902 115.418 47.5841 116.61 50.5683L116.631 50.6225L116.647 50.6789C117.265 52.9517 118.15 56.6503 118.798 60.3845C119.44 64.0777 119.878 67.9497 119.528 70.4951C119.395 71.4617 119.253 72.284 119.142 72.9301C119.085 73.2634 119.036 73.5498 119 73.785C118.884 74.5469 118.889 74.8751 118.962 75.1278C119.033 75.3748 119.208 75.6766 119.755 76.2705C120.116 76.6626 120.579 77.1207 121.192 77.7271C121.508 78.0404 121.865 78.3934 122.268 78.7973Z" fill="black"/>
<path d="M107.303 3.34728L101.797 7.02456C99.6898 8.45461 95.3124 14.134 94.6599 25.411C94.0074 36.688 95.7475 42.7759 96.699 44.4103L101.797 34.1956C103.632 33.7189 107.303 29.8237 107.303 18.0564C107.303 6.2891 109.75 2.39391 110.973 1.91722L107.303 3.34728Z" fill="#483E7E"/>
<path d="M72.4333 7.02456L70.3942 22.1423L68.7628 37.6686L96.699 44.4103C95.7475 42.7759 94.0074 36.688 94.6599 25.411C95.3124 14.134 99.6898 8.45461 101.797 7.02456L107.303 3.34728H101.797C94.6191 5.47193 91.1934 15.5368 90.3777 20.3036L89.1542 9.27179C86.8952 13.475 86.7111 21.6225 86.9047 25.2918C86.907 25.3315 86.9092 25.3712 86.9112 25.411C86.909 25.3718 86.9068 25.3321 86.9047 25.2918C86.3446 15.7137 77.0363 9.12689 72.4333 7.02456Z" fill="#B85F9B"/>
<path fill-rule="evenodd" clip-rule="evenodd" d="M109.654 6.05164C108.928 8.42759 108.322 12.2347 108.322 18.0564C108.322 24.0377 107.391 28.1095 106.165 30.786C105.097 33.1167 103.751 34.4932 102.525 35.0211L97.2484 45.5935L67.6553 38.452L69.3818 22.0204L71.6068 5.52447L72.8562 6.09512C75.2616 7.19374 78.8495 9.43755 81.9211 12.6479C83.48 14.2772 84.9252 16.1765 86.0097 18.3205C86.0351 18.0084 86.0636 17.6943 86.0953 17.3795C86.4023 14.331 87.0273 11.0747 88.2565 8.78751L89.8065 5.90359L90.7979 14.8426C91.3269 13.369 91.993 11.8262 92.8083 10.3421C94.7167 6.86846 97.541 3.54192 101.508 2.36767L101.649 2.32581H107.111L110.603 0.96521L111.343 2.86923C111.343 2.86908 111.343 2.86898 111.343 2.86923C111.337 2.87203 111.275 2.90197 111.166 3.00551C111.051 3.11491 110.904 3.28709 110.737 3.54369C110.402 4.05817 110.017 4.86344 109.654 6.05164ZM108.179 4.10186C108.014 4.50848 107.855 4.95836 107.704 5.45402C106.9 8.08668 106.283 12.1108 106.283 18.0564C106.283 23.8424 105.379 27.6019 104.311 29.934C103.224 32.3084 102.033 33.0789 101.541 33.2068L101.092 33.3234L96.8184 41.887C96.5652 40.994 96.3053 39.8294 96.0861 38.3742C95.6255 35.3166 95.3551 31.0469 95.6778 25.4701C96.3181 14.4035 100.601 9.0726 102.366 7.87219C102.367 7.87154 102.368 7.8709 102.369 7.87025L107.776 4.25894L108.179 4.10186ZM103.935 4.36874L101.228 6.17675L101.225 6.17887C98.774 7.84238 94.3064 13.8704 93.6421 25.3519C93.3122 31.0521 93.5856 35.4648 94.0698 38.6791C94.3351 40.4401 94.6671 41.8641 95.0077 42.9514L69.8704 36.8852L71.4066 22.2642L73.2529 8.57543C75.3632 9.71486 78.0749 11.5802 80.449 14.0616C83.3215 17.0638 85.6248 20.8864 85.8867 25.3486C85.8888 25.3891 85.891 25.4291 85.8932 25.4687L87.9294 25.3591C87.9273 25.3177 87.9251 25.2763 87.9227 25.2351C87.8284 23.4453 87.826 20.5454 88.1241 17.5845C88.2477 16.3573 88.4209 15.1425 88.6532 14.0042L89.3644 20.4164L91.3826 20.4762C91.7748 18.184 92.8032 14.5881 94.5947 11.3272C96.3718 8.0924 98.8043 5.35652 101.949 4.36874H103.935Z" fill="#B85F9B"/>
<path fill-rule="evenodd" clip-rule="evenodd" d="M109.654 6.05164C108.928 8.42759 108.322 12.2347 108.322 18.0564C108.322 24.0377 107.391 28.1095 106.165 30.786C105.097 33.1167 103.751 34.4932 102.525 35.0211L97.2484 45.5935L67.6553 38.452L69.3818 22.0204L71.6068 5.52447L72.8562 6.09512C75.2616 7.19374 78.8495 9.43755 81.9211 12.6479C83.48 14.2772 84.9252 16.1765 86.0097 18.3205C86.0351 18.0084 86.0636 17.6943 86.0953 17.3795C86.4023 14.331 87.0273 11.0747 88.2565 8.78751L89.8065 5.90359L90.7979 14.8426C91.3269 13.369 91.993 11.8262 92.8083 10.3421C94.7167 6.86846 97.541 3.54192 101.508 2.36767L101.649 2.32581H107.111L110.603 0.96521L111.343 2.86923C111.343 2.86908 111.343 2.86898 111.343 2.86923C111.337 2.87203 111.275 2.90197 111.166 3.00551C111.051 3.11491 110.904 3.28709 110.737 3.54369C110.402 4.05817 110.017 4.86344 109.654 6.05164ZM108.179 4.10186C108.014 4.50848 107.855 4.95836 107.704 5.45402C106.9 8.08668 106.283 12.1108 106.283 18.0564C106.283 23.8424 105.379 27.6019 104.311 29.934C103.224 32.3084 102.033 33.0789 101.541 33.2068L101.092 33.3234L96.8184 41.887C96.5652 40.994 96.3053 39.8294 96.0861 38.3742C95.6255 35.3166 95.3551 31.0469 95.6778 25.4701C96.3181 14.4035 100.601 9.0726 102.366 7.87219C102.367 7.87154 102.368 7.8709 102.369 7.87025L107.776 4.25894L108.179 4.10186ZM103.935 4.36874L101.228 6.17675L101.225 6.17887C98.774 7.84238 94.3064 13.8704 93.6421 25.3519C93.3122 31.0521 93.5856 35.4648 94.0698 38.6791C94.3351 40.4401 94.6671 41.8641 95.0077 42.9514L69.8704 36.8852L71.4066 22.2642L73.2529 8.57543C75.3632 9.71486 78.0749 11.5802 80.449 14.0616C83.3215 17.0638 85.6248 20.8864 85.8867 25.3486C85.8888 25.3891 85.891 25.4291 85.8932 25.4687L87.9294 25.3591C87.9273 25.3177 87.9251 25.2763 87.9227 25.2351C87.8284 23.4453 87.826 20.5454 88.1241 17.5845C88.2477 16.3573 88.4209 15.1425 88.6532 14.0042L89.3644 20.4164L91.3826 20.4762C91.7748 18.184 92.8032 14.5881 94.5947 11.3272C96.3718 8.0924 98.8043 5.35652 101.949 4.36874H103.935Z" fill="black"/>
<path d="M116.887 94.8708C120.455 93.4413 120.557 92.4192 120.557 90.3763L93.1187 76.361H77.6212C74.1547 76.4291 65.9573 74.1546 60.9003 64.512C55.8432 54.8693 54.4888 47.8833 50.6145 47.0661H44.2932L36.5444 50.9477C36.4765 41.4821 27.3349 51.1062 32.874 70.3555C39.3992 93.0321 49.685 93.4407 62.4415 92.4192C75.198 91.3978 72.2294 90.3763 87.1151 90.3763C97.0249 90.3763 111.585 96.9946 116.887 94.8708Z" fill="#B85F9B"/>
<path fill-rule="evenodd" clip-rule="evenodd" d="M44.0525 46.0446H50.7206L50.8245 46.0665C52.0939 46.3343 53.0918 47.1013 53.9345 48.1344C54.7662 49.1541 55.4993 50.4974 56.234 52.0395C56.7629 53.1497 57.2948 54.3637 57.8715 55.6801C58.9394 58.1179 60.1612 60.9066 61.8028 64.0369C66.6666 73.3109 74.49 75.4008 77.6012 75.3397L77.6112 75.3395H93.3636L121.577 89.7505V90.3763C121.577 91.3592 121.576 92.4442 120.901 93.4309C120.246 94.3889 119.075 95.0941 117.265 95.8192C115.672 96.4575 113.533 96.4004 111.248 96.0759C108.923 95.7455 106.248 95.1043 103.481 94.4109C103.039 94.3001 102.595 94.1881 102.15 94.0757C96.9446 92.7627 91.5339 91.3978 87.1151 91.3978C79.6977 91.3978 76.7703 91.6523 74.1221 92.0262C73.5426 92.108 72.9717 92.1963 72.3682 92.2897C70.1771 92.6288 67.5551 93.0345 62.5227 93.4375C56.1647 93.9466 50.1055 94.1441 44.8209 91.1643C39.5002 88.1641 35.1887 82.0872 31.8943 70.6385C29.0776 60.8498 29.9512 53.3745 31.6741 49.4705C32.1052 48.4935 32.6123 47.6886 33.1737 47.1291C33.7123 46.5923 34.4645 46.1301 35.3282 46.2719C36.2231 46.4188 36.7771 47.1323 37.0845 47.8896C37.2528 48.3042 37.3759 48.7928 37.4553 49.3493L44.0525 46.0446ZM44.5338 48.0876L35.5367 52.5945L35.5249 50.955C35.5169 49.837 35.3731 49.0966 35.1956 48.6592C35.1062 48.4391 35.03 48.3408 34.9885 48.3C34.932 48.3202 34.807 48.3828 34.6118 48.5774C34.29 48.8981 33.9087 49.459 33.5391 50.2966C32.059 53.6505 31.1313 60.6119 33.8537 70.0726C37.0845 81.3004 41.1785 86.7662 45.8211 89.384C50.4999 92.0222 55.9618 91.9134 62.3603 91.401C67.3124 91.0045 69.8583 90.6107 72.0433 90.2727C72.6547 90.1781 73.2379 90.0879 73.8376 90.0032C76.6156 89.611 79.6467 89.3548 87.1151 89.3548C91.803 89.3548 97.4629 90.7846 102.595 92.0811C103.06 92.1986 103.521 92.3149 103.976 92.4291C106.752 93.1247 109.329 93.7399 111.535 94.0532C113.781 94.3722 115.45 94.346 116.508 93.9223C118.266 93.2179 118.931 92.6974 119.219 92.2762C119.428 91.9709 119.504 91.6321 119.528 90.9974L92.8737 77.3824H77.6309C73.8039 77.4529 65.2434 74.9894 59.9977 64.9871C58.332 61.811 57.0375 58.8599 55.9473 56.3746C55.3823 55.0866 54.8722 53.9237 54.3937 52.9195C53.6734 51.4076 53.0254 50.2485 52.3555 49.4271C51.7278 48.6575 51.1316 48.2466 50.4993 48.0876H44.5338ZM34.9548 48.2741C34.9549 48.2737 34.9579 48.275 34.9634 48.2787C34.9574 48.2763 34.9547 48.2744 34.9548 48.2741Z" fill="#B85F9B"/>
<path fill-rule="evenodd" clip-rule="evenodd" d="M44.0525 46.0446H50.7206L50.8245 46.0665C52.0939 46.3343 53.0918 47.1013 53.9345 48.1344C54.7662 49.1541 55.4993 50.4974 56.234 52.0395C56.7629 53.1497 57.2948 54.3637 57.8715 55.6801C58.9394 58.1179 60.1612 60.9066 61.8028 64.0369C66.6666 73.3109 74.49 75.4008 77.6012 75.3397L77.6112 75.3395H93.3636L121.577 89.7505V90.3763C121.577 91.3592 121.576 92.4442 120.901 93.4309C120.246 94.3889 119.075 95.0941 117.265 95.8192C115.672 96.4575 113.533 96.4004 111.248 96.0759C108.923 95.7455 106.248 95.1043 103.481 94.4109C103.039 94.3001 102.595 94.1881 102.15 94.0757C96.9446 92.7627 91.5339 91.3978 87.1151 91.3978C79.6977 91.3978 76.7703 91.6523 74.1221 92.0262C73.5426 92.108 72.9717 92.1963 72.3682 92.2897C70.1771 92.6288 67.5551 93.0345 62.5227 93.4375C56.1647 93.9466 50.1055 94.1441 44.8209 91.1643C39.5002 88.1641 35.1887 82.0872 31.8943 70.6385C29.0776 60.8498 29.9512 53.3745 31.6741 49.4705C32.1052 48.4935 32.6123 47.6886 33.1737 47.1291C33.7123 46.5923 34.4645 46.1301 35.3282 46.2719C36.2231 46.4188 36.7771 47.1323 37.0845 47.8896C37.2528 48.3042 37.3759 48.7928 37.4553 49.3493L44.0525 46.0446ZM44.5338 48.0876L35.5367 52.5945L35.5249 50.955C35.5169 49.837 35.3731 49.0966 35.1956 48.6592C35.1062 48.4391 35.03 48.3408 34.9885 48.3C34.932 48.3202 34.807 48.3828 34.6118 48.5774C34.29 48.8981 33.9087 49.459 33.5391 50.2966C32.059 53.6505 31.1313 60.6119 33.8537 70.0726C37.0845 81.3004 41.1785 86.7662 45.8211 89.384C50.4999 92.0222 55.9618 91.9134 62.3603 91.401C67.3124 91.0045 69.8583 90.6107 72.0433 90.2727C72.6547 90.1781 73.2379 90.0879 73.8376 90.0032C76.6156 89.611 79.6467 89.3548 87.1151 89.3548C91.803 89.3548 97.4629 90.7846 102.595 92.0811C103.06 92.1986 103.521 92.3149 103.976 92.4291C106.752 93.1247 109.329 93.7399 111.535 94.0532C113.781 94.3722 115.45 94.346 116.508 93.9223C118.266 93.2179 118.931 92.6974 119.219 92.2762C119.428 91.9709 119.504 91.6321 119.528 90.9974L92.8737 77.3824H77.6309C73.8039 77.4529 65.2434 74.9894 59.9977 64.9871C58.332 61.811 57.0375 58.8599 55.9473 56.3746C55.3823 55.0866 54.8722 53.9237 54.3937 52.9195C53.6734 51.4076 53.0254 50.2485 52.3555 49.4271C51.7278 48.6575 51.1316 48.2466 50.4993 48.0876H44.5338ZM34.9548 48.2741C34.9549 48.2737 34.9579 48.275 34.9634 48.2787C34.9574 48.2763 34.9547 48.2744 34.9548 48.2741Z" fill="black"/>
<path d="M34.5448 14.4192C45.8616 17.3082 50.3308 23.5438 50.6703 33.2456C50.849 38.3498 49.1519 49.7322 45.6772 46.6364L44.6016 40.8107L42.4017 49.1132L40.6447 35.1035C39.5888 41.7397 33.2315 44.372 36.3713 51.2695L34.8263 53.0102C22.8579 53.566 28.9591 40.6538 26.5555 44.1549C23.6138 48.4397 26.2332 58.1344 31.6088 62.54L37.1501 55.4881C48.0702 49.8634 67.7718 44.3287 68.1056 38.9482C68.4395 33.5678 65.2715 26.5924 63.6457 23.7773C59.7676 19.9945 49.9901 12.2633 41.9046 11.601C25.8799 7.92228 12.2748 16.2265 5.66527 20.8622C13.5535 15.6907 26.8499 12.4547 34.5448 14.4192Z" fill="#B85F9B"/>
<path d="M2.05361 23.7643C16.7744 48.4605 9.36119 57.7291 31.6088 62.54C26.2332 58.1344 23.6138 48.4397 26.5555 44.1549C28.9591 40.6538 22.8579 53.566 34.8263 53.0102L36.3713 51.2695C33.2315 44.372 39.5888 41.7397 40.6447 35.1035L42.4017 49.1132L44.6016 40.8107L45.6772 46.6364C49.1519 49.7322 50.849 38.3498 50.6703 33.2456C50.3308 23.5438 45.8616 17.3082 34.5448 14.4192C26.8499 12.4547 13.5535 15.6907 5.66527 20.8622C4.27262 21.7753 3.04854 22.7486 2.05361 23.7643Z" fill="#483E7E"/>
<path fill-rule="evenodd" clip-rule="evenodd" d="M22.4951 13.4532C26.9839 12.6656 31.371 12.5548 34.7965 13.4293C40.5889 14.9081 44.7563 17.276 47.5111 20.6284C50.2696 23.9851 51.5143 28.2102 51.6893 33.2098C51.7819 35.8549 51.3931 40.0792 50.528 43.2828C50.1047 44.85 49.5232 46.35 48.7032 47.2546C48.2769 47.7248 47.6982 48.1301 46.9636 48.1785C46.2225 48.2273 45.5587 47.8978 44.9997 47.3997L44.7382 47.1668L44.4237 45.4633L43.3872 49.3753L41.3901 49.2406L40.1785 39.5798C39.699 40.5149 39.1709 41.3697 38.6791 42.1656C38.3723 42.6623 38.0796 43.1361 37.8217 43.592C37.1826 44.7222 36.7231 45.7701 36.577 46.8983C36.4335 48.0069 36.583 49.273 37.299 50.8457L37.5745 51.4511L35.3027 54.0106L34.8735 54.0305C31.7079 54.1776 29.5391 53.4401 28.1259 52.1143C27.169 51.2165 26.6383 50.1228 26.3508 49.0457C26.366 50.277 26.5636 51.6308 26.9466 53.0324C27.766 56.0315 29.3725 59.002 31.4785 61.0545L36.4864 54.6814L36.684 54.5797C40.2317 52.7523 44.7364 50.9177 49.1614 49.1156C51.5854 48.1285 53.9854 47.151 56.1911 46.1899C59.349 44.8138 62.1158 43.4706 64.1025 42.1586C65.0961 41.5025 65.8526 40.8811 66.3605 40.3001C66.872 39.7149 67.0656 39.247 67.088 38.8849C67.2427 36.3922 66.5831 33.4527 65.6467 30.734C64.743 28.1101 63.6136 25.7831 62.833 24.4106C60.9227 22.5627 57.6146 19.7866 53.8092 17.3831C49.9129 14.9221 45.6164 12.9299 41.8216 12.619L41.7484 12.6131L41.6769 12.5966C34.6889 10.9925 28.162 11.7327 22.4951 13.4532ZM28.4687 60.719C24.8144 59.7003 22.2238 58.5116 20.273 57.0971C17.7961 55.3012 16.2724 53.0844 14.9343 50.181C14.092 48.3533 13.351 46.3249 12.4964 43.9853C11.9609 42.5193 11.3807 40.9311 10.703 39.1934C9.03043 34.905 6.81801 29.8679 3.34065 23.937C4.16492 23.1749 5.13438 22.431 6.22355 21.717C10.0457 19.2111 15.2237 17.1495 20.4052 15.9604C25.6044 14.7672 30.6698 14.484 34.293 15.409C39.8174 16.8193 43.543 19.0137 45.9369 21.9269C48.3271 24.8356 49.4868 28.5792 49.6514 33.2814C49.7375 35.7404 49.367 39.7594 48.5596 42.7492C48.1466 44.2786 47.6635 45.3628 47.1936 45.8812C46.9749 46.1224 46.8524 46.1384 46.8298 46.1399C46.819 46.1406 46.7478 46.1445 46.6082 46.0629L45.6042 40.6249L43.6162 40.5486L42.7603 43.7788L41.6563 34.9761L39.6378 34.9427C39.2607 37.3132 38.1789 39.0724 37.0507 40.9071C36.7146 41.4537 36.3744 42.0069 36.0475 42.585C35.3578 43.8047 34.7507 45.1228 34.5548 46.6355C34.3786 47.9968 34.543 49.4507 35.1807 51.0737L34.3552 52.0037C31.8025 52.0517 30.3585 51.41 29.5197 50.6231C28.6229 49.7817 28.2416 48.6104 28.1186 47.3765C28.0184 46.3708 28.096 45.4394 28.1572 44.705C28.1721 44.5269 28.186 44.3604 28.1961 44.2073C28.2078 44.0311 28.2185 43.8153 28.2009 43.6252C28.1927 43.537 28.172 43.3685 28.0938 43.1905C28.013 43.0065 27.788 42.6447 27.3052 42.5504C26.8885 42.469 26.5762 42.6543 26.4693 42.7247C26.3362 42.8123 26.2327 42.9159 26.1641 42.9903C26.0218 43.1446 25.8708 43.3496 25.7154 43.576C23.9894 46.0901 23.9921 49.9573 24.9798 53.5719C25.6638 56.0753 26.8585 58.6095 28.4687 60.719ZM5.09355 20.0163C11.7293 15.3638 25.6217 6.84867 42.0616 10.5891C46.3314 10.9597 50.9362 13.1534 54.8967 15.6549C58.9026 18.1851 62.3721 21.1093 64.357 23.0454L64.4578 23.1437L64.5282 23.2657C65.372 24.7269 66.5984 27.234 67.5743 30.0675C68.5449 32.8854 69.3024 36.1238 69.1232 39.0116C69.0623 39.9946 68.5671 40.8766 67.8946 41.646C67.2185 42.4194 66.2958 43.1571 65.2247 43.8644C63.0822 45.2792 60.1786 46.6801 57.0044 48.0633C54.6916 49.0711 52.2372 50.0701 49.7896 51.0662C45.5124 52.8071 41.2561 54.5394 37.8132 56.2956L32.0161 63.6731L31.3937 63.5385C25.7672 62.3218 21.9036 60.8014 19.0774 58.7521C16.2271 56.6854 14.5126 54.1395 13.083 51.0374C12.2113 49.146 11.4182 46.9776 10.5357 44.5646C10.0033 43.1087 9.43823 41.5638 8.80372 39.937C7.0959 35.5582 4.82258 30.4019 1.17825 24.288L0.774902 23.6114L1.32591 23.0489C2.38009 21.9727 3.66008 20.9572 5.09355 20.0163Z" fill="#B85F9B"/>
<path fill-rule="evenodd" clip-rule="evenodd" d="M22.4951 13.4532C26.9839 12.6656 31.371 12.5548 34.7965 13.4293C40.5889 14.9081 44.7563 17.276 47.5111 20.6284C50.2696 23.9851 51.5143 28.2102 51.6893 33.2098C51.7819 35.8549 51.3931 40.0792 50.528 43.2828C50.1047 44.85 49.5232 46.35 48.7032 47.2546C48.2769 47.7248 47.6982 48.1301 46.9636 48.1785C46.2225 48.2273 45.5587 47.8978 44.9997 47.3997L44.7382 47.1668L44.4237 45.4633L43.3872 49.3753L41.3901 49.2406L40.1785 39.5798C39.699 40.5149 39.1709 41.3697 38.6791 42.1656C38.3723 42.6623 38.0796 43.1361 37.8217 43.592C37.1826 44.7222 36.7231 45.7701 36.577 46.8983C36.4335 48.0069 36.583 49.273 37.299 50.8457L37.5745 51.4511L35.3027 54.0106L34.8735 54.0305C31.7079 54.1776 29.5391 53.4401 28.1259 52.1143C27.169 51.2165 26.6383 50.1228 26.3508 49.0457C26.366 50.277 26.5636 51.6308 26.9466 53.0324C27.766 56.0315 29.3725 59.002 31.4785 61.0545L36.4864 54.6814L36.684 54.5797C40.2317 52.7523 44.7364 50.9177 49.1614 49.1156C51.5854 48.1285 53.9854 47.151 56.1911 46.1899C59.349 44.8138 62.1158 43.4706 64.1025 42.1586C65.0961 41.5025 65.8526 40.8811 66.3605 40.3001C66.872 39.7149 67.0656 39.247 67.088 38.8849C67.2427 36.3922 66.5831 33.4527 65.6467 30.734C64.743 28.1101 63.6136 25.7831 62.833 24.4106C60.9227 22.5627 57.6146 19.7866 53.8092 17.3831C49.9129 14.9221 45.6164 12.9299 41.8216 12.619L41.7484 12.6131L41.6769 12.5966C34.6889 10.9925 28.162 11.7327 22.4951 13.4532ZM28.4687 60.719C24.8144 59.7003 22.2238 58.5116 20.273 57.0971C17.7961 55.3012 16.2724 53.0844 14.9343 50.181C14.092 48.3533 13.351 46.3249 12.4964 43.9853C11.9609 42.5193 11.3807 40.9311 10.703 39.1934C9.03043 34.905 6.81801 29.8679 3.34065 23.937C4.16492 23.1749 5.13438 22.431 6.22355 21.717C10.0457 19.2111 15.2237 17.1495 20.4052 15.9604C25.6044 14.7672 30.6698 14.484 34.293 15.409C39.8174 16.8193 43.543 19.0137 45.9369 21.9269C48.3271 24.8356 49.4868 28.5792 49.6514 33.2814C49.7375 35.7404 49.367 39.7594 48.5596 42.7492C48.1466 44.2786 47.6635 45.3628 47.1936 45.8812C46.9749 46.1224 46.8524 46.1384 46.8298 46.1399C46.819 46.1406 46.7478 46.1445 46.6082 46.0629L45.6042 40.6249L43.6162 40.5486L42.7603 43.7788L41.6563 34.9761L39.6378 34.9427C39.2607 37.3132 38.1789 39.0724 37.0507 40.9071C36.7146 41.4537 36.3744 42.0069 36.0475 42.585C35.3578 43.8047 34.7507 45.1228 34.5548 46.6355C34.3786 47.9968 34.543 49.4507 35.1807 51.0737L34.3552 52.0037C31.8025 52.0517 30.3585 51.41 29.5197 50.6231C28.6229 49.7817 28.2416 48.6104 28.1186 47.3765C28.0184 46.3708 28.096 45.4394 28.1572 44.705C28.1721 44.5269 28.186 44.3604 28.1961 44.2073C28.2078 44.0311 28.2185 43.8153 28.2009 43.6252C28.1927 43.537 28.172 43.3685 28.0938 43.1905C28.013 43.0065 27.788 42.6447 27.3052 42.5504C26.8885 42.469 26.5762 42.6543 26.4693 42.7247C26.3362 42.8123 26.2327 42.9159 26.1641 42.9903C26.0218 43.1446 25.8708 43.3496 25.7154 43.576C23.9894 46.0901 23.9921 49.9573 24.9798 53.5719C25.6638 56.0753 26.8585 58.6095 28.4687 60.719ZM5.09355 20.0163C11.7293 15.3638 25.6217 6.84867 42.0616 10.5891C46.3314 10.9597 50.9362 13.1534 54.8967 15.6549C58.9026 18.1851 62.3721 21.1093 64.357 23.0454L64.4578 23.1437L64.5282 23.2657C65.372 24.7269 66.5984 27.234 67.5743 30.0675C68.5449 32.8854 69.3024 36.1238 69.1232 39.0116C69.0623 39.9946 68.5671 40.8766 67.8946 41.646C67.2185 42.4194 66.2958 43.1571 65.2247 43.8644C63.0822 45.2792 60.1786 46.6801 57.0044 48.0633C54.6916 49.0711 52.2372 50.0701 49.7896 51.0662C45.5124 52.8071 41.2561 54.5394 37.8132 56.2956L32.0161 63.6731L31.3937 63.5385C25.7672 62.3218 21.9036 60.8014 19.0774 58.7521C16.2271 56.6854 14.5126 54.1395 13.083 51.0374C12.2113 49.146 11.4182 46.9776 10.5357 44.5646C10.0033 43.1087 9.43823 41.5638 8.80372 39.937C7.0959 35.5582 4.82258 30.4019 1.17825 24.288L0.774902 23.6114L1.32591 23.0489C2.38009 21.9727 3.66008 20.9572 5.09355 20.0163Z" fill="black"/>
<path d="M109.953 55.5475L108.73 60.7538C107.888 63.7074 108.495 65.499 109.953 68.462C114.032 66.5684 115.872 67.4955 118.518 62.1838C121.163 56.8722 115.872 55.5475 114.236 52.9906C112.926 50.945 110.835 53.8429 109.953 55.5475Z" fill="#C73C3C"/>
<path fill-rule="evenodd" clip-rule="evenodd" d="M79.7332 11.3147C80.6275 11.3681 80.1564 11.5877 78.9993 11.9292C79.2351 11.6623 79.4815 11.4526 79.7332 11.3147Z" fill="#810000"/>
<path d="M120.353 83.0218C117.114 77.5058 114.236 79.9574 114.236 79.9574C111.287 79.701 109.601 82.6304 108.465 84.6053C108.096 85.2471 107.784 85.7881 107.506 86.0862L116.683 91.1935C120.965 88.742 121.615 85.1712 120.353 83.0218Z" fill="#483E7E"/>
<path d="M74.1236 56.6348C77.6825 57.3838 82.2381 59.0863 83.9739 64.8065C85.7097 70.5267 80.7548 71.6844 78.876 71.9568C75.308 72.774 70.5156 71.9568 65.4177 68.8924C59.3562 65.2487 62.8073 61.4679 65.4177 59.2906C69.0915 56.2262 72.4243 57.3157 74.1236 56.6348Z" fill="#C73C3C"/>
<path fill-rule="evenodd" clip-rule="evenodd" d="M68.7809 15.3759C60.2863 21.1531 55.7073 31.5204 55.3984 35.9715L51.0223 46.8618L43.6814 52.582L57.1397 79.9574L76.3077 77.0973C88.9503 78.323 89.9699 86.0862 96.699 91.1935C100.543 94.1114 103.523 96.1624 106.283 96.9275C108.354 97.5017 110.302 97.3518 112.4 96.3008C113.12 95.9405 113.726 95.5701 114.236 95.1999C114.964 94.6709 115.494 94.1425 115.872 93.645C116.671 92.5957 116.796 91.6837 116.683 91.1935L107.506 86.0862C107.784 85.7881 108.096 85.2471 108.465 84.6053C109.601 82.6304 111.287 79.701 114.236 79.9574C114.043 74.7775 107.604 75.9904 104.244 70.3556C100.044 63.312 102.412 59.702 101.325 55.5475C100.697 53.1493 106.429 42.6291 103.45 39.5361C102.3 38.3426 100.766 35.5217 98.9421 34.8085C104.28 29.498 114.032 36.2758 106.283 30.1947C96.7359 22.702 82.8193 30.0934 87.2685 27.4777C90.8279 25.3852 90.8441 20.429 91.7532 17.173C91.2231 13.7557 91.1836 12.0498 91.2053 11.427C91.0644 12.3203 90.2985 15.1006 86.8741 16.7913C80.0671 20.1522 83.3731 23.864 78.876 22.3131C75.642 21.1978 76.9024 14.3026 78.9993 11.9292C76.5145 12.6626 70.8657 13.958 68.7809 15.3759ZM83.9739 64.8065C82.2381 59.0863 77.6825 57.3838 74.1236 56.6348C72.4243 57.3157 69.0915 56.2262 65.4177 59.2906C62.8073 61.4679 59.3562 65.2487 65.4177 68.8924C70.5156 71.9568 75.308 72.774 78.876 71.9568C80.7548 71.6844 85.7097 70.5267 83.9739 64.8065Z" fill="#B85F9B"/>
<path d="M116.683 93.303V103.247H118.518L120.353 99.7738C120.697 99.1098 121.335 96.4641 121.136 91.1935C120.071 91.9663 118.58 92.5146 116.683 93.303Z" fill="#FFF2AD"/>
<path d="M112.4 96.3008C110.302 97.3518 108.354 97.5017 106.283 96.9275C107.099 98.1487 108.73 102.103 108.73 108.15L111.177 109.171L114.236 105.698V95.1999C113.726 95.5701 113.12 95.9405 112.4 96.3008Z" fill="#FFF2AD"/>
<path d="M74.1236 56.6348C77.6825 57.3838 82.2381 59.0863 83.9739 64.8065C85.7097 70.5267 80.7548 71.6844 78.876 71.9568C75.308 72.774 70.5156 71.9568 65.4177 68.8924C59.3562 65.2487 62.8073 61.4679 65.4177 59.2906C69.0915 56.2262 72.4243 57.3157 74.1236 56.6348Z" fill="#C73C3C"/>
<path fill-rule="evenodd" clip-rule="evenodd" d="M79.5012 10.2776L79.7938 10.2951C79.9248 10.3029 80.0544 10.3149 80.1737 10.3349C80.2708 10.3511 80.4526 10.3862 80.6326 10.4809C80.7247 10.5294 80.891 10.6316 81.0265 10.8247C81.185 11.0507 81.2585 11.3432 81.199 11.6423C81.1478 11.8995 81.016 12.0723 80.9389 12.1584C80.8563 12.2507 80.7722 12.3148 80.7151 12.3543C80.5174 12.4911 80.2608 12.5902 80.0727 12.6579C79.9301 12.7092 79.7675 12.7626 79.5903 12.8176C78.8031 13.8555 78.1058 15.79 77.9548 17.6746C77.8752 18.6687 77.9575 19.55 78.1946 20.2059C78.425 20.8429 78.7681 21.1956 79.2079 21.3472C80.3372 21.7367 80.6302 21.6527 80.6672 21.637L80.6681 21.6366C80.6901 21.6274 80.7615 21.5973 81.1003 20.9307L81.1216 20.8886C81.4166 20.3077 81.8324 19.4889 82.6283 18.6056C83.4438 17.7005 84.6223 16.7643 86.4234 15.8751C89.3799 14.4153 90.0568 12.0745 90.1891 11.3221C90.1891 11.322 90.1891 11.3221 90.1891 11.3221C90.1925 11.3029 90.1955 11.2847 90.1982 11.2676C90.1989 11.2635 90.1995 11.2595 90.2001 11.2555C90.2091 11.1968 90.2129 11.159 90.2141 11.1433C90.2144 11.1392 90.2144 11.138 90.2143 11.1394C90.2143 11.1405 90.2141 11.1433 90.214 11.1477C90.2139 11.1534 90.2137 11.1626 90.2139 11.1746C90.2139 11.1757 90.2139 11.1769 90.214 11.1783C90.2142 11.1903 90.2148 11.2073 90.2164 11.2276C90.2164 11.2276 90.2164 11.2276 90.2164 11.2276C90.2164 11.2281 90.2164 11.2286 90.2165 11.2291C90.2167 11.232 90.2169 11.235 90.2172 11.238C90.2179 11.2455 90.2189 11.2568 90.2207 11.2711L92.1522 11.5769C92.1446 11.5931 92.1362 11.61 92.1269 11.6273C92.1171 11.6455 92.1058 11.6652 92.0928 11.6858C92.0859 11.6969 92.0765 11.7115 92.0643 11.7288C92.0925 11.6888 92.1102 11.6574 92.1188 11.6421C92.1216 11.6371 92.1242 11.6322 92.1269 11.6273C92.1369 11.6087 92.1452 11.5917 92.1522 11.5769C92.1633 11.5532 92.1726 11.531 92.1802 11.5113C92.1869 11.4939 92.1927 11.4772 92.1977 11.4618C92.2032 11.4448 92.2078 11.4294 92.2115 11.4158C92.218 11.3917 92.2223 11.3722 92.2248 11.3604C92.2252 11.3583 92.2256 11.3564 92.2259 11.3548C92.2304 11.3319 92.2304 11.3328 92.2287 11.3636C92.2281 11.3752 92.2273 11.3909 92.2263 11.4112M92.2124 11.5864C92.1026 12.2821 91.7032 13.793 90.4584 15.2864C90.5263 15.8328 90.61 16.4405 90.7126 17.1145C90.52 17.8471 90.366 18.6449 90.2148 19.4288C90.1994 19.5087 90.184 19.5884 90.1686 19.6679C89.9833 20.6248 89.7928 21.5708 89.5269 22.4722C88.9935 24.2809 88.2034 25.7438 86.7525 26.5968C86.4746 26.7601 86.2499 26.8952 86.0878 27.0009C86.0086 27.0525 85.924 27.1102 85.849 27.1698C85.812 27.1993 85.7602 27.2425 85.7073 27.297C85.6698 27.3356 85.5562 27.4544 85.478 27.6391C85.3852 27.8582 85.2939 28.3371 85.6638 28.7443C85.9217 29.0282 86.2418 29.0699 86.3075 29.0785L86.3093 29.0787C86.4898 29.1023 86.6555 29.0757 86.7097 29.067L86.7136 29.0664C86.8678 29.0417 87.0694 28.9927 87.2679 28.9429C87.3641 28.9187 87.4698 28.8917 87.5844 28.8624C88.4739 28.635 89.9034 28.2695 91.6701 28.0187C95.6888 27.4483 101.208 27.5095 105.654 30.9988C105.956 31.2357 106.229 31.4516 106.476 31.6481C104.203 31.4513 100.788 31.5325 98.2237 34.0836L97.1122 35.1894L98.5714 35.76C99.2044 36.0076 99.8963 36.6856 100.653 37.6312C100.931 37.9781 101.194 38.3297 101.456 38.6796C101.538 38.7898 101.62 38.8998 101.703 39.0095C102.034 39.4497 102.38 39.8967 102.716 40.2455C103.145 40.6908 103.373 41.5414 103.269 42.9295C103.169 44.2737 102.779 45.8666 102.292 47.5118C102.05 48.3282 101.789 49.1413 101.536 49.9304L101.518 49.9875C101.273 50.7518 101.033 51.4971 100.833 52.1809C100.628 52.8785 100.454 53.5421 100.354 54.1228C100.258 54.6707 100.201 55.282 100.339 55.8066C100.578 56.7208 100.633 57.624 100.629 58.62C100.628 58.9584 100.62 59.3262 100.61 59.7123C100.594 60.4041 100.576 61.1544 100.598 61.8987C100.671 64.355 101.17 67.1919 103.369 70.8795C105.098 73.7795 107.591 75.0382 109.547 76.0258C109.69 76.0975 109.829 76.1678 109.965 76.2372C111.002 76.767 111.785 77.2106 112.335 77.777C112.654 78.1049 112.907 78.4868 113.059 78.9875C111.782 79.2025 110.753 79.9056 109.945 80.7275C108.92 81.7686 108.16 83.0891 107.605 84.0538L107.582 84.0951C107.183 84.7886 106.939 85.1985 106.761 85.389L105.871 86.3443L115.67 91.7983C115.613 92.0822 115.457 92.5061 115.062 93.0257C114.75 93.4349 114.294 93.8954 113.637 94.373C113.177 94.7073 112.619 95.0493 111.944 95.3872C110.073 96.3245 108.385 96.4502 106.555 95.943C104.014 95.2387 101.187 93.318 97.3147 90.3793C95.7212 89.1699 94.4525 87.7938 93.2297 86.3483C92.9135 85.9745 92.5971 85.5918 92.2775 85.2052C91.3816 84.1215 90.4605 83.0074 89.4486 81.9744C86.6182 79.0847 82.9849 76.7184 76.4059 76.0805L76.2813 76.0685L57.7256 78.8372L44.9631 52.8773L51.8654 47.4989L56.4044 36.2033L56.4156 36.0423C56.5551 34.0316 57.6984 30.482 59.9015 26.6842C62.0913 22.9095 65.2637 19.0025 69.3535 16.2211C70.2447 15.615 72.0241 14.9747 74.0316 14.3747C74.9919 14.0877 75.9669 13.8202 76.8639 13.5773M78.4493 11.0254C77.9803 11.1597 77.4177 11.3117 76.7897 11.4813C76.6566 11.5173 76.5204 11.5541 76.3817 11.5916C75.4691 11.8386 74.454 12.1165 73.4486 12.417C71.4893 13.0026 69.402 13.7189 68.2082 14.5308C63.8034 17.5265 60.4391 21.6918 58.1385 25.6577C55.9023 29.5126 54.6092 33.2878 54.3944 35.735L50.1792 46.2247L42.3997 52.2867L56.5539 81.0775L76.333 78.1262C82.3166 78.7309 85.4881 80.8476 87.9932 83.4052C88.9401 84.3719 89.78 85.3878 90.658 86.4497C90.9887 86.8497 91.3248 87.2562 91.6741 87.6691C92.9301 89.1539 94.3123 90.6635 96.0834 92.0077C99.7324 94.7772 102.755 96.8927 105.617 97.7952C106.362 99.1318 107.71 102.733 107.71 108.15L107.71 108.831L111.459 110.395L115.255 106.085L115.255 95.7053C115.398 95.5904 115.534 95.475 115.663 95.3593V104.268H119.132L121.256 100.248L121.258 100.244C121.517 99.7452 121.779 98.7682 121.96 97.3397C122.133 95.9683 122.242 94.1008 122.173 91.674C123.032 90.929 123.627 89.9835 123.918 88.6721C124.241 87.2172 124.18 85.3513 123.808 82.8702C123.485 80.709 122.784 79.2378 121.768 78.2133C120.766 77.2027 119.558 76.7326 118.466 76.3835C118.217 76.3038 117.974 76.2295 117.737 76.1569C115.833 75.5752 114.318 75.1122 113.324 72.9864C112.672 71.5937 112.067 70.3958 111.545 69.3608C111.478 69.2291 111.413 69.1001 111.349 68.9737C111.922 68.7466 112.453 68.5681 112.962 68.3984C112.996 68.3871 113.03 68.3757 113.064 68.3644C113.798 68.1201 114.537 67.874 115.239 67.5134C116.797 66.7117 118.049 65.4126 119.43 62.6399C120.16 61.1738 120.394 59.8761 120.201 58.7003C120.009 57.5283 119.414 56.6105 118.736 55.8659C118.172 55.2462 117.499 54.6951 116.91 54.2127C116.81 54.1302 116.711 54.0497 116.617 53.9712C115.923 53.3977 115.406 52.9268 115.094 52.4392C114.63 51.7147 113.955 51.2435 113.111 51.2663C112.369 51.2864 111.734 51.6902 111.272 52.0861C110.327 52.8945 109.512 54.1817 109.048 55.0775L108.99 55.19L107.743 60.4966C107.291 62.0926 107.215 63.4362 107.478 64.7981C107.735 66.1316 108.307 67.4269 109.039 68.9137C109.26 69.3624 109.495 69.8281 109.745 70.3224C110.26 71.3436 110.838 72.4869 111.477 73.8535C111.708 74.3462 111.965 74.7771 112.243 75.1557C111.799 74.8864 111.339 74.6461 110.89 74.417C110.767 74.3539 110.643 74.2911 110.519 74.2283C108.538 73.2231 106.536 72.2076 105.119 69.8317C103.118 66.4757 102.7 63.9858 102.636 61.8376C102.615 61.133 102.631 60.5027 102.647 59.8602C102.657 59.4607 102.667 59.0565 102.669 58.6269C102.672 57.5575 102.615 56.4515 102.311 55.2884C102.291 55.2135 102.276 54.9714 102.363 54.4729C102.443 54.0072 102.591 53.4312 102.789 52.757C102.982 52.0983 103.215 51.3742 103.463 50.5992L103.477 50.5557C103.73 49.7691 103.997 48.9347 104.246 48.0929C104.741 46.4216 105.186 44.6547 105.303 43.0815C105.417 41.5523 105.244 39.9279 104.183 38.8268C103.944 38.5788 103.667 38.2257 103.331 37.779C103.257 37.6806 103.18 37.5781 103.101 37.4725C102.835 37.1176 102.545 36.7289 102.244 36.3532C101.805 35.8041 101.286 35.2049 100.693 34.7083C102.855 33.3409 105.528 33.568 107.392 33.804C107.471 33.8139 107.55 33.8242 107.629 33.8344C108.041 33.8878 108.451 33.9407 108.749 33.9479C108.893 33.9513 109.214 33.9559 109.513 33.8188C109.693 33.7362 109.946 33.5652 110.088 33.2415C110.229 32.9211 110.187 32.6221 110.131 32.4366C110.035 32.121 109.819 31.8724 109.692 31.7329C109.532 31.5588 109.325 31.3649 109.082 31.1522C108.595 30.7247 107.879 30.1498 106.912 29.3906C101.811 25.3872 95.5981 25.3978 91.3841 25.996C90.9189 26.062 90.4751 26.1356 90.0571 26.2126C90.7247 25.2349 91.1628 24.135 91.4825 23.0511C91.7793 22.0449 91.9857 21.0106 92.1704 20.057C92.1849 19.9819 92.1993 19.9075 92.2136 19.8336C92.3843 18.9501 92.5381 18.1536 92.7351 17.4482L92.7946 17.2349L92.7607 17.0161C92.326 14.214 92.2301 12.6074 92.2212 11.8312C92.2196 11.6974 92.2208 11.5943 92.2227 11.5179C92.2343 11.4361 92.2424 11.3626 92.2472 11.2995C92.2487 11.2796 92.2502 11.2579 92.2512 11.235C92.2522 11.2135 92.2529 11.1911 92.2529 11.1684C92.253 11.1614 92.253 11.1526 92.2528 11.1421C92.2527 11.1348 92.2525 11.1092 92.2496 11.0724C92.2493 11.0683 92.2489 11.064 92.2486 11.0597C92.2466 11.0372 92.2421 10.9926 92.2308 10.9378L92.2303 10.9353C92.2278 10.9222 92.2186 10.8757 92.1963 10.8113C92.1869 10.7837 92.175 10.7529 92.1603 10.7203C92.1404 10.6765 92.063 10.5054 91.8816 10.3547C91.7878 10.2766 91.6612 10.1995 91.4965 10.155C91.3102 10.1046 91.1399 10.1121 90.9946 10.1474C90.8406 10.1841 90.7208 10.2508 90.6388 10.3094C90.6369 10.3107 90.6351 10.312 90.6333 10.3133C90.6323 10.3141 90.6312 10.3148 90.6302 10.3155C90.6115 10.3292 90.5938 10.3431 90.5772 10.357C90.5147 10.4093 90.4666 10.4622 90.4312 10.5068C90.4195 10.5216 90.4091 10.5355 90.4001 10.5482C90.369 10.5917 90.3497 10.6259 90.3404 10.6425C90.3387 10.6455 90.3371 10.6485 90.3354 10.6515C90.3144 10.69 90.2998 10.7224 90.2907 10.7439C90.286 10.755 90.2816 10.766 90.2775 10.7767C90.26 10.8219 90.2506 10.8554 90.2473 10.8673L90.2468 10.869C90.2458 10.8725 90.2448 10.876 90.2439 10.8794C90.2345 10.9136 90.2296 10.9382 90.2279 10.9466L90.2275 10.9485C90.2266 10.9526 90.2258 10.9568 90.225 10.9609C90.2085 11.0463 90.1967 11.1656 90.1895 11.3141M92.2124 11.5864C92.216 11.5631 92.2195 11.5404 92.2226 11.5183ZM86.3923 27.049C86.3707 27.0524 86.3738 27.0507 86.3944 27.0486C86.3937 27.0488 86.393 27.0489 86.3923 27.049ZM114.352 77.0258C114.65 77.4573 114.883 77.9407 115.038 78.4882C115.362 78.4142 115.736 78.3738 116.149 78.402C117.737 78.5101 119.519 79.5858 121.232 82.5039C122.803 85.1794 121.882 89.1067 117.731 91.7527C117.731 91.7576 117.73 91.7625 117.73 91.7674C118.947 91.2646 119.847 90.8676 120.539 90.366C121.254 89.8474 121.703 89.2387 121.927 88.2289C122.167 87.1501 122.153 85.5872 121.792 83.1733C121.513 81.3091 120.948 80.2856 120.321 79.6529C119.68 79.0062 118.868 78.6564 117.846 78.3297C117.631 78.2608 117.406 78.1937 117.173 78.1243C116.288 77.8607 115.299 77.5657 114.352 77.0258ZM116.662 90.0135C120.147 87.7914 120.323 84.9858 119.474 83.5397C117.949 80.9418 116.672 80.4853 116.011 80.4402C115.651 80.4157 115.357 80.501 115.152 80.5929C115.05 80.6388 114.973 80.6848 114.927 80.7152C114.906 80.7296 114.892 80.74 114.885 80.7446C114.885 80.7449 114.885 80.7451 114.885 80.7453C114.882 80.7474 114.881 80.7479 114.883 80.7464L114.885 80.7453L114.572 81.0119L114.148 80.975C113.078 80.882 112.2 81.3453 111.397 82.1618C110.572 83.0001 109.928 84.1086 109.348 85.1154C109.332 85.1441 109.315 85.1729 109.298 85.2019C109.197 85.3787 109.092 85.5613 108.985 85.7405L116.662 90.0135ZM117.702 93.9877C117.768 93.9608 117.833 93.9341 117.898 93.9076C118.703 93.5787 119.465 93.2674 120.154 92.9352C120.161 94.6859 120.067 96.0558 119.937 97.0826C119.763 98.4536 119.536 99.1316 119.449 99.3008C119.449 99.3017 119.449 99.3025 119.448 99.3034L117.904 102.225H117.702V93.9877ZM110.448 67.1346C111.141 66.8538 111.763 66.6449 112.318 66.4599L112.352 66.4486C113.143 66.1851 113.748 65.9834 114.307 65.696C115.35 65.1599 116.341 64.2667 117.606 61.7278C118.198 60.538 118.295 59.6783 118.189 59.0319C118.082 58.3817 117.748 57.8126 117.229 57.2425C116.774 56.7426 116.234 56.2991 115.641 55.812C115.535 55.725 115.427 55.6366 115.318 55.5463C114.641 54.9864 113.884 54.3328 113.377 53.542C113.275 53.3818 113.201 53.3278 113.179 53.314C113.174 53.3111 113.171 53.3095 113.17 53.3088C113.167 53.3074 113.167 53.3085 113.166 53.3085C113.12 53.3098 112.931 53.3534 112.596 53.6394C111.977 54.1699 111.337 55.1192 110.916 55.9081L109.717 61.0113L109.71 61.0344C109.326 62.3817 109.286 63.4043 109.48 64.4107C109.639 65.2349 109.96 66.0844 110.448 67.1346ZM113.216 97.0289C113.099 97.0911 112.979 97.153 112.856 97.2145C111.231 98.0285 109.664 98.3585 108.077 98.2646C108.863 100.252 109.661 103.391 109.743 107.466L110.895 107.947L113.216 105.312V97.0289ZM78.4493 11.0254C78.687 10.7891 78.9517 10.5787 79.2441 10.4185L79.5012 10.2776M108.849 31.9054C108.858 31.9043 108.863 31.9041 108.864 31.9043C108.864 31.9044 108.859 31.905 108.849 31.9054ZM90.1821 11.8548C90.18 11.6668 90.1821 11.5134 90.1864 11.3913C90.1872 11.3674 90.1881 11.3444 90.1891 11.3221M91.8305 11.9671C91.8291 11.9681 91.8277 11.9691 91.8264 11.9701C91.7395 12.0327 91.616 12.0988 91.466 12.1351C91.4244 12.145 91.3804 12.1526 91.334 12.1574C91.1029 12.1809 90.8906 12.1235 90.7224 12.0265C90.6692 11.9958 90.6222 11.9624 90.5806 11.9278C90.4845 11.8478 90.4229 11.7666 90.39 11.7185C90.3296 11.63 90.2914 11.5428 90.268 11.4755C90.2567 11.4426 90.2488 11.4145 90.2435 11.3933C90.2412 11.3841 90.2393 11.3762 90.2379 11.3698M90.2337 11.3504C90.2338 11.3509 90.234 11.3517 90.2342 11.3527C90.2353 11.3586 90.2383 11.3728 90.2435 11.3933C90.2488 11.4145 90.2567 11.4426 90.268 11.4755C90.2772 11.5022 90.2887 11.5321 90.303 11.5638C90.3227 11.6071 90.3998 11.7777 90.5806 11.9278C90.6743 12.0059 90.8007 12.0829 90.9653 12.1274C91.1511 12.1776 91.321 12.1702 91.466 12.1351C91.6201 12.0985 91.74 12.0318 91.822 11.9732C91.8234 11.9722 91.8249 11.9711 91.8264 11.9701C91.8277 11.9691 91.8291 11.9681 91.8305 11.9671M70.6424 58.0818C69.2777 58.2594 67.7229 58.6969 66.0701 60.0756C64.7592 61.169 63.494 62.4743 63.1529 63.7971C62.9969 64.4022 63.0335 65.0167 63.3895 65.6738C63.761 66.3595 64.5195 67.1612 65.9423 68.0165C70.883 70.9864 75.406 71.7037 78.6488 70.961L78.6891 70.9518L78.73 70.9459C79.635 70.8146 81.1031 70.4867 82.1316 69.6366C82.6236 69.23 83.0042 68.713 83.1902 68.0298C83.3781 67.3398 83.3904 66.3956 82.9984 65.1036C81.4687 60.0627 77.5633 58.4424 74.184 57.6927C73.6761 57.8419 73.1294 57.8913 72.6322 57.9252C72.4661 57.9365 72.3015 57.9462 72.1366 57.956C71.6554 57.9844 71.1721 58.0129 70.6424 58.0818ZM72.4938 55.887C73.1085 55.8451 73.4865 55.7899 73.7449 55.6863L74.0313 55.5716L74.3332 55.6351C78.0124 56.4095 83.0483 58.2448 84.9493 64.5094C85.4252 66.0775 85.4691 67.4231 85.1574 68.5675C84.8439 69.7187 84.1938 70.5807 83.4292 71.2126C81.965 72.4226 80.0493 72.8158 79.0628 72.9618C75.1749 73.8379 70.1299 72.9162 64.8931 69.7683C63.2851 68.8017 62.202 67.7645 61.5973 66.6484C60.9772 65.5038 60.9032 64.3538 61.1786 63.2861C61.7003 61.2632 63.4659 59.5895 64.7653 58.5056C66.7863 56.8198 68.7348 56.2699 70.3798 56.0559C70.9877 55.9768 71.5722 55.9424 72.0671 55.9133C72.2183 55.9044 72.3612 55.896 72.4938 55.887Z" fill="#B85F9B"/>
<path fill-rule="evenodd" clip-rule="evenodd" d="M79.5012 10.2776L79.7938 10.2951C79.9248 10.3029 80.0544 10.3149 80.1737 10.3349C80.2708 10.3511 80.4526 10.3862 80.6326 10.4809C80.7247 10.5294 80.891 10.6316 81.0265 10.8247C81.185 11.0507 81.2585 11.3432 81.199 11.6423C81.1478 11.8995 81.016 12.0723 80.9389 12.1584C80.8563 12.2507 80.7722 12.3148 80.7151 12.3543C80.5174 12.4911 80.2608 12.5902 80.0727 12.6579C79.9301 12.7092 79.7675 12.7626 79.5903 12.8176C78.8031 13.8555 78.1058 15.79 77.9548 17.6746C77.8752 18.6687 77.9575 19.55 78.1946 20.2059C78.425 20.8429 78.7681 21.1956 79.2079 21.3472C80.3372 21.7367 80.6302 21.6527 80.6672 21.637L80.6681 21.6366C80.6901 21.6274 80.7615 21.5973 81.1003 20.9307L81.1216 20.8886C81.4166 20.3077 81.8324 19.4889 82.6283 18.6056C83.4438 17.7005 84.6223 16.7643 86.4234 15.8751C89.3799 14.4153 90.0568 12.0745 90.1891 11.3221C90.1891 11.322 90.1891 11.3221 90.1891 11.3221C90.1925 11.3029 90.1955 11.2847 90.1982 11.2676C90.1989 11.2635 90.1995 11.2595 90.2001 11.2555C90.2091 11.1968 90.2129 11.159 90.2141 11.1433C90.2144 11.1392 90.2144 11.138 90.2143 11.1394C90.2143 11.1405 90.2141 11.1433 90.214 11.1477C90.2139 11.1534 90.2137 11.1626 90.2139 11.1746C90.2139 11.1757 90.2139 11.1769 90.214 11.1783C90.2142 11.1903 90.2148 11.2073 90.2164 11.2276C90.2164 11.2276 90.2164 11.2276 90.2164 11.2276C90.2164 11.2281 90.2164 11.2286 90.2165 11.2291C90.2167 11.232 90.2169 11.235 90.2172 11.238C90.2179 11.2455 90.2189 11.2568 90.2207 11.2711L92.1522 11.5769C92.1446 11.5931 92.1362 11.61 92.1269 11.6273C92.1171 11.6455 92.1058 11.6652 92.0928 11.6858C92.0859 11.6969 92.0765 11.7115 92.0643 11.7288C92.0925 11.6888 92.1102 11.6574 92.1188 11.6421C92.1216 11.6371 92.1242 11.6322 92.1269 11.6273C92.1369 11.6087 92.1452 11.5917 92.1522 11.5769C92.1633 11.5532 92.1726 11.531 92.1802 11.5113C92.1869 11.4939 92.1927 11.4772 92.1977 11.4618C92.2032 11.4448 92.2078 11.4294 92.2115 11.4158C92.218 11.3917 92.2223 11.3722 92.2248 11.3604C92.2252 11.3583 92.2256 11.3564 92.2259 11.3548C92.2304 11.3319 92.2304 11.3328 92.2287 11.3636C92.2281 11.3752 92.2273 11.3909 92.2263 11.4112M92.2124 11.5864C92.1026 12.2821 91.7032 13.793 90.4584 15.2864C90.5263 15.8328 90.61 16.4405 90.7126 17.1145C90.52 17.8471 90.366 18.6449 90.2148 19.4288C90.1994 19.5087 90.184 19.5884 90.1686 19.6679C89.9833 20.6248 89.7928 21.5708 89.5269 22.4722C88.9935 24.2809 88.2034 25.7438 86.7525 26.5968C86.4746 26.7601 86.2499 26.8952 86.0878 27.0009C86.0086 27.0525 85.924 27.1102 85.849 27.1698C85.812 27.1993 85.7602 27.2425 85.7073 27.297C85.6698 27.3356 85.5562 27.4544 85.478 27.6391C85.3852 27.8582 85.2939 28.3371 85.6638 28.7443C85.9217 29.0282 86.2418 29.0699 86.3075 29.0785L86.3093 29.0787C86.4898 29.1023 86.6555 29.0757 86.7097 29.067L86.7136 29.0664C86.8678 29.0417 87.0694 28.9927 87.2679 28.9429C87.3641 28.9187 87.4698 28.8917 87.5844 28.8624C88.4739 28.635 89.9034 28.2695 91.6701 28.0187C95.6888 27.4483 101.208 27.5095 105.654 30.9988C105.956 31.2357 106.229 31.4516 106.476 31.6481C104.203 31.4513 100.788 31.5325 98.2237 34.0836L97.1122 35.1894L98.5714 35.76C99.2044 36.0076 99.8963 36.6856 100.653 37.6312C100.931 37.9781 101.194 38.3297 101.456 38.6796C101.538 38.7898 101.62 38.8998 101.703 39.0095C102.034 39.4497 102.38 39.8967 102.716 40.2455C103.145 40.6908 103.373 41.5414 103.269 42.9295C103.169 44.2737 102.779 45.8666 102.292 47.5118C102.05 48.3282 101.789 49.1413 101.536 49.9304L101.518 49.9875C101.273 50.7518 101.033 51.4971 100.833 52.1809C100.628 52.8785 100.454 53.5421 100.354 54.1228C100.258 54.6707 100.201 55.282 100.339 55.8066C100.578 56.7208 100.633 57.624 100.629 58.62C100.628 58.9584 100.62 59.3262 100.61 59.7123C100.594 60.4041 100.576 61.1544 100.598 61.8987C100.671 64.355 101.17 67.1919 103.369 70.8795C105.098 73.7795 107.591 75.0382 109.547 76.0258C109.69 76.0975 109.829 76.1678 109.965 76.2372C111.002 76.767 111.785 77.2106 112.335 77.777C112.654 78.1049 112.907 78.4868 113.059 78.9875C111.782 79.2025 110.753 79.9056 109.945 80.7275C108.92 81.7686 108.16 83.0891 107.605 84.0538L107.582 84.0951C107.183 84.7886 106.939 85.1985 106.761 85.389L105.871 86.3443L115.67 91.7983C115.613 92.0822 115.457 92.5061 115.062 93.0257C114.75 93.4349 114.294 93.8954 113.637 94.373C113.177 94.7073 112.619 95.0493 111.944 95.3872C110.073 96.3245 108.385 96.4502 106.555 95.943C104.014 95.2387 101.187 93.318 97.3147 90.3793C95.7212 89.1699 94.4525 87.7938 93.2297 86.3483C92.9135 85.9745 92.5971 85.5918 92.2775 85.2052C91.3816 84.1215 90.4605 83.0074 89.4486 81.9744C86.6182 79.0847 82.9849 76.7184 76.4059 76.0805L76.2813 76.0685L57.7256 78.8372L44.9631 52.8773L51.8654 47.4989L56.4044 36.2033L56.4156 36.0423C56.5551 34.0316 57.6984 30.482 59.9015 26.6842C62.0913 22.9095 65.2637 19.0025 69.3535 16.2211C70.2447 15.615 72.0241 14.9747 74.0316 14.3747C74.9919 14.0877 75.9669 13.8202 76.8639 13.5773M78.4493 11.0254C77.9803 11.1597 77.4177 11.3117 76.7897 11.4813C76.6566 11.5173 76.5204 11.5541 76.3817 11.5916C75.4691 11.8386 74.454 12.1165 73.4486 12.417C71.4893 13.0026 69.402 13.7189 68.2082 14.5308C63.8034 17.5265 60.4391 21.6918 58.1385 25.6577C55.9023 29.5126 54.6092 33.2878 54.3944 35.735L50.1792 46.2247L42.3997 52.2867L56.5539 81.0775L76.333 78.1262C82.3166 78.7309 85.4881 80.8476 87.9932 83.4052C88.9401 84.3719 89.78 85.3878 90.658 86.4497C90.9887 86.8497 91.3248 87.2562 91.6741 87.6691C92.9301 89.1539 94.3123 90.6635 96.0834 92.0077C99.7324 94.7772 102.755 96.8927 105.617 97.7952C106.362 99.1318 107.71 102.733 107.71 108.15L107.71 108.831L111.459 110.395L115.255 106.085L115.255 95.7053C115.398 95.5904 115.534 95.475 115.663 95.3593V104.268H119.132L121.256 100.248L121.258 100.244C121.517 99.7452 121.779 98.7682 121.96 97.3397C122.133 95.9683 122.242 94.1008 122.173 91.674C123.032 90.929 123.627 89.9835 123.918 88.6721C124.241 87.2172 124.18 85.3513 123.808 82.8702C123.485 80.709 122.784 79.2378 121.768 78.2133C120.766 77.2027 119.558 76.7326 118.466 76.3835C118.217 76.3038 117.974 76.2295 117.737 76.1569C115.833 75.5752 114.318 75.1122 113.324 72.9864C112.672 71.5937 112.067 70.3958 111.545 69.3608C111.478 69.2291 111.413 69.1001 111.349 68.9737C111.922 68.7466 112.453 68.5681 112.962 68.3984C112.996 68.3871 113.03 68.3757 113.064 68.3644C113.798 68.1201 114.537 67.874 115.239 67.5134C116.797 66.7117 118.049 65.4126 119.43 62.6399C120.16 61.1738 120.394 59.8761 120.201 58.7003C120.009 57.5283 119.414 56.6105 118.736 55.8659C118.172 55.2462 117.499 54.6951 116.91 54.2127C116.81 54.1302 116.711 54.0497 116.617 53.9712C115.923 53.3977 115.406 52.9268 115.094 52.4392C114.63 51.7147 113.955 51.2435 113.111 51.2663C112.369 51.2864 111.734 51.6902 111.272 52.0861C110.327 52.8945 109.512 54.1817 109.048 55.0775L108.99 55.19L107.743 60.4966C107.291 62.0926 107.215 63.4362 107.478 64.7981C107.735 66.1316 108.307 67.4269 109.039 68.9137C109.26 69.3624 109.495 69.8281 109.745 70.3224C110.26 71.3436 110.838 72.4869 111.477 73.8535C111.708 74.3462 111.965 74.7771 112.243 75.1557C111.799 74.8864 111.339 74.6461 110.89 74.417C110.767 74.3539 110.643 74.2911 110.519 74.2283C108.538 73.2231 106.536 72.2076 105.119 69.8317C103.118 66.4757 102.7 63.9858 102.636 61.8376C102.615 61.133 102.631 60.5027 102.647 59.8602C102.657 59.4607 102.667 59.0565 102.669 58.6269C102.672 57.5575 102.615 56.4515 102.311 55.2884C102.291 55.2135 102.276 54.9714 102.363 54.4729C102.443 54.0072 102.591 53.4312 102.789 52.757C102.982 52.0983 103.215 51.3742 103.463 50.5992L103.477 50.5557C103.73 49.7691 103.997 48.9347 104.246 48.0929C104.741 46.4216 105.186 44.6547 105.303 43.0815C105.417 41.5523 105.244 39.9279 104.183 38.8268C103.944 38.5788 103.667 38.2257 103.331 37.779C103.257 37.6806 103.18 37.5781 103.101 37.4725C102.835 37.1176 102.545 36.7289 102.244 36.3532C101.805 35.8041 101.286 35.2049 100.693 34.7083C102.855 33.3409 105.528 33.568 107.392 33.804C107.471 33.8139 107.55 33.8242 107.629 33.8344C108.041 33.8878 108.451 33.9407 108.749 33.9479C108.893 33.9513 109.214 33.9559 109.513 33.8188C109.693 33.7362 109.946 33.5652 110.088 33.2415C110.229 32.9211 110.187 32.6221 110.131 32.4366C110.035 32.121 109.819 31.8724 109.692 31.7329C109.532 31.5588 109.325 31.3649 109.082 31.1522C108.595 30.7247 107.879 30.1498 106.912 29.3906C101.811 25.3872 95.5981 25.3978 91.3841 25.996C90.9189 26.062 90.4751 26.1356 90.0571 26.2126C90.7247 25.2349 91.1628 24.135 91.4825 23.0511C91.7793 22.0449 91.9857 21.0106 92.1704 20.057C92.1849 19.9819 92.1993 19.9075 92.2136 19.8336C92.3843 18.9501 92.5381 18.1536 92.7351 17.4482L92.7946 17.2349L92.7607 17.0161C92.326 14.214 92.2301 12.6074 92.2212 11.8312C92.2196 11.6974 92.2208 11.5943 92.2227 11.5179C92.2343 11.4361 92.2424 11.3626 92.2472 11.2995C92.2487 11.2796 92.2502 11.2579 92.2512 11.235C92.2522 11.2135 92.2529 11.1911 92.2529 11.1684C92.253 11.1614 92.253 11.1526 92.2528 11.1421C92.2527 11.1348 92.2525 11.1092 92.2496 11.0724C92.2493 11.0683 92.2489 11.064 92.2486 11.0597C92.2466 11.0372 92.2421 10.9926 92.2308 10.9378L92.2303 10.9353C92.2278 10.9222 92.2186 10.8757 92.1963 10.8113C92.1869 10.7837 92.175 10.7529 92.1603 10.7203C92.1404 10.6765 92.063 10.5054 91.8816 10.3547C91.7878 10.2766 91.6612 10.1995 91.4965 10.155C91.3102 10.1046 91.1399 10.1121 90.9946 10.1474C90.8406 10.1841 90.7208 10.2508 90.6388 10.3094C90.6369 10.3107 90.6351 10.312 90.6333 10.3133C90.6323 10.3141 90.6312 10.3148 90.6302 10.3155C90.6115 10.3292 90.5938 10.3431 90.5772 10.357C90.5147 10.4093 90.4666 10.4622 90.4312 10.5068C90.4195 10.5216 90.4091 10.5355 90.4001 10.5482C90.369 10.5917 90.3497 10.6259 90.3404 10.6425C90.3387 10.6455 90.3371 10.6485 90.3354 10.6515C90.3144 10.69 90.2998 10.7224 90.2907 10.7439C90.286 10.755 90.2816 10.766 90.2775 10.7767C90.26 10.8219 90.2506 10.8554 90.2473 10.8673L90.2468 10.869C90.2458 10.8725 90.2448 10.876 90.2439 10.8794C90.2345 10.9136 90.2296 10.9382 90.2279 10.9466L90.2275 10.9485C90.2266 10.9526 90.2258 10.9568 90.225 10.9609C90.2085 11.0463 90.1967 11.1656 90.1895 11.3141M92.2124 11.5864C92.216 11.5631 92.2195 11.5404 92.2226 11.5183ZM86.3923 27.049C86.3707 27.0524 86.3738 27.0507 86.3944 27.0486C86.3937 27.0488 86.393 27.0489 86.3923 27.049ZM114.352 77.0258C114.65 77.4573 114.883 77.9407 115.038 78.4882C115.362 78.4142 115.736 78.3738 116.149 78.402C117.737 78.5101 119.519 79.5858 121.232 82.5039C122.803 85.1794 121.882 89.1067 117.731 91.7527C117.731 91.7576 117.73 91.7625 117.73 91.7674C118.947 91.2646 119.847 90.8676 120.539 90.366C121.254 89.8474 121.703 89.2387 121.927 88.2289C122.167 87.1501 122.153 85.5872 121.792 83.1733C121.513 81.3091 120.948 80.2856 120.321 79.6529C119.68 79.0062 118.868 78.6564 117.846 78.3297C117.631 78.2608 117.406 78.1937 117.173 78.1243C116.288 77.8607 115.299 77.5657 114.352 77.0258ZM116.662 90.0135C120.147 87.7914 120.323 84.9858 119.474 83.5397C117.949 80.9418 116.672 80.4853 116.011 80.4402C115.651 80.4157 115.357 80.501 115.152 80.5929C115.05 80.6388 114.973 80.6848 114.927 80.7152C114.906 80.7296 114.892 80.74 114.885 80.7446C114.885 80.7449 114.885 80.7451 114.885 80.7453C114.882 80.7474 114.881 80.7479 114.883 80.7464L114.885 80.7453L114.572 81.0119L114.148 80.975C113.078 80.882 112.2 81.3453 111.397 82.1618C110.572 83.0001 109.928 84.1086 109.348 85.1154C109.332 85.1441 109.315 85.1729 109.298 85.2019C109.197 85.3787 109.092 85.5613 108.985 85.7405L116.662 90.0135ZM117.702 93.9877C117.768 93.9608 117.833 93.9341 117.898 93.9076C118.703 93.5787 119.465 93.2674 120.154 92.9352C120.161 94.6859 120.067 96.0558 119.937 97.0826C119.763 98.4536 119.536 99.1316 119.449 99.3008C119.449 99.3017 119.449 99.3025 119.448 99.3034L117.904 102.225H117.702V93.9877ZM110.448 67.1346C111.141 66.8538 111.763 66.6449 112.318 66.4599L112.352 66.4486C113.143 66.1851 113.748 65.9834 114.307 65.696C115.35 65.1599 116.341 64.2667 117.606 61.7278C118.198 60.538 118.295 59.6783 118.189 59.0319C118.082 58.3817 117.748 57.8126 117.229 57.2425C116.774 56.7426 116.234 56.2991 115.641 55.812C115.535 55.725 115.427 55.6366 115.318 55.5463C114.641 54.9864 113.884 54.3328 113.377 53.542C113.275 53.3818 113.201 53.3278 113.179 53.314C113.174 53.3111 113.171 53.3095 113.17 53.3088C113.167 53.3074 113.167 53.3085 113.166 53.3085C113.12 53.3098 112.931 53.3534 112.596 53.6394C111.977 54.1699 111.337 55.1192 110.916 55.9081L109.717 61.0113L109.71 61.0344C109.326 62.3817 109.286 63.4043 109.48 64.4107C109.639 65.2349 109.96 66.0844 110.448 67.1346ZM113.216 97.0289C113.099 97.0911 112.979 97.153 112.856 97.2145C111.231 98.0285 109.664 98.3585 108.077 98.2646C108.863 100.252 109.661 103.391 109.743 107.466L110.895 107.947L113.216 105.312V97.0289ZM78.4493 11.0254C78.687 10.7891 78.9517 10.5787 79.2441 10.4185L79.5012 10.2776M108.849 31.9054C108.858 31.9043 108.863 31.9041 108.864 31.9043C108.864 31.9044 108.859 31.905 108.849 31.9054ZM90.1821 11.8548C90.18 11.6668 90.1821 11.5134 90.1864 11.3913C90.1872 11.3674 90.1881 11.3444 90.1891 11.3221M91.8305 11.9671C91.8291 11.9681 91.8277 11.9691 91.8264 11.9701C91.7395 12.0327 91.616 12.0988 91.466 12.1351C91.4244 12.145 91.3804 12.1526 91.334 12.1574C91.1029 12.1809 90.8906 12.1235 90.7224 12.0265C90.6692 11.9958 90.6222 11.9624 90.5806 11.9278C90.4845 11.8478 90.4229 11.7666 90.39 11.7185C90.3296 11.63 90.2914 11.5428 90.268 11.4755C90.2567 11.4426 90.2488 11.4145 90.2435 11.3933C90.2412 11.3841 90.2393 11.3762 90.2379 11.3698M90.2337 11.3504C90.2338 11.3509 90.234 11.3517 90.2342 11.3527C90.2353 11.3586 90.2383 11.3728 90.2435 11.3933C90.2488 11.4145 90.2567 11.4426 90.268 11.4755C90.2772 11.5022 90.2887 11.5321 90.303 11.5638C90.3227 11.6071 90.3998 11.7777 90.5806 11.9278C90.6743 12.0059 90.8007 12.0829 90.9653 12.1274C91.1511 12.1776 91.321 12.1702 91.466 12.1351C91.6201 12.0985 91.74 12.0318 91.822 11.9732C91.8234 11.9722 91.8249 11.9711 91.8264 11.9701C91.8277 11.9691 91.8291 11.9681 91.8305 11.9671M70.6424 58.0818C69.2777 58.2594 67.7229 58.6969 66.0701 60.0756C64.7592 61.169 63.494 62.4743 63.1529 63.7971C62.9969 64.4022 63.0335 65.0167 63.3895 65.6738C63.761 66.3595 64.5195 67.1612 65.9423 68.0165C70.883 70.9864 75.406 71.7037 78.6488 70.961L78.6891 70.9518L78.73 70.9459C79.635 70.8146 81.1031 70.4867 82.1316 69.6366C82.6236 69.23 83.0042 68.713 83.1902 68.0298C83.3781 67.3398 83.3904 66.3956 82.9984 65.1036C81.4687 60.0627 77.5633 58.4424 74.184 57.6927C73.6761 57.8419 73.1294 57.8913 72.6322 57.9252C72.4661 57.9365 72.3015 57.9462 72.1366 57.956C71.6554 57.9844 71.1721 58.0129 70.6424 58.0818ZM72.4938 55.887C73.1085 55.8451 73.4865 55.7899 73.7449 55.6863L74.0313 55.5716L74.3332 55.6351C78.0124 56.4095 83.0483 58.2448 84.9493 64.5094C85.4252 66.0775 85.4691 67.4231 85.1574 68.5675C84.8439 69.7187 84.1938 70.5807 83.4292 71.2126C81.965 72.4226 80.0493 72.8158 79.0628 72.9618C75.1749 73.8379 70.1299 72.9162 64.8931 69.7683C63.2851 68.8017 62.202 67.7645 61.5973 66.6484C60.9772 65.5038 60.9032 64.3538 61.1786 63.2861C61.7003 61.2632 63.4659 59.5895 64.7653 58.5056C66.7863 56.8198 68.7348 56.2699 70.3798 56.0559C70.9877 55.9768 71.5722 55.9424 72.0671 55.9133C72.2183 55.9044 72.3612 55.896 72.4938 55.887Z" fill="black"/>
<path d="M102.001 35.4214L97.7186 37.8729L96.2912 40.5287C95.6115 42.9121 94.2113 48.0058 94.0482 49.3133C93.885 50.6208 95.4756 60.209 96.2912 64.8396L112.808 79.3445L114.44 79.1402H117.09L121.169 80.7745L120.761 79.1402L114.032 76.4843L109.953 73.4199L106.895 69.3341L106.079 61.9795V51.7648C106.079 51.2745 107.982 45.7041 108.934 42.9802L102.001 35.4214Z" fill="#B85F9B"/>
<path d="M74.1236 56.6348C77.6825 57.3838 82.2381 59.0863 83.9739 64.8065C85.7097 70.5267 80.7548 71.6844 78.876 71.9568C75.308 72.774 70.5156 71.9568 65.4177 68.8924C59.3562 65.2487 62.8073 61.4679 65.4177 59.2906C69.0915 56.2262 72.4243 57.3157 74.1236 56.6348Z" fill="#C73C3C"/>
<path fill-rule="evenodd" clip-rule="evenodd" d="M70.6424 58.0818C69.2777 58.2594 67.7229 58.6969 66.0701 60.0756C64.7592 61.169 63.494 62.4743 63.1529 63.7971C62.9969 64.4022 63.0335 65.0167 63.3895 65.6738C63.761 66.3595 64.5195 67.1612 65.9423 68.0165C70.883 70.9864 75.406 71.7037 78.6488 70.961L78.6891 70.9518L78.73 70.9459C79.635 70.8146 81.1031 70.4867 82.1316 69.6366C82.6236 69.23 83.0042 68.713 83.1902 68.0298C83.3781 67.3398 83.3904 66.3956 82.9984 65.1036C81.4687 60.0627 77.5633 58.4424 74.184 57.6927C73.6761 57.8419 73.1294 57.8913 72.6322 57.9252C72.4661 57.9365 72.3015 57.9462 72.1366 57.956C71.6554 57.9844 71.1721 58.0129 70.6424 58.0818ZM72.4938 55.887C73.1085 55.8451 73.4865 55.7899 73.7449 55.6863L74.0313 55.5716L74.3332 55.6351C78.0124 56.4095 83.0483 58.2448 84.9493 64.5094C85.4252 66.0775 85.4691 67.4231 85.1574 68.5675C84.8439 69.7187 84.1938 70.5807 83.4292 71.2126C81.965 72.4226 80.0493 72.8158 79.0628 72.9618C75.1749 73.8379 70.1299 72.9162 64.8931 69.7683C63.2851 68.8017 62.202 67.7645 61.5973 66.6484C60.9772 65.5038 60.9032 64.3538 61.1786 63.2861C61.7003 61.2632 63.4659 59.5895 64.7653 58.5056C66.7863 56.8198 68.7348 56.2699 70.3798 56.0559C70.9877 55.9768 71.5722 55.9424 72.0671 55.9133C72.2183 55.9044 72.3612 55.896 72.4938 55.887Z" fill="#B85F9B"/>
<path fill-rule="evenodd" clip-rule="evenodd" d="M70.6424 58.0818C69.2777 58.2594 67.7229 58.6969 66.0701 60.0756C64.7592 61.169 63.494 62.4743 63.1529 63.7971C62.9969 64.4022 63.0335 65.0167 63.3895 65.6738C63.761 66.3595 64.5195 67.1612 65.9423 68.0165C70.883 70.9864 75.406 71.7037 78.6488 70.961L78.6891 70.9518L78.73 70.9459C79.635 70.8146 81.1031 70.4867 82.1316 69.6366C82.6236 69.23 83.0042 68.713 83.1902 68.0298C83.3781 67.3398 83.3904 66.3956 82.9984 65.1036C81.4687 60.0627 77.5633 58.4424 74.184 57.6927C73.6761 57.8419 73.1294 57.8913 72.6322 57.9252C72.4661 57.9365 72.3015 57.9462 72.1366 57.956C71.6554 57.9844 71.1721 58.0129 70.6424 58.0818ZM72.4938 55.887C73.1085 55.8451 73.4865 55.7899 73.7449 55.6863L74.0313 55.5716L74.3332 55.6351C78.0124 56.4095 83.0483 58.2448 84.9493 64.5094C85.4252 66.0775 85.4691 67.4231 85.1574 68.5675C84.8439 69.7187 84.1938 70.5807 83.4292 71.2126C81.965 72.4226 80.0493 72.8158 79.0628 72.9618C75.1749 73.8379 70.1299 72.9162 64.8931 69.7683C63.2851 68.8017 62.202 67.7645 61.5973 66.6484C60.9772 65.5038 60.9032 64.3538 61.1786 63.2861C61.7003 61.2632 63.4659 59.5895 64.7653 58.5056C66.7863 56.8198 68.7348 56.2699 70.3798 56.0559C70.9877 55.9768 71.5722 55.9424 72.0671 55.9133C72.2183 55.9044 72.3612 55.896 72.4938 55.887Z" fill="black"/>
<path d="M69.1707 61.9795C69.1707 62.8821 67.8925 63.6139 66.3159 63.6139C64.7392 63.6139 63.4611 62.8821 63.4611 61.9795C63.4611 61.0769 64.7392 60.3452 66.3159 60.3452C67.8925 60.3452 69.1707 61.0769 69.1707 61.9795Z" fill="#FFDCDC"/>
<path fill-rule="evenodd" clip-rule="evenodd" d="M68.1322 62.7804C68.5882 62.5193 68.7628 62.2209 68.7628 61.9795C68.7628 61.7381 68.5882 61.4397 68.1322 61.1786C67.6877 60.9241 67.0464 60.7537 66.3159 60.7537C65.5854 60.7537 64.9441 60.9241 64.4996 61.1786C64.0435 61.4397 63.8689 61.7381 63.8689 61.9795C63.8689 62.2209 64.0435 62.5193 64.4996 62.7804C64.9441 63.0349 65.5854 63.2053 66.3159 63.2053C67.0464 63.2053 67.6877 63.0349 68.1322 62.7804ZM66.3159 63.6139C67.8925 63.6139 69.1707 62.8821 69.1707 61.9795C69.1707 61.0769 67.8925 60.3452 66.3159 60.3452C64.7392 60.3452 63.4611 61.0769 63.4611 61.9795C63.4611 62.8821 64.7392 63.6139 66.3159 63.6139Z" fill="#B85F9B"/>
<path d="M113.221 55.6679C113.544 56.2736 113.184 57.0968 112.418 57.5066C111.652 57.9163 110.769 57.7574 110.446 57.1517C110.124 56.546 110.483 55.7228 111.25 55.3131C112.016 54.9034 112.899 55.0622 113.221 55.6679Z" fill="#FFDCDC"/>
<path d="M46.3323 51.152L42.8658 53.1949V60.7537C42.8658 61.2441 50.0707 74.9181 52.0419 80.5702L100.777 91.8064C100.641 88.3334 97.1884 81.3057 96.699 80.9788C96.0873 80.5702 75.2881 75.4629 74.6763 75.4629C74.187 75.4629 65.0924 73.0114 60.6063 71.7856L46.3323 51.152Z" fill="#B85F9B"/>
<path d="M111.993 68.9255L106.895 69.5384L101.389 71.7856L107.506 76.6886H111.993L118.314 79.1402L120.353 79.3445L119.741 78.5273L118.314 76.6886L116.071 75.4629L111.993 68.9255Z" fill="#B85F9B"/>
<path d="M32.2623 64.431L31.0388 60.7537L31.6505 58.5065L34.3014 55.6464L40.6227 52.1734L49.391 46.6575C49.8668 45.4317 50.9 42.7759 51.2262 41.9587C51.6341 40.9373 52.2458 38.8943 52.6536 38.4858C52.9799 38.1589 54.0131 27.9987 54.4889 26.0239L59.7906 21.938L63.2572 23.368C64.3447 28.1349 66.479 37.832 66.3159 38.4858C66.112 39.3029 64.0728 44.8189 63.2572 46.0446C62.4415 47.2704 58.975 50.9477 56.3241 53.6035C53.6732 56.2593 49.7989 58.0979 49.391 58.5065C49.0648 58.8334 40.8266 63.2734 36.7484 65.4525L32.2623 64.431Z" fill="#B85F9B"/>
</svg>
