<svg width="300" height="300" viewBox="0 0 300 300" fill="none" xmlns="http://www.w3.org/2000/svg">
<rect x="23.5" y="237.5" width="253" height="18" rx="4.5" fill="#535050" stroke="black"/>
<rect x="41.5" y="223.5" width="216" height="13" rx="4.5" fill="#535050" stroke="black"/>
<path d="M260.802 171.048C263.82 187.762 262.805 204.928 257.839 221.192L149.795 221.573H149.793H42.2781C37.2518 205.327 36.1726 188.164 39.1278 171.44C42.1043 154.595 49.0909 138.662 59.5294 124.915C69.968 111.169 83.5686 99.9911 99.2433 92.2781C114.918 84.565 132.231 80.5312 149.796 80.5002C167.361 80.4691 184.688 84.4417 200.392 92.0994C216.095 99.757 229.738 110.887 240.227 124.596C250.717 138.305 257.763 154.214 260.802 171.048Z" fill="#1C1F41" stroke="black"/>
<path d="M102.334 104.202C83.3184 101.531 71.5215 130.353 68 145.097C68 168.466 77.2439 154.834 81.8658 145.097C83.4505 134.414 91.3298 128.405 95.0714 126.736C119.898 106.038 110.258 103.089 102.334 104.202Z" fill="#D9D9D9"/>
</svg>
