<svg width="320" height="320" viewBox="0 0 320 320" fill="none" xmlns="http://www.w3.org/2000/svg">
<g clip-path="url(#clip0_55_2)">
<rect width="320" height="320" fill="white"/>
<g opacity="0.7">
<path d="M266.824 271.119C281.875 258.417 293.816 242.389 301.692 224.319C309.568 206.249 313.16 186.639 312.18 167.058C311.2 147.477 305.676 128.47 296.049 111.557C286.422 94.6453 272.961 80.2982 256.742 69.6646C240.523 59.031 221.998 52.4064 202.649 50.3211C183.3 48.2357 163.665 50.7476 145.316 57.6556C126.966 64.5636 110.413 75.6759 96.9798 90.1028C83.5469 104.53 73.608 121.87 67.9586 140.737L167.027 205.951L266.824 271.119Z" fill="url(#paint0_linear_55_2)"/>
<path d="M167.027 205.951L67.9586 140.737C61.9739 164.114 66.2319 220.787 131.142 260.466C196.052 300.146 248.642 284.101 266.824 271.119L167.027 205.951Z" fill="url(#paint1_linear_55_2)"/>
<path d="M266.824 271.119C281.875 258.417 293.816 242.389 301.692 224.319C309.568 206.249 313.16 186.639 312.18 167.058C311.2 147.477 305.676 128.47 296.049 111.557C286.422 94.6453 272.961 80.2982 256.742 69.6646C240.523 59.031 221.998 52.4064 202.649 50.3211C183.3 48.2357 163.665 50.7476 145.316 57.6556C126.966 64.5636 110.413 75.6759 96.9798 90.1028C83.5469 104.53 73.608 121.87 67.9586 140.737L167.027 205.951L266.824 271.119Z" fill="url(#paint2_linear_55_2)"/>
<path d="M167.027 205.951L67.9586 140.737C61.9739 164.114 66.2319 220.787 131.142 260.466C196.052 300.146 248.642 284.101 266.824 271.119L167.027 205.951Z" fill="url(#paint3_linear_55_2)"/>
</g>
<rect x="69.3652" y="218.877" width="152.482" height="13.9324" rx="5" transform="rotate(33.356 69.3652 218.877)" fill="#535050"/>
<rect x="83.949" y="216.43" width="130.036" height="10.0623" rx="5" transform="rotate(33.356 83.949 216.43)" fill="#535050"/>
<path d="M122.706 87.5474C101.83 83.8008 88.5353 122.223 84.4977 141.902C84.2346 173.143 94.551 155.005 99.7421 142.03C101.605 127.763 110.335 119.803 114.467 117.606C141.995 90.1647 131.43 86.133 122.706 87.5474Z" fill="white" fill-opacity="0.65"/>
<path d="M119 95.443L124.691 87.3418L161.276 76L169 80.4557V90.5823L147.455 108H124.691L119 95.443Z" fill="#5F5E57"/>
<path d="M41.7175 35.6966L59.1967 37.3313C79.874 43.424 117.351 60.2927 101.839 79.0264C86.3277 97.7602 75.038 130.614 71.3321 144.699C67.9871 151.9 59.6017 154.246 55.8272 154.52C39.3954 154.993 1.96386 134.362 3.6223 117.704C4.94905 104.378 29.5719 57.48 41.7175 35.6966Z" fill="url(#paint4_linear_55_2)"/>
<path d="M41.7175 35.6966L59.1967 37.3313C79.874 43.424 117.351 60.2927 101.839 79.0264C86.3277 97.7602 75.038 130.614 71.3321 144.699C67.9871 151.9 59.6017 154.246 55.8272 154.52C39.3954 154.993 1.96386 134.362 3.6223 117.704C4.94905 104.378 29.5719 57.48 41.7175 35.6966Z" fill="url(#paint5_linear_55_2)"/>
<path d="M57.7793 39.5099C59.7804 35.9001 67.1387 37.1026 70.5678 38.1551C91.1702 45.4559 98.0957 63.2369 98.9831 71.2147C99.1573 73.4573 97.3601 77.6752 88.7777 76.6066C78.0498 75.2708 71.8707 71.9951 63.7753 64.9922C55.68 57.9892 55.2779 44.0222 57.7793 39.5099Z" fill="#EAE8B7"/>
<path d="M129.152 90.903C123.322 89.4921 116.019 86.0185 118.652 80.3513C119.88 71.5999 120.061 60.7407 114.06 57.9533C109.26 55.7233 96.7121 55.1635 90.9823 67.498C91.9824 67.9626 92.2681 68.7438 80.0759 65.6741C67.8837 62.6044 66.4252 52.3077 66.4941 45.1793C72.9982 31.178 100.752 16.1045 127.688 28.6171C161.358 44.2578 156.935 67.7376 159.482 76.2159C161.519 82.9985 151.914 87.5618 149.001 89.1805C142.881 89.8501 134.981 92.314 129.152 90.903Z" fill="#E4DCC5"/>
<g opacity="0.45">
<path d="M41.7175 35.6966L59.1967 37.3313C79.874 43.424 117.351 60.2927 101.839 79.0264C86.3277 97.7602 75.038 130.614 71.3321 144.699C67.9871 151.9 59.6017 154.246 55.8272 154.52C39.3954 154.993 1.96386 134.362 3.6223 117.704C4.94905 104.378 29.5719 57.48 41.7175 35.6966Z" fill="url(#paint6_linear_55_2)"/>
<path d="M41.7175 35.6966L59.1967 37.3313C79.874 43.424 117.351 60.2927 101.839 79.0264C86.3277 97.7602 75.038 130.614 71.3321 144.699C67.9871 151.9 59.6017 154.246 55.8272 154.52C39.3954 154.993 1.96386 134.362 3.6223 117.704C4.94905 104.378 29.5719 57.48 41.7175 35.6966Z" fill="url(#paint7_linear_55_2)"/>
<path d="M41.7175 35.6966L59.1967 37.3313C79.874 43.424 117.351 60.2927 101.839 79.0264C86.3277 97.7602 75.038 130.614 71.3321 144.699C67.9871 151.9 59.6017 154.246 55.8272 154.52C39.3954 154.993 1.96386 134.362 3.6223 117.704C4.94905 104.378 29.5719 57.48 41.7175 35.6966Z" fill="url(#paint8_linear_55_2)"/>
<path d="M57.7793 39.5099C59.7804 35.9001 67.1387 37.1026 70.5678 38.1551C91.1702 45.4559 98.0957 63.2369 98.9831 71.2147C99.1573 73.4573 97.3601 77.6752 88.7777 76.6066C78.0498 75.2708 71.8707 71.9951 63.7753 64.9922C55.68 57.9892 55.2779 44.0222 57.7793 39.5099Z" fill="url(#paint9_linear_55_2)"/>
<path d="M129.152 90.903C123.322 89.4921 116.019 86.0185 118.652 80.3513C119.88 71.5999 120.061 60.7407 114.06 57.9533C109.26 55.7233 96.7121 55.1635 90.9823 67.498C91.9824 67.9626 92.2681 68.7438 80.0759 65.6741C67.8837 62.6044 66.4252 52.3077 66.4941 45.1793C72.9982 31.178 100.752 16.1045 127.688 28.6171C161.358 44.2578 156.935 67.7376 159.482 76.2159C161.519 82.9985 151.914 87.5618 149.001 89.1805C142.881 89.8501 134.981 92.314 129.152 90.903Z" fill="url(#paint10_linear_55_2)"/>
</g>
<path d="M110 125L117 115L162 101L171.5 106.5V119L145 140.5H117L110 125Z" fill="#78776C"/>
<path d="M23.4239 100.371L42.6295 96.671C66.6454 96.7426 111.989 103.104 101.237 127.977C90.4853 152.85 88.6504 191.51 89.0769 207.731C87.7435 216.476 79.5057 221.599 75.5535 223.068C58.1252 228.696 11.6572 218.296 8.23883 199.962C5.50415 185.295 17.2228 127.457 23.4239 100.371Z" fill="url(#paint11_linear_55_2)"/>
<path d="M23.4239 100.371L42.6295 96.671C66.6454 96.7426 111.989 103.104 101.237 127.977C90.4853 152.85 88.6504 191.51 89.0769 207.731C87.7435 216.476 79.5057 221.599 75.5535 223.068C58.1252 228.696 11.6572 218.296 8.23883 199.962C5.50415 185.295 17.2228 127.457 23.4239 100.371Z" fill="url(#paint12_linear_55_2)"/>
<path d="M41.7926 99.4434C42.8079 94.9585 51.0533 93.9511 55.0491 94.0081C79.3615 95.3952 92.3115 112.255 95.7475 120.512C96.6328 122.856 96.0252 127.928 86.5123 129.46C74.6211 131.375 66.9908 129.798 56.149 124.831C45.3072 119.864 40.5236 105.049 41.7926 99.4434Z" fill="#EAE8B7"/>
<path d="M134.153 132.167C127.478 132.475 118.584 131.036 119.633 124.154C118.219 114.41 115.028 102.739 107.74 101.628C101.911 100.739 88.3152 104.051 86.0312 119.031C87.2458 119.216 87.7948 119.962 73.7969 120.479C59.7991 120.996 55.0296 110.437 52.8813 102.791C55.4739 85.7877 80.4611 61.014 113.173 66.0016C154.062 72.2361 156.65 98.7289 162.017 107.004C166.31 113.624 157.459 121.498 154.847 124.138C148.51 126.762 140.828 131.86 134.153 132.167Z" fill="#E4DCC5"/>
<g opacity="0.3">
<path d="M23.4239 100.371L42.6295 96.671C66.6454 96.7426 111.989 103.104 101.237 127.977C90.4853 152.85 88.6504 191.51 89.0769 207.731C87.7435 216.476 79.5057 221.599 75.5535 223.068C58.1252 228.696 11.6572 218.296 8.23883 199.962C5.50415 185.295 17.2228 127.457 23.4239 100.371Z" fill="url(#paint13_linear_55_2)"/>
<path d="M23.4239 100.371L42.6295 96.671C66.6454 96.7426 111.989 103.104 101.237 127.977C90.4853 152.85 88.6504 191.51 89.0769 207.731C87.7435 216.476 79.5057 221.599 75.5535 223.068C58.1252 228.696 11.6572 218.296 8.23883 199.962C5.50415 185.295 17.2228 127.457 23.4239 100.371Z" fill="url(#paint14_linear_55_2)"/>
<path d="M23.4239 100.371L42.6295 96.671C66.6454 96.7426 111.989 103.104 101.237 127.977C90.4853 152.85 88.6504 191.51 89.0769 207.731C87.7435 216.476 79.5057 221.599 75.5535 223.068C58.1252 228.696 11.6572 218.296 8.23883 199.962C5.50415 185.295 17.2228 127.457 23.4239 100.371Z" fill="url(#paint15_linear_55_2)"/>
<path d="M41.7926 99.4434C42.8079 94.9585 51.0533 93.9511 55.0491 94.0081C79.3615 95.3952 92.3115 112.255 95.7475 120.512C96.6328 122.856 96.0252 127.928 86.5123 129.46C74.6211 131.375 66.9908 129.798 56.149 124.831C45.3072 119.864 40.5236 105.049 41.7926 99.4434Z" fill="url(#paint16_linear_55_2)"/>
<path d="M134.153 132.167C127.478 132.475 118.584 131.036 119.633 124.154C118.219 114.41 115.028 102.739 107.74 101.628C101.911 100.739 88.3152 104.051 86.0312 119.031C87.2458 119.216 87.7948 119.962 73.7969 120.479C59.7991 120.996 55.0296 110.437 52.8813 102.791C55.4739 85.7877 80.4611 61.014 113.173 66.0016C154.062 72.2361 156.65 98.7289 162.017 107.004C166.31 113.624 157.459 121.498 154.847 124.138C148.51 126.762 140.828 131.86 134.153 132.167Z" fill="url(#paint17_linear_55_2)"/>
</g>
</g>
<defs>
<linearGradient id="paint0_linear_55_2" x1="267.742" y1="71.9669" x2="82.5251" y2="301.674" gradientUnits="userSpaceOnUse">
<stop stop-color="#FFF282"/>
<stop offset="1" stop-color="#517277" stop-opacity="0"/>
</linearGradient>
<linearGradient id="paint1_linear_55_2" x1="267.742" y1="71.9669" x2="82.5251" y2="301.674" gradientUnits="userSpaceOnUse">
<stop stop-color="#FFF282"/>
<stop offset="1" stop-color="#517277" stop-opacity="0"/>
</linearGradient>
<linearGradient id="paint2_linear_55_2" x1="259.884" y1="76.5787" x2="223.773" y2="157.981" gradientUnits="userSpaceOnUse">
<stop stop-color="#93FFF8" stop-opacity="0.69"/>
<stop offset="1" stop-color="#517277" stop-opacity="0"/>
</linearGradient>
<linearGradient id="paint3_linear_55_2" x1="259.884" y1="76.5787" x2="223.773" y2="157.981" gradientUnits="userSpaceOnUse">
<stop stop-color="#93FFF8" stop-opacity="0.69"/>
<stop offset="1" stop-color="#517277" stop-opacity="0"/>
</linearGradient>
<linearGradient id="paint4_linear_55_2" x1="34.46" y1="40.9138" x2="67.7245" y2="117.101" gradientUnits="userSpaceOnUse">
<stop stop-color="#FFB341"/>
<stop offset="1"/>
</linearGradient>
<linearGradient id="paint5_linear_55_2" x1="73.5771" y1="111.736" x2="-17.8174" y2="-12.5432" gradientUnits="userSpaceOnUse">
<stop stop-color="#FFFCB0"/>
<stop offset="1" stop-color="#FFFEDD" stop-opacity="0"/>
</linearGradient>
<linearGradient id="paint6_linear_55_2" x1="73.5771" y1="111.736" x2="-17.8174" y2="-12.5432" gradientUnits="userSpaceOnUse">
<stop/>
<stop offset="0.457149" stop-color="#FFFEDB"/>
</linearGradient>
<linearGradient id="paint7_linear_55_2" x1="73.5771" y1="111.736" x2="-17.8174" y2="-12.5432" gradientUnits="userSpaceOnUse">
<stop/>
<stop offset="0.457149" stop-color="#FFFEDB"/>
</linearGradient>
<linearGradient id="paint8_linear_55_2" x1="73.5771" y1="111.736" x2="-17.8174" y2="-12.5432" gradientUnits="userSpaceOnUse">
<stop/>
<stop offset="0.457149" stop-color="#FFFEDB"/>
</linearGradient>
<linearGradient id="paint9_linear_55_2" x1="92.5161" y1="66.3907" x2="80.0542" y2="-1.30316" gradientUnits="userSpaceOnUse">
<stop/>
<stop offset="0.457149" stop-color="#FFFEDB"/>
</linearGradient>
<linearGradient id="paint10_linear_55_2" x1="145.478" y1="71.5551" x2="122.784" y2="-57.8234" gradientUnits="userSpaceOnUse">
<stop/>
<stop offset="0.457149" stop-color="#FFFEDB"/>
</linearGradient>
<linearGradient id="paint11_linear_55_2" x1="17.2874" y1="108.213" x2="76.6156" y2="179.336" gradientUnits="userSpaceOnUse">
<stop stop-color="#FFB341"/>
<stop offset="1"/>
</linearGradient>
<linearGradient id="paint12_linear_55_2" x1="81.2032" y1="171.773" x2="-55.2922" y2="67.33" gradientUnits="userSpaceOnUse">
<stop stop-color="#FFFCB0"/>
<stop offset="1" stop-color="#FFFEDD" stop-opacity="0"/>
</linearGradient>
<linearGradient id="paint13_linear_55_2" x1="81.2032" y1="171.773" x2="20.9122" y2="116.226" gradientUnits="userSpaceOnUse">
<stop stop-color="#212005"/>
<stop offset="1" stop-color="white"/>
</linearGradient>
<linearGradient id="paint14_linear_55_2" x1="81.2032" y1="171.773" x2="20.9122" y2="116.226" gradientUnits="userSpaceOnUse">
<stop stop-color="#212005"/>
<stop offset="1" stop-color="white"/>
</linearGradient>
<linearGradient id="paint15_linear_55_2" x1="81.2032" y1="171.773" x2="20.9122" y2="116.226" gradientUnits="userSpaceOnUse">
<stop stop-color="#212005"/>
<stop offset="1" stop-color="white"/>
</linearGradient>
<linearGradient id="paint16_linear_55_2" x1="87.3266" y1="117.368" x2="75.1709" y2="86.2354" gradientUnits="userSpaceOnUse">
<stop stop-color="#212005"/>
<stop offset="1" stop-color="white"/>
</linearGradient>
<linearGradient id="paint17_linear_55_2" x1="145.586" y1="106.383" x2="122.881" y2="46.8845" gradientUnits="userSpaceOnUse">
<stop stop-color="#212005"/>
<stop offset="1" stop-color="white"/>
</linearGradient>
<clipPath id="clip0_55_2">
<rect width="320" height="320" fill="white"/>
</clipPath>
</defs>
</svg>
