<svg width="320" height="320" viewBox="0 0 320 320" fill="none" xmlns="http://www.w3.org/2000/svg">
<g opacity="0.7">
<path d="M247.969 265.029C264.328 251.223 277.307 233.802 285.868 214.161C294.428 194.521 298.332 173.206 297.267 151.924C296.202 130.641 290.198 109.982 279.734 91.6002C269.271 73.2183 254.64 57.6243 237.011 46.0666C219.383 34.5089 199.248 27.3086 178.217 25.042C157.187 22.7755 135.845 25.5056 115.901 33.014C95.9575 40.5224 77.9652 52.6003 63.365 68.281C48.7647 83.9616 37.962 102.809 31.8217 123.315L139.5 194.198L247.969 265.029Z" fill="url(#paint0_linear_71_43)"/>
<path d="M139.5 194.198L31.8217 123.315C25.3169 148.724 29.9449 210.322 100.496 253.45C171.047 296.578 228.208 279.139 247.969 265.029L139.5 194.198Z" fill="url(#paint1_linear_71_43)"/>
<path d="M247.969 265.029C264.328 251.223 277.307 233.802 285.868 214.161C294.428 194.521 298.332 173.206 297.267 151.924C296.202 130.641 290.198 109.982 279.734 91.6002C269.271 73.2183 254.64 57.6243 237.011 46.0666C219.383 34.5089 199.248 27.3086 178.217 25.042C157.187 22.7755 135.845 25.5056 115.901 33.014C95.9575 40.5224 77.9652 52.6003 63.365 68.281C48.7647 83.9616 37.962 102.809 31.8217 123.315L139.5 194.198L247.969 265.029Z" fill="url(#paint2_linear_71_43)"/>
<path d="M139.5 194.198L31.8217 123.315C25.3169 148.724 29.9449 210.322 100.496 253.45C171.047 296.578 228.208 279.139 247.969 265.029L139.5 194.198Z" fill="url(#paint3_linear_71_43)"/>
</g>
<rect x="33.3505" y="208.246" width="165.734" height="15.1432" rx="5" transform="rotate(33.356 33.3505 208.246)" fill="#535050"/>
<rect x="49.2018" y="205.587" width="141.336" height="10.9367" rx="5" transform="rotate(33.356 49.2018 205.587)" fill="#535050"/>
<path d="M91.3271 65.5032C68.6363 61.4311 54.1866 103.192 49.7981 124.582C49.5121 158.538 60.7251 138.823 66.3673 124.721C68.3917 109.214 77.8807 100.562 82.3722 98.1739C112.292 68.348 100.809 63.966 91.3271 65.5032Z" fill="white" fill-opacity="0.65"/>
<defs>
<linearGradient id="paint0_linear_71_43" x1="248.967" y1="48.569" x2="47.6541" y2="298.239" gradientUnits="userSpaceOnUse">
<stop stop-color="#FFF282"/>
<stop offset="1" stop-color="#517277" stop-opacity="0"/>
</linearGradient>
<linearGradient id="paint1_linear_71_43" x1="248.967" y1="48.569" x2="47.6541" y2="298.239" gradientUnits="userSpaceOnUse">
<stop stop-color="#FFF282"/>
<stop offset="1" stop-color="#517277" stop-opacity="0"/>
</linearGradient>
<linearGradient id="paint2_linear_71_43" x1="240.427" y1="53.5815" x2="201.178" y2="142.058" gradientUnits="userSpaceOnUse">
<stop stop-color="#93FFF8" stop-opacity="0.69"/>
<stop offset="1" stop-color="#517277" stop-opacity="0"/>
</linearGradient>
<linearGradient id="paint3_linear_71_43" x1="240.427" y1="53.5815" x2="201.178" y2="142.058" gradientUnits="userSpaceOnUse">
<stop stop-color="#93FFF8" stop-opacity="0.69"/>
<stop offset="1" stop-color="#517277" stop-opacity="0"/>
</linearGradient>
</defs>
</svg>
