<svg width="300" height="300" viewBox="0 0 300 300" fill="none" xmlns="http://www.w3.org/2000/svg">
<path d="M94.5789 62.3515L66.5135 38C7.17508 57.4812 11.0508 115.113 20.4059 141.494H66.5135V100.908L94.5789 62.3515Z" fill="#414040"/>
<path d="M80.3684 69.1899L60.4737 52.1772C18.4105 65.7873 21.1579 106.051 27.7895 124.481H60.4737V96.1266L80.3684 69.1899Z" fill="#999696"/>
<path d="M205.421 62.3515L233.487 38C292.825 57.4812 288.949 115.113 279.594 141.494H233.487V100.908L205.421 62.3515Z" fill="#414040"/>
<path d="M219.632 69.1899L239.526 52.1772C281.589 65.7873 278.842 106.051 272.21 124.481H239.526V96.1266L219.632 69.1899Z" fill="#999696"/>
<path d="M148.579 87.6203H77.5263V146.612L111.023 169.609L148.579 182.608V87.6203Z" fill="#414040"/>
<path d="M148.579 87.6203H219.632V146.612L186.135 169.609L148.579 182.608V87.6203Z" fill="#414040"/>
<path d="M137.921 101.089H88.1842V142.911L111.632 159.215L137.921 168.43V101.089Z" fill="#999696"/>
<path d="M159.237 101.089H208.974V142.911L185.526 159.215L159.237 168.43V101.089Z" fill="#999696"/>
<path d="M90.3158 215.924V178.354L131.526 204.582V244.278L90.3158 215.924Z" fill="#999696"/>
<path d="M78.9474 218.096V159.924L142.895 200.535V262L78.9474 218.096Z" fill="#414040"/>
<path d="M221.053 218.096V159.924L157.105 200.535V262L221.053 218.096Z" fill="#414040"/>
<path d="M90.3158 215.924V178.354L131.526 204.582V244.278L90.3158 215.924Z" fill="#999696"/>
<path d="M209.684 215.924V178.354L168.474 204.582V244.278L209.684 215.924Z" fill="#999696"/>
<path d="M66.5135 38L66.8412 37.6223L66.627 37.4365L66.3575 37.5249L66.5135 38ZM94.5789 62.3514L94.9832 62.6457L95.2533 62.2746L94.9066 61.9738L94.5789 62.3514ZM66.5135 100.908L66.1092 100.614L66.0135 100.745V100.908H66.5135ZM66.5135 141.494V141.994H67.0135V141.494H66.5135ZM20.4059 141.494L19.9347 141.661L20.0527 141.994H20.4059V141.494ZM60.4737 52.1772L60.7987 51.7972L60.586 51.6154L60.3198 51.7015L60.4737 52.1772ZM80.3684 69.1899L80.7706 69.4869L81.0472 69.1124L80.6934 68.8099L80.3684 69.1899ZM60.4737 96.1266L60.0715 95.8295L59.9737 95.962V96.1266H60.4737ZM60.4737 124.481V124.981H60.9737V124.481H60.4737ZM27.7895 124.481L27.319 124.65L27.438 124.981H27.7895V124.481ZM233.487 38L233.642 37.5249L233.373 37.4365L233.159 37.6223L233.487 38ZM205.421 62.3514L205.093 61.9738L204.747 62.2746L205.017 62.6457L205.421 62.3514ZM233.487 100.908H233.987V100.745L233.891 100.614L233.487 100.908ZM233.487 141.494H232.987V141.994H233.487V141.494ZM279.594 141.494V141.994H279.947L280.065 141.661L279.594 141.494ZM239.526 52.1772L239.68 51.7015L239.414 51.6154L239.201 51.7972L239.526 52.1772ZM219.632 69.1899L219.307 68.8099L218.953 69.1124L219.229 69.4869L219.632 69.1899ZM239.526 96.1266H240.026V95.962L239.928 95.8295L239.526 96.1266ZM239.526 124.481H239.026V124.981H239.526V124.481ZM272.21 124.481V124.981H272.562L272.681 124.65L272.21 124.481ZM77.5263 87.6203V87.1203H77.0263V87.6203H77.5263ZM148.579 182.608L148.415 183.08L148.579 183.137L148.742 183.08L148.579 182.608ZM111.023 169.609L110.74 170.022L110.795 170.06L110.859 170.082L111.023 169.609ZM77.5263 146.612H77.0263V146.876L77.2433 147.025L77.5263 146.612ZM219.632 87.6203H220.132V87.1203H219.632V87.6203ZM186.135 169.609L186.299 170.082L186.363 170.06L186.418 170.022L186.135 169.609ZM219.632 146.612L219.915 147.025L220.132 146.876V146.612H219.632ZM88.1842 101.089V100.589H87.6842V101.089H88.1842ZM137.921 101.089H138.421V100.589H137.921V101.089ZM137.921 168.43L137.756 168.902L138.421 169.135V168.43H137.921ZM111.632 159.215L111.346 159.626L111.402 159.665L111.466 159.687L111.632 159.215ZM88.1842 142.911H87.6842V143.173L87.8988 143.322L88.1842 142.911ZM208.974 101.089H209.474V100.589H208.974V101.089ZM159.237 101.089V100.589H158.737V101.089H159.237ZM159.237 168.43H158.737V169.135L159.402 168.902L159.237 168.43ZM185.526 159.215L185.692 159.687L185.756 159.665L185.812 159.626L185.526 159.215ZM208.974 142.911L209.259 143.322L209.474 143.173V142.911H208.974ZM90.3158 178.354L90.5842 177.933L89.8158 177.444V178.354H90.3158ZM90.3158 215.924H89.8158V216.187L90.0324 216.336L90.3158 215.924ZM131.526 244.278L131.243 244.69L132.026 245.229V244.278H131.526ZM131.526 204.582H132.026V204.308L131.795 204.16L131.526 204.582ZM78.9474 159.924L79.2154 159.502L78.4474 159.014V159.924H78.9474ZM78.9474 218.096H78.4474V218.36L78.6644 218.509L78.9474 218.096ZM142.895 262L142.612 262.412L143.395 262.95V262H142.895ZM142.895 200.535H143.395V200.26L143.163 200.113L142.895 200.535ZM221.053 159.924H221.553V159.014L220.785 159.502L221.053 159.924ZM221.053 218.096L221.336 218.509L221.553 218.36V218.096H221.053ZM157.105 262H156.605V262.95L157.388 262.412L157.105 262ZM157.105 200.535L156.837 200.113L156.605 200.26V200.535H157.105ZM209.684 178.354H210.184V177.444L209.416 177.933L209.684 178.354ZM209.684 215.924L209.968 216.336L210.184 216.187V215.924H209.684ZM168.474 244.278H167.974V245.229L168.757 244.69L168.474 244.278ZM168.474 204.582L168.205 204.16L167.974 204.308V204.582H168.474ZM66.1858 38.3777L94.2513 62.7291L94.9066 61.9738L66.8412 37.6223L66.1858 38.3777ZM94.1747 62.0572L66.1092 100.614L66.9177 101.202L94.9832 62.6457L94.1747 62.0572ZM66.0135 100.908V141.494H67.0135V100.908H66.0135ZM66.5135 140.994H20.4059V141.994H66.5135V140.994ZM20.8772 141.327C16.2239 128.205 12.9359 107.306 18.1833 87.2863C23.4219 67.2998 37.1711 48.1595 66.6694 38.4751L66.3575 37.5249C36.5175 47.3216 22.5354 66.7378 17.216 87.0327C11.9053 107.294 15.2329 128.402 19.9347 141.661L20.8772 141.327ZM60.1487 52.5572L80.0435 69.5699L80.6934 68.8099L60.7987 51.7972L60.1487 52.5572ZM79.9662 68.8928L60.0715 95.8295L60.8759 96.4236L80.7706 69.4869L79.9662 68.8928ZM59.9737 96.1266V124.481H60.9737V96.1266H59.9737ZM60.4737 123.981H27.7895V124.981H60.4737V123.981ZM28.26 124.312C24.969 115.166 22.6447 100.599 26.3543 86.65C30.0547 72.7358 39.7649 59.4034 60.6276 52.6529L60.3198 51.7015C39.1193 58.5612 29.1716 72.1655 25.3879 86.393C21.6132 100.586 23.9784 115.366 27.319 124.65L28.26 124.312ZM233.159 37.6223L205.093 61.9738L205.749 62.7291L233.814 38.3777L233.159 37.6223ZM205.017 62.6457L233.082 101.202L233.891 100.614L205.825 62.0572L205.017 62.6457ZM232.987 100.908V141.494H233.987V100.908H232.987ZM233.487 141.994H279.594V140.994H233.487V141.994ZM280.065 141.661C284.767 128.402 288.095 107.294 282.784 87.0327C277.465 66.7378 263.483 47.3216 233.642 37.5249L233.331 38.4751C262.829 48.1595 276.578 67.2998 281.817 87.2863C287.064 107.306 283.776 128.205 279.123 141.327L280.065 141.661ZM239.201 51.7972L219.307 68.8099L219.956 69.5699L239.851 52.5572L239.201 51.7972ZM219.229 69.4869L239.124 96.4236L239.928 95.8295L220.034 68.8928L219.229 69.4869ZM239.026 96.1266V124.481H240.026V96.1266H239.026ZM239.526 124.981H272.21V123.981H239.526V124.981ZM272.681 124.65C276.022 115.366 278.387 100.586 274.612 86.393C270.828 72.1655 260.881 58.5612 239.68 51.7015L239.372 52.6529C260.235 59.4034 269.945 72.7358 273.646 86.65C277.355 100.599 275.031 115.166 271.74 124.312L272.681 124.65ZM77.5263 88.1203H148.579V87.1203H77.5263V88.1203ZM148.079 87.6203V182.608H149.079V87.6203H148.079ZM148.742 182.135L111.186 169.137L110.859 170.082L148.415 183.08L148.742 182.135ZM111.306 169.197L77.8093 146.2L77.2433 147.025L110.74 170.022L111.306 169.197ZM78.0263 146.612V87.6203H77.0263V146.612H78.0263ZM219.632 87.1203H148.579V88.1203H219.632V87.1203ZM148.742 183.08L186.299 170.082L185.972 169.137L148.415 182.135L148.742 183.08ZM186.418 170.022L219.915 147.025L219.349 146.2L185.852 169.197L186.418 170.022ZM220.132 146.612V87.6203H219.132V146.612H220.132ZM88.1842 101.589H137.921V100.589H88.1842V101.589ZM137.421 101.089V168.43H138.421V101.089H137.421ZM138.086 167.959L111.797 158.743L111.466 159.687L137.756 168.902L138.086 167.959ZM111.917 158.805L88.4697 142.501L87.8988 143.322L111.346 159.626L111.917 158.805ZM88.6842 142.911V101.089H87.6842V142.911H88.6842ZM208.974 100.589H159.237V101.589H208.974V100.589ZM158.737 101.089V168.43H159.737V101.089H158.737ZM159.402 168.902L185.692 159.687L185.361 158.743L159.071 167.959L159.402 168.902ZM185.812 159.626L209.259 143.322L208.688 142.501L185.241 158.805L185.812 159.626ZM209.474 142.911V101.089H208.474V142.911H209.474ZM89.8158 178.354V215.924H90.8158V178.354H89.8158ZM90.0324 216.336L131.243 244.69L131.81 243.867L90.5992 215.512L90.0324 216.336ZM132.026 244.278V204.582H131.026V244.278H132.026ZM131.795 204.16L90.5842 177.933L90.0473 178.776L131.258 205.004L131.795 204.16ZM78.4474 159.924V218.096H79.4474V159.924H78.4474ZM78.6644 218.509L142.612 262.412L143.178 261.588L79.2304 217.684L78.6644 218.509ZM143.395 262V200.535H142.395V262H143.395ZM143.163 200.113L79.2154 159.502L78.6793 160.346L142.627 200.957L143.163 200.113ZM220.553 159.924V218.096H221.553V159.924H220.553ZM220.77 217.684L156.822 261.588L157.388 262.412L221.336 218.509L220.77 217.684ZM157.605 262V200.535H156.605V262H157.605ZM157.373 200.957L221.321 160.346L220.785 159.502L156.837 200.113L157.373 200.957ZM209.184 178.354V215.924H210.184V178.354H209.184ZM209.401 215.512L168.19 243.867L168.757 244.69L209.968 216.336L209.401 215.512ZM168.974 244.278V204.582H167.974V244.278H168.974ZM168.742 205.004L209.953 178.776L209.416 177.933L168.205 204.16L168.742 205.004Z" fill="#433B48"/>
</svg>
