<svg width="251" height="187" viewBox="0 0 251 187" fill="none" xmlns="http://www.w3.org/2000/svg">
<path fill-rule="evenodd" clip-rule="evenodd" d="M125.371 27.4987V27.4837C125.309 27.4865 125.247 27.4892 125.186 27.4917C125.124 27.4892 125.062 27.4865 125 27.4837V27.4987C124.542 27.515 124.083 27.5233 123.621 27.5233C106.866 27.5233 92.6112 16.6815 87.3197 1.54581L86.6211 1.52328L56.6211 0.0232802L56.4945 0.124606C55.1069 -0.0341322 53.685 -0.0447987 52.2302 0.113326C29.2303 2.61333 0 55.366 0 55.366L43.4783 92.2256L59.8195 72.9502L65.1211 117.523L56.6211 186.523H125H125.371H193.75L185.25 117.523L190.552 72.9502L206.893 92.2256L250.371 55.366C250.371 55.366 221.141 2.61333 198.141 0.113326C196.686 -0.0447987 195.264 -0.0341322 193.877 0.124606L193.75 0.0232802L163.75 1.52328L163.051 1.54581C157.76 16.6815 143.505 27.5233 126.75 27.5233C126.288 27.5233 125.829 27.515 125.371 27.4987Z" fill="#D9D9D9"/>
<path fill-rule="evenodd" clip-rule="evenodd" d="M125.371 27.4987V27.4837C125.309 27.4865 125.247 27.4892 125.186 27.4917C125.124 27.4892 125.062 27.4865 125 27.4837V27.4987C124.542 27.515 124.083 27.5233 123.621 27.5233C106.866 27.5233 92.6112 16.6815 87.3197 1.54581L86.6211 1.52328L56.6211 0.0232802L56.4945 0.124606C55.1069 -0.0341322 53.685 -0.0447987 52.2302 0.113326C29.2303 2.61333 0 55.366 0 55.366L43.4783 92.2256L59.8195 72.9502L65.1211 117.523L56.6211 186.523H125H125.371H193.75L185.25 117.523L190.552 72.9502L206.893 92.2256L250.371 55.366C250.371 55.366 221.141 2.61333 198.141 0.113326C196.686 -0.0447987 195.264 -0.0341322 193.877 0.124606L193.75 0.0232802L163.75 1.52328L163.051 1.54581C157.76 16.6815 143.505 27.5233 126.75 27.5233C126.288 27.5233 125.829 27.515 125.371 27.4987Z" fill="url(#paint0_linear_78_3)" fill-opacity="0.5"/>
<defs>
<linearGradient id="paint0_linear_78_3" x1="125" y1="-1.0312e-08" x2="125" y2="227" gradientUnits="userSpaceOnUse">
<stop offset="0.123993" stop-color="#FCDE76"/>
<stop offset="1"/>
</linearGradient>
</defs>
</svg>
