<svg width="300" height="225" viewBox="0 0 300 225" fill="none" xmlns="http://www.w3.org/2000/svg">
<path fill-rule="evenodd" clip-rule="evenodd" d="M154.243 51.8471V122.432V210.932H91.521C91.521 210.932 89.7964 204.119 88.6914 199.432C89.1662 195.75 90.0058 192.283 91.521 188.932C92.3034 187.202 91.425 185.292 90.4458 183.164C89.5744 181.27 88.6231 179.202 88.6914 176.932C88.8256 172.473 91.521 166.932 91.521 166.932C91.521 166.932 88.6983 160.833 88.6914 154.932C88.6882 152.148 89.1746 149.472 89.578 147.252C89.8557 145.724 90.094 144.413 90.1062 143.432C90.1062 143.432 91.4161 133.121 88.6914 128.432C86.0334 123.858 82.5607 116.432 82.5607 116.432L71.2426 47.9323C77.3196 55.9556 85.6582 43.9323 80.1599 31.9323L109.255 25.9595C115.382 41.0928 131.881 51.9323 151.274 51.9323C152.271 51.9323 153.261 51.9036 154.243 51.8471Z" fill="#404242"/>
<g filter="url(#filter0_dii_78_16)">
<path d="M135.884 193.284C136.314 193.096 136.664 192.763 136.873 192.343L144.241 177.543C145.071 175.877 143.374 174.08 141.663 174.813L105.697 190.223C105.241 190.419 104.875 190.776 104.668 191.226L97.8102 206.133C97.0419 207.803 98.7448 209.538 100.429 208.801L135.884 193.284Z" fill="url(#paint0_linear_78_16)"/>
</g>
<g filter="url(#filter1_dii_78_16)">
<path d="M140.884 171.284C141.314 171.096 141.664 170.763 141.873 170.343L149.241 155.543C150.071 153.877 148.374 152.08 146.663 152.813L110.697 168.223C110.241 168.419 109.875 168.776 109.668 169.226L102.81 184.133C102.042 185.803 103.745 187.538 105.429 186.801L140.884 171.284Z" fill="url(#paint1_linear_78_16)"/>
</g>
<g filter="url(#filter2_dii_78_16)">
<path d="M143.884 149.284C144.314 149.096 144.664 148.763 144.873 148.343L152.241 133.543C153.071 131.877 151.374 130.08 149.663 130.813L113.697 146.223C113.241 146.419 112.875 146.776 112.668 147.226L105.81 162.133C105.042 163.803 106.745 165.538 108.429 164.801L143.884 149.284Z" fill="url(#paint2_linear_78_16)"/>
</g>
<g filter="url(#filter3_dii_78_16)">
<path d="M84.2448 69.4323C84.2448 68.3277 85.1402 67.4323 86.2448 67.4323H148.243C149.347 67.4323 150.243 68.3277 150.243 69.4323V122.84C150.243 123.84 149.507 124.683 148.511 124.785C142.382 125.414 121.158 126.98 103.951 120.775C85.8675 114.254 84.3623 110.289 84.2509 109.489C84.2368 109.388 84.2448 109.288 84.2448 109.185V69.4323Z" fill="url(#paint3_linear_78_16)"/>
</g>
<g filter="url(#filter4_dii_78_16)">
<path d="M92.9626 7.97138C93.8074 7.62901 94.7631 7.91576 95.2976 8.65425L119.247 41.7463C119.971 42.7456 119.626 44.155 118.523 44.7073L72.1249 67.9368C71.9172 68.0408 71.7291 68.1802 71.5692 68.3488L40.528 101.076C39.6662 101.984 38.1909 101.886 37.4567 100.872L13.5372 67.8218C13.0039 67.0848 13.027 66.092 13.6131 65.3963C17.7621 60.472 34.2836 41.2784 48.0559 31.1828C62.4137 20.6581 86.8345 10.4547 92.9626 7.97138Z" fill="url(#paint4_linear_78_16)"/>
</g>
<path fill-rule="evenodd" clip-rule="evenodd" d="M153.853 51.699V122.284V210.784H216.574C216.574 210.784 218.299 203.97 219.404 199.284C218.929 195.602 218.089 192.135 216.574 188.784C215.792 187.054 216.67 185.144 217.649 183.016C218.521 181.122 219.472 179.054 219.404 176.784C219.27 172.325 216.574 166.784 216.574 166.784C216.574 166.784 219.397 160.685 219.404 154.784C219.407 152 218.921 149.323 218.517 147.104C218.24 145.576 218.001 144.265 217.989 143.284C217.989 143.284 216.679 132.973 219.404 128.284C222.062 123.71 225.534 116.284 225.534 116.284L236.853 47.7841C230.776 55.8074 222.437 43.7841 227.935 31.7841L198.84 25.8113C192.713 40.9446 176.214 51.7841 156.822 51.7841C155.824 51.7841 154.834 51.7554 153.853 51.699Z" fill="#404242"/>
<g filter="url(#filter5_dii_78_16)">
<path d="M173.211 193.136C172.781 192.948 172.432 192.615 172.223 192.195L164.854 177.395C164.025 175.729 165.721 173.932 167.432 174.665L203.398 190.075C203.854 190.27 204.221 190.628 204.428 191.078L211.285 205.985C212.053 207.655 210.35 209.39 208.666 208.653L173.211 193.136Z" fill="url(#paint5_linear_78_16)"/>
</g>
<g filter="url(#filter6_dii_78_16)">
<path d="M168.211 171.136C167.781 170.948 167.432 170.615 167.223 170.195L159.854 155.395C159.025 153.729 160.721 151.932 162.432 152.665L198.398 168.075C198.854 168.27 199.221 168.628 199.428 169.078L206.285 183.985C207.053 185.655 205.35 187.39 203.666 186.653L168.211 171.136Z" fill="url(#paint6_linear_78_16)"/>
</g>
<g filter="url(#filter7_dii_78_16)">
<path d="M165.211 149.136C164.781 148.948 164.432 148.615 164.223 148.195L156.854 133.395C156.025 131.729 157.721 129.932 159.432 130.665L195.398 146.075C195.854 146.27 196.221 146.628 196.428 147.078L203.285 161.985C204.053 163.655 202.35 165.39 200.666 164.653L165.211 149.136Z" fill="url(#paint7_linear_78_16)"/>
</g>
<g filter="url(#filter8_dii_78_16)">
<path d="M223.85 69.2841C223.85 68.1796 222.955 67.2841 221.85 67.2841H159.853C158.748 67.2841 157.853 68.1795 157.853 69.2841V122.692C157.853 123.692 158.589 124.534 159.584 124.637C165.713 125.266 186.937 126.832 204.145 120.627C222.228 114.106 223.733 110.141 223.844 109.341C223.858 109.24 223.85 109.139 223.85 109.037V69.2841Z" fill="url(#paint8_linear_78_16)"/>
</g>
<g filter="url(#filter9_dii_78_16)">
<path d="M215.41 8.02386C214.565 7.68149 213.609 7.96824 213.075 8.70673L189.125 41.7988C188.402 42.7981 188.747 44.2075 189.85 44.7598L236.246 67.9882C236.454 68.0922 236.642 68.2316 236.802 68.4002L267.842 101.126C268.704 102.035 270.179 101.937 270.913 100.922L294.833 67.8722C295.366 67.1353 295.343 66.1424 294.757 65.4467C290.608 60.5225 274.087 41.3295 260.315 31.2343C245.958 20.7099 221.538 10.5071 215.41 8.02386Z" fill="url(#paint9_linear_78_16)"/>
</g>
<defs>
<filter id="filter0_dii_78_16" x="86.9655" y="169.317" width="68.1474" height="55.6404" filterUnits="userSpaceOnUse" color-interpolation-filters="sRGB">
<feFlood flood-opacity="0" result="BackgroundImageFix"/>
<feColorMatrix in="SourceAlpha" type="matrix" values="0 0 0 0 0 0 0 0 0 0 0 0 0 0 0 0 0 0 127 0" result="hardAlpha"/>
<feOffset dy="5.32743"/>
<feGaussianBlur stdDeviation="5.32743"/>
<feColorMatrix type="matrix" values="0 0 0 0 0.121569 0 0 0 0 0.12549 0 0 0 0 0.12549 0 0 0 0.8 0"/>
<feBlend mode="normal" in2="BackgroundImageFix" result="effect1_dropShadow_78_16"/>
<feBlend mode="normal" in="SourceGraphic" in2="effect1_dropShadow_78_16" result="shape"/>
<feColorMatrix in="SourceAlpha" type="matrix" values="0 0 0 0 0 0 0 0 0 0 0 0 0 0 0 0 0 0 127 0" result="hardAlpha"/>
<feOffset dy="3.55162"/>
<feGaussianBlur stdDeviation="1.77581"/>
<feComposite in2="hardAlpha" operator="arithmetic" k2="-1" k3="1"/>
<feColorMatrix type="matrix" values="0 0 0 0 0.899608 0 0 0 0 0.928627 0 0 0 0 0.928627 0 0 0 1 0"/>
<feBlend mode="normal" in2="shape" result="effect2_innerShadow_78_16"/>
<feColorMatrix in="SourceAlpha" type="matrix" values="0 0 0 0 0 0 0 0 0 0 0 0 0 0 0 0 0 0 127 0" result="hardAlpha"/>
<feOffset dy="-3.55162"/>
<feGaussianBlur stdDeviation="1.77581"/>
<feComposite in2="hardAlpha" operator="arithmetic" k2="-1" k3="1"/>
<feColorMatrix type="matrix" values="0 0 0 0 0.243137 0 0 0 0 0.25098 0 0 0 0 0.25098 0 0 0 1 0"/>
<feBlend mode="normal" in2="effect2_innerShadow_78_16" result="effect3_innerShadow_78_16"/>
</filter>
<filter id="filter1_dii_78_16" x="91.9655" y="147.317" width="68.1474" height="55.6404" filterUnits="userSpaceOnUse" color-interpolation-filters="sRGB">
<feFlood flood-opacity="0" result="BackgroundImageFix"/>
<feColorMatrix in="SourceAlpha" type="matrix" values="0 0 0 0 0 0 0 0 0 0 0 0 0 0 0 0 0 0 127 0" result="hardAlpha"/>
<feOffset dy="5.32743"/>
<feGaussianBlur stdDeviation="5.32743"/>
<feColorMatrix type="matrix" values="0 0 0 0 0.121569 0 0 0 0 0.12549 0 0 0 0 0.12549 0 0 0 0.8 0"/>
<feBlend mode="normal" in2="BackgroundImageFix" result="effect1_dropShadow_78_16"/>
<feBlend mode="normal" in="SourceGraphic" in2="effect1_dropShadow_78_16" result="shape"/>
<feColorMatrix in="SourceAlpha" type="matrix" values="0 0 0 0 0 0 0 0 0 0 0 0 0 0 0 0 0 0 127 0" result="hardAlpha"/>
<feOffset dy="3.55162"/>
<feGaussianBlur stdDeviation="1.77581"/>
<feComposite in2="hardAlpha" operator="arithmetic" k2="-1" k3="1"/>
<feColorMatrix type="matrix" values="0 0 0 0 0.899608 0 0 0 0 0.928627 0 0 0 0 0.928627 0 0 0 1 0"/>
<feBlend mode="normal" in2="shape" result="effect2_innerShadow_78_16"/>
<feColorMatrix in="SourceAlpha" type="matrix" values="0 0 0 0 0 0 0 0 0 0 0 0 0 0 0 0 0 0 127 0" result="hardAlpha"/>
<feOffset dy="-3.55162"/>
<feGaussianBlur stdDeviation="1.77581"/>
<feComposite in2="hardAlpha" operator="arithmetic" k2="-1" k3="1"/>
<feColorMatrix type="matrix" values="0 0 0 0 0.243137 0 0 0 0 0.25098 0 0 0 0 0.25098 0 0 0 1 0"/>
<feBlend mode="normal" in2="effect2_innerShadow_78_16" result="effect3_innerShadow_78_16"/>
</filter>
<filter id="filter2_dii_78_16" x="94.9655" y="125.317" width="68.1474" height="55.6405" filterUnits="userSpaceOnUse" color-interpolation-filters="sRGB">
<feFlood flood-opacity="0" result="BackgroundImageFix"/>
<feColorMatrix in="SourceAlpha" type="matrix" values="0 0 0 0 0 0 0 0 0 0 0 0 0 0 0 0 0 0 127 0" result="hardAlpha"/>
<feOffset dy="5.32743"/>
<feGaussianBlur stdDeviation="5.32743"/>
<feColorMatrix type="matrix" values="0 0 0 0 0.121569 0 0 0 0 0.12549 0 0 0 0 0.12549 0 0 0 0.8 0"/>
<feBlend mode="normal" in2="BackgroundImageFix" result="effect1_dropShadow_78_16"/>
<feBlend mode="normal" in="SourceGraphic" in2="effect1_dropShadow_78_16" result="shape"/>
<feColorMatrix in="SourceAlpha" type="matrix" values="0 0 0 0 0 0 0 0 0 0 0 0 0 0 0 0 0 0 127 0" result="hardAlpha"/>
<feOffset dy="3.55162"/>
<feGaussianBlur stdDeviation="1.77581"/>
<feComposite in2="hardAlpha" operator="arithmetic" k2="-1" k3="1"/>
<feColorMatrix type="matrix" values="0 0 0 0 0.899608 0 0 0 0 0.928627 0 0 0 0 0.928627 0 0 0 1 0"/>
<feBlend mode="normal" in2="shape" result="effect2_innerShadow_78_16"/>
<feColorMatrix in="SourceAlpha" type="matrix" values="0 0 0 0 0 0 0 0 0 0 0 0 0 0 0 0 0 0 127 0" result="hardAlpha"/>
<feOffset dy="-3.55162"/>
<feGaussianBlur stdDeviation="1.77581"/>
<feComposite in2="hardAlpha" operator="arithmetic" k2="-1" k3="1"/>
<feColorMatrix type="matrix" values="0 0 0 0 0.243137 0 0 0 0 0.25098 0 0 0 0 0.25098 0 0 0 1 0"/>
<feBlend mode="normal" in2="effect2_innerShadow_78_16" result="effect3_innerShadow_78_16"/>
</filter>
<filter id="filter3_dii_78_16" x="69.1759" y="59.899" width="96.1333" height="88.1333" filterUnits="userSpaceOnUse" color-interpolation-filters="sRGB">
<feFlood flood-opacity="0" result="BackgroundImageFix"/>
<feColorMatrix in="SourceAlpha" type="matrix" values="0 0 0 0 0 0 0 0 0 0 0 0 0 0 0 0 0 0 127 0" result="hardAlpha"/>
<feOffset dy="7.53333"/>
<feGaussianBlur stdDeviation="7.53333"/>
<feColorMatrix type="matrix" values="0 0 0 0 0.121569 0 0 0 0 0.12549 0 0 0 0 0.12549 0 0 0 0.8 0"/>
<feBlend mode="normal" in2="BackgroundImageFix" result="effect1_dropShadow_78_16"/>
<feBlend mode="normal" in="SourceGraphic" in2="effect1_dropShadow_78_16" result="shape"/>
<feColorMatrix in="SourceAlpha" type="matrix" values="0 0 0 0 0 0 0 0 0 0 0 0 0 0 0 0 0 0 127 0" result="hardAlpha"/>
<feOffset dy="5.02222"/>
<feGaussianBlur stdDeviation="2.51111"/>
<feComposite in2="hardAlpha" operator="arithmetic" k2="-1" k3="1"/>
<feColorMatrix type="matrix" values="0 0 0 0 0.899608 0 0 0 0 0.928627 0 0 0 0 0.928627 0 0 0 1 0"/>
<feBlend mode="normal" in2="shape" result="effect2_innerShadow_78_16"/>
<feColorMatrix in="SourceAlpha" type="matrix" values="0 0 0 0 0 0 0 0 0 0 0 0 0 0 0 0 0 0 127 0" result="hardAlpha"/>
<feOffset dy="-5.02222"/>
<feGaussianBlur stdDeviation="2.51111"/>
<feComposite in2="hardAlpha" operator="arithmetic" k2="-1" k3="1"/>
<feColorMatrix type="matrix" values="0 0 0 0 0.243137 0 0 0 0 0.25098 0 0 0 0 0.25098 0 0 0 1 0"/>
<feBlend mode="normal" in2="effect2_innerShadow_78_16" result="effect3_innerShadow_78_16"/>
</filter>
<filter id="filter4_dii_78_16" x="-2.33873" y="0.0811858" width="137.46" height="124.858" filterUnits="userSpaceOnUse" color-interpolation-filters="sRGB">
<feFlood flood-opacity="0" result="BackgroundImageFix"/>
<feColorMatrix in="SourceAlpha" type="matrix" values="0 0 0 0 0 0 0 0 0 0 0 0 0 0 0 0 0 0 127 0" result="hardAlpha"/>
<feOffset dy="7.74663"/>
<feGaussianBlur stdDeviation="7.74663"/>
<feColorMatrix type="matrix" values="0 0 0 0 0.121569 0 0 0 0 0.12549 0 0 0 0 0.12549 0 0 0 0.8 0"/>
<feBlend mode="normal" in2="BackgroundImageFix" result="effect1_dropShadow_78_16"/>
<feBlend mode="normal" in="SourceGraphic" in2="effect1_dropShadow_78_16" result="shape"/>
<feColorMatrix in="SourceAlpha" type="matrix" values="0 0 0 0 0 0 0 0 0 0 0 0 0 0 0 0 0 0 127 0" result="hardAlpha"/>
<feOffset dy="5.16442"/>
<feGaussianBlur stdDeviation="2.58221"/>
<feComposite in2="hardAlpha" operator="arithmetic" k2="-1" k3="1"/>
<feColorMatrix type="matrix" values="0 0 0 0 0.899608 0 0 0 0 0.928627 0 0 0 0 0.928627 0 0 0 1 0"/>
<feBlend mode="normal" in2="shape" result="effect2_innerShadow_78_16"/>
<feColorMatrix in="SourceAlpha" type="matrix" values="0 0 0 0 0 0 0 0 0 0 0 0 0 0 0 0 0 0 127 0" result="hardAlpha"/>
<feOffset dy="-5.16442"/>
<feGaussianBlur stdDeviation="2.58221"/>
<feComposite in2="hardAlpha" operator="arithmetic" k2="-1" k3="1"/>
<feColorMatrix type="matrix" values="0 0 0 0 0.243137 0 0 0 0 0.25098 0 0 0 0 0.25098 0 0 0 1 0"/>
<feBlend mode="normal" in2="effect2_innerShadow_78_16" result="effect3_innerShadow_78_16"/>
</filter>
<filter id="filter5_dii_78_16" x="153.982" y="169.169" width="68.1474" height="55.6404" filterUnits="userSpaceOnUse" color-interpolation-filters="sRGB">
<feFlood flood-opacity="0" result="BackgroundImageFix"/>
<feColorMatrix in="SourceAlpha" type="matrix" values="0 0 0 0 0 0 0 0 0 0 0 0 0 0 0 0 0 0 127 0" result="hardAlpha"/>
<feOffset dy="5.32743"/>
<feGaussianBlur stdDeviation="5.32743"/>
<feColorMatrix type="matrix" values="0 0 0 0 0.121569 0 0 0 0 0.12549 0 0 0 0 0.12549 0 0 0 0.8 0"/>
<feBlend mode="normal" in2="BackgroundImageFix" result="effect1_dropShadow_78_16"/>
<feBlend mode="normal" in="SourceGraphic" in2="effect1_dropShadow_78_16" result="shape"/>
<feColorMatrix in="SourceAlpha" type="matrix" values="0 0 0 0 0 0 0 0 0 0 0 0 0 0 0 0 0 0 127 0" result="hardAlpha"/>
<feOffset dy="3.55162"/>
<feGaussianBlur stdDeviation="1.77581"/>
<feComposite in2="hardAlpha" operator="arithmetic" k2="-1" k3="1"/>
<feColorMatrix type="matrix" values="0 0 0 0 0.899608 0 0 0 0 0.928627 0 0 0 0 0.928627 0 0 0 1 0"/>
<feBlend mode="normal" in2="shape" result="effect2_innerShadow_78_16"/>
<feColorMatrix in="SourceAlpha" type="matrix" values="0 0 0 0 0 0 0 0 0 0 0 0 0 0 0 0 0 0 127 0" result="hardAlpha"/>
<feOffset dy="-3.55162"/>
<feGaussianBlur stdDeviation="1.77581"/>
<feComposite in2="hardAlpha" operator="arithmetic" k2="-1" k3="1"/>
<feColorMatrix type="matrix" values="0 0 0 0 0.243137 0 0 0 0 0.25098 0 0 0 0 0.25098 0 0 0 1 0"/>
<feBlend mode="normal" in2="effect2_innerShadow_78_16" result="effect3_innerShadow_78_16"/>
</filter>
<filter id="filter6_dii_78_16" x="148.982" y="147.169" width="68.1474" height="55.6404" filterUnits="userSpaceOnUse" color-interpolation-filters="sRGB">
<feFlood flood-opacity="0" result="BackgroundImageFix"/>
<feColorMatrix in="SourceAlpha" type="matrix" values="0 0 0 0 0 0 0 0 0 0 0 0 0 0 0 0 0 0 127 0" result="hardAlpha"/>
<feOffset dy="5.32743"/>
<feGaussianBlur stdDeviation="5.32743"/>
<feColorMatrix type="matrix" values="0 0 0 0 0.121569 0 0 0 0 0.12549 0 0 0 0 0.12549 0 0 0 0.8 0"/>
<feBlend mode="normal" in2="BackgroundImageFix" result="effect1_dropShadow_78_16"/>
<feBlend mode="normal" in="SourceGraphic" in2="effect1_dropShadow_78_16" result="shape"/>
<feColorMatrix in="SourceAlpha" type="matrix" values="0 0 0 0 0 0 0 0 0 0 0 0 0 0 0 0 0 0 127 0" result="hardAlpha"/>
<feOffset dy="3.55162"/>
<feGaussianBlur stdDeviation="1.77581"/>
<feComposite in2="hardAlpha" operator="arithmetic" k2="-1" k3="1"/>
<feColorMatrix type="matrix" values="0 0 0 0 0.899608 0 0 0 0 0.928627 0 0 0 0 0.928627 0 0 0 1 0"/>
<feBlend mode="normal" in2="shape" result="effect2_innerShadow_78_16"/>
<feColorMatrix in="SourceAlpha" type="matrix" values="0 0 0 0 0 0 0 0 0 0 0 0 0 0 0 0 0 0 127 0" result="hardAlpha"/>
<feOffset dy="-3.55162"/>
<feGaussianBlur stdDeviation="1.77581"/>
<feComposite in2="hardAlpha" operator="arithmetic" k2="-1" k3="1"/>
<feColorMatrix type="matrix" values="0 0 0 0 0.243137 0 0 0 0 0.25098 0 0 0 0 0.25098 0 0 0 1 0"/>
<feBlend mode="normal" in2="effect2_innerShadow_78_16" result="effect3_innerShadow_78_16"/>
</filter>
<filter id="filter7_dii_78_16" x="145.982" y="125.169" width="68.1474" height="55.6405" filterUnits="userSpaceOnUse" color-interpolation-filters="sRGB">
<feFlood flood-opacity="0" result="BackgroundImageFix"/>
<feColorMatrix in="SourceAlpha" type="matrix" values="0 0 0 0 0 0 0 0 0 0 0 0 0 0 0 0 0 0 127 0" result="hardAlpha"/>
<feOffset dy="5.32743"/>
<feGaussianBlur stdDeviation="5.32743"/>
<feColorMatrix type="matrix" values="0 0 0 0 0.121569 0 0 0 0 0.12549 0 0 0 0 0.12549 0 0 0 0.8 0"/>
<feBlend mode="normal" in2="BackgroundImageFix" result="effect1_dropShadow_78_16"/>
<feBlend mode="normal" in="SourceGraphic" in2="effect1_dropShadow_78_16" result="shape"/>
<feColorMatrix in="SourceAlpha" type="matrix" values="0 0 0 0 0 0 0 0 0 0 0 0 0 0 0 0 0 0 127 0" result="hardAlpha"/>
<feOffset dy="3.55162"/>
<feGaussianBlur stdDeviation="1.77581"/>
<feComposite in2="hardAlpha" operator="arithmetic" k2="-1" k3="1"/>
<feColorMatrix type="matrix" values="0 0 0 0 0.899608 0 0 0 0 0.928627 0 0 0 0 0.928627 0 0 0 1 0"/>
<feBlend mode="normal" in2="shape" result="effect2_innerShadow_78_16"/>
<feColorMatrix in="SourceAlpha" type="matrix" values="0 0 0 0 0 0 0 0 0 0 0 0 0 0 0 0 0 0 127 0" result="hardAlpha"/>
<feOffset dy="-3.55162"/>
<feGaussianBlur stdDeviation="1.77581"/>
<feComposite in2="hardAlpha" operator="arithmetic" k2="-1" k3="1"/>
<feColorMatrix type="matrix" values="0 0 0 0 0.243137 0 0 0 0 0.25098 0 0 0 0 0.25098 0 0 0 1 0"/>
<feBlend mode="normal" in2="effect2_innerShadow_78_16" result="effect3_innerShadow_78_16"/>
</filter>
<filter id="filter8_dii_78_16" x="142.786" y="59.7508" width="96.1333" height="88.1333" filterUnits="userSpaceOnUse" color-interpolation-filters="sRGB">
<feFlood flood-opacity="0" result="BackgroundImageFix"/>
<feColorMatrix in="SourceAlpha" type="matrix" values="0 0 0 0 0 0 0 0 0 0 0 0 0 0 0 0 0 0 127 0" result="hardAlpha"/>
<feOffset dy="7.53333"/>
<feGaussianBlur stdDeviation="7.53333"/>
<feColorMatrix type="matrix" values="0 0 0 0 0.121569 0 0 0 0 0.12549 0 0 0 0 0.12549 0 0 0 0.8 0"/>
<feBlend mode="normal" in2="BackgroundImageFix" result="effect1_dropShadow_78_16"/>
<feBlend mode="normal" in="SourceGraphic" in2="effect1_dropShadow_78_16" result="shape"/>
<feColorMatrix in="SourceAlpha" type="matrix" values="0 0 0 0 0 0 0 0 0 0 0 0 0 0 0 0 0 0 127 0" result="hardAlpha"/>
<feOffset dy="5.02222"/>
<feGaussianBlur stdDeviation="2.51111"/>
<feComposite in2="hardAlpha" operator="arithmetic" k2="-1" k3="1"/>
<feColorMatrix type="matrix" values="0 0 0 0 0.899608 0 0 0 0 0.928627 0 0 0 0 0.928627 0 0 0 1 0"/>
<feBlend mode="normal" in2="shape" result="effect2_innerShadow_78_16"/>
<feColorMatrix in="SourceAlpha" type="matrix" values="0 0 0 0 0 0 0 0 0 0 0 0 0 0 0 0 0 0 127 0" result="hardAlpha"/>
<feOffset dy="-5.02222"/>
<feGaussianBlur stdDeviation="2.51111"/>
<feComposite in2="hardAlpha" operator="arithmetic" k2="-1" k3="1"/>
<feColorMatrix type="matrix" values="0 0 0 0 0.243137 0 0 0 0 0.25098 0 0 0 0 0.25098 0 0 0 1 0"/>
<feBlend mode="normal" in2="effect2_innerShadow_78_16" result="effect3_innerShadow_78_16"/>
</filter>
<filter id="filter9_dii_78_16" x="173.252" y="0.133676" width="137.457" height="124.856" filterUnits="userSpaceOnUse" color-interpolation-filters="sRGB">
<feFlood flood-opacity="0" result="BackgroundImageFix"/>
<feColorMatrix in="SourceAlpha" type="matrix" values="0 0 0 0 0 0 0 0 0 0 0 0 0 0 0 0 0 0 127 0" result="hardAlpha"/>
<feOffset dy="7.74663"/>
<feGaussianBlur stdDeviation="7.74663"/>
<feColorMatrix type="matrix" values="0 0 0 0 0.121569 0 0 0 0 0.12549 0 0 0 0 0.12549 0 0 0 0.8 0"/>
<feBlend mode="normal" in2="BackgroundImageFix" result="effect1_dropShadow_78_16"/>
<feBlend mode="normal" in="SourceGraphic" in2="effect1_dropShadow_78_16" result="shape"/>
<feColorMatrix in="SourceAlpha" type="matrix" values="0 0 0 0 0 0 0 0 0 0 0 0 0 0 0 0 0 0 127 0" result="hardAlpha"/>
<feOffset dy="5.16442"/>
<feGaussianBlur stdDeviation="2.58221"/>
<feComposite in2="hardAlpha" operator="arithmetic" k2="-1" k3="1"/>
<feColorMatrix type="matrix" values="0 0 0 0 0.899608 0 0 0 0 0.928627 0 0 0 0 0.928627 0 0 0 1 0"/>
<feBlend mode="normal" in2="shape" result="effect2_innerShadow_78_16"/>
<feColorMatrix in="SourceAlpha" type="matrix" values="0 0 0 0 0 0 0 0 0 0 0 0 0 0 0 0 0 0 127 0" result="hardAlpha"/>
<feOffset dy="-5.16442"/>
<feGaussianBlur stdDeviation="2.58221"/>
<feComposite in2="hardAlpha" operator="arithmetic" k2="-1" k3="1"/>
<feColorMatrix type="matrix" values="0 0 0 0 0.243137 0 0 0 0 0.25098 0 0 0 0 0.25098 0 0 0 1 0"/>
<feBlend mode="normal" in2="effect2_innerShadow_78_16" result="effect3_innerShadow_78_16"/>
</filter>
<linearGradient id="paint0_linear_78_16" x1="148.906" y1="176.91" x2="93.1892" y2="206.315" gradientUnits="userSpaceOnUse">
<stop stop-color="#D3DADA"/>
<stop offset="1" stop-color="#515353"/>
</linearGradient>
<linearGradient id="paint1_linear_78_16" x1="153.906" y1="154.91" x2="98.1892" y2="184.315" gradientUnits="userSpaceOnUse">
<stop stop-color="#D3DADA"/>
<stop offset="1" stop-color="#515353"/>
</linearGradient>
<linearGradient id="paint2_linear_78_16" x1="156.906" y1="132.91" x2="101.189" y2="162.315" gradientUnits="userSpaceOnUse">
<stop stop-color="#D3DADA"/>
<stop offset="1" stop-color="#515353"/>
</linearGradient>
<linearGradient id="paint3_linear_78_16" x1="117.243" y1="67.4323" x2="117.243" y2="125.432" gradientUnits="userSpaceOnUse">
<stop stop-color="#D3DADA"/>
<stop offset="1" stop-color="#515353"/>
</linearGradient>
<linearGradient id="paint4_linear_78_16" x1="105.193" y1="22.3267" x2="23.4348" y2="81.4975" gradientUnits="userSpaceOnUse">
<stop stop-color="#D3DADA"/>
<stop offset="1" stop-color="#515353"/>
</linearGradient>
<linearGradient id="paint5_linear_78_16" x1="160.189" y1="176.762" x2="215.906" y2="206.167" gradientUnits="userSpaceOnUse">
<stop stop-color="#D3DADA"/>
<stop offset="1" stop-color="#515353"/>
</linearGradient>
<linearGradient id="paint6_linear_78_16" x1="155.189" y1="154.762" x2="210.906" y2="184.167" gradientUnits="userSpaceOnUse">
<stop stop-color="#D3DADA"/>
<stop offset="1" stop-color="#515353"/>
</linearGradient>
<linearGradient id="paint7_linear_78_16" x1="152.189" y1="132.762" x2="207.906" y2="162.167" gradientUnits="userSpaceOnUse">
<stop stop-color="#D3DADA"/>
<stop offset="1" stop-color="#515353"/>
</linearGradient>
<linearGradient id="paint8_linear_78_16" x1="190.853" y1="67.2841" x2="190.853" y2="125.284" gradientUnits="userSpaceOnUse">
<stop stop-color="#D3DADA"/>
<stop offset="1" stop-color="#515353"/>
</linearGradient>
<linearGradient id="paint9_linear_78_16" x1="203.18" y1="22.3792" x2="284.935" y2="81.548" gradientUnits="userSpaceOnUse">
<stop stop-color="#D3DADA"/>
<stop offset="1" stop-color="#515353"/>
</linearGradient>
</defs>
</svg>
