<svg width="278" height="315" viewBox="0 0 278 315" fill="none" xmlns="http://www.w3.org/2000/svg">
<path d="M73.14 221.842C73.14 248.697 1.42316 310.5 1.42316 310.5L19.9565 321L126.324 321C138.597 321 279.738 312.737 312.466 306.539C338.649 301.582 323.376 292.079 312.466 287.947L298.148 232.171L298.148 83.4342L298.148 7L279.738 7L261.328 17.329L249.055 33.8553L249.055 54.5132L208.145 68.9737L208.145 106.158L167.234 122.684L148.824 95.829L126.324 106.158L103.823 106.158L73.14 122.684L73.14 180.526L73.14 221.842Z" fill="#413E3E" stroke="#5C5858"/>
<path d="M78.9231 240C70.9232 252.5 4.42322 310.5 4.42322 310.5L26.9232 333L130.923 333C142.923 333 280.923 325 312.923 319C338.523 314.2 323.59 305 312.923 301L298.923 247L298.923 103L298.923 29L280.923 29L262.923 39L250.923 55L250.923 75L210.923 89L210.923 125L170.923 141L152.923 115L130.923 125L108.923 125L78.9231 141L78.9231 197C78.9231 197 86.9231 227.5 78.9231 240Z" fill="#7A7A7A"/>
<path d="M130.923 333C142.923 333 280.923 325 312.923 319C338.523 314.2 323.59 305 312.923 301L298.923 247L298.923 103L298.923 29L280.923 29L262.923 39L250.923 55L250.923 75L210.923 89L210.923 125L170.923 141L152.923 115L130.923 125L108.923 125L78.9231 141L78.9231 197C78.9231 197 86.9231 227.5 78.9231 240C70.9232 252.5 4.42322 310.5 4.42322 310.5L26.9232 333M130.923 333C121.323 333 57.5898 333 26.9232 333M130.923 333L26.9232 333" stroke="#645D5D"/>
<g filter="url(#filter0_d_1_151)">
<path d="M157.423 267.5L144.923 279L138.923 282L128.923 279C129.09 277.833 130.223 275 133.423 273L138.923 275.5L138.923 267.5L133.423 263L135.923 255L138.923 255L147.923 255L153.423 263L157.423 267.5Z" fill="#5A5757"/>
<path d="M157.423 267.5L144.923 279L138.923 282L128.923 279C129.09 277.833 130.223 275 133.423 273L138.923 275.5L138.923 267.5L133.423 263L135.923 255L138.923 255L147.923 255L153.423 263L157.423 267.5Z" stroke="#414141"/>
</g>
<g filter="url(#filter1_i_1_151)">
<path d="M248.885 179.326L231.26 176.799L224.26 164.675L236.385 157.675L237.081 146.881L234.081 141.685L231.777 125.694L236.205 117.364C243.857 117.95 259.86 120.335 262.66 125.185L265.66 130.381L272.66 142.505L269.365 154.799L266.205 169.326L259.277 173.326L248.885 179.326Z" fill="#353434"/>
</g>
<path d="M248.885 179.326L231.26 176.799L224.26 164.675L236.385 157.675L237.081 146.881L234.081 141.685L231.777 125.694L236.205 117.364C243.857 117.95 259.86 120.335 262.66 125.185L265.66 130.381L272.66 142.505L269.365 154.799L266.205 169.326L259.277 173.326L248.885 179.326Z" stroke="#AC9E9E"/>
<g filter="url(#filter2_i_1_151)">
<path d="M203.048 308L185.423 305.474L178.423 293.349L172.923 275.555L172.923 259.055L178.423 246.038L185.423 240L196.923 240C204.575 240.586 213.44 240 216.823 253.859C218.15 259.299 219.989 259.344 219.823 259.055L226.823 271.179L223.528 283.474L220.368 298L213.44 302L203.048 308Z" fill="#353434"/>
</g>
<path d="M203.048 308L185.423 305.474L178.423 293.349L172.923 275.555L172.923 259.055L178.423 246.038L185.423 240L196.923 240C204.575 240.586 213.44 240 216.823 253.859C218.15 259.299 219.989 259.344 219.823 259.055L226.823 271.179L223.528 283.474L220.368 298L213.44 302L203.048 308Z" stroke="#AC9E9E"/>
<path d="M44.6476 209C44.2476 211.8 34.8143 219.833 30.1476 223.5L30.1476 226.5L23.1476 231L16.1476 229L13.1476 223.5L19.1476 217.5C20.7476 215.9 23.8142 216.833 25.1476 217.5C24.4809 214.667 22.8476 209 21.6476 209C20.4476 209 19.4809 207.333 19.1476 206.5C17.1476 207.333 12.6476 208.5 10.6476 206.5C8.64758 204.5 7.81425 201 7.64758 199.5L7.64758 193C8.81425 192 11.5476 189.4 13.1476 187C14.7476 184.6 17.8142 186 19.1476 187L30.1476 187L33.1476 187C34.8142 187.667 38.9476 189.8 42.1476 193C46.1476 197 44.6476 197 44.6476 199.5C44.6476 202 45.1476 205.5 44.6476 209Z" fill="#413E3E" stroke="#AC9E9E"/>
<path d="M44.4231 215C44.0231 217.8 34.5898 225.833 29.9231 229.5L29.9231 232.5L22.9231 237L15.9231 235L12.9231 229.5C4.00086 211.655 8.23757 212.83 7.42309 205.5L7.42309 199C8.58976 198 11.3231 195.4 12.9231 193C14.5231 190.6 17.5898 192 18.9231 193L29.9231 193L32.9231 193C34.5898 193.667 38.7231 195.8 41.9231 199C45.9231 203 44.4231 203 44.4231 205.5C44.4231 208 44.9231 211.5 44.4231 215Z" fill="#7A7A7A" stroke="#AC9E9E"/>
<path d="M120.419 28.2938C118.419 31.4938 116.363 45.3855 112.197 48.0522C113.53 48.3855 107.256 54.9133 106.456 62.9133C105.256 64.9133 110.876 75.4631 111.376 77.6297C112.376 79.7964 115.988 81.898 117.188 82.698C118.688 83.698 120.741 83.2048 122.153 83.2958C123.952 83.4118 126.8 83.0769 127.8 84.0769C128.8 85.0769 131.112 81.108 135.612 83.608C140.112 86.108 141.156 81.407 144.156 80.407C147.156 79.407 148.535 79.358 149.035 75.858C149.535 72.358 153.847 72.1931 153.847 70.1931C153.847 68.1931 152.494 64.912 155.994 64.912C159.494 64.912 163.423 66.108 165.923 66.108C168.423 66.108 172.77 61.0801 173.77 60.0801C174.77 59.0801 179.796 60.735 181.296 55.735C182.796 50.735 183.296 53.735 186.796 52.735C190.296 51.735 188.385 48.5769 191.885 47.0769C194.685 45.8769 191.936 39.7468 191.77 38.5801L190.27 32.0801L190.27 21.0801L182.27 13.0801C179.436 13.0801 175.136 4.20878 167.136 4.20878C157.136 4.20878 153.034 10.2938 145.534 13.7938C138.034 17.2938 122.919 24.2938 120.419 28.2938Z" fill="#413E3E" stroke="#7A7A7A"/>
<path d="M118.13 25.085C116.13 28.285 114.075 42.1767 109.908 44.8434C111.241 45.1767 104.968 51.7045 104.168 59.7045C102.968 61.7045 108.587 72.2543 109.087 74.4209C110.087 76.5876 113.7 78.6892 114.9 79.4892C116.4 80.4892 118.452 79.996 119.864 80.087C121.663 80.203 124.511 79.8681 125.511 80.8681C126.511 81.8681 128.823 77.8992 133.323 80.3992C137.823 82.8992 138.867 78.1982 141.867 77.1982C144.867 76.1982 146.246 76.1492 146.746 72.6492C147.246 69.1492 151.559 68.9843 151.559 66.9843C151.559 64.9843 150.206 61.7032 153.706 61.7032C157.206 61.7032 161.134 62.8992 163.634 62.8992C166.134 62.8992 170.481 57.8713 171.481 56.8713C172.481 55.8713 177.507 57.5262 179.007 52.5262C180.507 47.5262 181.007 50.5262 184.507 49.5262C188.007 48.5262 186.097 45.3681 189.597 43.8681C192.397 42.6681 189.648 36.538 189.481 35.3713L187.981 28.8713L187.981 17.8713L179.981 9.87132C177.148 9.87132 172.847 0.999983 164.847 0.999983C154.847 0.999983 150.745 7.085 143.245 10.585C135.745 14.085 120.63 21.085 118.13 25.085Z" fill="#7A7A7A" stroke="#7A7A7A"/>
<defs>
<filter id="filter0_d_1_151" x="116.367" y="242.5" width="53.756" height="52.0359" filterUnits="userSpaceOnUse" color-interpolation-filters="sRGB">
<feFlood flood-opacity="0" result="BackgroundImageFix"/>
<feColorMatrix in="SourceAlpha" type="matrix" values="0 0 0 0 0 0 0 0 0 0 0 0 0 0 0 0 0 0 127 0" result="hardAlpha"/>
<feOffset/>
<feGaussianBlur stdDeviation="6"/>
<feComposite in2="hardAlpha" operator="out"/>
<feColorMatrix type="matrix" values="0 0 0 0 0 0 0 0 0 0 0 0 0 0 0 0 0 0 0.1 0"/>
<feBlend mode="normal" in2="BackgroundImageFix" result="effect1_dropShadow_1_151"/>
<feBlend mode="normal" in="SourceGraphic" in2="effect1_dropShadow_1_151" result="shape"/>
</filter>
<filter id="filter1_i_1_151" x="223.577" y="116.841" width="49.6189" height="67.0045" filterUnits="userSpaceOnUse" color-interpolation-filters="sRGB">
<feFlood flood-opacity="0" result="BackgroundImageFix"/>
<feBlend mode="normal" in="SourceGraphic" in2="BackgroundImageFix" result="shape"/>
<feColorMatrix in="SourceAlpha" type="matrix" values="0 0 0 0 0 0 0 0 0 0 0 0 0 0 0 0 0 0 127 0" result="hardAlpha"/>
<feOffset dy="4"/>
<feGaussianBlur stdDeviation="11"/>
<feComposite in2="hardAlpha" operator="arithmetic" k2="-1" k3="1"/>
<feColorMatrix type="matrix" values="0 0 0 0 0 0 0 0 0 0 0 0 0 0 0 0 0 0 0.68 0"/>
<feBlend mode="normal" in2="shape" result="effect1_innerShadow_1_151"/>
</filter>
<filter id="filter2_i_1_151" x="172.423" y="239.5" width="54.9359" height="73.0195" filterUnits="userSpaceOnUse" color-interpolation-filters="sRGB">
<feFlood flood-opacity="0" result="BackgroundImageFix"/>
<feBlend mode="normal" in="SourceGraphic" in2="BackgroundImageFix" result="shape"/>
<feColorMatrix in="SourceAlpha" type="matrix" values="0 0 0 0 0 0 0 0 0 0 0 0 0 0 0 0 0 0 127 0" result="hardAlpha"/>
<feOffset dy="4"/>
<feGaussianBlur stdDeviation="11"/>
<feComposite in2="hardAlpha" operator="arithmetic" k2="-1" k3="1"/>
<feColorMatrix type="matrix" values="0 0 0 0 0 0 0 0 0 0 0 0 0 0 0 0 0 0 0.68 0"/>
<feBlend mode="normal" in2="shape" result="effect1_innerShadow_1_151"/>
</filter>
</defs>
</svg>
