<svg width="312" height="358" viewBox="0 0 312 358" fill="none" xmlns="http://www.w3.org/2000/svg">
<path d="M96.1579 151.217C69.3026 151.217 7.5 79.5 7.5 79.5L-3.00001 98.0333L-3.00001 204.4C-3.00001 216.674 5.26316 357.815 11.4605 390.543C16.4184 416.726 25.9211 401.453 30.0526 390.543L85.8289 376.224L234.566 376.224L311 376.224L311 357.815L300.671 339.405L284.145 327.132L263.487 327.132L249.026 286.221L211.842 286.221L195.316 245.311L222.171 226.901L211.842 204.4L211.842 181.9L195.316 151.217L137.474 151.217L96.1579 151.217Z" fill="#413E3E" stroke="#686464"/>
<path d="M78 157C65.5 149 7.5 82.5 7.5 82.5L-15 105L-15 209C-15 221 -7 359 -1 391C3.8 416.6 13 401.667 17 391L71 377L215 377L289 377L289 359L279 341L263 329L243 329L229 289L193 289L177 249L203 231L193 209L193 187L177 157L121 157C121 157 90.5 165 78 157Z" fill="#7A7A7A"/>
<path d="M-15 209C-15 221 -7 359 -1 391C3.8 416.6 13 401.667 17 391L71 377L215 377L289 377L289 359L279 341L263 329L243 329L229 289L193 289L177 249L203 231L193 209L193 187L177 157L121 157C121 157 90.5 165 78 157C65.5 149 7.5 82.5 7.5 82.5L-15 105M-15 209C-15 199.4 -15 135.667 -15 105M-15 209L-15 105" stroke="#413E3E"/>
<g filter="url(#filter0_d_1_113)">
<path d="M50.5 235.5L39 223L36 217L39 207C40.1667 207.167 43 208.3 45 211.5L42.5 217L50.5 217L55 211.5L63 214L63 217L63 226L55 231.5L50.5 235.5Z" fill="#5A5757"/>
<path d="M50.5 235.5L39 223L36 217L39 207C40.1667 207.167 43 208.3 45 211.5L42.5 217L50.5 217L55 211.5L63 214L63 217L63 226L55 231.5L50.5 235.5Z" stroke="#414141"/>
</g>
<path d="M266.5 275L233.5 275L216 234L230 225.5L239 216L231.5 199L230 194L230 188.5C231.167 183.333 234.6 173 239 173C244.5 173 246.5 174.5 255.5 184C259.5 189.5 261 186.5 263 188.5C264.6 190.1 266 192.833 266.5 194L271 201L275.5 201L278 206L281 211L275.5 216L275.5 225.5L271 229.5L281 248.5L266.5 275Z" fill="#413E3E" stroke="#414141"/>
<path d="M261.5 275L228.5 275L211 234L225 225.5L234 216L226.5 199L225 194L225 188.5C226.167 183.333 229.6 173 234 173C239.5 173 241.5 174.5 250.5 184C254.5 189.5 256 186.5 258 188.5C259.6 190.1 261 192.833 261.5 194L266 201L270.5 201L273 206L276 211L270.5 216L270.5 225.5L266 229.5L276 248.5L261.5 275Z" fill="#7A7A7A" stroke="#5B5858"/>
<g filter="url(#filter1_i_1_113)">
<path d="M138.674 326.961L141.201 309.337L153.325 302.337L160.325 314.461L171.119 315.157L176.315 312.157L192.306 309.854L200.636 314.282C200.05 321.933 197.665 337.936 192.815 340.736L187.619 343.736L175.495 350.736L163.201 347.442L148.674 344.282L144.674 337.354L138.674 326.961Z" fill="#353434"/>
</g>
<path d="M138.674 326.961L141.201 309.337L153.325 302.337L160.325 314.461L171.119 315.157L176.315 312.157L192.306 309.854L200.636 314.282C200.05 321.933 197.665 337.936 192.815 340.736L187.619 343.736L175.495 350.736L163.201 347.442L148.674 344.282L144.674 337.354L138.674 326.961Z" stroke="#AC9E9E"/>
<g filter="url(#filter2_i_1_113)">
<path d="M10 281.124L12.5263 263.5L24.6506 256.5L42.4449 251L58.9449 251L71.9615 256.5L78 263.5L78 275C77.4139 282.651 78 291.517 64.141 294.899C58.7007 296.227 58.6562 298.066 58.9449 297.899L46.8205 304.899L34.5263 301.605L20 298.445L16 291.517L10 281.124Z" fill="#353434"/>
</g>
<path d="M10 281.124L12.5263 263.5L24.6506 256.5L42.4449 251L58.9449 251L71.9615 256.5L78 263.5L78 275C77.4139 282.651 78 291.517 64.141 294.899C58.7007 296.227 58.6562 298.066 58.9449 297.899L46.8205 304.899L34.5263 301.605L20 298.445L16 291.517L10 281.124Z" stroke="#AC9E9E"/>
<path d="M109 122.724C106.2 122.324 98.1667 112.891 94.5 108.224L91.5 108.224L87 101.224L89 94.2244L94.5 91.2244L100.5 97.2244C102.1 98.8244 101.167 101.891 100.5 103.224C103.333 102.558 109 100.924 109 99.7244C109 98.5244 110.667 97.5578 111.5 97.2244C110.667 95.2244 109.5 90.7244 111.5 88.7244C113.5 86.7244 117 85.8911 118.5 85.7244L125 85.7244C126 86.8911 128.6 89.6244 131 91.2244C133.4 92.8244 132 95.8911 131 97.2244L131 108.224L131 111.224C130.333 112.891 128.2 117.024 125 120.224C121 124.224 121 122.724 118.5 122.724C116 122.724 112.5 123.224 109 122.724Z" fill="#413E3E" stroke="#AC9E9E"/>
<path d="M103 122.5C100.2 122.1 92.1667 112.667 88.5 108L85.5 108L81 101L83 93.9999L88.5 90.9999C106.345 82.0777 105.17 86.3144 112.5 85.4999L119 85.4999C120 86.6666 122.6 89.3999 125 90.9999C127.4 92.5999 126 95.6666 125 96.9999L125 108L125 111C124.333 112.667 122.2 116.8 119 120C115 124 115 122.5 112.5 122.5C110 122.5 106.5 123 103 122.5Z" fill="#7A7A7A" stroke="#AC9E9E"/>
<path d="M76.0378 54.8355C73.5516 56.1572 67.0404 64.367 63.353 64.5357C64.0902 65.2486 57.6007 67.1262 54.0991 71.9973C52.5775 72.842 52.2726 81.7557 51.7874 83.3423C51.6252 85.1155 53.1758 87.8215 53.6528 88.7861C54.249 89.992 55.7595 90.4391 56.6375 91.0245C57.7568 91.7706 59.7222 92.6168 59.9953 93.636C60.2684 94.6553 63.2433 92.9532 65.2185 96.2476C67.1936 99.542 69.6223 96.8938 71.9339 97.3669C74.2456 97.8399 75.1551 98.3228 76.784 96.2476C78.4129 94.1725 81.261 95.6747 82.0071 94.3823C82.7533 93.0899 83.1032 90.4649 85.3649 91.7707C87.6266 93.0765 89.7187 95.3149 91.3342 96.2476C92.9497 97.1803 97.6346 95.5531 98.6539 95.28C99.6732 95.0069 102.304 97.9514 105.138 95.28C107.973 92.6086 107.177 94.7338 109.812 95.3934C112.446 96.0529 112.39 93.2995 115.212 93.636C117.469 93.9052 117.979 88.9183 118.307 88.1022L119.763 83.3423L123.866 76.2341L121.682 68.0798C119.851 67.0228 120.381 59.6855 115.212 56.7009C108.75 52.97 103.829 55.372 97.6767 54.8355C91.5244 54.2991 79.1456 53.1835 76.0378 54.8355Z" fill="black" fill-opacity="0.33"/>
<path d="M53.2562 31.9235C49.9241 33.6948 41.198 44.6974 36.2562 44.9235C37.2442 45.8788 28.5471 48.3952 23.8543 54.9234C21.8151 56.0555 21.4065 68.0014 20.7562 70.1278C20.5389 72.5042 22.617 76.1307 23.2562 77.4235C24.0552 79.0395 26.0796 79.6388 27.2563 80.4232C28.7563 81.4233 31.3902 82.5572 31.7563 83.9232C32.1223 85.2893 36.1092 83.0082 38.7563 87.4232C41.4034 91.8383 44.6582 88.2893 47.7563 88.9233C50.8543 89.5572 52.0732 90.2043 54.2562 87.4232C56.4392 84.6421 60.2562 86.6554 61.2562 84.9234C62.2562 83.1913 62.7251 79.6734 65.7562 81.4234C68.7873 83.1734 71.5911 86.1732 73.7562 87.4232C75.9213 88.6732 82.1998 86.4925 83.5659 86.1264C84.9319 85.7604 88.4572 89.7066 92.2562 86.1264C96.0552 82.5463 94.9882 85.3944 98.5193 86.2784C102.05 87.1623 101.975 83.4723 105.756 83.9232C108.781 84.284 109.465 77.6006 109.904 76.5069L111.855 70.1277L117.355 60.6015L114.427 49.6733C111.973 48.2566 112.684 38.4234 105.756 34.4234C97.0959 29.4234 90.5014 32.6424 82.2562 31.9235C74.011 31.2046 57.4213 29.7094 53.2562 31.9235Z" fill="#413E3E" stroke="#7A7A7A"/>
<path d="M52.8784 28.0002C49.5463 29.7715 40.8202 40.7741 35.8784 41.0002C36.8664 41.9555 28.1693 44.4719 23.4765 51.0001C21.4373 52.1322 21.0287 64.0781 20.3784 66.2045C20.1611 68.5809 22.2392 72.2074 22.8784 73.5002C23.6774 75.1162 25.7018 75.7155 26.8785 76.4999C28.3785 77.5 31.0124 78.6339 31.3784 79.9999C31.7445 81.366 35.7313 79.0849 38.3785 83.4999C41.0256 87.915 44.2804 84.366 47.3784 84.9999C50.4765 85.6339 51.6954 86.281 53.8784 83.4999C56.0614 80.7188 59.8784 82.7321 60.8784 81.0001C61.8784 79.268 62.3473 75.7501 65.3784 77.5001C68.4095 79.2501 71.2133 82.2499 73.3784 83.4999C75.5435 84.7499 81.822 82.5692 83.1881 82.2031C84.5541 81.8371 88.0793 85.7833 91.8784 82.2031C95.6774 78.623 94.6104 81.4711 98.1415 82.3551C101.673 83.239 101.597 79.549 105.378 79.9999C108.403 80.3607 109.088 73.6773 109.527 72.5836L111.477 66.2044L116.977 56.6781L114.049 45.7499C111.596 44.3333 112.307 34.5001 105.378 30.5001C96.7181 25.5001 90.1236 28.7191 81.8784 28.0002C73.6332 27.2812 57.0435 25.7861 52.8784 28.0002Z" fill="#7A7A7A" stroke="#7A7A7A"/>
<defs>
<filter id="filter0_d_1_113" x="23.4641" y="194.444" width="52.0359" height="53.7561" filterUnits="userSpaceOnUse" color-interpolation-filters="sRGB">
<feFlood flood-opacity="0" result="BackgroundImageFix"/>
<feColorMatrix in="SourceAlpha" type="matrix" values="0 0 0 0 0 0 0 0 0 0 0 0 0 0 0 0 0 0 127 0" result="hardAlpha"/>
<feOffset/>
<feGaussianBlur stdDeviation="6"/>
<feComposite in2="hardAlpha" operator="out"/>
<feColorMatrix type="matrix" values="0 0 0 0 0 0 0 0 0 0 0 0 0 0 0 0 0 0 0.1 0"/>
<feBlend mode="normal" in2="BackgroundImageFix" result="effect1_dropShadow_1_113"/>
<feBlend mode="normal" in="SourceGraphic" in2="effect1_dropShadow_1_113" result="shape"/>
</filter>
<filter id="filter1_i_1_113" x="138.155" y="301.654" width="63.0045" height="53.619" filterUnits="userSpaceOnUse" color-interpolation-filters="sRGB">
<feFlood flood-opacity="0" result="BackgroundImageFix"/>
<feBlend mode="normal" in="SourceGraphic" in2="BackgroundImageFix" result="shape"/>
<feColorMatrix in="SourceAlpha" type="matrix" values="0 0 0 0 0 0 0 0 0 0 0 0 0 0 0 0 0 0 127 0" result="hardAlpha"/>
<feOffset dy="4"/>
<feGaussianBlur stdDeviation="11"/>
<feComposite in2="hardAlpha" operator="arithmetic" k2="-1" k3="1"/>
<feColorMatrix type="matrix" values="0 0 0 0 0 0 0 0 0 0 0 0 0 0 0 0 0 0 0.68 0"/>
<feBlend mode="normal" in2="shape" result="effect1_innerShadow_1_113"/>
</filter>
<filter id="filter2_i_1_113" x="9.48053" y="250.5" width="69.0195" height="58.9359" filterUnits="userSpaceOnUse" color-interpolation-filters="sRGB">
<feFlood flood-opacity="0" result="BackgroundImageFix"/>
<feBlend mode="normal" in="SourceGraphic" in2="BackgroundImageFix" result="shape"/>
<feColorMatrix in="SourceAlpha" type="matrix" values="0 0 0 0 0 0 0 0 0 0 0 0 0 0 0 0 0 0 127 0" result="hardAlpha"/>
<feOffset dy="4"/>
<feGaussianBlur stdDeviation="11"/>
<feComposite in2="hardAlpha" operator="arithmetic" k2="-1" k3="1"/>
<feColorMatrix type="matrix" values="0 0 0 0 0 0 0 0 0 0 0 0 0 0 0 0 0 0 0.68 0"/>
<feBlend mode="normal" in2="shape" result="effect1_innerShadow_1_113"/>
</filter>
</defs>
</svg>
