<svg width="327" height="353" viewBox="0 0 327 353" fill="none" xmlns="http://www.w3.org/2000/svg">
<g filter="url(#filter0_d_1_48)">
<path d="M242.842 230.918C269.697 230.918 322.375 314.135 322.375 314.135L342 284.102L342 177.735C342 165.461 333.737 24.3203 327.539 -8.40811C322.582 -34.5908 313.079 -19.3176 308.947 -8.40811L253.171 5.91055L104.434 5.91055L28 5.91054L28 24.3203L38.3289 42.73L54.8553 55.0031L75.5131 55.0031L89.9737 95.9136L127.158 95.9136L143.684 136.824L116.829 155.234L127.158 177.735L127.158 200.235L143.684 230.918L201.526 230.918L242.842 230.918Z" fill="#413E3E" stroke="#626161"/>
<path d="M261 225.135C273.5 233.135 322 309.135 322 309.135L354 277.135L354 173.135C354 161.135 346 23.1351 340 -8.86492C335.2 -34.4649 326 -19.5316 322 -8.86492L268 5.13508L124 5.13507L50 5.13507L50 23.1351L60 41.1351L76 53.1351L96 53.1351L110 93.1351L146 93.1351L162 133.135L136 151.135L146 173.135L146 195.135L162 225.135L218 225.135C218 225.135 248.5 217.135 261 225.135Z" fill="#7A7A7A"/>
<path d="M354 173.135C354 161.135 346 23.1351 340 -8.86492C335.2 -34.4649 326 -19.5316 322 -8.86492L268 5.13508L124 5.13507L50 5.13507L50 23.1351L60 41.1351L76 53.1351L96 53.1351L110 93.1351L146 93.1351L162 133.135L136 151.135L146 173.135L146 195.135L162 225.135L218 225.135C218 225.135 248.5 217.135 261 225.135C273.5 233.135 322 309.135 322 309.135L354 277.135M354 173.135C354 182.735 354 246.468 354 277.135M354 173.135L354 277.135" stroke="#5B5757"/>
<g filter="url(#filter1_d_1_48)">
<path d="M288.5 146.635L300 159.135L303 165.135L300 175.135C298.833 174.968 296 173.835 294 170.635L296.5 165.135L288.5 165.135L284 170.635L276 168.135L276 165.135L276 156.135L284 150.635L288.5 146.635Z" fill="#5A5757"/>
<path d="M288.5 146.635L300 159.135L303 165.135L300 175.135C298.833 174.968 296 173.835 294 170.635L296.5 165.135L288.5 165.135L284 170.635L276 168.135L276 165.135L276 156.135L284 150.635L288.5 146.635Z" stroke="#414141"/>
</g>
<path d="M72.5 107.135L105.5 107.135L123 148.135L109 156.635L100 166.135L107.5 183.135L109 188.135L109 193.635C107.833 198.802 104.4 209.135 100 209.135C94.5 209.135 92.5 207.635 83.5 198.135C79.5 192.635 78 195.635 76 193.635C74.4 192.035 73 189.302 72.5 188.135L68 181.135L63.5 181.135L61 176.135L58 171.135L63.5 166.135L63.5 156.635L68 152.635L58 133.635L72.5 107.135Z" fill="#413E3E" stroke="#414141"/>
<path d="M77.5 107.135L110.5 107.135L128 148.135L114 156.635L105 166.135L112.5 183.135L114 188.135L114 193.635C112.833 198.802 109.4 209.135 105 209.135C99.5 209.135 97.5 207.635 88.5 198.135C84.5 192.635 83 195.635 81 193.635C79.4 192.035 78 189.302 77.5 188.135L73 181.135L68.5 181.135L66 176.135L63 171.135L68.5 166.135L68.5 156.635L73 152.635L63 133.635L77.5 107.135Z" fill="#7A7A7A" stroke="#605858"/>
<g filter="url(#filter2_i_1_48)">
<path d="M190.462 64.775L187.935 82.3994L175.811 89.3994L168.811 77.275L158.017 76.5788L152.821 79.5788L136.83 81.8827L128.5 77.4545C129.086 69.803 131.471 53.8 136.321 51L141.517 48L153.641 41L165.935 44.2942L180.462 47.4545L184.462 54.3827L190.462 64.775Z" fill="#353434"/>
</g>
<path d="M190.462 64.775L187.935 82.3994L175.811 89.3994L168.811 77.275L158.017 76.5788L152.821 79.5788L136.83 81.8827L128.5 77.4545C129.086 69.803 131.471 53.8 136.321 51L141.517 48L153.641 41L165.935 44.2942L180.462 47.4545L184.462 54.3827L190.462 64.775Z" stroke="#AC9E9E"/>
<g filter="url(#filter3_i_1_48)">
<path d="M256.462 148.775L253.935 166.399L241.811 173.399L231.935 173.399L224 175.5L210 178.5L202.83 165.883L194.5 161.454C195.086 153.803 197.471 137.8 202.321 135L207.517 132L219.641 125L231.935 128.294L246.462 131.454L250.462 138.383L256.462 148.775Z" fill="#353434"/>
</g>
<path d="M256.462 148.775L253.935 166.399L241.811 173.399L231.935 173.399L224 175.5L210 178.5L202.83 165.883L194.5 161.454C195.086 153.803 197.471 137.8 202.321 135L207.517 132L219.641 125L231.935 128.294L246.462 131.454L250.462 138.383L256.462 148.775Z" stroke="#AC9E9E"/>
<path d="M173.55 284.184C175.417 284.45 180.772 290.739 183.217 293.85L185.217 293.85L188.217 298.517L186.883 303.184L183.217 305.184L179.217 301.184C178.15 300.117 178.772 298.073 179.217 297.184C177.328 297.628 173.55 298.717 173.55 299.517C173.55 300.317 172.439 300.961 171.883 301.184C172.439 302.517 173.217 305.517 171.883 306.85C170.55 308.184 168.217 308.739 167.217 308.85L162.883 308.85C162.217 308.073 160.483 306.25 158.883 305.184C157.283 304.117 158.217 302.073 158.883 301.184L158.883 293.85L158.883 291.85C159.328 290.739 160.75 287.984 162.883 285.85C165.55 283.184 165.55 284.184 167.217 284.184C168.883 284.184 171.217 283.85 173.55 284.184Z" fill="#413E3E" stroke="#AC9E9E"/>
<path d="M177.55 284.333C179.417 284.6 184.772 290.889 187.217 294L189.217 294L192.217 298.667L190.883 303.333L187.217 305.333L183.217 301.333C182.15 300.267 182.772 298.222 183.217 297.333C181.328 297.778 177.55 298.867 177.55 299.667C177.55 300.467 176.439 301.111 175.883 301.333C176.439 302.667 177.217 305.667 175.883 307C174.55 308.333 172.217 308.889 171.217 309L166.883 309C166.217 308.222 164.483 306.4 162.883 305.333C161.283 304.267 162.217 302.222 162.883 301.333L162.883 294L162.883 292C163.328 290.889 164.75 288.133 166.883 286C169.55 283.333 169.55 284.333 171.217 284.333C172.883 284.333 175.217 284 177.55 284.333Z" fill="#7A7A7A" stroke="#AC9E9E"/>
<path d="M222.701 264C219.501 262 213.368 253.167 210.701 249C210.368 250.333 207.701 252.8 199.701 252C197.701 250.8 192.868 251.5 190.701 252C188.535 253 184.001 255.3 183.201 256.5C182.201 258 185.201 258 186.201 259C187.201 260 189.701 265.5 188.701 266.5C187.701 267.5 187.701 269 185.201 273.5C182.701 278 185.201 278 186.201 281C187.201 284 190.201 282 193.701 282.5C197.201 283 197.701 284 199.701 284C201.701 284 203.701 288.5 203.701 292C203.701 295.5 202.201 298 202.201 300.5C202.201 303 205.201 311 206.201 312C207.201 313 210.701 312.5 215.701 314C220.701 315.5 217.701 316 218.701 319.5C219.701 323 221.201 323.5 222.701 327C223.901 329.8 226.535 330.167 227.701 330L234.201 328.5H245.201L253.201 320.5V302C253.201 292 251.201 291.5 247.701 284C244.201 276.5 226.701 266.5 222.701 264Z" fill="#413E3E" stroke="#7A7A7A"/>
<path d="M229 260.5C225.8 258.5 219.667 249.667 217 245.5C216.667 246.833 214 249.3 206 248.5C204 247.3 199.167 248 197 248.5C194.833 249.5 190.3 251.8 189.5 253C188.5 254.5 191.5 254.5 192.5 255.5C193.5 256.5 196 262 195 263C194 264 194 265.5 191.5 270C189 274.5 191.5 274.5 192.5 277.5C193.5 280.5 196.5 278.5 200 279C203.5 279.5 204 280.5 206 280.5C208 280.5 210 285 210 288.5C210 292 208.5 294.5 208.5 297C208.5 299.5 211.5 307.5 212.5 308.5C213.5 309.5 217 309 222 310.5C227 312 224 312.5 225 316C226 319.5 227.5 320 229 323.5C230.2 326.3 232.833 326.667 234 326.5L240.5 325H251.5L259.5 317V298.5C259.5 288.5 257.5 288 254 280.5C250.5 273 233 263 229 260.5Z" fill="#7A7A7A" stroke="#7A7A7A"/>
</g>
<defs>
<filter id="filter0_d_1_48" x="0.5" y="-37.5001" width="363" height="390.033" filterUnits="userSpaceOnUse" color-interpolation-filters="sRGB">
<feFlood flood-opacity="0" result="BackgroundImageFix"/>
<feColorMatrix in="SourceAlpha" type="matrix" values="0 0 0 0 0 0 0 0 0 0 0 0 0 0 0 0 0 0 127 0" result="hardAlpha"/>
<feOffset dx="-9" dy="4"/>
<feGaussianBlur stdDeviation="9"/>
<feComposite in2="hardAlpha" operator="out"/>
<feColorMatrix type="matrix" values="0 0 0 0 0 0 0 0 0 0 0 0 0 0 0 0 0 0 0.25 0"/>
<feBlend mode="normal" in2="BackgroundImageFix" result="effect1_dropShadow_1_48"/>
<feBlend mode="normal" in="SourceGraphic" in2="effect1_dropShadow_1_48" result="shape"/>
</filter>
<filter id="filter1_d_1_48" x="263.5" y="133.935" width="52.0359" height="53.7561" filterUnits="userSpaceOnUse" color-interpolation-filters="sRGB">
<feFlood flood-opacity="0" result="BackgroundImageFix"/>
<feColorMatrix in="SourceAlpha" type="matrix" values="0 0 0 0 0 0 0 0 0 0 0 0 0 0 0 0 0 0 127 0" result="hardAlpha"/>
<feOffset/>
<feGaussianBlur stdDeviation="6"/>
<feComposite in2="hardAlpha" operator="out"/>
<feColorMatrix type="matrix" values="0 0 0 0 0 0 0 0 0 0 0 0 0 0 0 0 0 0 0.1 0"/>
<feBlend mode="normal" in2="BackgroundImageFix" result="effect1_dropShadow_1_48"/>
<feBlend mode="normal" in="SourceGraphic" in2="effect1_dropShadow_1_48" result="shape"/>
</filter>
<filter id="filter2_i_1_48" x="127.976" y="40.4634" width="63.0046" height="53.6189" filterUnits="userSpaceOnUse" color-interpolation-filters="sRGB">
<feFlood flood-opacity="0" result="BackgroundImageFix"/>
<feBlend mode="normal" in="SourceGraphic" in2="BackgroundImageFix" result="shape"/>
<feColorMatrix in="SourceAlpha" type="matrix" values="0 0 0 0 0 0 0 0 0 0 0 0 0 0 0 0 0 0 127 0" result="hardAlpha"/>
<feOffset dy="4"/>
<feGaussianBlur stdDeviation="11"/>
<feComposite in2="hardAlpha" operator="arithmetic" k2="-1" k3="1"/>
<feColorMatrix type="matrix" values="0 0 0 0 0 0 0 0 0 0 0 0 0 0 0 0 0 0 0.68 0"/>
<feBlend mode="normal" in2="shape" result="effect1_innerShadow_1_48"/>
</filter>
<filter id="filter3_i_1_48" x="193.976" y="124.463" width="63.0046" height="58.6023" filterUnits="userSpaceOnUse" color-interpolation-filters="sRGB">
<feFlood flood-opacity="0" result="BackgroundImageFix"/>
<feBlend mode="normal" in="SourceGraphic" in2="BackgroundImageFix" result="shape"/>
<feColorMatrix in="SourceAlpha" type="matrix" values="0 0 0 0 0 0 0 0 0 0 0 0 0 0 0 0 0 0 127 0" result="hardAlpha"/>
<feOffset dy="4"/>
<feGaussianBlur stdDeviation="11"/>
<feComposite in2="hardAlpha" operator="arithmetic" k2="-1" k3="1"/>
<feColorMatrix type="matrix" values="0 0 0 0 0 0 0 0 0 0 0 0 0 0 0 0 0 0 0.68 0"/>
<feBlend mode="normal" in2="shape" result="effect1_innerShadow_1_48"/>
</filter>
</defs>
</svg>
