<svg width="300" height="300" viewBox="0 0 300 300" fill="none" xmlns="http://www.w3.org/2000/svg">
<path d="M37 205.5H219C223.694 205.5 227.5 209.306 227.5 214V219C227.5 223.694 223.694 227.5 219 227.5H37C32.3056 227.5 28.5 223.694 28.5 219V216.5V214C28.5 209.306 32.3056 205.5 37 205.5Z" fill="#F9E006" stroke="black" stroke-width="3"/>
<path d="M27 181H209C213.418 181 217 184.582 217 189V194C217 198.418 213.418 202 209 202H27C22.5817 202 19 198.418 19 194V191.5V189C19 184.582 22.5817 181 27 181Z" fill="#F9E006" stroke="black" stroke-width="4"/>
<path d="M10 156H192C196.418 156 200 159.582 200 164V169C200 173.418 196.418 177 192 177H10C5.58172 177 2 173.418 2 169V166.5V164C2 159.582 5.58172 156 10 156Z" fill="#F9E006" stroke="black" stroke-width="4"/>
<path d="M155.433 81.5463L282.72 211.631C285.81 214.789 285.755 219.854 282.597 222.944L279.024 226.441C275.866 229.531 270.801 229.476 267.711 226.318L140.423 96.2332C137.333 93.0753 137.388 88.0103 140.546 84.9202L142.333 83.1718L144.12 81.4233C147.278 78.3332 152.343 78.3883 155.433 81.5463Z" fill="#F9E006" stroke="black" stroke-width="4"/>
<path d="M137.5 226V157H199L270.5 226H137.5Z" fill="#090808" fill-opacity="0.15"/>
</svg>
