<svg width="214" height="206" viewBox="0 0 214 206" fill="none" xmlns="http://www.w3.org/2000/svg">
<path d="M118.597 202.607H-1.80664V-4.40149H211V46.4832V126.28L118.597 202.607Z" fill="#464646"/>
<path d="M-1.80664 202.607H-4.30664V205.107H-1.80664V202.607ZM118.597 202.607V205.107H119.496L120.189 204.534L118.597 202.607ZM211 126.28L212.592 128.207L213.5 127.457V126.28H211ZM-1.80664 -4.40149V-6.90149H-4.30664V-4.40149H-1.80664ZM211 -4.40149H213.5V-6.90149H211V-4.40149ZM-1.80664 205.107H118.597V200.107H-1.80664V205.107ZM120.189 204.534L212.592 128.207L209.408 124.352L117.005 200.679L120.189 204.534ZM213.5 126.28V46.4832H208.5V126.28H213.5ZM-4.30664 -4.40149V202.607H0.693359V-4.40149H-4.30664ZM213.5 46.4832V-4.40149H208.5V46.4832H213.5ZM211 -6.90149H-1.80664V-1.90149H211V-6.90149Z" fill="#7BFE90"/>
<path d="M-1.80664 202.607H-4.30664V205.107H-1.80664V202.607ZM118.597 202.607V205.107H119.496L120.189 204.534L118.597 202.607ZM211 126.28L212.592 128.207L213.5 127.457V126.28H211ZM-1.80664 -4.40149V-6.90149H-4.30664V-4.40149H-1.80664ZM211 -4.40149H213.5V-6.90149H211V-4.40149ZM-1.80664 205.107H118.597V200.107H-1.80664V205.107ZM120.189 204.534L212.592 128.207L209.408 124.352L117.005 200.679L120.189 204.534ZM213.5 126.28V46.4832H208.5V126.28H213.5ZM-4.30664 -4.40149V202.607H0.693359V-4.40149H-4.30664ZM213.5 46.4832V-4.40149H208.5V46.4832H213.5ZM211 -6.90149H-1.80664V-1.90149H211V-6.90149Z" fill="#D4FFBF" fill-opacity="0.8"/>
<path d="M-1.80664 202.607H-4.30664V205.107H-1.80664V202.607ZM118.597 202.607V205.107H119.496L120.189 204.534L118.597 202.607ZM211 126.28L212.592 128.207L213.5 127.457V126.28H211ZM-1.80664 -4.40149V-6.90149H-4.30664V-4.40149H-1.80664ZM211 -4.40149H213.5V-6.90149H211V-4.40149ZM-1.80664 205.107H118.597V200.107H-1.80664V205.107ZM120.189 204.534L212.592 128.207L209.408 124.352L117.005 200.679L120.189 204.534ZM213.5 126.28V46.4832H208.5V126.28H213.5ZM-4.30664 -4.40149V202.607H0.693359V-4.40149H-4.30664ZM213.5 46.4832V-4.40149H208.5V46.4832H213.5ZM211 -6.90149H-1.80664V-1.90149H211V-6.90149Z" fill="#00FF19" fill-opacity="0.4"/>
<path d="M-3.1897 171.328H52.9032L92.1291 142.447" stroke="black" stroke-width="5"/>
<path d="M-3.1897 174.216H52.9032L97.6207 141.292" stroke="black" stroke-opacity="0.29" stroke-width="13"/>
<path d="M-2.79785 156.888H37.6642L58.7867 141.87" stroke="black" stroke-width="5"/>
<path d="M-8.68164 160.354H39.2333L63.1016 141.581" stroke="black" stroke-opacity="0.29" stroke-width="9"/>
<path d="M142.341 149.379H-9V-1.9567H186.345V117.122L142.341 149.379Z" fill="#282828" fill-opacity="0.61"/>
<path d="M139.853 144.18H-1.15503V-6H180.853V112.17L139.853 144.18Z" fill="#717070"/>
</svg>
