<svg width="320" height="320" viewBox="0 0 320 320" fill="none" xmlns="http://www.w3.org/2000/svg">
<path d="M77.6704 176.836L115.987 128.344L131.081 125.265L167.463 95.2461V84.47L172.494 76.7729L185.654 71H220.1L227.067 84.47V99.8644L232.872 108.716L227.067 113.719L230.163 119.107V125.265L227.067 128.344L230.163 137.196L206.554 145.662L198.813 155.669V159.902L211.585 183.379L232.872 190.306L241 215.322L235.194 226.868L238.678 232.64V252.268H235.194L230.163 246.11L220.1 249.189L211.585 246.11L202.296 226.868L193.781 236.489L150.433 270.741L161.657 291.909L172.494 298.066L167.463 304.609L144.241 298.066L141.144 304.609V315H106.311L49.4167 294.603L32 261.505L34.7093 222.634L49.4167 215.322L64.8981 183.379L77.6704 176.836Z" fill="#DED6CC" stroke="black" stroke-width="0.5"/>
<path d="M77.6704 176.836L115.987 128.344L131.081 125.265L167.463 95.2461V84.47L172.494 76.7729L185.654 71H220.1L227.067 84.47V99.8644L232.872 108.716L227.067 113.719L230.163 119.107V125.265L227.067 128.344L230.163 137.196L206.554 145.662L198.813 155.669V159.902L211.585 183.379L232.872 190.306L241 215.322L235.194 226.868L238.678 232.64V252.268H235.194L230.163 246.11L220.1 249.189L211.585 246.11L202.296 226.868L193.781 236.489L150.433 270.741L161.657 291.909L172.494 298.066L167.463 304.609L144.241 298.066L141.144 304.609V315H106.311L49.4167 294.603L32 261.505L34.7093 222.634L49.4167 215.322L64.8981 183.379L77.6704 176.836Z" fill="#DED6CC"/>
<path d="M77.6704 176.836L115.987 128.344L131.081 125.265L167.463 95.2461V84.47L172.494 76.7729L185.654 71H220.1L227.067 84.47V99.8644L232.872 108.716L227.067 113.719L230.163 119.107V125.265L227.067 128.344L230.163 137.196L206.554 145.662L198.813 155.669V159.902L211.585 183.379L232.872 190.306L241 215.322L235.194 226.868L238.678 232.64V252.268H235.194L230.163 246.11L220.1 249.189L211.585 246.11L202.296 226.868L193.781 236.489L150.433 270.741L161.657 291.909L172.494 298.066L167.463 304.609L144.241 298.066L141.144 304.609V315H106.311L49.4167 294.603L32 261.505L34.7093 222.634L49.4167 215.322L64.8981 183.379L77.6704 176.836Z" fill="url(#paint0_linear_91_2)" fill-opacity="0.4"/>
<path d="M77.6704 176.836L115.987 128.344L131.081 125.265L167.463 95.2461V84.47L172.494 76.7729L185.654 71H220.1L227.067 84.47V99.8644L232.872 108.716L227.067 113.719L230.163 119.107V125.265L227.067 128.344L230.163 137.196L206.554 145.662L198.813 155.669V159.902L211.585 183.379L232.872 190.306L241 215.322L235.194 226.868L238.678 232.64V252.268H235.194L230.163 246.11L220.1 249.189L211.585 246.11L202.296 226.868L193.781 236.489L150.433 270.741L161.657 291.909L172.494 298.066L167.463 304.609L144.241 298.066L141.144 304.609V315H106.311L49.4167 294.603L32 261.505L34.7093 222.634L49.4167 215.322L64.8981 183.379L77.6704 176.836Z" stroke="black" stroke-width="0.5"/>
<path d="M212.247 247.944L198 221.517L201.288 208.854L212.247 205L221.562 208.854L230.329 221.517L238 232.528V254L230.329 247.944H221.562H212.247Z" fill="url(#paint1_linear_91_2)" fill-opacity="0.4"/>
<path d="M201.111 216.598V224.829V227.024L190 238L196.667 224.829V216.598L203.333 205.622L198.889 193L205.556 199.585L220 207.817L213.333 205.622L205.556 207.817L201.111 216.598Z" fill="#EFE9D2"/>
<path fill-rule="evenodd" clip-rule="evenodd" d="M214.545 223.766L208 233.723V239.809L214.545 247H220.545H228.182L234.727 239.809L238 233.723L234.727 223.766L225.455 221H220.545L214.545 223.766ZM220.545 239.809L214.545 233.723L220.545 229.851H225.455L228.182 233.723L225.455 239.809H220.545Z" fill="url(#paint2_linear_91_2)"/>
<path d="M214.545 233.723L220.545 239.809H225.455L228.182 233.723L225.455 229.851H220.545L214.545 233.723Z" fill="url(#paint3_linear_91_2)"/>
<path d="M214.545 233.723L220.545 239.809H225.455L228.182 233.723L225.455 229.851H220.545L214.545 233.723Z" fill="black" fill-opacity="0.6"/>
<path d="M74.707 185.653L104.323 187.96L119.707 194.883L140.092 192.576L152.4 201.422L147.4 190.268L144.708 179.883L128.938 185.653L140.092 175.268L155.862 177.576L167.4 187.96L161.631 214.114L152.4 201.422L151.056 208.345L144.708 241.038L133.169 264.499L125.861 289.884V252.576L128.938 219.114V257.961L151.056 208.345L152.4 201.422L140.092 192.576L119.707 194.883H99.7072L78.9378 204.499L91.2456 194.883L74.707 185.653Z" fill="#957D5A"/>
<path d="M151.631 177.191L132.784 168.345H151.631L148.169 152.575L155.862 168.345L170.477 191.037V181.037L182.4 194.499L196.631 156.037L186.631 196.807L170.477 208.345L151.631 177.191Z" fill="#A6A6A6"/>
<path d="M72.3993 241.422L64.3223 229.884L73.9378 235.653L112.784 232.576L108.553 288.346L105.092 241.422L97.7842 237.576L78.5532 244.115L67.0146 253.73L72.3993 241.422Z" fill="#A6A6A6"/>
<path d="M197.785 180.653V159.114L189.323 188.345L216.439 206.422V196.422L213.554 201.807L201.631 191.037L197.785 180.653Z" fill="#BFBABA"/>
<path d="M168.939 159.114L163.554 144.883L166.631 119.498L171.246 85.6517L188.17 77.5747L183.17 83.344L175.862 101.421L199.324 93.3441L183.17 105.652L178.939 122.96L183.17 133.729L192.785 141.421L171.246 154.114L168.939 159.114Z" fill="#D9D9D9"/>
<path d="M217.016 73.3438L185.862 79.1131L172.016 85.267L166.631 104.883V110.267L132.784 124.498L166.631 95.2671V85.267L172.016 76.8054L185.862 71.0361L217.016 73.3438Z" fill="#FEE1B5"/>
<path d="M86.6302 166.037L115.477 127.96L158.554 131.421H118.938L86.6302 166.037Z" fill="#F0E4D2"/>
<path d="M64.3223 203.345L72.3993 187.191L58.1684 203.345L60.8607 221.807L70.0916 228.73L96.2457 221.807L72.3993 224.114L64.3223 203.345Z" fill="#F0E4D2"/>
<path d="M41.6298 231.038L39.322 256.038L32.3989 261.423L48.1683 293.346L67.3992 299.885L53.9376 261.423L48.1683 236.422L53.9376 215.268L41.6298 231.038Z" fill="url(#paint4_linear_91_2)"/>
<path d="M162.4 137.191L171.631 132.191V124.114L183.939 134.114L178.939 124.114L183.939 106.806L190.093 124.114V134.114L191.247 142.575L173.939 154.883L168.939 139.883H165.862L162.4 137.191Z" fill="#392D26"/>
<path d="M127.784 142.575L134.323 168.729L141.246 175.473L131.382 182.96L145.477 178.783L152.283 201.403L161.662 213.54L164.421 199.196L171.631 211.037L173.939 219.114L182.016 214.884L191.247 216.422L183.939 219.114L165.862 230.268H183.939L156.246 240.653L132.974 263.744L144.008 240.653L152.283 201.403L141.246 191.422L118.169 194.883L112.784 191.422L104.323 182.96L92.0149 177.576H107.4L120.477 187.96V174.499L127.784 142.575Z" fill="#392D26"/>
<path d="M78.9946 243.959L62.0163 230.151L57.7717 225.164L57 201L60.087 220.178L69.7337 230.151L97.1304 223.247H105.234L128 206.753L113.337 230.151L105.234 313L90.9565 293.055L100.217 313L78.9946 297.658L83.2391 279.247L97.1304 286.151V250.479L78.9946 243.959Z" fill="url(#paint5_linear_91_2)"/>
<path d="M206 125.714L226.703 116.19L231 125.714L226.703 128L206 125.714Z" fill="#BEBDBD"/>
<path d="M215.766 109.714L218.109 112L216.938 106.857L215.766 109.714Z" fill="#BEBDBD"/>
<path d="M218.109 104L216.938 106.857M216.938 106.857L215.766 109.714L218.109 112L216.938 106.857ZM226.703 116.19L206 125.714L226.703 128L231 125.714L226.703 116.19Z" stroke="black"/>
<path d="M276.722 63.4795C271.205 46.9287 271.757 49.1355 264.033 35.3431L252.999 22.6542C232.587 10.5169 204.143 4.44831 167.487 16.5856C153.395 21.2515 149.341 57.0431 144.56 67.893C143.677 82.0164 146.767 103.018 151.18 109.27C159.566 111.035 161.786 118.097 167.487 128.579C167.487 174.922 229.276 190.921 241.965 191.472C254.654 192.024 276.722 187.611 282.239 178.232C286.653 170.729 287.756 142.004 287.756 128.579C287.756 107.615 287.204 97.1328 276.722 92.1676C281.577 89.5194 282.239 80.0303 276.722 63.4795Z" fill="#D9D9D9"/>
<path d="M259.086 80.982C259.432 80.7224 259.853 80.582 260.286 80.582H278.908C280.013 80.582 280.908 81.4775 280.908 82.582V86.7445C280.908 87.8922 279.945 88.8045 278.799 88.7415L256.277 87.5038C254.413 87.4013 253.693 85.0269 255.187 83.9068L259.086 80.982Z" fill="#220800" fill-opacity="0.9"/>
<path d="M249.137 93.271L256.861 81.1338L254.103 88.8575L274.515 90.5126H256.861L254.103 93.271L252.448 101.546C250.241 100.222 249.321 95.4778 249.137 93.271Z" fill="#999696"/>
<path d="M254.103 128.58L258.516 124.167C258.988 123.459 259.307 122.75 259.5 122.049C259.221 120.718 259.113 119.329 259.369 118.098C259.768 119.349 259.873 120.686 259.5 122.049C259.921 124.056 260.732 125.93 261.275 126.925C259.51 127.808 255.758 128.396 254.103 128.58Z" fill="#403D3D"/>
<path d="M238.104 116.994L239.207 118.649L241.414 121.407L240.31 118.649C239.869 116.001 241.598 112.764 242.517 112.029C237.552 110.374 231.483 102.65 231.483 104.305C231.483 107.615 229.828 112.798 228.725 114.9L229.276 114.112L233.883 114.723C234.378 114.706 234.87 114.761 235.345 114.917C236.729 115.369 237.408 114.908 238.104 116.994Z" fill="#AEADAD"/>
<path d="M244.172 129.011C243.437 128.315 241.524 126.262 239.759 123.614L234.435 126.924L232.587 128.028C234.609 127.764 239.759 127.591 244.172 129.011Z" fill="#232222"/>
<path d="M225.415 122.511V128.028L229.276 130.786L233.69 129.683C232.683 129.347 231.818 129.164 231.091 129.011C229.428 128.66 228.48 128.459 228.173 126.924C228.063 126.373 227.952 125.997 227.864 125.697C227.511 124.497 226.959 123.945 228.725 118.649L226.518 118.097L225.415 122.511Z" fill="#453E3E"/>
<path fill-rule="evenodd" clip-rule="evenodd" d="M235.345 114.917L233.883 114.723C234.378 114.706 234.87 114.761 235.345 114.917Z" fill="#453E3E"/>
<path d="M226.518 118.097L228.725 118.649C229.129 118.431 229.201 117.625 229.828 116.994C230.948 115.867 232.777 114.76 233.883 114.723L229.276 114.112L228.725 114.9L226.518 118.097Z" fill="#575353"/>
<path d="M259.62 118.65C260.061 116.001 256.861 111.661 255.206 109.822L252.448 106.512L257.965 109.822L265.137 119.201L261.275 115.891C260.539 117.914 259.179 121.298 259.62 118.65Z" fill="#939191"/>
<path d="M208.021 99.3398C206.279 97.7508 206.569 96.4708 206.932 96.0294H217.816H219.449C220.755 97.0887 218.905 98.6777 217.816 99.3398H208.021Z" fill="#0E0E0E" stroke="black"/>
<path d="M263.538 94.9263C261.785 93.9332 261.712 92.3056 261.895 91.616H271.757V92.8573L263.538 94.9263Z" fill="black" stroke="black"/>
<path d="M275.067 91.616H257.284C253.404 92.8767 253.871 95.0304 254.59 95.9497C260.194 96.58 270.576 93.3232 275.067 91.616Z" stroke="black"/>
<path d="M189.003 96.2754L217.691 94.9315C220.78 94.7868 222.656 97.559 223.208 98.9632H218.794C208.202 100.307 194.52 97.7313 189.003 96.2754Z" stroke="black"/>
<path d="M189.551 85.3217C189.897 84.9748 190.358 84.7669 190.847 84.7374L220.835 82.9273C222.047 82.8542 223.045 83.8697 222.949 85.0806L222.638 89.0427C222.561 90.0205 221.786 90.7982 220.808 90.879L186.13 93.7445C184.276 93.8977 183.235 91.6571 184.549 90.3392L189.551 85.3217Z" fill="#38211A"/>
<path d="M253.642 147.588C246.357 149.193 232.038 150.396 225.79 150.798L219.898 151.199L224.183 149.193C225.254 149.059 228.575 148.631 233.288 147.989C238.002 147.347 244.179 144.779 246.679 143.576L253.106 145.18L256.856 142.372L270.246 145.582L275.067 145.18L273.46 145.983L271.853 146.785C266.283 146.143 257.391 147.053 253.642 147.588Z" fill="url(#paint6_linear_91_2)"/>
<path d="M232.035 161.129C243.437 159.29 267.454 155.612 272.309 155.612C272.745 155.612 273.114 155.562 273.421 155.467L274.471 154.68C275.269 153.285 274.06 150.575 272.637 148.301L271.205 146.234C271.662 146.831 272.161 147.542 272.637 148.301L276.17 153.406L274.471 154.68C274.265 155.04 273.925 155.313 273.421 155.467L269.55 158.371L265.136 163.888L274.515 168.853L287.756 136.303L286.101 163.888L282.791 177.68L276.17 183.749L265.136 188.714L243.62 191.472L232.035 190.369L219.346 185.956L206.105 180.439L185.693 167.75L171.9 150.095L166.383 127.476L168.038 109.27L171.9 126.373C181.647 137.774 203.457 160.909 212.726 162.233L217.139 161.129L229.828 166.646L232.035 176.577L248.034 168.853L246.379 163.888L232.035 161.129Z" fill="#373131"/>
<path d="M248.034 141.82H252.448L255.758 140.165L252.448 132.993V139.062L248.034 141.82Z" fill="#A39B9B"/>
<path d="M278.07 67.8931L267.036 38.1017L256.553 33.6881L254.898 36.4466L256.553 52.4457L264.277 41.4118L270.898 65.1346V71.755L264.277 74.5134L259.312 67.8931V82.2371H280.828L278.07 67.8931Z" fill="url(#paint7_linear_91_2)" fill-opacity="0.4"/>
<path d="M268.447 30.378L266.24 37.55L257.413 33.6881L254.103 36.4466L246.379 35.3432H234.242L216.587 36.4466L202.795 35.3432L188.451 33.6881L176.866 43.6186L173.004 54.1008L180.727 72.3067V77.2719L170.797 87.2024L168.59 99.8913L166.935 128.028L150.936 113.132C136.813 97.2432 147.442 54.6525 150.936 33.6881L164.728 16.5856L182.934 7.75853L209.415 5.55176L214.932 7.75853H236.448L246.379 11.6204H251.896L262.93 18.2407L268.447 30.378Z" fill="#180F0C" stroke="black"/>
<path d="M276.722 63.4795C271.205 46.9287 271.757 49.1355 264.033 35.3431L252.999 22.6542C232.587 10.5169 204.143 4.44831 167.487 16.5856C153.395 21.2515 149.341 57.0431 144.56 67.893C143.677 82.0164 146.767 103.018 151.18 109.27C159.566 111.035 161.786 118.097 167.487 128.579C167.487 174.922 229.276 190.921 241.965 191.472C254.654 192.024 276.722 187.611 282.239 178.232C286.653 170.729 287.756 142.004 287.756 128.579C287.756 107.615 287.204 97.1328 276.722 92.1676C281.577 89.5194 282.239 80.0303 276.722 63.4795Z" fill="url(#paint8_linear_91_2)" fill-opacity="0.3"/>
<path d="M268.447 30.378L266.24 37.55L257.413 33.6881L254.103 36.4466L246.379 35.3432H234.242L216.587 36.4466L202.795 35.3432L188.451 33.6881L176.866 43.6186L173.004 54.1008L180.727 72.3067V77.2719L170.797 87.2024L168.59 99.8913L166.935 128.028L150.936 113.132C136.813 97.2432 147.442 54.6525 150.936 33.6881L164.728 16.5856L182.934 7.75853L209.415 5.55176L214.932 7.75853H236.448L246.379 11.6204H251.896L262.93 18.2407L268.447 30.378Z" fill="url(#paint9_linear_91_2)" fill-opacity="0.3"/>
<path d="M268.447 30.378L266.24 37.55L257.413 33.6881L254.103 36.4466L246.379 35.3432H234.242L216.587 36.4466L202.795 35.3432L188.451 33.6881L176.866 43.6186L173.004 54.1008L180.727 72.3067V77.2719L170.797 87.2024L168.59 99.8913L166.935 128.028L150.936 113.132C136.813 97.2432 147.442 54.6525 150.936 33.6881L164.728 16.5856L182.934 7.75853L209.415 5.55176L214.932 7.75853H236.448L246.379 11.6204H251.896L262.93 18.2407L268.447 30.378Z" fill="url(#paint10_linear_91_2)" fill-opacity="0.3"/>
<path d="M220.693 152.302L231.176 160.578C225.879 153.075 235.589 149.36 241.106 148.44L225.107 150.095L220.693 152.302Z" fill="#714E2E" fill-opacity="0.3"/>
<path d="M267.036 155.612C272.773 152.964 270.898 148.256 269.242 146.234L271.449 145.682L274.759 153.957L272.553 155.612H267.036Z" fill="#714E2E" fill-opacity="0.3"/>
<path d="M262.622 150.095H240.003L253.243 146.234H269.794L271.449 150.095L270.346 154.509L267.587 152.302L262.622 150.095Z" fill="url(#paint11_linear_91_2)" fill-opacity="0.4"/>
<path d="M182.771 140.854L173 168.039L187.657 180L193.629 165.864L187.657 160.427L201.771 164.233H207.2L211 157.709L207.2 145.204L193.629 140.854H182.771Z" fill="#DED6CC"/>
<path d="M182.771 140.854H193.629L192 136.505L193.629 127.806L189.829 124L182.771 140.854Z" fill="#DED6CC"/>
<path d="M211 157.709L207.2 164.233H201.771L187.657 160.427L193.629 165.864L192 177.282L197.971 165.864H211V157.709Z" fill="#BDA98F"/>
<path d="M173 168.039L172.906 168.005L172.882 168.072L172.937 168.116L173 168.039ZM182.771 140.854L182.679 140.816L182.677 140.821L182.771 140.854ZM207.2 145.204L207.296 145.175L207.28 145.125L207.231 145.109L207.2 145.204ZM211 157.709H211.1V157.694L211.096 157.68L211 157.709ZM207.2 164.233V164.333H207.257L207.286 164.283L207.2 164.233ZM201.771 164.233L201.745 164.33L201.758 164.333H201.771V164.233ZM187.657 160.427L187.683 160.331L187.59 160.501L187.657 160.427ZM193.629 165.864L193.728 165.878L193.735 165.826L193.696 165.79L193.629 165.864ZM192 177.282L191.901 177.267L192.089 177.328L192 177.282ZM197.971 165.864V165.764H197.911L197.883 165.818L197.971 165.864ZM211 165.864V165.964H211.1V165.864H211ZM187.657 180L187.594 180.077L187.697 180.162L187.749 180.039L187.657 180ZM189.829 124L189.899 123.929L189.794 123.824L189.736 123.961L189.829 124ZM193.629 127.806L193.727 127.824L193.737 127.772L193.699 127.735L193.629 127.806ZM192 136.505L191.902 136.486L191.897 136.514L191.906 136.54L192 136.505ZM173.094 168.073L182.866 140.888L182.677 140.821L172.906 168.005L173.094 168.073ZM182.771 140.954H193.629V140.754H182.771V140.954ZM193.598 140.95L207.169 145.299L207.231 145.109L193.659 140.759L193.598 140.95ZM207.104 145.233L210.904 157.738L211.096 157.68L207.296 145.175L207.104 145.233ZM210.914 157.658L207.114 164.183L207.286 164.283L211.086 157.759L210.914 157.658ZM207.2 164.133H201.771V164.333H207.2V164.133ZM201.797 164.136L187.683 160.331L187.631 160.524L201.745 164.33L201.797 164.136ZM187.59 160.501L193.561 165.938L193.696 165.79L187.724 160.353L187.59 160.501ZM193.53 165.85L191.901 177.267L192.099 177.296L193.728 165.878L193.53 165.85ZM192.089 177.328L198.06 165.91L197.883 165.818L191.911 177.235L192.089 177.328ZM197.971 165.964H211V165.764H197.971V165.964ZM211.1 165.864V157.709H210.9V165.864H211.1ZM172.937 168.116L187.594 180.077L187.72 179.923L173.063 167.961L172.937 168.116ZM187.749 180.039L193.721 165.903L193.536 165.825L187.565 179.961L187.749 180.039ZM182.864 140.893L189.921 124.039L189.736 123.961L182.679 140.816L182.864 140.893ZM189.758 124.071L193.558 127.876L193.699 127.735L189.899 123.929L189.758 124.071ZM193.53 127.787L191.902 136.486L192.098 136.523L193.727 127.824L193.53 127.787ZM191.906 136.54L193.535 140.889L193.722 140.819L192.094 136.47L191.906 136.54Z" fill="black"/>
<path d="M182.771 141.076L173 168.619L187.657 181.288L193.629 166.415L187.657 160.907L201.771 164.763H207.2L211 158.153L207.2 145.483L193.629 141.076H182.771Z" fill="url(#paint12_linear_91_2)" fill-opacity="0.5"/>
<path d="M182.771 141.076H193.629L192 136.669L193.629 127.856L189.829 124L182.771 141.076Z" fill="url(#paint13_linear_91_2)" fill-opacity="0.5"/>
<path d="M211 158.153L207.2 164.763H201.771L187.657 160.907L193.629 166.415L188.743 189L197.971 166.415H211V158.153Z" fill="url(#paint14_linear_91_2)" fill-opacity="0.5"/>
<path d="M163 147.779L165.154 126L167.308 127.675L172.692 148.896L177 156.156L172.692 169L163 147.779Z" fill="#846D4C"/>
<path d="M193.429 129L186 141.65H193.429V129Z" fill="#8B847A"/>
<path d="M201.429 149.9L208.286 146.6L209.945 152.989C209.97 153.063 209.988 153.133 210 153.2L209.945 152.989C209.554 151.842 207.442 149.9 201.429 149.9Z" fill="#8B847A"/>
<path d="M206.571 162L201.429 159.25H210L206.571 162Z" fill="#8B847A"/>
<path d="M157.912 92.9865L166.142 129L151.876 112.932L145.841 103.514L142 86.3378L145.841 59.7432L151.876 34.2568L166.142 16.527L184.248 6H204L176.018 20.9595L157.912 34.2568L166.142 55.3108L157.912 92.9865Z" fill="#EDE2BB" fill-opacity="0.5"/>
<path d="M177.421 43.3623L187.921 34L202.842 35.6522H236L220.526 45.0145L189.026 55.4783L181.289 72L173 53.2754L177.421 43.3623Z" fill="url(#paint15_linear_91_2)"/>
<path d="M252.882 41.1923L237 36H247H257V51L252.882 41.1923Z" fill="#C5BBA8"/>
<path d="M208.556 71.4815L222.444 44.321L243 36.1728H208.556L188 34L176.333 44.321L173 53.5556L180.222 71.4815V78L208.556 71.4815Z" fill="url(#paint16_linear_91_2)" fill-opacity="0.2"/>
<path d="M232 95.6053L223.273 84L184 95.6053L220.545 93.3947L224.364 96.7105L229.273 105L232 95.6053Z" fill="url(#paint17_linear_91_2)" fill-opacity="0.25"/>
<path d="M177.889 98.6027L187.333 96.3562L184 91.3014L222.333 84L234 96.3562L226.778 125L217.889 107.589L201.222 104.781L184 100.849L174 104.781L177.889 98.6027Z" fill="#827B7B" fill-opacity="0.3"/>
<path d="M172 122L174.747 105.024L186.286 99H192.33L216.505 101.738L222 115.976L214.308 111.048L197.275 117.619C197.275 127.695 203.868 140.071 207.165 145L193.978 139.524L192.33 127.476L189.582 124.738L182.989 139.524L177.495 134.595L172 122Z" fill="url(#paint18_linear_91_2)" fill-opacity="0.5"/>
<path d="M241.059 112.605L242.118 112.047L240 102L247.412 108.698L245.294 115.953C242.329 117.293 246.529 123.209 249 126H245.294L240 120.419V115.953L241.059 112.605Z" fill="#F5F0F0" fill-opacity="0.2"/>
<path d="M249 93.2831L258.338 81.6804L275.366 79.4703L277.014 64L281.958 84.4429L277.014 92.1781L285.803 103.228L288 134.721L285.803 163.452L281.958 178.37L272.07 185L275.366 178.37L272.07 169.53L261.634 163.452H264.38L268.225 156.822L275.366 154.612L272.07 145.772H268.225L258.338 140.799L253.394 130.854L258.338 123.119L261.634 114.279L253.394 108.201L249 93.2831Z" fill="url(#paint19_linear_91_2)" fill-opacity="0.2"/>
<path d="M147.414 109.556L166.172 127.166L172.793 148.627L177.759 155.781L183.276 139.822L189.897 123.314L192.103 127.166V135.97L195.414 139.822L207 145.325L209.759 148.627V160.183V166.237H198.724L195.414 171.74L209.759 181.645L231.276 189.349L244.517 191L262.172 189.349L272.655 184.947L283.69 177.793L287 164.035V148.627V127.166V109.556L283.69 99.1006L278.172 91.9467L280.931 88.0947V81.4911L277.069 63.8817L267.138 38.0177L269.345 31.4142L264.379 18.7574L251.69 11.6035H246.724L237.345 7.20118H214.724L209.759 5L183.276 7.20118L166.172 15.4556L150.172 33.6154L147.414 51.2248L143 93.5976L147.414 109.556Z" fill="url(#paint20_linear_91_2)" fill-opacity="0.25"/>
<defs>
<linearGradient id="paint0_linear_91_2" x1="160.184" y1="290.158" x2="65.834" y2="158.632" gradientUnits="userSpaceOnUse">
<stop stop-color="#B19A85"/>
<stop stop-color="#CFAD8E" stop-opacity="0.955784"/>
<stop offset="1" stop-color="#DAD078" stop-opacity="0.44"/>
</linearGradient>
<linearGradient id="paint1_linear_91_2" x1="238.548" y1="254" x2="191.195" y2="205.776" gradientUnits="userSpaceOnUse">
<stop stop-color="#413D35"/>
<stop offset="1" stop-color="#FAEED3" stop-opacity="0.54"/>
</linearGradient>
<linearGradient id="paint2_linear_91_2" x1="228.727" y1="227.085" x2="215.375" y2="247.381" gradientUnits="userSpaceOnUse">
<stop stop-color="#7E7969"/>
<stop offset="1" stop-color="#CDC09F" stop-opacity="0"/>
</linearGradient>
<linearGradient id="paint3_linear_91_2" x1="228.727" y1="227.085" x2="215.375" y2="247.381" gradientUnits="userSpaceOnUse">
<stop stop-color="#7E7969"/>
<stop offset="1" stop-color="#CDC09F" stop-opacity="0"/>
</linearGradient>
<linearGradient id="paint4_linear_91_2" x1="32.0143" y1="226.807" x2="135.477" y2="267.192" gradientUnits="userSpaceOnUse">
<stop stop-color="#FFDDAB"/>
<stop offset="0.307292" stop-color="#8F877A"/>
</linearGradient>
<linearGradient id="paint5_linear_91_2" x1="21.409" y1="201" x2="142.574" y2="347.465" gradientUnits="userSpaceOnUse">
<stop stop-color="#FFE5B4" stop-opacity="0.31"/>
<stop offset="1" stop-color="#1C1509"/>
</linearGradient>
<linearGradient id="paint6_linear_91_2" x1="247.214" y1="144.779" x2="247.819" y2="152.04" gradientUnits="userSpaceOnUse">
<stop stop-color="#5B5858"/>
<stop offset="1" stop-color="#E2C5A2" stop-opacity="0.76"/>
</linearGradient>
<linearGradient id="paint7_linear_91_2" x1="247.726" y1="37.55" x2="275.311" y2="81.6854" gradientUnits="userSpaceOnUse">
<stop stop-color="#C1B9B9"/>
<stop offset="1" stop-color="#8B6B59"/>
</linearGradient>
<linearGradient id="paint8_linear_91_2" x1="91.8664" y1="7.81538" x2="277.61" y2="198.933" gradientUnits="userSpaceOnUse">
<stop stop-color="#FFD74B"/>
<stop offset="1" stop-color="#766E6B" stop-opacity="0.82"/>
</linearGradient>
<linearGradient id="paint9_linear_91_2" x1="98.1231" y1="4.0984" x2="218.646" y2="163.93" gradientUnits="userSpaceOnUse">
<stop stop-color="#FFD74B"/>
<stop offset="1" stop-color="#766E6B" stop-opacity="0.82"/>
</linearGradient>
<linearGradient id="paint10_linear_91_2" x1="98.1231" y1="4.0984" x2="218.646" y2="163.93" gradientUnits="userSpaceOnUse">
<stop stop-color="#FFD74B"/>
<stop offset="1" stop-color="#766E6B" stop-opacity="0.82"/>
</linearGradient>
<linearGradient id="paint11_linear_91_2" x1="259.864" y1="144.579" x2="263.174" y2="161.129" gradientUnits="userSpaceOnUse">
<stop stop-color="#FFF9F9"/>
<stop offset="0.0001" stop-color="#D9D9D9"/>
<stop offset="1" stop-color="#603A2A"/>
</linearGradient>
<linearGradient id="paint12_linear_91_2" x1="207.2" y1="172.475" x2="184.051" y2="148.575" gradientUnits="userSpaceOnUse">
<stop stop-color="#BDA98F"/>
<stop offset="1" stop-color="#746C62" stop-opacity="0.54"/>
</linearGradient>
<linearGradient id="paint13_linear_91_2" x1="207.2" y1="172.475" x2="184.051" y2="148.575" gradientUnits="userSpaceOnUse">
<stop stop-color="#BDA98F"/>
<stop offset="1" stop-color="#746C62" stop-opacity="0.54"/>
</linearGradient>
<linearGradient id="paint14_linear_91_2" x1="207.2" y1="172.475" x2="184.051" y2="148.575" gradientUnits="userSpaceOnUse">
<stop stop-color="#BDA98F"/>
<stop offset="1" stop-color="#746C62" stop-opacity="0.54"/>
</linearGradient>
<linearGradient id="paint15_linear_91_2" x1="179.632" y1="37.8551" x2="204.388" y2="72.0814" gradientUnits="userSpaceOnUse">
<stop stop-color="#BBA38C"/>
<stop offset="1" stop-color="#807062" stop-opacity="0.55"/>
</linearGradient>
<linearGradient id="paint16_linear_91_2" x1="208.556" y1="69.3086" x2="104.472" y2="17.4922" gradientUnits="userSpaceOnUse">
<stop stop-color="#3F200F"/>
<stop offset="1" stop-color="#553421" stop-opacity="0"/>
</linearGradient>
<linearGradient id="paint17_linear_91_2" x1="222.727" y1="81.7895" x2="199.963" y2="114.67" gradientUnits="userSpaceOnUse">
<stop stop-color="#392818"/>
<stop offset="1" stop-color="#392818" stop-opacity="0"/>
</linearGradient>
<linearGradient id="paint18_linear_91_2" x1="163.209" y1="90.7857" x2="221.873" y2="131.493" gradientUnits="userSpaceOnUse">
<stop stop-color="#D7B8A6"/>
<stop offset="1" stop-color="#FCDE92" stop-opacity="0"/>
</linearGradient>
<linearGradient id="paint19_linear_91_2" x1="251.197" y1="94.9406" x2="268.696" y2="184.962" gradientUnits="userSpaceOnUse">
<stop stop-color="#4D2D23"/>
<stop offset="1" stop-color="#4D2D23" stop-opacity="0.46"/>
</linearGradient>
<linearGradient id="paint20_linear_91_2" x1="293.069" y1="170.639" x2="137.297" y2="28.8111" gradientUnits="userSpaceOnUse">
<stop stop-color="#BEAE8F"/>
<stop offset="1" stop-color="#EFE9E9" stop-opacity="0.7"/>
</linearGradient>
</defs>
</svg>
