<svg width="324" height="350" viewBox="0 0 324 350" fill="none" xmlns="http://www.w3.org/2000/svg">
<path d="M101.839 61.3478C5.92056 89.615 24.9256 179.961 46.4178 221.601C27.1082 239.385 96.9627 243.231 116.445 259.501C165.286 336.935 229.562 310.858 305 284.887C310.085 86.8029 194.715 32.8981 136.394 30.7061L106.344 46.2418L101.839 61.3478Z" fill="#BFCDAD" stroke="black"/>
<path d="M163.618 100.389C153.641 79.1139 102.849 71.7685 78.7002 70.7552L113.737 53.8831L159.055 67.3994L212.993 57.2234C251.5 82.8284 275.452 126.731 282.615 145.482L287.426 163.437C280.361 170.32 264.848 185.31 259.319 190.213C253.79 195.116 205.154 176.929 181.527 167.223C157.414 163.42 159.541 121.083 163.618 100.389Z" fill="#8D9A7B"/>
<path d="M171.026 64.192C168.157 57.4767 126.462 50.83 106.612 47.2394L101.839 61.3478C108.322 53.6235 145.821 69.8766 162.459 76.1098L162.743 75.8048C169.18 68.9009 171.825 66.0641 171.026 64.192Z" fill="#D7EABF" stroke="black"/>
<path d="M55.6629 188.273C51.7833 148.257 87.0583 148.499 105.181 153.622C238.854 189.65 280.523 162.947 284.648 145.092C318.83 247.123 304.693 238.912 284.648 258.538C255.878 275.655 178.785 289.994 152.537 258.538C143.045 242.264 115.602 227.095 103.067 221.544C74.7506 218.012 59.6658 197.892 55.6629 188.273Z" fill="#2D2C2C"/>
<path d="M103.658 226.577L116.569 152.232C70.221 138.126 55.0055 157.676 53.1913 169.214C45.5961 205.091 83.6709 222.405 103.658 226.577Z" fill="#393D35"/>
<path d="M102.73 223.415L115.087 153.817C71.3788 140.725 56.9743 159.053 55.2355 169.854C47.9848 203.444 83.8775 219.557 102.73 223.415Z" fill="#DDE8CE"/>
<circle cx="93.9215" cy="171.452" r="6.19624" transform="rotate(-15 93.9215 171.452)" fill="#181818"/>
<circle cx="91.9264" cy="171.987" r="6.19624" transform="rotate(-15 91.9264 171.987)" fill="#5C5B5B"/>
<circle cx="86.9054" cy="201.13" r="6.19624" transform="rotate(-15 86.9054 201.13)" fill="#181818"/>
<circle cx="84.9104" cy="201.664" r="6.19624" transform="rotate(-15 84.9104 201.664)" fill="#5C5B5B"/>
<circle cx="71.0501" cy="181.857" r="6.19624" transform="rotate(-15 71.0501 181.857)" fill="#181818"/>
<circle cx="69.0551" cy="182.392" r="6.19624" transform="rotate(-15 69.0551 182.392)" fill="#5C5B5B"/>
<path d="M200.345 49.9211C187.092 48.3404 175.277 58.7764 171.026 64.192C171.297 68.3959 165.605 74.5538 162.726 77.1073L212.993 57.2234L200.345 49.9211Z" fill="#95A383" stroke="black"/>
<path d="M200.488 58.4358L176.352 68.1105L176.743 61.5908L200.149 53.1809L200.488 58.4358Z" fill="black"/>
<path d="M73.0434 124.772L74.5314 120.674L115.799 133.917L114.311 138.015L73.0434 124.772ZM74.9924 116.252L76.4803 112.154L117.748 125.396L116.26 129.495L74.9924 116.252Z" fill="#8D9A7B" stroke="#D1E3BA" stroke-width="0.25"/>
<path d="M283.109 197.388C286.666 209.016 279.212 221.686 266.336 225.625C253.46 229.564 240.194 223.233 236.636 211.605C233.079 199.977 240.533 187.308 253.409 183.368C266.284 179.429 279.551 185.76 283.109 197.388Z" stroke="#F04040"/>
<ellipse cx="261.034" cy="204.333" rx="15.4307" ry="12.1241" transform="rotate(-28.5374 261.034 204.333)" fill="#E62A2A"/>
<path d="M72 35L63 184H75.5L72 35Z" fill="#595454"/>
<path d="M248.629 148.009L234.062 138.592L251.009 132.371L248.629 148.009Z" fill="#BFCDAD" stroke="#460707"/>
</svg>
