<svg width="323" height="350" viewBox="0 0 323 350" fill="none" xmlns="http://www.w3.org/2000/svg">
<path d="M56.8362 186.018C37.3366 148.239 20.0936 66.2697 107.119 40.6234L111.206 26.918L138.47 12.8227C191.383 14.8114 296.057 63.7184 291.444 243.436C286.275 278.448 262.012 342.116 206.31 316.688C204.865 302.849 194.761 278.655 165.904 292.595L111.645 242.143L116.283 234.11L126.433 243.03L135.483 240.605L120.371 220.405C112.456 213.795 94.2128 200.253 84.5545 198.961L73.5815 208.691C66.9519 202.211 51.8949 191.914 42.1226 199.57L40.498 201.066C41.0205 200.506 41.5629 200.008 42.1226 199.57L56.8362 186.018Z" fill="#BFCDAD"/>
<path d="M56.8362 186.018C37.3366 148.239 20.0936 66.2697 107.119 40.6234L111.206 26.918L138.47 12.8227C191.383 14.8114 296.057 63.7184 291.444 243.436C286.275 278.448 262.012 342.116 206.31 316.688C204.865 302.849 194.761 278.655 165.904 292.595L111.645 242.143L116.283 234.11L126.433 243.03L135.483 240.605L120.371 220.405C112.456 213.795 94.2128 200.253 84.5545 198.961L73.5815 208.691C66.5722 201.84 50.1423 190.722 40.498 201.066L56.8362 186.018Z" stroke="black"/>
<path d="M163.17 76.045C154.118 56.7423 108.035 50.0779 86.1255 49.1586L117.914 33.8507L159.031 46.1139L207.967 36.8814C242.904 60.1124 264.635 99.9447 271.134 116.957L275.499 133.248C269.089 139.492 255.014 153.093 249.998 157.541C244.982 161.989 200.855 145.488 179.418 136.682C157.541 133.232 159.471 94.8198 163.17 76.045Z" fill="#8D9A7B"/>
<path d="M169.891 43.2039C167.288 37.1112 129.459 31.0807 111.449 27.823L107.119 40.6234C113.001 33.6152 147.023 48.3614 162.118 54.0167L162.376 53.74C168.217 47.4762 170.616 44.9024 169.891 43.2039Z" fill="#D7EABF" stroke="black"/>
<path d="M65.224 155.78C61.7041 119.475 93.7086 119.694 110.151 124.342C231.431 157.03 269.236 132.802 272.979 116.603C303.991 209.174 275.373 267.93 257.187 285.736C231.084 301.266 176.931 248.07 153.117 219.531C144.504 204.766 119.606 191.003 108.233 185.967C82.542 182.762 68.8558 164.507 65.224 155.78Z" fill="#2D2C2C"/>
<path d="M108.769 190.533L120.483 123.081C78.4324 110.283 64.6277 128.02 62.9816 138.489C56.0906 171.039 90.6353 186.748 108.769 190.533Z" fill="#393D35"/>
<path d="M107.927 187.664L119.138 124.519C79.4829 112.641 66.4139 129.27 64.8363 139.07C58.2579 169.545 90.8228 184.164 107.927 187.664Z" fill="#DDE8CE"/>
<circle cx="99.9355" cy="140.519" r="5.62175" transform="rotate(-15 99.9355 140.519)" fill="#181818"/>
<circle cx="98.1253" cy="141.004" r="5.62175" transform="rotate(-15 98.1253 141.004)" fill="#5C5B5B"/>
<circle cx="93.5698" cy="167.445" r="5.62175" transform="rotate(-15 93.5698 167.445)" fill="#181818"/>
<circle cx="91.7598" cy="167.93" r="5.62175" transform="rotate(-15 91.7598 167.93)" fill="#5C5B5B"/>
<circle cx="79.1846" cy="149.959" r="5.62175" transform="rotate(-15 79.1846 149.959)" fill="#181818"/>
<circle cx="77.3746" cy="150.444" r="5.62175" transform="rotate(-15 77.3746 150.444)" fill="#5C5B5B"/>
<path d="M196.492 30.2561C184.467 28.822 173.748 38.2904 169.891 43.2039C170.137 47.018 164.973 52.605 162.36 54.9217L207.967 36.8814L196.492 30.2561Z" fill="#95A383" stroke="black"/>
<path d="M196.622 37.9814L174.723 46.759L175.079 40.8438L196.314 33.2137L196.622 37.9814Z" fill="black"/>
<path d="M81.0081 98.1598L82.3502 94.4633L119.77 106.471L118.428 110.168L81.0081 98.1598ZM82.7764 90.4295L84.1184 86.733L121.538 98.741L120.196 102.437L82.7764 90.4295Z" fill="#8D9A7B" stroke="#D1E3BA" stroke-width="0.25"/>
</svg>
