<svg width="272" height="343" viewBox="0 0 272 343" fill="none" xmlns="http://www.w3.org/2000/svg">
<path d="M122.535 341.256C86.0604 344.332 39.5881 286.507 20.9113 257.21L32.9963 181.953C41.236 163.46 58.155 125.154 59.9128 119.881C61.6707 114.607 111.549 84.358 136.268 69.8926C148.353 76.3013 187.245 95.2711 246.132 119.881C305.019 144.49 221.595 252.083 172.523 302.803C149.452 325.325 168.128 337.41 122.535 341.256Z" fill="black"/>
<path d="M133.294 280.583C213.9 295.57 235.147 181.714 235.695 122.913V111.986L186.411 88.5694L124.533 93.773L61.0115 178.592L68.1302 225.945C71.1968 250.506 112.851 272.604 133.294 280.583Z" fill="#313A44" stroke="#0F0F0F"/>
<g filter="url(#filter0_f_90_405)">
<path d="M101.31 151.81C100.357 151.199 100.31 150.168 101.198 149.513C102.086 148.857 103.584 148.817 104.537 149.428L180.015 197.815C180.968 198.426 181.015 199.456 180.127 200.112C179.239 200.767 177.741 200.808 176.788 200.197L101.31 151.81Z" fill="#33E9C6" fill-opacity="0.27"/>
<path d="M101.31 151.81C100.357 151.199 100.31 150.168 101.198 149.513C102.086 148.857 103.584 148.817 104.537 149.428L180.015 197.815C180.968 198.426 181.015 199.456 180.127 200.112C179.239 200.767 177.741 200.808 176.788 200.197L101.31 151.81Z" fill="#33E9C6" fill-opacity="0.27"/>
<path d="M101.31 151.81C100.357 151.199 100.31 150.168 101.198 149.513C102.086 148.857 103.584 148.817 104.537 149.428L180.015 197.815C180.968 198.426 181.015 199.456 180.127 200.112C179.239 200.767 177.741 200.808 176.788 200.197L101.31 151.81Z" fill="#33E9C6" fill-opacity="0.27"/>
<path d="M101.31 151.81C100.357 151.199 100.31 150.168 101.198 149.513C102.086 148.857 103.584 148.817 104.537 149.428L180.015 197.815C180.968 198.426 181.015 199.456 180.127 200.112C179.239 200.767 177.741 200.808 176.788 200.197L101.31 151.81Z" fill="#33E9C6" fill-opacity="0.27"/>
<path d="M101.651 151.278C101.305 151.057 101.203 150.815 101.195 150.648C101.187 150.485 101.263 150.251 101.573 150.021C101.892 149.786 102.355 149.64 102.86 149.627C103.363 149.614 103.846 149.735 104.196 149.96L179.674 198.347C180.02 198.568 180.122 198.809 180.13 198.977C180.138 199.14 180.062 199.374 179.752 199.603C179.433 199.838 178.97 199.984 178.465 199.997C177.962 200.01 177.479 199.889 177.129 199.665L176.788 200.196L177.129 199.665L101.651 151.278Z" stroke="white" stroke-width="1.26377"/>
</g>
<g filter="url(#filter1_f_90_405)">
<path d="M92.6026 177.079C91.5453 176.468 91.4932 175.437 92.4786 174.782C93.464 174.126 95.1261 174.086 96.1835 174.697L179.933 223.083C180.991 223.694 181.043 224.725 180.057 225.38C179.072 226.036 177.41 226.076 176.352 225.465L92.6026 177.079Z" fill="#33E9C6" fill-opacity="0.27"/>
<path d="M92.6026 177.079C91.5453 176.468 91.4932 175.437 92.4786 174.782C93.464 174.126 95.1261 174.086 96.1835 174.697L179.933 223.083C180.991 223.694 181.043 224.725 180.057 225.38C179.072 226.036 177.41 226.076 176.352 225.465L92.6026 177.079Z" fill="#33E9C6" fill-opacity="0.27"/>
<path d="M92.6026 177.079C91.5453 176.468 91.4932 175.437 92.4786 174.782C93.464 174.126 95.1261 174.086 96.1835 174.697L179.933 223.083C180.991 223.694 181.043 224.725 180.057 225.38C179.072 226.036 177.41 226.076 176.352 225.465L92.6026 177.079Z" fill="#33E9C6" fill-opacity="0.27"/>
<path d="M92.6026 177.079C91.5453 176.468 91.4932 175.437 92.4786 174.782C93.464 174.126 95.1261 174.086 96.1835 174.697L179.933 223.083C180.991 223.694 181.043 224.725 180.057 225.38C179.072 226.036 177.41 226.076 176.352 225.465L92.6026 177.079Z" fill="#33E9C6" fill-opacity="0.27"/>
<path d="M92.9187 176.532C92.5115 176.296 92.4129 176.052 92.4056 175.913C92.3987 175.782 92.4637 175.55 92.8286 175.308C93.1983 175.062 93.7358 174.91 94.3188 174.896C94.9006 174.882 95.4601 175.008 95.8673 175.244L179.617 223.63C180.024 223.866 180.123 224.11 180.13 224.249C180.137 224.379 180.072 224.612 179.707 224.854C179.338 225.1 178.8 225.252 178.217 225.266C177.635 225.28 177.076 225.153 176.669 224.918L92.9187 176.532Z" stroke="white" stroke-width="1.26377"/>
</g>
<path d="M124.183 342.354C43.7628 332.247 8.64309 245.857 1.13574 203.926C10.3643 203.926 20.3619 150.459 24.2071 123.726C29.0411 29.6825 97.9988 2.87582 131.873 1.22786C175.379 6.06186 242.653 95.5274 270.851 139.656C274.806 197.664 199.073 277.169 164.283 311.043C278.541 183.601 273.597 133.98 253.273 123.726C110.011 96.0401 61.7438 213.997 55.5182 276.436C49.3659 312.032 98.7312 335.213 124.183 342.354Z" fill="#13152D" stroke="black"/>
<g filter="url(#filter2_f_90_405)">
<path d="M228.692 131.964C229.29 131.141 230.236 131.142 230.799 131.96C231.363 132.779 231.339 134.114 230.741 134.937L183.37 200.109C182.772 200.932 181.827 200.93 181.263 200.112C180.7 199.294 180.724 197.958 181.322 197.136L228.692 131.964Z" fill="#33E9C6" fill-opacity="0.27"/>
<path d="M228.692 131.964C229.29 131.141 230.236 131.142 230.799 131.96C231.363 132.779 231.339 134.114 230.741 134.937L183.37 200.109C182.772 200.932 181.827 200.93 181.263 200.112C180.7 199.294 180.724 197.958 181.322 197.136L228.692 131.964Z" fill="#33E9C6" fill-opacity="0.27"/>
<path d="M228.692 131.964C229.29 131.141 230.236 131.142 230.799 131.96C231.363 132.779 231.339 134.114 230.741 134.937L183.37 200.109C182.772 200.932 181.827 200.93 181.263 200.112C180.7 199.294 180.724 197.958 181.322 197.136L228.692 131.964Z" fill="#33E9C6" fill-opacity="0.27"/>
<path d="M228.692 131.964C229.29 131.141 230.236 131.142 230.799 131.96C231.363 132.779 231.339 134.114 230.741 134.937L183.37 200.109C182.772 200.932 181.827 200.93 181.263 200.112C180.7 199.294 180.724 197.958 181.322 197.136L228.692 131.964Z" fill="#33E9C6" fill-opacity="0.27"/>
<path d="M229.203 132.335C229.409 132.052 229.619 131.979 229.759 131.979C229.896 131.978 230.093 132.048 230.279 132.319C230.471 132.598 230.582 132.999 230.574 133.435C230.566 133.87 230.439 134.277 230.23 134.565L182.859 199.738C182.654 200.02 182.443 200.094 182.304 200.094C182.167 200.094 181.97 200.024 181.784 199.754C181.592 199.475 181.48 199.073 181.489 198.638C181.497 198.203 181.624 197.795 181.833 197.507L229.203 132.335Z" stroke="white" stroke-width="1.26377"/>
</g>
<g filter="url(#filter3_f_90_405)">
<path d="M228.69 158.32C229.288 157.511 230.234 157.513 230.799 158.319C231.364 159.125 231.341 160.439 230.743 161.249L183.373 225.362C182.775 226.172 181.828 226.169 181.263 225.364C180.698 224.558 180.722 223.243 181.32 222.434L228.69 158.32Z" fill="#33E9C6" fill-opacity="0.27"/>
<path d="M228.69 158.32C229.288 157.511 230.234 157.513 230.799 158.319C231.364 159.125 231.341 160.439 230.743 161.249L183.373 225.362C182.775 226.172 181.828 226.169 181.263 225.364C180.698 224.558 180.722 223.243 181.32 222.434L228.69 158.32Z" fill="#33E9C6" fill-opacity="0.27"/>
<path d="M228.69 158.32C229.288 157.511 230.234 157.513 230.799 158.319C231.364 159.125 231.341 160.439 230.743 161.249L183.373 225.362C182.775 226.172 181.828 226.169 181.263 225.364C180.698 224.558 180.722 223.243 181.32 222.434L228.69 158.32Z" fill="#33E9C6" fill-opacity="0.27"/>
<path d="M228.69 158.32C229.288 157.511 230.234 157.513 230.799 158.319C231.364 159.125 231.341 160.439 230.743 161.249L183.373 225.362C182.775 226.172 181.828 226.169 181.263 225.364C180.698 224.558 180.722 223.243 181.32 222.434L228.69 158.32Z" fill="#33E9C6" fill-opacity="0.27"/>
<path d="M229.198 158.696C229.402 158.42 229.612 158.346 229.757 158.346C229.899 158.346 230.097 158.418 230.282 158.682L230.799 158.319L230.282 158.682C230.473 158.954 230.583 159.346 230.575 159.77C230.567 160.195 230.442 160.592 230.235 160.873L182.864 224.987C182.661 225.262 182.451 225.337 182.306 225.337C182.164 225.337 181.966 225.265 181.781 225.001C181.59 224.728 181.479 224.337 181.487 223.912C181.495 223.488 181.62 223.09 181.828 222.809L181.32 222.434L181.828 222.809L229.198 158.696Z" stroke="white" stroke-width="1.26377"/>
</g>
<defs>
<filter id="filter0_f_90_405" x="100.141" y="148.573" width="81.0429" height="52.4784" filterUnits="userSpaceOnUse" color-interpolation-filters="sRGB">
<feFlood flood-opacity="0" result="BackgroundImageFix"/>
<feBlend mode="normal" in="SourceGraphic" in2="BackgroundImageFix" result="shape"/>
<feGaussianBlur stdDeviation="0.210628" result="effect1_foregroundBlur_90_405"/>
</filter>
<filter id="filter1_f_90_405" x="91.3519" y="173.842" width="89.832" height="52.4784" filterUnits="userSpaceOnUse" color-interpolation-filters="sRGB">
<feFlood flood-opacity="0" result="BackgroundImageFix"/>
<feBlend mode="normal" in="SourceGraphic" in2="BackgroundImageFix" result="shape"/>
<feGaussianBlur stdDeviation="0.210628" result="effect1_foregroundBlur_90_405"/>
</filter>
<filter id="filter2_f_90_405" x="180.435" y="130.925" width="51.1924" height="70.2218" filterUnits="userSpaceOnUse" color-interpolation-filters="sRGB">
<feFlood flood-opacity="0" result="BackgroundImageFix"/>
<feBlend mode="normal" in="SourceGraphic" in2="BackgroundImageFix" result="shape"/>
<feGaussianBlur stdDeviation="0.210628" result="effect1_foregroundBlur_90_405"/>
</filter>
<filter id="filter3_f_90_405" x="180.434" y="157.293" width="51.1952" height="69.0972" filterUnits="userSpaceOnUse" color-interpolation-filters="sRGB">
<feFlood flood-opacity="0" result="BackgroundImageFix"/>
<feBlend mode="normal" in="SourceGraphic" in2="BackgroundImageFix" result="shape"/>
<feGaussianBlur stdDeviation="0.210628" result="effect1_foregroundBlur_90_405"/>
</filter>
</defs>
</svg>
