<svg width="323" height="350" viewBox="0 0 323 350" fill="none" xmlns="http://www.w3.org/2000/svg">
<path d="M56.8362 186.018C37.3366 148.239 20.0936 66.2697 107.119 40.6234L111.206 26.918L138.47 12.8227C191.383 14.8114 296.057 63.7184 291.444 243.436C286.275 278.448 262.012 342.116 206.31 316.688C204.865 302.849 194.761 278.655 165.904 292.595L111.645 242.143L116.283 234.11L126.433 243.03L135.483 240.605L120.371 220.405C112.456 213.795 94.2128 200.253 84.5545 198.961L73.5815 208.691C66.9519 202.211 51.8949 191.914 42.1226 199.57L40.498 201.066C41.0205 200.506 41.5629 200.008 42.1226 199.57L56.8362 186.018Z" fill="#1E75C5" stroke="black"/>
<path d="M163.17 76.045C154.118 56.7422 108.035 50.0779 86.1255 49.1586L117.914 33.8507L159.031 46.1139L207.967 36.8814C242.904 60.1124 264.635 99.9447 271.134 116.957L275.499 133.248C269.089 139.492 255.014 153.093 249.998 157.541C244.982 161.989 200.855 145.488 179.418 136.682C157.541 133.232 159.471 94.8197 163.17 76.045Z" fill="#143F66"/>
<path d="M169.891 43.2039C167.288 37.1112 129.459 31.0807 111.449 27.823L107.119 40.6234C113.001 33.6152 147.023 48.3614 162.118 54.0167L162.376 53.74C168.217 47.4762 170.616 44.9024 169.891 43.2039Z" fill="#338DDF" stroke="black"/>
<path d="M65.224 155.78C61.8345 119.44 94.5098 119.48 111.271 124.042C234.914 156.097 267.588 131.245 271.5 115C286.025 158.16 293.711 196.107 290.5 224C286.826 255.911 270.448 275.282 260.487 284.852C233.749 300.552 178.757 247.581 154.604 219.132C145.894 204.394 120.549 190.75 108.966 185.77C82.7538 182.706 68.8829 164.5 65.224 155.78Z" fill="#2D2C2C"/>
<path d="M108.769 190.533L120.483 123.081C78.4323 110.283 64.6275 128.02 62.9815 138.489C56.0905 171.039 90.6352 186.748 108.769 190.533Z" fill="#393D35"/>
<path d="M107.927 187.664L119.138 124.519C79.4829 112.641 66.4139 129.27 64.8363 139.07C58.2579 169.545 90.8228 184.164 107.927 187.664Z" fill="#DDE8CE"/>
<circle cx="99.9355" cy="140.519" r="5.62175" transform="rotate(-15 99.9355 140.519)" fill="#181818"/>
<circle cx="98.1254" cy="141.004" r="5.62175" transform="rotate(-15 98.1254 141.004)" fill="#5C5B5B"/>
<circle cx="93.57" cy="167.445" r="5.62175" transform="rotate(-15 93.57 167.445)" fill="#181818"/>
<circle cx="91.76" cy="167.93" r="5.62175" transform="rotate(-15 91.76 167.93)" fill="#5C5B5B"/>
<circle cx="79.1845" cy="149.959" r="5.62175" transform="rotate(-15 79.1845 149.959)" fill="#181818"/>
<circle cx="77.3745" cy="150.444" r="5.62175" transform="rotate(-15 77.3745 150.444)" fill="#5C5B5B"/>
<path d="M196.492 30.2561C184.467 28.822 173.748 38.2904 169.891 43.2039C170.137 47.018 164.973 52.605 162.36 54.9217L207.967 36.8814L196.492 30.2561Z" fill="#255785" stroke="black"/>
<path d="M196.622 37.9814L174.723 46.759L175.079 40.8438L196.314 33.2137L196.622 37.9814Z" fill="black"/>
<path d="M81.6554 97.8423L82.656 95.0865L119.123 106.789L118.122 109.544L81.6554 97.8423ZM83.4237 90.1121L84.4242 87.3562L120.891 99.0584L119.891 101.814L83.4237 90.1121Z" fill="#0B3862" stroke="#4EA7F8" stroke-width="1.25"/>
<path d="M212.791 101.542L205.225 91.2098L214.879 93.8191L212.791 101.542Z" fill="#3DA1FD" stroke="#0B1C2D"/>
<path d="M240.5 89.5L231.5 86.5L235.5 78L240.5 89.5Z" fill="#3DA1FD" stroke="#0B1C2D"/>
<path d="M242.876 120.044L224.976 109.382L245.044 101.169L242.876 120.044Z" fill="#3DA1FD" stroke="#0B1C2D"/>
<path d="M232 101L222 96.5L232 91V101Z" fill="#3DA1FD" stroke="#0B1C2D"/>
</svg>
