<svg width="291" height="288" viewBox="0 0 291 288" fill="none" xmlns="http://www.w3.org/2000/svg">
<g style="mix-blend-mode:hard-light" filter="url(#filter0_f_65_73)">
<ellipse cx="95.5516" cy="97.2283" rx="75.5516" ry="86.2283" fill="#C9EBE4" fill-opacity="0.01"/>
</g>
<g style="mix-blend-mode:hard-light" filter="url(#filter1_f_65_73)">
<path fill-rule="evenodd" clip-rule="evenodd" d="M142.974 103.121C147.875 106.323 153.129 108.556 158.511 109.867L146.602 128.095L129.823 153.779C126.461 149.377 122.305 145.462 117.404 142.26C94.2441 127.13 63.2037 133.639 48.0732 156.799C45.5192 160.708 43.5818 164.842 42.237 169.085C27.9911 137.187 29.0757 100.399 48.5065 70.6567C67.791 41.1386 100.691 25.381 135.336 25.3714C132.787 27.8693 130.467 30.6797 128.435 33.7906C113.305 56.9504 119.814 87.9909 142.974 103.121Z" fill="#C9EBE4" fill-opacity="0.01"/>
<path d="M141.804 104.912C146.032 107.674 150.513 109.745 155.116 111.153L144.811 126.925L144.811 126.925L129.636 150.153C126.499 146.504 122.801 143.231 118.574 140.469L118.574 140.469C94.4251 124.693 62.0591 131.479 46.2824 155.629C44.6641 158.106 43.2826 160.671 42.133 163.296C30.3697 133.18 32.2944 99.3833 50.2973 71.8267C68.2193 44.3941 98.2048 29.0692 130.346 27.6232C129.03 29.1961 127.793 30.8627 126.644 32.6207C110.868 56.7696 117.655 89.1355 141.804 104.912Z" stroke="#00A8A8" stroke-width="4.27821"/>
</g>
<g style="mix-blend-mode:hard-light" filter="url(#filter2_f_65_73)">
<path fill-rule="evenodd" clip-rule="evenodd" d="M142.974 103.121C147.875 106.323 153.129 108.556 158.511 109.867L146.602 128.095L129.823 153.779C126.461 149.377 122.305 145.462 117.404 142.26C94.2441 127.13 63.2037 133.639 48.0732 156.799C45.5192 160.708 43.5818 164.842 42.237 169.085C27.9911 137.187 29.0757 100.399 48.5065 70.6567C67.791 41.1386 100.691 25.381 135.336 25.3714C132.787 27.8693 130.467 30.6797 128.435 33.7906C113.305 56.9504 119.814 87.9909 142.974 103.121Z" fill="#C9EBE4" fill-opacity="0.01"/>
<path d="M141.444 105.463C145.469 108.092 149.721 110.104 154.09 111.52L144.26 126.565L144.26 126.565L129.56 149.066C126.509 145.634 122.958 142.548 118.934 139.918L118.934 139.918C94.4807 123.943 61.7069 130.815 45.7314 155.269C44.3899 157.322 43.2091 159.435 42.1862 161.593C31.1184 132.027 33.2648 99.1013 50.8483 72.1867C68.3684 45.3694 97.5092 30.1898 128.901 28.3569C127.916 29.6039 126.979 30.9055 126.093 32.2608C110.118 56.7139 116.99 89.4878 141.444 105.463L142.974 103.121L141.444 105.463Z" stroke="#00A8A8" stroke-width="5.59458"/>
</g>
<g style="mix-blend-mode:hard-light" filter="url(#filter3_ddi_65_73)">
<path fill-rule="evenodd" clip-rule="evenodd" d="M142.974 103.121C147.875 106.323 153.129 108.556 158.511 109.867L146.602 128.095L129.823 153.779C126.461 149.377 122.305 145.462 117.404 142.26C94.2441 127.13 63.2037 133.639 48.0732 156.799C45.5192 160.708 43.5818 164.842 42.237 169.085C27.9911 137.187 29.0757 100.399 48.5065 70.6567C67.791 41.1386 100.691 25.381 135.336 25.3714C132.787 27.8693 130.467 30.6797 128.435 33.7906C113.305 56.9504 119.814 87.9909 142.974 103.121Z" fill="#C9EBE4" fill-opacity="0.01"/>
<path d="M141.804 104.912C146.032 107.674 150.513 109.745 155.116 111.153L144.811 126.925L144.811 126.925L129.636 150.153C126.499 146.504 122.801 143.231 118.574 140.469L118.574 140.469C94.4251 124.693 62.0591 131.479 46.2824 155.629C44.6641 158.106 43.2826 160.671 42.133 163.296C30.3697 133.18 32.2944 99.3833 50.2973 71.8267C68.2193 44.3941 98.2048 29.0692 130.346 27.6232C129.03 29.1961 127.793 30.8627 126.644 32.6207C110.868 56.7696 117.655 89.1355 141.804 104.912Z" stroke="#33E9C6" stroke-opacity="0.2" stroke-width="4.27821"/>
</g>
<g filter="url(#filter4_f_65_73)">
<path fill-rule="evenodd" clip-rule="evenodd" d="M142.974 103.121C147.875 106.323 153.129 108.556 158.511 109.867L146.602 128.095L129.823 153.779C126.461 149.377 122.305 145.462 117.404 142.26C94.2441 127.13 63.2037 133.639 48.0732 156.799C45.5192 160.708 43.5818 164.842 42.237 169.085C27.9911 137.187 29.0757 100.399 48.5065 70.6567C67.791 41.1386 100.691 25.381 135.336 25.3714C132.787 27.8693 130.467 30.6797 128.435 33.7906C113.305 56.9504 119.814 87.9909 142.974 103.121Z" fill="#C9EBE4" fill-opacity="0.01"/>
<path d="M145.5 127.375L129.72 151.53C126.485 147.6 122.607 144.088 118.124 141.158L118.124 141.158C94.3555 125.63 62.4993 132.31 46.9711 156.079C45 159.096 43.3863 162.244 42.12 165.474C29.4444 134.671 31.0689 99.7548 49.6085 71.3767C68.0439 43.1584 99.1178 27.6596 132.209 26.732C130.448 28.6865 128.816 30.8009 127.333 33.0707C111.805 56.8391 118.485 88.6953 142.254 104.223C146.738 107.153 151.511 109.293 156.411 110.676L145.5 127.375L146.602 128.095L145.5 127.375Z" stroke="#33E9E9" stroke-width="2.63274"/>
</g>
<g filter="url(#filter5_f_65_73)">
<path fill-rule="evenodd" clip-rule="evenodd" d="M142.974 103.121C147.875 106.323 153.129 108.556 158.511 109.867L146.602 128.095L129.823 153.779C126.461 149.377 122.305 145.462 117.404 142.26C94.2441 127.13 63.2037 133.639 48.0732 156.799C45.5192 160.708 43.5818 164.842 42.237 169.085C27.9911 137.187 29.0757 100.399 48.5065 70.6567C67.791 41.1386 100.691 25.381 135.336 25.3714C132.787 27.8693 130.467 30.6797 128.435 33.7906C113.305 56.9504 119.814 87.9909 142.974 103.121Z" fill="#C9EBE4" fill-opacity="0.01"/>
<path d="M117.764 141.709L117.404 142.26L117.764 141.709C94.2998 126.38 62.8515 132.974 47.5222 156.439C45.2627 159.897 43.4793 163.53 42.156 167.259C28.7134 135.908 30.0776 100.069 49.0575 71.0167C67.9129 42.1554 99.886 26.5241 133.749 26.0411C131.606 28.2783 129.639 30.7441 127.884 33.4306C112.555 56.8948 119.149 88.3431 142.614 103.672C147.306 106.737 152.317 108.926 157.456 110.279L146.051 127.735L129.776 152.647C126.474 148.485 122.455 144.774 117.764 141.709Z" stroke="white" stroke-width="1.31637"/>
</g>
<g style="mix-blend-mode:hard-light" filter="url(#filter6_f_65_73)">
<ellipse rx="75.5516" ry="86.2283" transform="matrix(-0.376478 -0.926425 -0.926425 0.376478 214.672 168.717)" fill="#C9EBE4" fill-opacity="0.01"/>
</g>
<g style="mix-blend-mode:hard-light" filter="url(#filter7_f_65_73)">
<path fill-rule="evenodd" clip-rule="evenodd" d="M191.359 127.002C186.548 123.667 182.501 119.64 179.26 115.147L166.857 133.043L149.381 158.257C154.724 159.714 159.915 162.091 164.727 165.426C187.463 181.185 193.119 212.392 177.359 235.129C174.7 238.966 171.599 242.318 168.174 245.161C203.089 246.35 236.762 231.495 257.001 202.297C277.087 173.318 279.299 136.907 266.264 104.806C264.91 108.109 263.18 111.316 261.063 114.369C245.303 137.106 214.096 142.762 191.359 127.002Z" fill="#C9EBE4" fill-opacity="0.01"/>
<path d="M190.141 128.76C185.991 125.883 182.384 122.511 179.348 118.777L168.615 134.261L168.615 134.261L152.81 157.064C157.372 158.597 161.795 160.791 165.945 163.667L165.945 163.667C189.652 180.1 195.551 212.64 179.118 236.347C177.432 238.779 175.576 241.025 173.577 243.078C205.906 242.638 236.491 228.131 255.242 201.078C273.909 174.147 276.818 140.598 266.057 110.278C265.095 112.089 264.017 113.862 262.821 115.588C246.388 139.295 213.849 145.193 190.141 128.76Z" stroke="#00A8A8" stroke-width="4.27821"/>
</g>
<g style="mix-blend-mode:hard-light" filter="url(#filter8_f_65_73)">
<path fill-rule="evenodd" clip-rule="evenodd" d="M191.359 127.002C186.548 123.667 182.501 119.64 179.26 115.147L166.857 133.043L149.381 158.257C154.724 159.714 159.915 162.091 164.727 165.426C187.463 181.185 193.119 212.392 177.359 235.129C174.7 238.966 171.599 242.318 168.174 245.161C203.089 246.35 236.762 231.495 257.001 202.297C277.087 173.318 279.299 136.907 266.264 104.806C264.91 108.109 263.18 111.316 261.063 114.369C245.303 137.106 214.096 142.762 191.359 127.002Z" fill="#C9EBE4" fill-opacity="0.01"/>
<path d="M189.766 129.301C185.815 126.562 182.35 123.38 179.394 119.865L169.156 134.636L169.156 134.636L153.845 156.726C158.173 158.261 162.37 160.388 166.32 163.126L166.32 163.127C190.326 179.766 196.299 212.716 179.658 236.722C178.261 238.738 176.748 240.627 175.135 242.387C206.692 241.51 236.387 227.126 254.702 200.703C272.95 174.376 276.042 141.664 265.921 111.892C265.137 113.274 264.284 114.633 263.362 115.963C246.722 139.969 213.772 145.941 189.766 129.301L191.359 127.002L189.766 129.301Z" stroke="#00A8A8" stroke-width="5.59458"/>
</g>
<g style="mix-blend-mode:hard-light" filter="url(#filter9_ddi_65_73)">
<path fill-rule="evenodd" clip-rule="evenodd" d="M191.359 127.002C186.548 123.667 182.501 119.64 179.26 115.147L166.857 133.043L149.381 158.257C154.724 159.714 159.915 162.091 164.727 165.426C187.463 181.185 193.119 212.392 177.359 235.129C174.7 238.966 171.599 242.318 168.174 245.161C203.089 246.35 236.762 231.495 257.001 202.297C277.087 173.318 279.299 136.907 266.264 104.806C264.91 108.109 263.18 111.316 261.063 114.369C245.303 137.106 214.096 142.762 191.359 127.002Z" fill="#C9EBE4" fill-opacity="0.01"/>
<path d="M190.141 128.76C185.991 125.883 182.384 122.511 179.348 118.777L168.615 134.261L168.615 134.261L152.81 157.064C157.372 158.597 161.795 160.791 165.945 163.667L165.945 163.667C189.652 180.1 195.551 212.64 179.118 236.347C177.432 238.779 175.576 241.025 173.577 243.078C205.906 242.638 236.491 228.131 255.242 201.078C273.909 174.147 276.818 140.598 266.057 110.278C265.095 112.089 264.017 113.862 262.821 115.588C246.388 139.295 213.849 145.193 190.141 128.76Z" stroke="#33E9C6" stroke-opacity="0.2" stroke-width="4.27821"/>
</g>
<g filter="url(#filter10_f_65_73)">
<path fill-rule="evenodd" clip-rule="evenodd" d="M191.359 127.002C186.548 123.667 182.501 119.64 179.26 115.147L166.857 133.043L149.381 158.257C154.724 159.714 159.915 162.091 164.727 165.426C187.463 181.185 193.119 212.392 177.359 235.129C174.7 238.966 171.599 242.318 168.174 245.161C203.089 246.35 236.762 231.495 257.001 202.297C277.087 173.318 279.299 136.907 266.264 104.806C264.91 108.109 263.18 111.316 261.063 114.369C245.303 137.106 214.096 142.762 191.359 127.002Z" fill="#C9EBE4" fill-opacity="0.01"/>
<path d="M167.939 133.793L151.503 157.506C156.361 159.023 161.075 161.293 165.477 164.344L165.477 164.344C188.81 180.517 194.615 212.545 178.441 235.879C176.389 238.841 174.079 241.521 171.564 243.91C204.873 244.056 236.608 229.406 255.919 201.547C275.12 173.844 277.78 139.222 266.181 108.216C265.034 110.583 263.689 112.891 262.145 115.119C245.971 138.453 213.944 144.258 190.61 128.084C186.208 125.033 182.428 121.416 179.302 117.398L167.939 133.793L166.857 133.043L167.939 133.793Z" stroke="#33E9E9" stroke-width="2.63274"/>
</g>
<g filter="url(#filter11_f_65_73)">
<path fill-rule="evenodd" clip-rule="evenodd" d="M191.359 127.002C186.548 123.667 182.501 119.64 179.26 115.147L166.857 133.043L149.381 158.257C154.724 159.714 159.915 162.091 164.727 165.426C187.463 181.185 193.119 212.392 177.359 235.129C174.7 238.966 171.599 242.318 168.174 245.161C203.089 246.35 236.762 231.495 257.001 202.297C277.087 173.318 279.299 136.907 266.264 104.806C264.91 108.109 263.18 111.316 261.063 114.369C245.303 137.106 214.096 142.762 191.359 127.002Z" fill="#C9EBE4" fill-opacity="0.01"/>
<path d="M165.102 164.885L164.727 165.426L165.102 164.885C188.137 180.851 193.867 212.468 177.9 235.504C175.547 238.899 172.853 241.919 169.897 244.549C204.002 245.199 236.691 230.443 256.46 201.922C276.099 173.588 278.543 138.082 266.242 106.529C264.976 109.357 263.432 112.107 261.604 114.744C245.637 137.779 214.02 143.51 190.985 127.543C186.379 124.35 182.464 120.532 179.276 116.28L167.398 133.418L150.447 157.874C155.546 159.367 160.496 161.693 165.102 164.885Z" stroke="white" stroke-width="1.31637"/>
</g>
<g filter="url(#filter12_i_65_73)">
<path d="M54.9274 268.338L158.226 107.633C158.352 107.437 158.46 107.231 158.55 107.017L159.497 104.758C160.363 102.694 162.754 101.742 164.802 102.646L180.753 109.69C182.989 110.677 183.825 113.422 182.517 115.488L75.7597 284.18C74.475 286.21 71.7034 286.658 69.845 285.135L55.7574 273.595C54.1859 272.308 53.8289 270.047 54.9274 268.338Z" fill="#030815"/>
</g>
<path d="M54.9274 268.338L158.226 107.633C158.352 107.437 158.46 107.231 158.55 107.017L159.497 104.758C160.363 102.694 162.754 101.742 164.802 102.646L180.753 109.69C182.989 110.677 183.825 113.422 182.517 115.488L75.7597 284.18C74.475 286.21 71.7034 286.658 69.845 285.135L55.7574 273.595C54.1859 272.308 53.8289 270.047 54.9274 268.338Z" stroke="black" stroke-opacity="0.7"/>
<g filter="url(#filter13_i_65_73)">
<path d="M177.716 168.147C177.716 168.147 165.196 154.332 152.244 163.398L182.465 116.341C178.147 125.407 184.191 127.853 200.597 131.883L177.716 168.147Z" fill="#030815"/>
</g>
<path d="M177.716 168.147C177.716 168.147 165.196 154.332 152.244 163.398L182.465 116.341C178.147 125.407 184.191 127.853 200.597 131.883L177.716 168.147Z" stroke="black" stroke-opacity="0.7"/>
<g filter="url(#filter14_i_65_73)">
<path d="M112.536 133.775C112.536 133.775 130.277 139.51 127.335 155.043L157.812 108.151C151.322 115.813 146.607 111.309 136.191 98.0095L112.536 133.775Z" fill="#030815"/>
</g>
<path d="M112.536 133.775C112.536 133.775 130.277 139.51 127.335 155.043L157.812 108.151C151.322 115.813 146.607 111.309 136.191 98.0095L112.536 133.775Z" stroke="black" stroke-opacity="0.7"/>
<path d="M82.2881 227.302C86.5674 240.157 96.5052 243.618 101.164 244.13L108.503 232.042C98.8452 230.552 92.5411 219.846 90.371 214.773L82.2881 227.302Z" fill="#FFDA17"/>
<path d="M93.1243 209.354C96.9791 222.342 107.318 226.196 111.957 226.862L119.169 214.952C109.566 213.146 103.073 201.774 101.071 196.633L93.1243 209.354Z" fill="#FFDA17"/>
<path d="M70.5116 245.857C74.7909 258.712 84.6565 262.434 89.3153 262.947L97.6321 250.428C87.9742 248.938 81.1115 237.786 78.9414 232.714L70.5116 245.857Z" fill="#FFDA17"/>
<path d="M173.262 151.742L176.627 153.685V157.57L173.262 159.513L169.897 157.57V153.685L173.262 151.742Z" fill="url(#paint0_radial_65_73)"/>
<path d="M184.487 134.473L187.852 136.416V140.301L184.487 142.244L181.122 140.301V136.416L184.487 134.473Z" fill="url(#paint1_radial_65_73)"/>
<path d="M138.724 111.16L142.089 113.103V116.988L138.724 118.931L135.359 116.988V113.103L138.724 111.16Z" fill="url(#paint2_radial_65_73)"/>
<path d="M128.363 128.429L131.728 130.371V134.257L128.363 136.2L124.998 134.257V130.371L128.363 128.429Z" fill="url(#paint3_radial_65_73)"/>
<defs>
<filter id="filter0_f_65_73" x="0.254414" y="-8.74559" width="190.594" height="211.948" filterUnits="userSpaceOnUse" color-interpolation-filters="sRGB">
<feFlood flood-opacity="0" result="BackgroundImageFix"/>
<feBlend mode="normal" in="SourceGraphic" in2="BackgroundImageFix" result="shape"/>
<feGaussianBlur stdDeviation="9.87279" result="effect1_foregroundBlur_65_73"/>
</filter>
<filter id="filter1_f_65_73" x="12.8463" y="5.62581" width="165.41" height="183.205" filterUnits="userSpaceOnUse" color-interpolation-filters="sRGB">
<feFlood flood-opacity="0" result="BackgroundImageFix"/>
<feBlend mode="normal" in="SourceGraphic" in2="BackgroundImageFix" result="shape"/>
<feGaussianBlur stdDeviation="9.87279" result="effect1_foregroundBlur_65_73"/>
</filter>
<filter id="filter2_f_65_73" x="26.0101" y="18.7895" width="139.083" height="156.878" filterUnits="userSpaceOnUse" color-interpolation-filters="sRGB">
<feFlood flood-opacity="0" result="BackgroundImageFix"/>
<feBlend mode="normal" in="SourceGraphic" in2="BackgroundImageFix" result="shape"/>
<feGaussianBlur stdDeviation="3.29093" result="effect1_foregroundBlur_65_73"/>
</filter>
<filter id="filter3_ddi_65_73" x="24.0355" y="23.3968" width="143.032" height="160.827" filterUnits="userSpaceOnUse" color-interpolation-filters="sRGB">
<feFlood flood-opacity="0" result="BackgroundImageFix"/>
<feColorMatrix in="SourceAlpha" type="matrix" values="0 0 0 0 0 0 0 0 0 0 0 0 0 0 0 0 0 0 127 0" result="hardAlpha"/>
<feOffset dy="4.27821"/>
<feGaussianBlur stdDeviation="1.64547"/>
<feColorMatrix type="matrix" values="0 0 0 0 0 0 0 0 0 0.3 0 0 0 0 0.275 0 0 0 0.7 0"/>
<feBlend mode="multiply" in2="BackgroundImageFix" result="effect1_dropShadow_65_73"/>
<feColorMatrix in="SourceAlpha" type="matrix" values="0 0 0 0 0 0 0 0 0 0 0 0 0 0 0 0 0 0 127 0" result="hardAlpha"/>
<feOffset dy="6.58186"/>
<feGaussianBlur stdDeviation="4.27821"/>
<feColorMatrix type="matrix" values="0 0 0 0 0 0 0 0 0 0.6 0 0 0 0 0.6 0 0 0 1 0"/>
<feBlend mode="color-dodge" in2="effect1_dropShadow_65_73" result="effect2_dropShadow_65_73"/>
<feBlend mode="normal" in="SourceGraphic" in2="effect2_dropShadow_65_73" result="shape"/>
<feColorMatrix in="SourceAlpha" type="matrix" values="0 0 0 0 0 0 0 0 0 0 0 0 0 0 0 0 0 0 127 0" result="hardAlpha"/>
<feOffset dx="-0.427821" dy="0.855642"/>
<feGaussianBlur stdDeviation="0.213911"/>
<feComposite in2="hardAlpha" operator="arithmetic" k2="-1" k3="1"/>
<feColorMatrix type="matrix" values="0 0 0 0 1 0 0 0 0 1 0 0 0 0 1 0 0 0 0.5 0"/>
<feBlend mode="normal" in2="shape" result="effect3_innerShadow_65_73"/>
</filter>
<filter id="filter4_f_65_73" x="31.9337" y="24.7132" width="127.236" height="145.03" filterUnits="userSpaceOnUse" color-interpolation-filters="sRGB">
<feFlood flood-opacity="0" result="BackgroundImageFix"/>
<feBlend mode="normal" in="SourceGraphic" in2="BackgroundImageFix" result="shape"/>
<feGaussianBlur stdDeviation="0.329093" result="effect1_foregroundBlur_65_73"/>
</filter>
<filter id="filter5_f_65_73" x="32.1531" y="24.9326" width="126.797" height="144.592" filterUnits="userSpaceOnUse" color-interpolation-filters="sRGB">
<feFlood flood-opacity="0" result="BackgroundImageFix"/>
<feBlend mode="normal" in="SourceGraphic" in2="BackgroundImageFix" result="shape"/>
<feGaussianBlur stdDeviation="0.219395" result="effect1_foregroundBlur_65_73"/>
</filter>
<filter id="filter6_f_65_73" x="110.107" y="71.7977" width="209.131" height="193.838" filterUnits="userSpaceOnUse" color-interpolation-filters="sRGB">
<feFlood flood-opacity="0" result="BackgroundImageFix"/>
<feBlend mode="normal" in="SourceGraphic" in2="BackgroundImageFix" result="shape"/>
<feGaussianBlur stdDeviation="9.87279" result="effect1_foregroundBlur_65_73"/>
</filter>
<filter id="filter7_f_65_73" x="129.635" y="85.0608" width="164.538" height="179.912" filterUnits="userSpaceOnUse" color-interpolation-filters="sRGB">
<feFlood flood-opacity="0" result="BackgroundImageFix"/>
<feBlend mode="normal" in="SourceGraphic" in2="BackgroundImageFix" result="shape"/>
<feGaussianBlur stdDeviation="9.87279" result="effect1_foregroundBlur_65_73"/>
</filter>
<filter id="filter8_f_65_73" x="142.799" y="98.2245" width="138.21" height="153.585" filterUnits="userSpaceOnUse" color-interpolation-filters="sRGB">
<feFlood flood-opacity="0" result="BackgroundImageFix"/>
<feBlend mode="normal" in="SourceGraphic" in2="BackgroundImageFix" result="shape"/>
<feGaussianBlur stdDeviation="3.29093" result="effect1_foregroundBlur_65_73"/>
</filter>
<filter id="filter9_ddi_65_73" x="140.824" y="102.832" width="142.16" height="157.534" filterUnits="userSpaceOnUse" color-interpolation-filters="sRGB">
<feFlood flood-opacity="0" result="BackgroundImageFix"/>
<feColorMatrix in="SourceAlpha" type="matrix" values="0 0 0 0 0 0 0 0 0 0 0 0 0 0 0 0 0 0 127 0" result="hardAlpha"/>
<feOffset dy="4.27821"/>
<feGaussianBlur stdDeviation="1.64547"/>
<feColorMatrix type="matrix" values="0 0 0 0 0 0 0 0 0 0.3 0 0 0 0 0.275 0 0 0 0.7 0"/>
<feBlend mode="multiply" in2="BackgroundImageFix" result="effect1_dropShadow_65_73"/>
<feColorMatrix in="SourceAlpha" type="matrix" values="0 0 0 0 0 0 0 0 0 0 0 0 0 0 0 0 0 0 127 0" result="hardAlpha"/>
<feOffset dy="6.58186"/>
<feGaussianBlur stdDeviation="4.27821"/>
<feColorMatrix type="matrix" values="0 0 0 0 0 0 0 0 0 0.6 0 0 0 0 0.6 0 0 0 1 0"/>
<feBlend mode="color-dodge" in2="effect1_dropShadow_65_73" result="effect2_dropShadow_65_73"/>
<feBlend mode="normal" in="SourceGraphic" in2="effect2_dropShadow_65_73" result="shape"/>
<feColorMatrix in="SourceAlpha" type="matrix" values="0 0 0 0 0 0 0 0 0 0 0 0 0 0 0 0 0 0 127 0" result="hardAlpha"/>
<feOffset dx="-0.427821" dy="0.855642"/>
<feGaussianBlur stdDeviation="0.213911"/>
<feComposite in2="hardAlpha" operator="arithmetic" k2="-1" k3="1"/>
<feColorMatrix type="matrix" values="0 0 0 0 1 0 0 0 0 1 0 0 0 0 1 0 0 0 0.5 0"/>
<feBlend mode="normal" in2="shape" result="effect3_innerShadow_65_73"/>
</filter>
<filter id="filter10_f_65_73" x="148.722" y="104.148" width="126.363" height="141.737" filterUnits="userSpaceOnUse" color-interpolation-filters="sRGB">
<feFlood flood-opacity="0" result="BackgroundImageFix"/>
<feBlend mode="normal" in="SourceGraphic" in2="BackgroundImageFix" result="shape"/>
<feGaussianBlur stdDeviation="0.329093" result="effect1_foregroundBlur_65_73"/>
</filter>
<filter id="filter11_f_65_73" x="148.942" y="104.368" width="125.924" height="141.298" filterUnits="userSpaceOnUse" color-interpolation-filters="sRGB">
<feFlood flood-opacity="0" result="BackgroundImageFix"/>
<feBlend mode="normal" in="SourceGraphic" in2="BackgroundImageFix" result="shape"/>
<feGaussianBlur stdDeviation="0.219395" result="effect1_foregroundBlur_65_73"/>
</filter>
<filter id="filter12_i_65_73" x="53.792" y="101.804" width="129.847" height="192.737" filterUnits="userSpaceOnUse" color-interpolation-filters="sRGB">
<feFlood flood-opacity="0" result="BackgroundImageFix"/>
<feBlend mode="normal" in="SourceGraphic" in2="BackgroundImageFix" result="shape"/>
<feColorMatrix in="SourceAlpha" type="matrix" values="0 0 0 0 0 0 0 0 0 0 0 0 0 0 0 0 0 0 127 0" result="hardAlpha"/>
<feOffset dy="8"/>
<feGaussianBlur stdDeviation="4"/>
<feComposite in2="hardAlpha" operator="arithmetic" k2="-1" k3="1"/>
<feColorMatrix type="matrix" values="0 0 0 0 1 0 0 0 0 0.979167 0 0 0 0 0.979167 0 0 0 0.25 0"/>
<feBlend mode="normal" in2="shape" result="effect1_innerShadow_65_73"/>
</filter>
<filter id="filter13_i_65_73" x="151.823" y="108.07" width="49.5669" height="60.9006" filterUnits="userSpaceOnUse" color-interpolation-filters="sRGB">
<feFlood flood-opacity="0" result="BackgroundImageFix"/>
<feBlend mode="normal" in="SourceGraphic" in2="BackgroundImageFix" result="shape"/>
<feColorMatrix in="SourceAlpha" type="matrix" values="0 0 0 0 0 0 0 0 0 0 0 0 0 0 0 0 0 0 127 0" result="hardAlpha"/>
<feOffset dy="-8"/>
<feGaussianBlur stdDeviation="4"/>
<feComposite in2="hardAlpha" operator="arithmetic" k2="-1" k3="1"/>
<feColorMatrix type="matrix" values="0 0 0 0 1 0 0 0 0 1 0 0 0 0 1 0 0 0 0.25 0"/>
<feBlend mode="normal" in2="shape" result="effect1_innerShadow_65_73"/>
</filter>
<filter id="filter14_i_65_73" x="111.756" y="97.1548" width="46.4755" height="66.1608" filterUnits="userSpaceOnUse" color-interpolation-filters="sRGB">
<feFlood flood-opacity="0" result="BackgroundImageFix"/>
<feBlend mode="normal" in="SourceGraphic" in2="BackgroundImageFix" result="shape"/>
<feColorMatrix in="SourceAlpha" type="matrix" values="0 0 0 0 0 0 0 0 0 0 0 0 0 0 0 0 0 0 127 0" result="hardAlpha"/>
<feOffset dy="8"/>
<feGaussianBlur stdDeviation="4"/>
<feComposite in2="hardAlpha" operator="arithmetic" k2="-1" k3="1"/>
<feColorMatrix type="matrix" values="0 0 0 0 1 0 0 0 0 1 0 0 0 0 1 0 0 0 0.25 0"/>
<feBlend mode="normal" in2="shape" result="effect1_innerShadow_65_73"/>
</filter>
<radialGradient id="paint0_radial_65_73" cx="0" cy="0" r="1" gradientUnits="userSpaceOnUse" gradientTransform="translate(173.262 155.627) rotate(90) scale(3.88551)">
<stop offset="0.208333" stop-color="#FE3838"/>
<stop offset="1" stop-color="#FE3838" stop-opacity="0"/>
</radialGradient>
<radialGradient id="paint1_radial_65_73" cx="0" cy="0" r="1" gradientUnits="userSpaceOnUse" gradientTransform="translate(184.487 138.358) rotate(90) scale(3.88551)">
<stop offset="0.208333" stop-color="#FE3838"/>
<stop offset="1" stop-color="#FE3838" stop-opacity="0"/>
</radialGradient>
<radialGradient id="paint2_radial_65_73" cx="0" cy="0" r="1" gradientUnits="userSpaceOnUse" gradientTransform="translate(138.724 115.045) rotate(90) scale(3.88551)">
<stop offset="0.208333" stop-color="#FE3838"/>
<stop offset="1" stop-color="#FE3838" stop-opacity="0"/>
</radialGradient>
<radialGradient id="paint3_radial_65_73" cx="0" cy="0" r="1" gradientUnits="userSpaceOnUse" gradientTransform="translate(128.363 132.314) rotate(90) scale(3.88551)">
<stop offset="0.208333" stop-color="#FE3838"/>
<stop offset="1" stop-color="#FE3838" stop-opacity="0"/>
</radialGradient>
</defs>
</svg>
