<svg width="300" height="300" viewBox="0 0 300 300" fill="none" xmlns="http://www.w3.org/2000/svg">
<g clip-path="url(#clip0_65_72)">
<g style="mix-blend-mode:hard-light" filter="url(#filter0_f_65_72)">
<ellipse cx="104.552" cy="97.2283" rx="75.5516" ry="86.2283" fill="#C9EBE4" fill-opacity="0.01"/>
</g>
<g style="mix-blend-mode:hard-light" filter="url(#filter1_f_65_72)">
<path fill-rule="evenodd" clip-rule="evenodd" d="M151.974 103.121C156.875 106.323 162.129 108.556 167.511 109.867L155.602 128.095L138.823 153.778C135.461 149.377 131.305 145.462 126.404 142.26C103.244 127.13 72.2037 133.639 57.0732 156.799C54.5192 160.708 52.5818 164.842 51.237 169.085C36.9911 137.187 38.0757 100.399 57.5065 70.6567C76.791 41.1386 109.691 25.381 144.336 25.3714C141.787 27.8693 139.467 30.6797 137.435 33.7906C122.305 56.9504 128.814 87.9909 151.974 103.121Z" fill="#C9EBE4" fill-opacity="0.01"/>
<path d="M150.804 104.912C155.032 107.674 159.513 109.745 164.116 111.153L153.811 126.925L153.811 126.925L138.636 150.153C135.499 146.504 131.801 143.231 127.574 140.469L127.574 140.469C103.425 124.693 71.0591 131.479 55.2824 155.629C53.6641 158.106 52.2826 160.671 51.133 163.296C39.3697 133.18 41.2944 99.3833 59.2973 71.8267C77.2193 44.3941 107.205 29.0692 139.346 27.6232C138.03 29.1961 136.793 30.8627 135.644 32.6207C119.868 56.7696 126.655 89.1355 150.804 104.912L151.892 103.248L150.804 104.912Z" stroke="#00A8A8" stroke-width="4.27821"/>
</g>
<g style="mix-blend-mode:hard-light" filter="url(#filter2_f_65_72)">
<path fill-rule="evenodd" clip-rule="evenodd" d="M151.974 103.121C156.875 106.323 162.129 108.556 167.511 109.867L155.602 128.095L138.823 153.778C135.461 149.377 131.305 145.462 126.404 142.26C103.244 127.13 72.2037 133.639 57.0732 156.799C54.5192 160.708 52.5818 164.842 51.237 169.085C36.9911 137.187 38.0757 100.399 57.5065 70.6567C76.791 41.1386 109.691 25.381 144.336 25.3714C141.787 27.8693 139.467 30.6797 137.435 33.7906C122.305 56.9504 128.814 87.9909 151.974 103.121Z" fill="#C9EBE4" fill-opacity="0.01"/>
<path d="M150.444 105.463C154.469 108.092 158.721 110.104 163.09 111.52L153.26 126.565L153.26 126.565L138.56 149.066C135.509 145.634 131.958 142.548 127.934 139.918L127.934 139.918C103.481 123.943 70.7068 130.815 54.7313 155.269C53.3899 157.322 52.2091 159.435 51.1862 161.593C40.1184 132.027 42.2648 99.1013 59.8483 72.1867C77.3684 45.3694 106.509 30.1898 137.901 28.3569C136.916 29.6039 135.979 30.9055 135.093 32.2607C119.118 56.7138 125.99 89.4877 150.444 105.463L151.866 103.287L150.444 105.463Z" stroke="#00A8A8" stroke-width="5.59458"/>
</g>
<g style="mix-blend-mode:hard-light" filter="url(#filter3_ddi_65_72)">
<path fill-rule="evenodd" clip-rule="evenodd" d="M151.974 103.121C156.875 106.323 162.129 108.556 167.511 109.867L155.602 128.095L138.823 153.778C135.461 149.377 131.305 145.462 126.404 142.26C103.244 127.13 72.2037 133.639 57.0732 156.799C54.5192 160.708 52.5818 164.842 51.237 169.085C36.9911 137.187 38.0757 100.399 57.5065 70.6567C76.791 41.1386 109.691 25.381 144.336 25.3714C141.787 27.8693 139.467 30.6797 137.435 33.7906C122.305 56.9504 128.814 87.9909 151.974 103.121Z" fill="#C9EBE4" fill-opacity="0.01"/>
<path d="M150.804 104.912C155.032 107.674 159.513 109.745 164.116 111.153L153.811 126.925L153.811 126.925L138.636 150.153C135.499 146.504 131.801 143.231 127.574 140.469L127.574 140.469C103.425 124.693 71.0591 131.479 55.2824 155.629C53.6641 158.106 52.2826 160.671 51.133 163.296C39.3697 133.18 41.2944 99.3833 59.2973 71.8267C77.2193 44.3941 107.205 29.0692 139.346 27.6232C138.03 29.1961 136.793 30.8627 135.644 32.6207C119.868 56.7696 126.655 89.1355 150.804 104.912L151.892 103.248L150.804 104.912Z" stroke="#33E9C6" stroke-opacity="0.2" stroke-width="4.27821"/>
</g>
<g filter="url(#filter4_f_65_72)">
<path fill-rule="evenodd" clip-rule="evenodd" d="M151.974 103.121C156.875 106.323 162.129 108.556 167.511 109.867L155.602 128.095L138.823 153.778C135.461 149.377 131.305 145.462 126.404 142.26C103.244 127.13 72.2037 133.639 57.0732 156.799C54.5192 160.708 52.5818 164.842 51.237 169.085C36.9911 137.187 38.0757 100.399 57.5065 70.6567C76.791 41.1386 109.691 25.381 144.336 25.3714C141.787 27.8693 139.467 30.6797 137.435 33.7906C122.305 56.9504 128.814 87.9909 151.974 103.121Z" fill="#C9EBE4" fill-opacity="0.01"/>
<path d="M127.124 141.158L127.124 141.158C103.355 125.63 71.4993 132.31 55.9711 156.079C54 159.096 52.3863 162.244 51.12 165.474C38.4444 134.671 40.0689 99.7548 58.6085 71.3767C77.0439 43.1584 108.118 27.6596 141.209 26.732C139.448 28.6865 137.816 30.8009 136.333 33.0707C120.805 56.8391 127.485 88.6953 151.254 104.223C155.738 107.153 160.511 109.293 165.411 110.676L154.5 127.375L155.517 128.04L154.5 127.375L138.72 151.53C135.485 147.6 131.607 144.088 127.124 141.158Z" stroke="#33E9E9" stroke-width="2.63274"/>
</g>
<g filter="url(#filter5_f_65_72)">
<path fill-rule="evenodd" clip-rule="evenodd" d="M151.974 103.121C156.875 106.323 162.129 108.556 167.511 109.867L155.602 128.095L138.823 153.778C135.461 149.377 131.305 145.462 126.404 142.26C103.244 127.13 72.2037 133.639 57.0732 156.799C54.5192 160.708 52.5818 164.842 51.237 169.085C36.9911 137.187 38.0757 100.399 57.5065 70.6567C76.791 41.1386 109.691 25.381 144.336 25.3714C141.787 27.8693 139.467 30.6797 137.435 33.7906C122.305 56.9504 128.814 87.9909 151.974 103.121Z" fill="#C9EBE4" fill-opacity="0.01"/>
<path d="M126.764 141.709L126.42 142.235L126.764 141.709C103.3 126.38 71.8515 132.974 56.5222 156.439C54.2627 159.897 52.4793 163.53 51.156 167.259C37.7134 135.908 39.0776 100.069 58.0575 71.0167C76.9129 42.1554 108.886 26.5241 142.749 26.0411C140.606 28.2783 138.639 30.7441 136.884 33.4306C121.555 56.8948 128.149 88.3431 151.614 103.672C156.306 106.737 161.317 108.926 166.456 110.279L155.051 127.735L138.776 152.647C135.474 148.485 131.455 144.774 126.764 141.709Z" stroke="white" stroke-width="1.31637"/>
</g>
<g style="mix-blend-mode:hard-light" filter="url(#filter6_f_65_72)">
<ellipse rx="75.5516" ry="86.2283" transform="matrix(-0.376478 -0.926425 -0.926425 0.376478 223.672 168.717)" fill="#C9EBE4" fill-opacity="0.01"/>
</g>
<g style="mix-blend-mode:hard-light" filter="url(#filter7_f_65_72)">
<path fill-rule="evenodd" clip-rule="evenodd" d="M200.359 127.002C195.548 123.667 191.501 119.64 188.26 115.147L175.857 133.043L158.381 158.257C163.724 159.714 168.915 162.091 173.727 165.426C196.463 181.185 202.119 212.392 186.359 235.129C183.7 238.966 180.599 242.318 177.174 245.161C212.089 246.35 245.762 231.495 266.001 202.297C286.087 173.318 288.299 136.907 275.264 104.806C273.91 108.109 272.18 111.316 270.063 114.369C254.303 137.106 223.096 142.762 200.359 127.002Z" fill="#C9EBE4" fill-opacity="0.01"/>
<path d="M199.141 128.76C194.991 125.883 191.384 122.511 188.348 118.777L177.615 134.261L177.615 134.261L161.81 157.064C166.372 158.597 170.795 160.791 174.945 163.667L174.945 163.667C198.652 180.1 204.551 212.64 188.118 236.347C186.432 238.779 184.576 241.025 182.577 243.078C214.906 242.638 245.491 228.131 264.242 201.078C282.909 174.147 285.818 140.598 275.057 110.278C274.095 112.089 273.017 113.862 271.821 115.588C255.388 139.295 222.849 145.193 199.141 128.76L200.274 127.126L199.141 128.76Z" stroke="#00A8A8" stroke-width="4.27821"/>
</g>
<g style="mix-blend-mode:hard-light" filter="url(#filter8_f_65_72)">
<path fill-rule="evenodd" clip-rule="evenodd" d="M200.359 127.002C195.548 123.667 191.501 119.64 188.26 115.147L175.857 133.043L158.381 158.257C163.724 159.714 168.915 162.091 173.727 165.426C196.463 181.185 202.119 212.392 186.359 235.129C183.7 238.966 180.599 242.318 177.174 245.161C212.089 246.35 245.762 231.495 266.001 202.297C286.087 173.318 288.299 136.907 275.264 104.806C273.91 108.109 272.18 111.316 270.063 114.369C254.303 137.106 223.096 142.762 200.359 127.002Z" fill="#C9EBE4" fill-opacity="0.01"/>
<path d="M198.766 129.301C194.815 126.562 191.35 123.38 188.394 119.865L178.156 134.636L178.156 134.636L162.845 156.726C167.173 158.261 171.37 160.388 175.32 163.126L175.32 163.127C199.326 179.766 205.299 212.716 188.658 236.722C187.261 238.738 185.748 240.627 184.135 242.387C215.692 241.51 245.387 227.126 263.702 200.703C281.95 174.376 285.042 141.664 274.921 111.892C274.137 113.274 273.284 114.633 272.362 115.963C255.722 139.969 222.772 145.941 198.766 129.301L200.247 127.164L198.766 129.301Z" stroke="#00A8A8" stroke-width="5.59458"/>
</g>
<g style="mix-blend-mode:hard-light" filter="url(#filter9_ddi_65_72)">
<path fill-rule="evenodd" clip-rule="evenodd" d="M200.359 127.002C195.548 123.667 191.501 119.64 188.26 115.147L175.857 133.043L158.381 158.257C163.724 159.714 168.915 162.091 173.727 165.426C196.463 181.185 202.119 212.392 186.359 235.129C183.7 238.966 180.599 242.318 177.174 245.161C212.089 246.35 245.762 231.495 266.001 202.297C286.087 173.318 288.299 136.907 275.264 104.806C273.91 108.109 272.18 111.316 270.063 114.369C254.303 137.106 223.096 142.762 200.359 127.002Z" fill="#C9EBE4" fill-opacity="0.01"/>
<path d="M199.141 128.76C194.991 125.883 191.384 122.511 188.348 118.777L177.615 134.261L177.615 134.261L161.81 157.064C166.372 158.597 170.795 160.791 174.945 163.667L174.945 163.667C198.652 180.1 204.551 212.64 188.118 236.347C186.432 238.779 184.576 241.025 182.577 243.078C214.906 242.638 245.491 228.131 264.242 201.078C282.909 174.147 285.818 140.598 275.057 110.278C274.095 112.089 273.017 113.862 271.821 115.588C255.388 139.295 222.849 145.193 199.141 128.76L200.274 127.126L199.141 128.76Z" stroke="#33E9C6" stroke-opacity="0.2" stroke-width="4.27821"/>
</g>
<g filter="url(#filter10_f_65_72)">
<path fill-rule="evenodd" clip-rule="evenodd" d="M200.359 127.002C195.548 123.667 191.501 119.64 188.26 115.147L175.857 133.043L158.381 158.257C163.724 159.714 168.915 162.091 173.727 165.426C196.463 181.185 202.119 212.392 186.359 235.129C183.7 238.966 180.599 242.318 177.174 245.161C212.089 246.35 245.762 231.495 266.001 202.297C286.087 173.318 288.299 136.907 275.264 104.806C273.91 108.109 272.18 111.316 270.063 114.369C254.303 137.106 223.096 142.762 200.359 127.002Z" fill="#C9EBE4" fill-opacity="0.01"/>
<path d="M174.477 164.344L174.477 164.344C197.81 180.517 203.615 212.545 187.441 235.879C185.389 238.841 183.079 241.521 180.564 243.91C213.873 244.056 245.608 229.406 264.919 201.547C284.12 173.844 286.78 139.222 275.181 108.216C274.034 110.583 272.689 112.891 271.145 115.119C254.971 138.453 222.944 144.258 199.61 128.084C195.208 125.033 191.428 121.416 188.302 117.398L176.939 133.793L175.941 133.101L176.939 133.793L160.503 157.506C165.361 159.023 170.075 161.293 174.477 164.344Z" stroke="#33E9E9" stroke-width="2.63274"/>
</g>
<g filter="url(#filter11_f_65_72)">
<path fill-rule="evenodd" clip-rule="evenodd" d="M200.359 127.002C195.548 123.667 191.501 119.64 188.26 115.147L175.857 133.043L158.381 158.257C163.724 159.714 168.915 162.091 173.727 165.426C196.463 181.185 202.119 212.392 186.359 235.129C183.7 238.966 180.599 242.318 177.174 245.161C212.089 246.35 245.762 231.495 266.001 202.297C286.087 173.318 288.299 136.907 275.264 104.806C273.91 108.109 272.18 111.316 270.063 114.369C254.303 137.106 223.096 142.762 200.359 127.002Z" fill="#C9EBE4" fill-opacity="0.01"/>
<path d="M174.102 164.885L173.744 165.401L174.102 164.885C197.137 180.851 202.867 212.468 186.9 235.504C184.547 238.899 181.853 241.919 178.897 244.549C213.002 245.199 245.691 230.443 265.46 201.922C285.099 173.588 287.543 138.082 275.242 106.529C273.976 109.357 272.432 112.107 270.604 114.744C254.637 137.779 223.02 143.51 199.985 127.543C195.379 124.35 191.464 120.532 188.276 116.28L176.398 133.418L159.447 157.874C164.546 159.367 169.496 161.693 174.102 164.885Z" stroke="white" stroke-width="1.31637"/>
</g>
<g filter="url(#filter12_i_65_72)">
<path d="M63.9274 268.338L167.226 107.633C167.352 107.437 167.46 107.231 167.55 107.017L168.497 104.758C169.363 102.694 171.754 101.742 173.802 102.646L189.753 109.69C191.989 110.677 192.825 113.422 191.517 115.488L84.7597 284.18C83.475 286.21 80.7034 286.658 78.845 285.135L64.7574 273.595C63.1859 272.308 62.8289 270.047 63.9274 268.338Z" fill="#030815"/>
</g>
<path d="M63.9274 268.338L167.226 107.633C167.352 107.437 167.46 107.231 167.55 107.017L168.497 104.758C169.363 102.694 171.754 101.742 173.802 102.646L189.753 109.69C191.989 110.677 192.825 113.422 191.517 115.488L84.7597 284.18C83.475 286.21 80.7034 286.658 78.845 285.135L64.7574 273.595C63.1859 272.308 62.8289 270.047 63.9274 268.338Z" stroke="black" stroke-opacity="0.7"/>
<g filter="url(#filter13_i_65_72)">
<path d="M186.716 168.147C186.716 168.147 174.196 154.332 161.244 163.398L191.465 116.341C187.147 125.407 193.191 127.853 209.597 131.883L186.716 168.147Z" fill="#030815"/>
</g>
<path d="M186.716 168.147C186.716 168.147 174.196 154.332 161.244 163.398L191.465 116.341C187.147 125.407 193.191 127.853 209.597 131.883L186.716 168.147Z" stroke="black" stroke-opacity="0.7"/>
<g filter="url(#filter14_i_65_72)">
<path d="M121.536 133.775C121.536 133.775 139.277 139.51 136.335 155.043L166.812 108.151C160.322 115.813 155.607 111.309 145.191 98.0095L121.536 133.775Z" fill="#030815"/>
</g>
<path d="M121.536 133.775C121.536 133.775 139.277 139.51 136.335 155.043L166.812 108.151C160.322 115.813 155.607 111.309 145.191 98.0095L121.536 133.775Z" stroke="black" stroke-opacity="0.7"/>
<path d="M91.2881 227.302C95.5674 240.157 105.505 243.618 110.164 244.13L117.503 232.042C107.845 230.552 101.541 219.846 99.371 214.773L91.2881 227.302Z" fill="#FFDA17"/>
<path d="M102.124 209.354C105.979 222.342 116.318 226.196 120.957 226.862L128.169 214.952C118.566 213.146 112.073 201.774 110.071 196.633L102.124 209.354Z" fill="#FFDA17"/>
<path d="M79.5116 245.857C83.7909 258.712 93.6565 262.434 98.3153 262.947L106.632 250.428C96.9742 248.938 90.1115 237.786 87.9414 232.714L79.5116 245.857Z" fill="#FFDA17"/>
<path d="M182.262 151.742L185.627 153.685V157.57L182.262 159.513L178.897 157.57V153.685L182.262 151.742Z" fill="url(#paint0_radial_65_72)"/>
<path d="M193.487 134.473L196.852 136.416V140.301L193.487 142.244L190.122 140.301V136.416L193.487 134.473Z" fill="url(#paint1_radial_65_72)"/>
<path d="M147.724 111.16L151.089 113.103V116.988L147.724 118.931L144.359 116.988V113.103L147.724 111.16Z" fill="url(#paint2_radial_65_72)"/>
<path d="M137.363 128.429L140.728 130.371V134.257L137.363 136.2L133.998 134.257V130.371L137.363 128.429Z" fill="url(#paint3_radial_65_72)"/>
</g>
<defs>
<filter id="filter0_f_65_72" x="9.25441" y="-8.74559" width="190.594" height="211.948" filterUnits="userSpaceOnUse" color-interpolation-filters="sRGB">
<feFlood flood-opacity="0" result="BackgroundImageFix"/>
<feBlend mode="normal" in="SourceGraphic" in2="BackgroundImageFix" result="shape"/>
<feGaussianBlur stdDeviation="9.87279" result="effect1_foregroundBlur_65_72"/>
</filter>
<filter id="filter1_f_65_72" x="21.8463" y="5.62581" width="165.41" height="183.205" filterUnits="userSpaceOnUse" color-interpolation-filters="sRGB">
<feFlood flood-opacity="0" result="BackgroundImageFix"/>
<feBlend mode="normal" in="SourceGraphic" in2="BackgroundImageFix" result="shape"/>
<feGaussianBlur stdDeviation="9.87279" result="effect1_foregroundBlur_65_72"/>
</filter>
<filter id="filter2_f_65_72" x="35.0101" y="18.7895" width="139.083" height="156.878" filterUnits="userSpaceOnUse" color-interpolation-filters="sRGB">
<feFlood flood-opacity="0" result="BackgroundImageFix"/>
<feBlend mode="normal" in="SourceGraphic" in2="BackgroundImageFix" result="shape"/>
<feGaussianBlur stdDeviation="3.29093" result="effect1_foregroundBlur_65_72"/>
</filter>
<filter id="filter3_ddi_65_72" x="33.0355" y="23.3968" width="143.032" height="160.827" filterUnits="userSpaceOnUse" color-interpolation-filters="sRGB">
<feFlood flood-opacity="0" result="BackgroundImageFix"/>
<feColorMatrix in="SourceAlpha" type="matrix" values="0 0 0 0 0 0 0 0 0 0 0 0 0 0 0 0 0 0 127 0" result="hardAlpha"/>
<feOffset dy="4.27821"/>
<feGaussianBlur stdDeviation="1.64547"/>
<feColorMatrix type="matrix" values="0 0 0 0 0 0 0 0 0 0.3 0 0 0 0 0.275 0 0 0 0.7 0"/>
<feBlend mode="multiply" in2="BackgroundImageFix" result="effect1_dropShadow_65_72"/>
<feColorMatrix in="SourceAlpha" type="matrix" values="0 0 0 0 0 0 0 0 0 0 0 0 0 0 0 0 0 0 127 0" result="hardAlpha"/>
<feOffset dy="6.58186"/>
<feGaussianBlur stdDeviation="4.27821"/>
<feColorMatrix type="matrix" values="0 0 0 0 0 0 0 0 0 0.6 0 0 0 0 0.6 0 0 0 1 0"/>
<feBlend mode="color-dodge" in2="effect1_dropShadow_65_72" result="effect2_dropShadow_65_72"/>
<feBlend mode="normal" in="SourceGraphic" in2="effect2_dropShadow_65_72" result="shape"/>
<feColorMatrix in="SourceAlpha" type="matrix" values="0 0 0 0 0 0 0 0 0 0 0 0 0 0 0 0 0 0 127 0" result="hardAlpha"/>
<feOffset dx="-0.427821" dy="0.855642"/>
<feGaussianBlur stdDeviation="0.213911"/>
<feComposite in2="hardAlpha" operator="arithmetic" k2="-1" k3="1"/>
<feColorMatrix type="matrix" values="0 0 0 0 1 0 0 0 0 1 0 0 0 0 1 0 0 0 0.5 0"/>
<feBlend mode="normal" in2="shape" result="effect3_innerShadow_65_72"/>
</filter>
<filter id="filter4_f_65_72" x="40.9337" y="24.7132" width="127.236" height="145.03" filterUnits="userSpaceOnUse" color-interpolation-filters="sRGB">
<feFlood flood-opacity="0" result="BackgroundImageFix"/>
<feBlend mode="normal" in="SourceGraphic" in2="BackgroundImageFix" result="shape"/>
<feGaussianBlur stdDeviation="0.329093" result="effect1_foregroundBlur_65_72"/>
</filter>
<filter id="filter5_f_65_72" x="41.1531" y="24.9326" width="126.797" height="144.592" filterUnits="userSpaceOnUse" color-interpolation-filters="sRGB">
<feFlood flood-opacity="0" result="BackgroundImageFix"/>
<feBlend mode="normal" in="SourceGraphic" in2="BackgroundImageFix" result="shape"/>
<feGaussianBlur stdDeviation="0.219395" result="effect1_foregroundBlur_65_72"/>
</filter>
<filter id="filter6_f_65_72" x="119.107" y="71.7977" width="209.131" height="193.838" filterUnits="userSpaceOnUse" color-interpolation-filters="sRGB">
<feFlood flood-opacity="0" result="BackgroundImageFix"/>
<feBlend mode="normal" in="SourceGraphic" in2="BackgroundImageFix" result="shape"/>
<feGaussianBlur stdDeviation="9.87279" result="effect1_foregroundBlur_65_72"/>
</filter>
<filter id="filter7_f_65_72" x="138.635" y="85.0608" width="164.538" height="179.912" filterUnits="userSpaceOnUse" color-interpolation-filters="sRGB">
<feFlood flood-opacity="0" result="BackgroundImageFix"/>
<feBlend mode="normal" in="SourceGraphic" in2="BackgroundImageFix" result="shape"/>
<feGaussianBlur stdDeviation="9.87279" result="effect1_foregroundBlur_65_72"/>
</filter>
<filter id="filter8_f_65_72" x="151.799" y="98.2245" width="138.21" height="153.585" filterUnits="userSpaceOnUse" color-interpolation-filters="sRGB">
<feFlood flood-opacity="0" result="BackgroundImageFix"/>
<feBlend mode="normal" in="SourceGraphic" in2="BackgroundImageFix" result="shape"/>
<feGaussianBlur stdDeviation="3.29093" result="effect1_foregroundBlur_65_72"/>
</filter>
<filter id="filter9_ddi_65_72" x="149.824" y="102.832" width="142.16" height="157.534" filterUnits="userSpaceOnUse" color-interpolation-filters="sRGB">
<feFlood flood-opacity="0" result="BackgroundImageFix"/>
<feColorMatrix in="SourceAlpha" type="matrix" values="0 0 0 0 0 0 0 0 0 0 0 0 0 0 0 0 0 0 127 0" result="hardAlpha"/>
<feOffset dy="4.27821"/>
<feGaussianBlur stdDeviation="1.64547"/>
<feColorMatrix type="matrix" values="0 0 0 0 0 0 0 0 0 0.3 0 0 0 0 0.275 0 0 0 0.7 0"/>
<feBlend mode="multiply" in2="BackgroundImageFix" result="effect1_dropShadow_65_72"/>
<feColorMatrix in="SourceAlpha" type="matrix" values="0 0 0 0 0 0 0 0 0 0 0 0 0 0 0 0 0 0 127 0" result="hardAlpha"/>
<feOffset dy="6.58186"/>
<feGaussianBlur stdDeviation="4.27821"/>
<feColorMatrix type="matrix" values="0 0 0 0 0 0 0 0 0 0.6 0 0 0 0 0.6 0 0 0 1 0"/>
<feBlend mode="color-dodge" in2="effect1_dropShadow_65_72" result="effect2_dropShadow_65_72"/>
<feBlend mode="normal" in="SourceGraphic" in2="effect2_dropShadow_65_72" result="shape"/>
<feColorMatrix in="SourceAlpha" type="matrix" values="0 0 0 0 0 0 0 0 0 0 0 0 0 0 0 0 0 0 127 0" result="hardAlpha"/>
<feOffset dx="-0.427821" dy="0.855642"/>
<feGaussianBlur stdDeviation="0.213911"/>
<feComposite in2="hardAlpha" operator="arithmetic" k2="-1" k3="1"/>
<feColorMatrix type="matrix" values="0 0 0 0 1 0 0 0 0 1 0 0 0 0 1 0 0 0 0.5 0"/>
<feBlend mode="normal" in2="shape" result="effect3_innerShadow_65_72"/>
</filter>
<filter id="filter10_f_65_72" x="157.722" y="104.148" width="126.363" height="141.737" filterUnits="userSpaceOnUse" color-interpolation-filters="sRGB">
<feFlood flood-opacity="0" result="BackgroundImageFix"/>
<feBlend mode="normal" in="SourceGraphic" in2="BackgroundImageFix" result="shape"/>
<feGaussianBlur stdDeviation="0.329093" result="effect1_foregroundBlur_65_72"/>
</filter>
<filter id="filter11_f_65_72" x="157.942" y="104.368" width="125.924" height="141.298" filterUnits="userSpaceOnUse" color-interpolation-filters="sRGB">
<feFlood flood-opacity="0" result="BackgroundImageFix"/>
<feBlend mode="normal" in="SourceGraphic" in2="BackgroundImageFix" result="shape"/>
<feGaussianBlur stdDeviation="0.219395" result="effect1_foregroundBlur_65_72"/>
</filter>
<filter id="filter12_i_65_72" x="62.792" y="101.804" width="129.847" height="192.737" filterUnits="userSpaceOnUse" color-interpolation-filters="sRGB">
<feFlood flood-opacity="0" result="BackgroundImageFix"/>
<feBlend mode="normal" in="SourceGraphic" in2="BackgroundImageFix" result="shape"/>
<feColorMatrix in="SourceAlpha" type="matrix" values="0 0 0 0 0 0 0 0 0 0 0 0 0 0 0 0 0 0 127 0" result="hardAlpha"/>
<feOffset dy="8"/>
<feGaussianBlur stdDeviation="4"/>
<feComposite in2="hardAlpha" operator="arithmetic" k2="-1" k3="1"/>
<feColorMatrix type="matrix" values="0 0 0 0 1 0 0 0 0 0.979167 0 0 0 0 0.979167 0 0 0 0.25 0"/>
<feBlend mode="normal" in2="shape" result="effect1_innerShadow_65_72"/>
</filter>
<filter id="filter13_i_65_72" x="160.823" y="108.07" width="49.5669" height="60.9006" filterUnits="userSpaceOnUse" color-interpolation-filters="sRGB">
<feFlood flood-opacity="0" result="BackgroundImageFix"/>
<feBlend mode="normal" in="SourceGraphic" in2="BackgroundImageFix" result="shape"/>
<feColorMatrix in="SourceAlpha" type="matrix" values="0 0 0 0 0 0 0 0 0 0 0 0 0 0 0 0 0 0 127 0" result="hardAlpha"/>
<feOffset dy="-8"/>
<feGaussianBlur stdDeviation="4"/>
<feComposite in2="hardAlpha" operator="arithmetic" k2="-1" k3="1"/>
<feColorMatrix type="matrix" values="0 0 0 0 1 0 0 0 0 1 0 0 0 0 1 0 0 0 0.25 0"/>
<feBlend mode="normal" in2="shape" result="effect1_innerShadow_65_72"/>
</filter>
<filter id="filter14_i_65_72" x="120.756" y="97.1548" width="46.4755" height="66.1608" filterUnits="userSpaceOnUse" color-interpolation-filters="sRGB">
<feFlood flood-opacity="0" result="BackgroundImageFix"/>
<feBlend mode="normal" in="SourceGraphic" in2="BackgroundImageFix" result="shape"/>
<feColorMatrix in="SourceAlpha" type="matrix" values="0 0 0 0 0 0 0 0 0 0 0 0 0 0 0 0 0 0 127 0" result="hardAlpha"/>
<feOffset dy="8"/>
<feGaussianBlur stdDeviation="4"/>
<feComposite in2="hardAlpha" operator="arithmetic" k2="-1" k3="1"/>
<feColorMatrix type="matrix" values="0 0 0 0 1 0 0 0 0 1 0 0 0 0 1 0 0 0 0.25 0"/>
<feBlend mode="normal" in2="shape" result="effect1_innerShadow_65_72"/>
</filter>
<radialGradient id="paint0_radial_65_72" cx="0" cy="0" r="1" gradientUnits="userSpaceOnUse" gradientTransform="translate(182.262 155.627) rotate(90) scale(3.88551)">
<stop offset="0.208333" stop-color="#FE3838"/>
<stop offset="1" stop-color="#FE3838" stop-opacity="0"/>
</radialGradient>
<radialGradient id="paint1_radial_65_72" cx="0" cy="0" r="1" gradientUnits="userSpaceOnUse" gradientTransform="translate(193.487 138.358) rotate(90) scale(3.88551)">
<stop offset="0.208333" stop-color="#FE3838"/>
<stop offset="1" stop-color="#FE3838" stop-opacity="0"/>
</radialGradient>
<radialGradient id="paint2_radial_65_72" cx="0" cy="0" r="1" gradientUnits="userSpaceOnUse" gradientTransform="translate(147.724 115.045) rotate(90) scale(3.88551)">
<stop offset="0.208333" stop-color="#FE3838"/>
<stop offset="1" stop-color="#FE3838" stop-opacity="0"/>
</radialGradient>
<radialGradient id="paint3_radial_65_72" cx="0" cy="0" r="1" gradientUnits="userSpaceOnUse" gradientTransform="translate(137.363 132.314) rotate(90) scale(3.88551)">
<stop offset="0.208333" stop-color="#FE3838"/>
<stop offset="1" stop-color="#FE3838" stop-opacity="0"/>
</radialGradient>
<clipPath id="clip0_65_72">
<rect width="300" height="300" fill="white"/>
</clipPath>
</defs>
</svg>
