<svg width="320" height="320" viewBox="0 0 320 320" fill="none" xmlns="http://www.w3.org/2000/svg">
<path d="M227.314 209.944L170.929 169.867C164.515 177.899 158.588 189.611 148.562 208.394L135.234 251.067C116.467 240.992 101.185 247.386 95.89 251.843C92.2633 252.395 92.5537 259.707 122.729 284.533C152.905 309.359 175.794 314.194 183.467 313.509L178.833 294.666C169.773 282.262 169.723 268.003 170.83 262.424C174.511 228.834 202.008 214.733 227.314 209.944Z" fill="#EB3939"/>
<path d="M295.432 178.067C273.167 126.549 250.534 106.422 219.102 81.6778C206.184 71.5075 186.348 52.675 175.503 38.0789L147.835 10.4103L131.517 14.152C104.333 28.7596 69.9633 83.0445 65.9455 106.553C63.8715 118.689 63.0344 118.687 68.9178 133.765L126.313 166.921L159.791 161.95L170.929 169.867C176.797 162.519 183.072 158.252 193.265 154.468C201.636 154.202 222.821 157.947 240.595 175.052C258.369 192.157 258.918 204.24 256.97 208.144C248.93 207.539 238.33 207.859 227.314 209.944L243.597 221.517C261.29 226.29 324.561 245.471 295.432 178.067Z" fill="#FFDA17"/>
<path d="M240.595 175.052C222.821 157.947 201.636 154.202 193.265 154.468C183.072 158.252 176.797 162.519 170.929 169.867L227.314 209.944C238.33 207.859 248.93 207.539 256.97 208.144C258.918 204.24 258.369 192.157 240.595 175.052Z" fill="#FFDA17"/>
<ellipse cx="112.948" cy="72.0552" rx="15.9691" ry="55.5962" transform="rotate(34.1295 112.948 72.0552)" fill="#FF6B00"/>
<path d="M121.545 136.788C144.243 121.505 173.544 74.6783 174.262 53.7401L186.9 66.378C185.02 89.1524 153.354 132.782 134.997 145.242L121.545 136.788Z" fill="#FF6B00"/>
<path d="M158.35 148.136C176.803 135.731 200.582 97.6557 201.132 80.6102L211.442 90.92C209.949 109.459 184.24 144.927 169.315 155.041L158.35 148.136Z" fill="#FF6B00"/>
<path d="M186.76 159.576C202.55 148.859 223.12 116.298 223.759 101.823L232.406 110.47C230.951 126.222 208.769 156.59 195.998 165.326L186.76 159.576Z" fill="#FF6B00"/>
<path d="M71.0896 26.8048C105.463 59.8379 134.707 53.0071 143.36 45.466C144.989 66.5284 114.405 101.951 99.3412 110.341C116.778 86.2306 80.3666 55.0685 61.867 40.1987L71.0896 26.8048Z" fill="#EB3939"/>
<circle cx="59.0035" cy="28.2843" r="15.5" transform="rotate(45 59.0035 28.2843)" fill="#EB3939"/>
<mask id="mask0_99_3" style="mask-type:alpha" maskUnits="userSpaceOnUse" x="64" y="10" width="239" height="304">
<path d="M227.248 209.968L170.973 170.012C164.552 178.047 158.611 189.758 148.564 208.541L135.181 251.199C116.445 241.162 101.166 247.575 95.8689 252.036C92.2444 252.593 92.5232 259.898 122.635 284.657C152.746 309.415 175.609 314.211 183.276 313.514L178.676 294.694C169.642 282.315 169.615 268.068 170.73 262.491C174.46 228.924 201.955 214.792 227.248 209.968Z" fill="#EB3939"/>
<path d="M295.359 178.011C273.193 126.571 250.609 106.496 219.243 81.8214C206.351 71.6797 186.561 52.8938 175.748 38.3268L148.146 10.7245L131.836 14.4884C104.651 29.126 70.2264 83.419 66.1754 106.914C64.0843 119.043 63.2479 119.043 69.1029 134.099L126.399 167.138L159.856 162.119L170.973 170.012C176.847 162.661 183.123 158.388 193.314 154.591C201.678 154.312 222.84 158.021 240.572 175.084C258.305 192.147 258.834 204.22 256.883 208.123C248.85 207.531 238.258 207.868 227.248 209.968L243.5 221.506C261.171 226.247 324.359 245.314 295.359 178.011Z" fill="#FFDA17"/>
<path d="M240.572 175.084C222.84 158.021 201.678 154.312 193.314 154.591C183.123 158.388 176.847 162.661 170.973 170.012L227.248 209.968C238.258 207.868 248.85 207.531 256.883 208.123C258.834 204.22 258.305 192.147 240.572 175.084Z" fill="#FFDA17"/>
</mask>
<g mask="url(#mask0_99_3)">
<path d="M194.568 168.392C231.371 175.084 241.966 197.11 242.663 207.287L226.771 209.796L182.022 242.835L179.93 296.785C179.791 299.434 175.748 303.309 160.693 297.621C141.873 290.512 111.761 258.727 115.943 252.872C119.289 248.188 132.672 252.872 138.945 255.8C147.644 247.77 158.462 224.852 162.784 214.396C168.137 194.991 186.204 175.641 194.568 168.392Z" fill="#57B7BD"/>
</g>
<path d="M125.5 16.5L97.5 44.5L82.5 36.5L75 30L74 27V23.5L71 18L65 13.5L59.5 12.5L52 14.5L45 20.5L42.5 29L47 39L56 44.5L64.5 42.5L86 63.5L67.5 97L63 117L69 134L126.5 167.5L159 163L170 170.5L149 207L134.5 251.5L130 247.5L116.5 245.5L102.5 247.5L94.5 251.5V255.5L102.5 266L119 281.5L144 300L167.5 312.5H180.5H185.5L180.5 300L176.5 293.5L171.5 277.5V259L176.5 244L185.5 228L205.5 216.5L227.5 209.5L242 222L264 228H288.5L300 222L304.5 209.5L288.5 158L259 117.5L217 80.5L149 10L125.5 16.5Z" stroke="black" stroke-width="4"/>
</svg>
