<svg width="320" height="320" viewBox="0 0 320 320" fill="none" xmlns="http://www.w3.org/2000/svg">
<g clip-path="url(#clip0_99_2)">
<path d="M92.2184 209.944L148.603 169.867C155.017 177.899 160.945 189.611 170.971 208.394L184.298 251.067C203.066 240.992 218.348 247.386 223.643 251.843C227.269 252.395 226.979 259.707 196.803 284.533C166.628 309.359 143.739 314.194 136.066 313.509L140.699 294.666C149.76 282.262 149.81 268.003 148.702 262.424C145.022 228.834 117.525 214.733 92.2184 209.944Z" fill="#EB3939"/>
<path d="M24.1007 178.067C46.365 126.549 68.999 106.422 100.43 81.6778C113.349 71.5075 133.184 52.675 144.029 38.0789L171.698 10.4103L188.016 14.152C215.2 28.7596 249.569 83.0445 253.587 106.553C255.661 118.689 256.498 118.687 250.615 133.765L193.219 166.921L159.742 161.95L148.603 169.867C142.736 162.519 136.461 158.252 126.268 154.468C117.897 154.202 96.7116 157.947 78.9377 175.052C61.1638 192.157 60.6148 204.24 62.5621 208.144C70.6026 207.539 81.203 207.859 92.2184 209.944L75.9354 221.517C58.2421 226.29 -5.0288 245.471 24.1007 178.067Z" fill="#FFDA17"/>
<path d="M78.9377 175.052C96.7116 157.947 117.897 154.202 126.268 154.468C136.461 158.252 142.736 162.519 148.603 169.867L92.2184 209.944C81.203 207.859 70.6026 207.539 62.5621 208.144C60.6148 204.24 61.1638 192.157 78.9377 175.052Z" fill="#FFDA17"/>
<ellipse rx="15.9691" ry="55.5962" transform="matrix(-0.827771 0.561066 0.561066 0.827771 206.585 72.0552)" fill="#FF6B00"/>
<path d="M197.987 136.788C175.29 121.505 145.988 74.6783 145.271 53.7401L132.633 66.378C134.512 89.1524 166.178 132.782 184.536 145.242L197.987 136.788Z" fill="#FF6B00"/>
<path d="M161.183 148.136C142.729 135.731 118.95 97.6557 118.401 80.6102L108.091 90.92C109.584 109.459 135.292 144.927 150.218 155.041L161.183 148.136Z" fill="#FF6B00"/>
<path d="M132.773 159.576C116.983 148.859 96.4125 116.298 95.7731 101.823L87.1261 110.47C88.5812 126.222 110.763 156.59 123.535 165.326L132.773 159.576Z" fill="#FF6B00"/>
<path d="M248.443 26.8048C214.07 59.8379 184.826 53.0071 176.172 45.466C174.543 66.5284 205.127 101.951 220.191 110.341C202.755 86.2306 239.166 55.0685 257.666 40.1987L248.443 26.8048Z" fill="#EB3939"/>
<circle r="15.5" transform="matrix(-0.707107 0.707107 0.707107 0.707107 260.529 28.2843)" fill="#EB3939"/>
<mask id="mask0_99_2" style="mask-type:alpha" maskUnits="userSpaceOnUse" x="16" y="10" width="239" height="304">
<path d="M92.2843 209.968L148.56 170.012C154.981 178.047 160.921 189.758 170.968 208.541L184.351 251.199C203.087 241.162 218.366 247.575 223.664 252.036C227.288 252.593 227.009 259.898 196.898 284.657C166.786 309.415 143.924 314.211 136.256 313.514L140.857 294.694C149.89 282.315 149.918 268.068 148.803 262.491C145.073 228.924 117.577 214.792 92.2843 209.968Z" fill="#EB3939"/>
<path d="M24.174 178.011C46.3396 126.571 68.9233 106.496 100.29 81.8214C113.182 71.6797 132.971 52.8938 143.784 38.3268L171.387 10.7245L187.697 14.4884C214.881 29.126 249.306 83.419 253.357 106.914C255.448 119.043 256.285 119.043 250.43 134.099L193.134 167.138L159.676 162.119L148.56 170.012C142.686 162.661 136.409 158.388 126.219 154.591C117.855 154.312 96.6929 158.021 78.9605 175.084C61.2281 192.147 60.6983 204.22 62.65 208.123C70.6828 207.531 81.2749 207.868 92.2843 209.968L76.033 221.506C58.3619 226.247 -4.82628 245.314 24.174 178.011Z" fill="#FFDA17"/>
<path d="M78.9605 175.084C96.6929 158.021 117.855 154.312 126.219 154.591C136.409 158.388 142.686 162.661 148.56 170.012L92.2843 209.968C81.2749 207.868 70.6828 207.531 62.65 208.123C60.6983 204.22 61.2281 192.147 78.9605 175.084Z" fill="#FFDA17"/>
</mask>
<g mask="url(#mask0_99_2)">
<path d="M124.964 168.392C88.1614 175.084 77.5665 197.11 76.8695 207.287L92.7618 209.796L137.511 242.835L139.602 296.785C139.742 299.434 143.784 303.309 158.84 297.621C177.66 290.512 207.772 258.727 203.589 252.872C200.244 248.188 186.861 252.872 180.587 255.8C171.888 247.77 161.071 224.852 156.749 214.396C151.396 194.991 133.329 175.641 124.964 168.392Z" fill="#57B7BD"/>
</g>
<path d="M194.033 16.5L222.033 44.5L237.033 36.5L244.533 30L245.533 27V23.5L248.533 18L254.533 13.5L260.033 12.5L267.533 14.5L274.533 20.5L277.033 29L272.533 39L263.533 44.5L255.033 42.5L233.533 63.5L252.033 97L256.533 117L250.533 134L193.033 167.5L160.533 163L149.533 170.5L170.533 207L185.033 251.5L189.533 247.5L203.033 245.5L217.033 247.5L225.033 251.5V255.5L217.033 266L200.533 281.5L175.533 300L152.033 312.5H139.033H134.033L139.033 300L143.033 293.5L148.033 277.5V259L143.033 244L134.033 228L114.033 216.5L92.0326 209.5L77.5326 222L55.5326 228H31.0326L19.5326 222L15.0326 209.5L31.0326 158L60.5326 117.5L102.533 80.5L170.533 10L194.033 16.5Z" stroke="black" stroke-width="4"/>
</g>
<defs>
<clipPath id="clip0_99_2">
<rect width="320" height="320" fill="white"/>
</clipPath>
</defs>
</svg>
