<svg width="320" height="320" viewBox="0 0 320 320" fill="none" xmlns="http://www.w3.org/2000/svg">
<path d="M16.5 283.5L15 272.5L23 266.5L34 269.5L52.5 285L57 292.5V299.5L45 306L34 302.5L16.5 283.5Z" fill="#E74545"/>
<path d="M144 13C165 40.5 169 53 199.5 66L252.5 81C274.5 97.5 302.167 99.3333 316 99C313.2 113.4 292 152.5 260.5 168.5L263.5 152.5C266 147 268.9 133.3 260.5 122.5C252.1 111.7 234 112.333 226 114H194.5C197.7 109.2 167.167 105 151.5 103.5C105.9 100.3 70.5 121.167 58.5 132C59.5 134.5 46.5 126 36 122.5C25.5 119 28 117 18.5 114C35.7 72.8 106.333 32.1667 144 13Z" fill="#4FF4FF"/>
<path d="M164 141L26 272C28.4 285.6 39.6667 292 45 291.5L195.5 141C221.1 135.4 256.5 139.5 265.5 146.5L300.5 106C290.5 106.8 264 97.5 256.5 91C249.057 84.5497 259.5 87 252 74.5C244.5 62 234.393 68.0702 231 65.5C162.6 71.1 153 56.8333 144 45L45 126.5L55.5 135C100.7 113.4 156.333 124.5 164 141Z" fill="#FF5252"/>
<path d="M64 244C65.6 254.4 73 259 76.5 260L84.5 251.5C77.3 249.1 73.5 239.667 72.5 235.5L64 244Z" fill="#FFDA17"/>
<path d="M80 229C80.9584 239.479 87.0444 244.008 90.4764 245.221L98.9832 237.229C91.9442 234.391 88.7306 224.742 87.9883 220.522L80 229Z" fill="#FFDA17"/>
<path d="M94.9546 213.936C95.913 224.414 101.999 228.944 105.431 230.157L113.938 222.164C106.899 219.327 103.685 209.678 102.943 205.458L94.9546 213.936Z" fill="#FFDA17"/>
<mask id="mask0_12_58" style="mask-type:alpha" maskUnits="userSpaceOnUse" x="25" y="44" width="277" height="249">
<path d="M164 141L26 272C28.4 285.6 39.6667 292 45 291.5L195.5 141C221.1 135.4 257 139 266 146L300.5 106C290.5 106.8 264 97.5 256.5 91C249.057 84.5497 259.5 87 252 74.5C244.5 62 234.393 68.0702 231 65.5C162.6 71.1 153 56.8333 144 45L45 126.5L55.5 135C100.7 113.4 156.333 124.5 164 141Z" fill="#FF5252" stroke="black"/>
</mask>
<g mask="url(#mask0_12_58)">
<path d="M140 85.5C108.4 81.1 70.8333 116.667 56 135L163.5 141C179 127 210 98.6 210 97C210 95 207 91 203 90.5C199.8 90.1 159.667 87 140 85.5Z" fill="#4FF4FF"/>
</g>
<mask id="mask1_12_58" style="mask-type:alpha" maskUnits="userSpaceOnUse" x="26" y="45" width="275" height="247">
<path d="M164 141L26 272C28.4 285.6 39.6667 292 45 291.5L195.5 141C221.1 135.4 256.5 139.5 265.5 146.5L300.5 106C290.5 106.8 264 97.5 256.5 91C249.057 84.5497 259.5 87 252 74.5C244.5 62 234.393 68.0702 231 65.5C162.6 71.1 153 56.8333 144 45L45 126.5L55.5 135C100.7 113.4 156.333 124.5 164 141Z" fill="#FF5252"/>
</mask>
<g mask="url(#mask1_12_58)">
<path d="M124.5 186.5C126 194 128 200 137 200C230.5 103 235.5 98.5 430 110C436.988 110.413 245.5 69 240.5 74L124.5 186.5Z" fill="#FFDA17"/>
</g>
<path d="M24 266.5L16 272V284L33 303L45.5 306L56 299.5V292L52 284L59 276.5L100.5 235.5L130 206.5L163.5 172.5L185.5 150L196.5 141L205 138.5H223H239.5L256 141L265.5 147.5L263.5 152.5L261 168L277.5 158L285.5 147.5L298.5 134L308.5 116.5L315.5 102V100L298.5 97.5L281 94L269.5 90.5L256 84V81.5L251.5 73L245 67.5L234.5 65.5L205 67.5L188.5 61.5L174 51L161.5 37.5L152.5 25L144.5 13L130 20L107 33L83.5 48L36 86.5L18.5 114L33 121.5L45.5 127L56 134C116 113.2 152.667 130 163.5 141L30.5 269L24 266.5Z" stroke="black" stroke-width="4"/>
</svg>
