<svg width="320" height="320" viewBox="0 0 320 320" fill="none" xmlns="http://www.w3.org/2000/svg">
<path d="M314.5 283.5L316 272.5L308 266.5L297 269.5L278.5 285L274 292.5V299.5L286 306L297 302.5L314.5 283.5Z" fill="#E74545"/>
<path d="M187 13C166 40.5 162 53 131.5 66L78.5 81C56.5 97.5 28.8333 99.3333 15 99C17.8 113.4 39 152.5 70.5 168.5L67.5 152.5C65 147 62.1 133.3 70.5 122.5C78.9 111.7 97 112.333 105 114H136.5C133.3 109.2 163.833 105 179.5 103.5C225.1 100.3 260.5 121.167 272.5 132C271.5 134.5 284.5 126 295 122.5C305.5 119 303 117 312.5 114C295.3 72.8 224.667 32.1667 187 13Z" fill="#4FF4FF"/>
<path d="M167 141L305 272C302.6 285.6 291.333 292 286 291.5L135.5 141C109.9 135.4 74.5 139.5 65.5 146.5L30.5 106C40.5 106.8 67 97.5 74.5 91C81.9427 84.5497 71.5 87 79 74.5C86.5 62 96.6073 68.0702 100 65.5C168.4 71.1 178 56.8333 187 45L286 126.5L275.5 135C230.3 113.4 174.667 124.5 167 141Z" fill="#FF5252"/>
<path d="M267 244C265.4 254.4 258 259 254.5 260L246.5 251.5C253.7 249.1 257.5 239.667 258.5 235.5L267 244Z" fill="#FFDA17"/>
<path d="M251 229C250.042 239.479 243.956 244.008 240.524 245.221L232.017 237.229C239.056 234.391 242.269 224.742 243.012 220.522L251 229Z" fill="#FFDA17"/>
<path d="M236.045 213.936C235.087 224.414 229.001 228.944 225.569 230.157L217.062 222.164C224.101 219.327 227.315 209.678 228.057 205.458L236.045 213.936Z" fill="#FFDA17"/>
<mask id="mask0_12_58" style="mask-type:alpha" maskUnits="userSpaceOnUse" x="29" y="44" width="277" height="249">
<path d="M167 141L305 272C302.6 285.6 291.333 292 286 291.5L135.5 141C109.9 135.4 74 139 65 146L30.5 106C40.5 106.8 67 97.5 74.5 91C81.9427 84.5497 71.5 87 79 74.5C86.5 62 96.6073 68.0702 100 65.5C168.4 71.1 178 56.8333 187 45L286 126.5L275.5 135C230.3 113.4 174.667 124.5 167 141Z" fill="#FF5252" stroke="black"/>
</mask>
<g mask="url(#mask0_12_58)">
<path d="M191 85.5C222.6 81.1 260.167 116.667 275 135L167.5 141C152 127 121 98.6 121 97C121 95 124 91 128 90.5C131.2 90.1 171.333 87 191 85.5Z" fill="#4FF4FF"/>
</g>
<mask id="mask1_12_58" style="mask-type:alpha" maskUnits="userSpaceOnUse" x="30" y="45" width="275" height="247">
<path d="M167 141L305 272C302.6 285.6 291.333 292 286 291.5L135.5 141C109.9 135.4 74.5 139.5 65.5 146.5L30.5 106C40.5 106.8 67 97.5 74.5 91C81.9427 84.5497 71.5 87 79 74.5C86.5 62 96.6073 68.0702 100 65.5C168.4 71.1 178 56.8333 187 45L286 126.5L275.5 135C230.3 113.4 174.667 124.5 167 141Z" fill="#FF5252"/>
</mask>
<g mask="url(#mask1_12_58)">
<path d="M206.5 186.5C205 194 203 200 194 200C100.5 103 95.5 98.5 -99 110C-105.988 110.413 85.5 69 90.5 74L206.5 186.5Z" fill="#FFDA17"/>
</g>
<path d="M307 266.5L315 272V284L298 303L285.5 306L275 299.5V292L279 284L272 276.5L230.5 235.5L201 206.5L167.5 172.5L145.5 150L134.5 141L126 138.5H108H91.5L75 141L65.5 147.5L67.5 152.5L70 168L53.5 158L45.5 147.5L32.5 134L22.5 116.5L15.5 102V100L32.5 97.5L50 94L61.5 90.5L75 84V81.5L79.5 73L86 67.5L96.5 65.5L126 67.5L142.5 61.5L157 51L169.5 37.5L178.5 25L186.5 13L201 20L224 33L247.5 48L295 86.5L312.5 114L298 121.5L285.5 127L275 134C215 113.2 178.333 130 167.5 141L300.5 269L307 266.5Z" stroke="black" stroke-width="4"/>
</svg>
