<svg width="300" height="300" viewBox="0 0 300 300" fill="none" xmlns="http://www.w3.org/2000/svg">
<path d="M66.3357 161.527C66.8374 160.603 67.997 160.258 68.9258 160.757C69.8545 161.257 70.2007 162.411 69.699 163.335C69.1973 164.259 68.0376 164.604 67.1089 164.105C66.1801 163.605 65.8339 162.451 66.3357 161.527Z" fill="#454242"/>
<path fill-rule="evenodd" clip-rule="evenodd" d="M73.6759 154.537C75.1711 158.531 75.8345 168.274 68.8241 171.067C73.9003 170.151 84.8738 166.299 88.1589 158.222C87.214 170.929 76.1747 194.977 39.5775 189.519C50.4672 187.171 71.1831 181.904 66.9299 179.618C65.5691 177.063 61.1928 172.979 54.5735 177.076C58.069 174.854 64.7493 169.97 63.5076 168.209C63.0357 167.539 60.7854 167.809 57.7554 168.171C50.8171 169.001 39.7904 170.321 36.6683 161.982C35.8535 159.265 34.6833 152.986 36.5214 149.599C37.3077 153.212 41.271 160.082 50.8333 158.661C54.2066 158.271 60.9096 156.978 66.7408 155.852C69.3533 155.348 71.7913 154.877 73.6759 154.537ZM83.643 166.731C82.4656 169.743 78.6053 175.505 72.5823 174.454C75.8863 172.585 82.7239 168.424 83.643 166.731ZM57.2132 162.091C53.5263 164.665 44.9108 168.053 39.9437 161.008C42.6162 161.99 49.8117 163.58 57.2132 162.091ZM64.8274 160.716C65.7791 158.963 67.9788 158.309 69.7406 159.256C71.5023 160.204 72.159 162.393 71.2073 164.146C70.2555 165.899 68.0558 166.553 66.2941 165.606C64.5323 164.659 63.8757 162.469 64.8274 160.716Z" fill="#454242"/>
<path d="M65.9456 119.633C65.49 120.58 64.3487 120.981 63.3965 120.528C62.4442 120.074 62.0416 118.938 62.4972 117.991C62.9528 117.043 64.0941 116.642 65.0463 117.096C65.9986 117.549 66.4012 118.685 65.9456 119.633Z" fill="#454242"/>
<path fill-rule="evenodd" clip-rule="evenodd" d="M58.9584 126.972C57.2683 123.056 56.1258 113.357 62.9903 110.226C57.9654 111.388 47.1947 115.771 44.3113 123.998C44.6294 111.261 54.471 86.7025 91.293 90.369C80.5321 93.2451 60.1004 99.5162 64.4611 101.593C65.946 104.077 70.5182 107.943 76.9278 103.529C73.546 105.918 67.1142 111.123 68.4412 112.821C68.9454 113.466 71.1798 113.088 74.1883 112.578C81.0774 111.41 92.0258 109.555 95.5549 117.732C96.5026 120.405 97.9805 126.62 96.3114 130.092C95.3481 126.522 91.0513 119.854 81.5704 121.739C78.2204 122.293 71.5892 123.912 65.8204 125.32C63.2359 125.952 60.824 126.541 58.9584 126.972ZM48.4029 115.28C49.4304 112.213 53.0024 106.27 59.0698 107.025C55.8619 109.054 49.2374 113.544 48.4029 115.28ZM75.0293 118.625C78.585 115.873 87.0233 112.069 92.3314 118.863C89.6137 118.014 82.3486 116.777 75.0293 118.625ZM67.492 120.369C66.6277 122.167 64.4629 122.927 62.6566 122.067C60.8503 121.207 60.0866 119.052 60.9508 117.254C61.8151 115.457 63.9799 114.697 65.7862 115.557C67.5925 116.417 68.3562 118.571 67.492 120.369Z" fill="#454242"/>
<path d="M77.5082 147.609C73.198 152.619 65.6227 153.203 60.5884 148.914C55.554 144.624 54.967 137.085 59.2772 132.075C63.5875 127.065 71.1627 126.481 76.1971 130.77C81.2314 135.06 81.8184 142.599 77.5082 147.609Z" fill="#6E0A0A"/>
<path d="M103.286 114.748H290.143V130.103H103.286V114.748Z" fill="#34352F"/>
<path d="M103.286 133.515H247.286V159.106H103.286V133.515Z" fill="#34352F"/>
<path d="M159.857 107.924H286.714V114.748H159.857V107.924Z" fill="#572C2C"/>
<path d="M103.286 107.924H163.286V123.278H103.286V107.924Z" fill="#6F0A0A"/>
<path d="M290.143 118.16H295.286C296.232 118.16 297 118.924 297 119.866V124.984C297 125.927 296.232 126.691 295.286 126.691H290.143V118.16Z" fill="#1C1B1B"/>
<path d="M247.286 140.339H257.571C258.518 140.339 259.286 141.103 259.286 142.045V153.988C259.286 154.93 258.518 155.694 257.571 155.694H247.286V140.339Z" fill="#1C1B1B"/>
<path d="M3 255.498L33.8571 192.374L57.8571 204.316L50.1429 223.936C46.7143 223.254 45.2857 230.476 45 234.173C41.5714 234.173 40.7143 239.291 40.7143 241.85C37.2857 241.85 36.4286 247.537 36.4286 250.38C33 251.063 31.5714 256.92 31.2857 259.764L26.1429 270L3 255.498Z" fill="#34352F"/>
<path d="M117.855 210.288C107.272 191.436 118.59 172.861 125.571 165.93L105.728 168.702C102.201 194.208 112.343 207.053 117.855 210.288Z" fill="#454242"/>
<path d="M105 128.397H273V136.927H105V128.397Z" fill="#151514"/>
<path d="M194.143 125.837C194.143 128.193 192.224 130.103 189.857 130.103C187.49 130.103 185.571 128.193 185.571 125.837C185.571 123.482 187.49 121.572 189.857 121.572C192.224 121.572 194.143 123.482 194.143 125.837Z" fill="#040404"/>
<path d="M161.571 145.457C161.571 148.284 159.269 150.575 156.429 150.575C153.588 150.575 151.286 148.284 151.286 145.457C151.286 142.631 153.588 140.339 156.429 140.339C159.269 140.339 161.571 142.631 161.571 145.457Z" fill="#040404"/>
<path d="M153.857 147.163V144.604C153.857 142.72 155.389 141.192 157.282 141.192H182.143C188.221 141.192 188.014 132.255 186.893 126.264C186.689 125.173 187.509 124.131 188.624 124.131H192.081C192.804 124.131 193.456 124.589 193.678 125.274C198.961 141.536 188.286 148.908 182.143 150.575H157.286C155.392 150.575 153.857 149.048 153.857 147.163Z" fill="#454242"/>
<path d="M68.8241 171.067L68.7316 170.835L68.8685 171.313L68.8241 171.067ZM73.6759 154.537L73.91 154.449L73.8369 154.254L73.6315 154.291L73.6759 154.537ZM88.1589 158.222L88.4082 158.241L87.9274 158.128L88.1589 158.222ZM39.5775 189.519L39.5248 189.275L39.5406 189.766L39.5775 189.519ZM66.9299 179.618L66.7092 179.735L66.7448 179.802L66.8115 179.838L66.9299 179.618ZM54.5735 177.076L54.4394 176.865L54.7051 177.288L54.5735 177.076ZM63.5076 168.209L63.7119 168.065L63.5076 168.209ZM57.7554 168.171L57.7257 167.923L57.7554 168.171ZM36.6683 161.982L36.4288 162.053L36.4312 162.061L36.4342 162.069L36.6683 161.982ZM36.5214 149.599L36.7657 149.546L36.6226 148.889L36.3017 149.48L36.5214 149.599ZM50.8333 158.661L50.8047 158.412L50.7966 158.413L50.8333 158.661ZM66.7408 155.852L66.7882 156.098L66.7408 155.852ZM83.643 166.731L83.8758 166.822L83.4232 166.611L83.643 166.731ZM72.5823 174.454L72.4592 174.237L71.8514 174.581L72.5394 174.701L72.5823 174.454ZM57.2132 162.091L57.3563 162.296L57.1639 161.846L57.2132 162.091ZM39.9437 161.008L40.0299 160.774L39.2776 160.498L39.7394 161.152L39.9437 161.008ZM68.9258 160.757L69.0441 160.537L68.9258 160.757ZM66.3357 161.527L66.5554 161.646L66.3357 161.527ZM69.699 163.335L69.9187 163.454L69.699 163.335ZM67.1089 164.105L67.2273 163.884L67.1089 164.105ZM69.7406 159.256L69.8589 159.036L69.7406 159.256ZM64.8274 160.716L65.0471 160.835L64.8274 160.716ZM71.2073 164.146L71.427 164.265L71.2073 164.146ZM66.2941 165.606L66.4125 165.385L66.2941 165.606ZM62.9903 110.226L63.094 110.453L62.9339 109.982L62.9903 110.226ZM58.9584 126.972L58.7289 127.071L58.8115 127.263L59.0148 127.216L58.9584 126.972ZM44.3113 123.998L44.0614 123.992L44.5472 124.081L44.3113 123.998ZM91.293 90.369L91.3575 90.6106L91.3177 90.1203L91.293 90.369ZM64.4611 101.593L64.6757 101.464L64.6369 101.399L64.5686 101.367L64.4611 101.593ZM76.9278 103.529L77.0721 103.733L76.786 103.323L76.9278 103.529ZM68.4412 112.821L68.2442 112.975L68.4412 112.821ZM74.1883 112.578L74.2301 112.824L74.1883 112.578ZM95.5549 117.732L95.7906 117.648L95.7878 117.64L95.7845 117.632L95.5549 117.732ZM96.3114 130.092L96.0701 130.157L96.2453 130.806L96.5367 130.2L96.3114 130.092ZM81.5704 121.739L81.6112 121.986L81.6192 121.984L81.5704 121.739ZM65.8204 125.32L65.7611 125.078L65.8204 125.32ZM48.4029 115.28L48.1658 115.2L48.6282 115.388L48.4029 115.28ZM59.0698 107.025L59.2034 107.237L59.7936 106.864L59.1007 106.777L59.0698 107.025ZM75.0293 118.625L74.8764 118.427L75.0905 118.867L75.0293 118.625ZM92.3314 118.863L92.2568 119.102L93.0219 119.341L92.5284 118.709L92.3314 118.863ZM63.3965 120.528L63.289 120.753L63.3965 120.528ZM65.9456 119.633L65.7202 119.524L65.9456 119.633ZM62.4972 117.991L62.2719 117.882L62.4972 117.991ZM65.0463 117.096L64.9389 117.322L65.0463 117.096ZM62.6566 122.067L62.5491 122.292L62.6566 122.067ZM67.492 120.369L67.7173 120.477L67.492 120.369ZM60.9508 117.254L61.1762 117.363L60.9508 117.254ZM65.7862 115.557L65.6787 115.783L65.7862 115.557ZM103.286 114.748V114.498H103.036V114.748H103.286ZM290.143 114.748H290.393V114.498H290.143V114.748ZM290.143 130.103V130.353H290.393V130.103H290.143ZM103.286 130.103H103.036V130.353H103.286V130.103ZM103.286 133.515V133.265H103.036V133.515H103.286ZM247.286 133.515H247.536V133.265H247.286V133.515ZM247.286 159.106V159.356H247.536V159.106H247.286ZM103.286 159.106H103.036V159.356H103.286V159.106ZM159.857 107.924V107.674H159.607V107.924H159.857ZM286.714 107.924H286.964V107.674H286.714V107.924ZM286.714 114.748V114.998H286.964V114.748H286.714ZM159.857 114.748H159.607V114.998H159.857V114.748ZM103.286 107.924V107.674H103.036V107.924H103.286ZM163.286 107.924H163.536V107.674H163.286V107.924ZM163.286 123.278V123.528H163.536V123.278H163.286ZM103.286 123.278H103.036V123.528H103.286V123.278ZM290.143 118.16V117.91H289.893V118.16H290.143ZM290.143 126.691H289.893V126.941H290.143V126.691ZM247.286 140.339V140.089H247.036V140.339H247.286ZM247.286 155.694H247.036V155.944H247.286V155.694ZM33.8571 192.374L33.9685 192.15L33.7431 192.038L33.6325 192.264L33.8571 192.374ZM3 255.498L2.7754 255.389L2.67658 255.591L2.86726 255.71L3 255.498ZM26.1429 270L26.0101 270.212L26.2429 270.358L26.3662 270.112L26.1429 270ZM31.2857 259.764L31.5091 259.876L31.5298 259.835L31.5345 259.789L31.2857 259.764ZM36.4286 250.38L36.4774 250.625L36.6786 250.585V250.38H36.4286ZM40.7143 241.85V242.1H40.9643V241.85H40.7143ZM45 234.173V234.423H45.2314L45.2493 234.192L45 234.173ZM50.1429 223.936L50.0941 224.181L50.299 224.222L50.3755 224.028L50.1429 223.936ZM57.8571 204.316L58.0898 204.408L58.1736 204.195L57.9685 204.093L57.8571 204.316ZM125.571 165.93L125.748 166.107L126.28 165.579L125.537 165.682L125.571 165.93ZM117.855 210.288L117.728 210.503L118.525 210.971L118.073 210.165L117.855 210.288ZM105.728 168.702L105.694 168.455L105.507 168.481L105.481 168.668L105.728 168.702ZM105 128.397V128.147H104.75V128.397H105ZM273 128.397H273.25V128.147H273V128.397ZM273 136.927V137.177H273.25V136.927H273ZM105 136.927H104.75V137.177H105V136.927ZM182.143 150.575V150.825H182.176L182.208 150.817L182.143 150.575ZM193.678 125.274L193.44 125.351L193.678 125.274ZM186.893 126.264L186.647 126.31L186.893 126.264ZM68.9166 171.299C72.5341 169.858 74.1552 166.625 74.6865 163.292C75.2172 159.962 74.672 156.484 73.91 154.449L73.4418 154.625C74.175 156.583 74.7091 159.974 74.1927 163.213C73.677 166.448 72.1246 169.483 68.7316 170.835L68.9166 171.299ZM87.9274 158.128C86.3156 162.091 82.8076 165.037 79.0425 167.111C75.2807 169.183 71.2946 170.367 68.7797 170.821L68.8685 171.313C71.4298 170.851 75.4686 169.65 79.2838 167.549C83.0958 165.449 86.7172 162.43 88.3905 158.316L87.9274 158.128ZM39.5406 189.766C57.9013 192.505 69.8906 187.844 77.4079 180.866C84.9153 173.897 87.932 164.644 88.4082 158.241L87.9096 158.204C87.4409 164.507 84.4655 173.632 77.0677 180.499C69.6798 187.357 57.8509 191.992 39.6144 189.272L39.5406 189.766ZM66.8115 179.838C67.0556 179.969 67.1714 180.091 67.2179 180.188C67.2578 180.271 67.2612 180.365 67.198 180.493C67.1301 180.631 66.9899 180.797 66.7594 180.986C66.5316 181.174 66.2302 181.373 65.8592 181.581C64.3697 182.42 61.8607 183.359 58.857 184.307C52.8592 186.2 44.9664 188.101 39.5248 189.275L39.6302 189.763C45.0783 188.589 52.9883 186.683 59.0075 184.784C62.0124 183.836 64.5655 182.883 66.1044 182.017C66.4904 181.8 66.8189 181.585 67.077 181.372C67.3324 181.162 67.5339 180.943 67.6467 180.714C67.7642 180.475 67.7871 180.218 67.6685 179.972C67.5566 179.739 67.3358 179.552 67.0482 179.398L66.8115 179.838ZM54.7051 177.288C57.9552 175.277 60.6215 175.289 62.6316 176.085C64.6565 176.887 66.0503 178.498 66.7092 179.735L67.1505 179.5C66.4487 178.183 64.9739 176.475 62.8157 175.62C60.6427 174.76 57.8112 174.778 54.442 176.863L54.7051 177.288ZM63.3032 168.353C63.4064 168.499 63.4395 168.69 63.38 168.948C63.3192 169.212 63.1653 169.526 62.9207 169.884C62.4322 170.598 61.6229 171.427 60.6518 172.282C58.7133 173.989 56.1811 175.758 54.4394 176.865L54.7077 177.287C56.4614 176.172 59.0171 174.388 60.9822 172.657C61.9629 171.793 62.8093 170.932 63.3334 170.166C63.595 169.783 63.7866 169.41 63.8672 169.06C63.9489 168.706 63.9191 168.359 63.7119 168.065L63.3032 168.353ZM57.7851 168.419C59.3046 168.238 60.6116 168.081 61.598 168.053C62.0916 168.039 62.4903 168.057 62.7881 168.115C63.0949 168.175 63.2425 168.267 63.3032 168.353L63.7119 168.065C63.5367 167.816 63.2261 167.691 62.8836 167.624C62.532 167.556 62.0903 167.538 61.5836 167.553C60.5694 167.583 59.2362 167.742 57.7257 167.923L57.7851 168.419ZM36.4342 162.069C38.0396 166.357 41.6815 168.146 45.7433 168.762C49.7969 169.377 54.3226 168.834 57.7851 168.419L57.7257 167.923C54.2499 168.339 49.7931 168.87 45.8183 168.268C41.8516 167.666 38.4192 165.945 36.9024 161.894L36.4342 162.069ZM36.3017 149.48C35.3472 151.239 35.1852 153.715 35.3506 156.059C35.5167 158.413 36.0169 160.68 36.4288 162.053L36.9077 161.91C36.5048 160.567 36.0125 158.336 35.8494 156.024C35.6855 153.702 35.8575 151.346 36.7411 149.719L36.3017 149.48ZM50.7966 158.413C46.0868 159.113 42.7791 157.772 40.5507 155.829C38.313 153.878 37.1493 151.309 36.7657 149.546L36.2771 149.653C36.6798 151.503 37.891 154.174 40.2221 156.206C42.5624 158.246 46.0175 159.629 50.8701 158.908L50.7966 158.413ZM66.6934 155.607C60.8566 156.733 54.166 158.025 50.8047 158.412L50.862 158.909C54.2473 158.518 60.9626 157.222 66.7882 156.098L66.6934 155.607ZM73.6315 154.291C71.7451 154.632 69.3053 155.102 66.6934 155.607L66.7882 156.098C69.4012 155.593 71.8375 155.123 73.7203 154.783L73.6315 154.291ZM83.4101 166.64C82.8325 168.118 81.5928 170.276 79.7621 171.931C77.9357 173.582 75.5395 174.717 72.6253 174.208L72.5394 174.701C75.6481 175.243 78.1935 174.022 80.0974 172.302C81.997 170.585 83.2761 168.356 83.8758 166.822L83.4101 166.64ZM72.7054 174.672C74.3609 173.735 76.9017 172.225 79.1453 170.735C80.2668 169.99 81.3177 169.248 82.1478 168.584C82.5628 168.252 82.9256 167.937 83.2155 167.649C83.5025 167.364 83.7304 167.094 83.8627 166.85L83.4232 166.611C83.3258 166.791 83.1389 167.021 82.8632 167.295C82.5904 167.566 82.2424 167.868 81.8355 168.194C81.0218 168.845 79.9845 169.577 78.8687 170.318C76.6377 171.8 74.1077 173.304 72.4592 174.237L72.7054 174.672ZM57.07 161.886C55.2514 163.156 52.2169 164.624 49.0363 164.908C45.8698 165.19 42.5697 164.299 40.148 160.864L39.7394 161.152C42.2848 164.763 45.776 165.7 49.0807 165.406C52.3714 165.113 55.488 163.6 57.3563 162.296L57.07 161.886ZM39.8575 161.243C42.5624 162.236 49.8054 163.836 57.2625 162.336L57.1639 161.846C49.8179 163.323 42.6701 161.743 40.0299 160.774L39.8575 161.243ZM69.0441 160.537C67.9947 159.973 66.6836 160.362 66.1159 161.408L66.5554 161.646C66.9911 160.843 67.9994 160.543 68.8074 160.978L69.0441 160.537ZM69.9187 163.454C70.4868 162.408 70.0943 161.102 69.0441 160.537L68.8074 160.978C69.6147 161.412 69.9146 162.414 69.4793 163.216L69.9187 163.454ZM66.9905 164.325C68.04 164.889 69.351 164.5 69.9187 163.454L69.4793 163.216C69.0435 164.019 68.0353 164.319 67.2273 163.884L66.9905 164.325ZM66.1159 161.408C65.5479 162.454 65.9403 163.76 66.9905 164.325L67.2273 163.884C66.4199 163.45 66.12 162.448 66.5554 161.646L66.1159 161.408ZM69.8589 159.036C67.9765 158.024 65.6254 158.722 64.6077 160.597L65.0471 160.835C65.9328 159.204 67.9811 158.594 69.6222 159.477L69.8589 159.036ZM71.427 164.265C72.445 162.39 71.7421 160.049 69.8589 159.036L69.6222 159.477C71.2625 160.358 71.8729 162.396 70.9875 164.027L71.427 164.265ZM66.1757 165.826C68.0582 166.838 70.4093 166.14 71.427 164.265L70.9875 164.027C70.1018 165.658 68.0535 166.268 66.4125 165.385L66.1757 165.826ZM64.6077 160.597C63.5896 162.472 64.2926 164.813 66.1757 165.826L66.4125 165.385C64.7721 164.504 64.1618 162.466 65.0471 160.835L64.6077 160.597ZM62.8865 109.998C59.3443 111.614 57.8844 114.923 57.5179 118.278C57.1517 121.629 57.8676 125.076 58.7289 127.071L59.1879 126.873C58.3591 124.953 57.6587 121.592 58.0149 118.332C58.3707 115.075 59.7718 111.969 63.094 110.453L62.8865 109.998ZM44.5472 124.081C45.9619 120.044 49.3206 116.931 52.9789 114.675C56.6342 112.422 60.5572 111.045 63.0466 110.469L62.9339 109.982C60.3985 110.569 56.4237 111.965 52.7165 114.25C49.0125 116.533 45.5441 119.725 44.0754 123.915L44.5472 124.081ZM91.3177 90.1203C72.8443 88.2808 61.0989 93.5208 53.9343 100.857C46.7791 108.184 44.2217 117.573 44.0614 123.992L44.5612 124.004C44.719 117.686 47.2414 108.427 54.292 101.207C61.3332 93.9965 72.9196 88.7907 91.2682 90.6178L91.3177 90.1203ZM64.5686 101.367C64.3184 101.248 64.1966 101.131 64.1453 101.037C64.1014 100.956 64.0934 100.863 64.1502 100.731C64.2112 100.59 64.3431 100.418 64.5639 100.217C64.7822 100.019 65.0735 99.8056 65.4338 99.579C66.8802 98.6693 69.3399 97.6083 72.2932 96.5152C78.1906 94.3322 85.9803 92.0477 91.3575 90.6106L91.2284 90.1275C85.8448 91.5664 78.0381 93.8555 72.1197 96.0463C69.165 97.1399 66.6619 98.2159 65.1676 99.1558C64.7926 99.3916 64.4751 99.6226 64.2278 99.8472C63.983 100.069 63.7926 100.298 63.6912 100.533C63.5856 100.777 63.5753 101.035 63.7059 101.275C63.8292 101.502 64.0588 101.678 64.3537 101.818L64.5686 101.367ZM76.786 103.323C73.639 105.49 70.9753 105.608 68.9283 104.911C66.8663 104.209 65.3948 102.668 64.6757 101.464L64.2465 101.721C65.0124 103.002 66.5694 104.636 68.7671 105.385C70.9799 106.138 73.8071 105.982 77.0696 103.735L76.786 103.323ZM68.6382 112.667C68.5279 112.526 68.4855 112.337 68.5322 112.076C68.5799 111.81 68.7181 111.489 68.9449 111.119C69.3976 110.382 70.1651 109.515 71.0929 108.613C72.945 106.814 75.387 104.924 77.0721 103.733L76.7835 103.325C75.0868 104.524 72.622 106.43 70.7445 108.255C69.8076 109.165 69.0045 110.067 68.5188 110.858C68.2763 111.253 68.1033 111.635 68.0401 111.988C67.9759 112.346 68.0228 112.692 68.2442 112.975L68.6382 112.667ZM74.1465 112.331C72.6378 112.587 71.34 112.807 70.3562 112.883C69.8639 112.922 69.4648 112.923 69.1646 112.88C68.8552 112.835 68.7031 112.75 68.6382 112.667L68.2442 112.975C68.4314 113.215 68.7477 113.325 69.0931 113.374C69.4476 113.426 69.8897 113.421 70.3951 113.382C71.4066 113.303 72.7303 113.079 74.2301 112.824L74.1465 112.331ZM95.7845 117.632C93.9698 113.428 90.2442 111.819 86.157 111.402C82.078 110.986 77.5845 111.749 74.1465 112.331L74.2301 112.824C77.6812 112.239 82.1065 111.491 86.1062 111.899C90.0978 112.307 93.6109 113.858 95.3254 117.831L95.7845 117.632ZM96.5367 130.2C97.4035 128.397 97.4433 125.915 97.1627 123.582C96.8809 121.24 96.2696 119 95.7906 117.648L95.3193 117.815C95.7879 119.137 96.3894 121.341 96.6662 123.642C96.9442 125.953 96.8885 128.314 96.0861 129.983L96.5367 130.2ZM81.6192 121.984C86.2888 121.056 89.6587 122.234 91.9802 124.066C94.3112 125.905 95.6001 128.415 96.0701 130.157L96.5528 130.027C96.0594 128.198 94.7182 125.589 92.2899 123.673C89.8519 121.75 86.3329 120.537 81.5217 121.494L81.6192 121.984ZM65.8797 125.563C71.654 124.153 78.273 122.537 81.6112 121.986L81.5297 121.493C78.1677 122.048 71.5243 123.67 65.7611 125.078L65.8797 125.563ZM59.0148 127.216C60.8822 126.784 63.2958 126.194 65.8797 125.563L65.7611 125.078C63.1761 125.709 60.7658 126.297 58.902 126.729L59.0148 127.216ZM48.6399 115.359C49.1441 113.855 50.276 111.638 52.0229 109.896C53.7658 108.158 56.1032 106.908 59.0389 107.274L59.1007 106.777C55.969 106.387 53.4867 107.731 51.6699 109.542C49.8571 111.35 48.6892 113.638 48.1658 115.2L48.6399 115.359ZM58.9363 106.814C57.3288 107.83 54.8655 109.463 52.698 111.061C51.6146 111.859 50.6014 112.652 49.805 113.355C49.4069 113.707 49.06 114.039 48.7846 114.341C48.512 114.64 48.2977 114.921 48.1776 115.171L48.6282 115.388C48.7167 115.204 48.892 114.965 49.1539 114.678C49.4131 114.394 49.7457 114.075 50.1361 113.73C50.9167 113.04 51.9167 112.258 52.9947 111.463C55.15 109.875 57.6029 108.249 59.2034 107.237L58.9363 106.814ZM75.1823 118.822C76.9362 117.465 79.8947 115.85 83.0575 115.412C86.2063 114.976 89.5464 115.705 92.1344 119.017L92.5284 118.709C89.8083 115.228 86.2752 114.462 82.9889 114.917C79.7166 115.37 76.6781 117.033 74.8764 118.427L75.1823 118.822ZM92.406 118.625C89.6555 117.765 82.3424 116.52 74.9681 118.382L75.0905 118.867C82.3549 117.033 89.572 118.263 92.2568 119.102L92.406 118.625ZM63.289 120.753C64.3649 121.266 65.6553 120.813 66.1709 119.741L65.7202 119.524C65.3246 120.347 64.3325 120.696 63.5039 120.302L63.289 120.753ZM62.2719 117.882C61.756 118.955 62.2124 120.241 63.289 120.753L63.5039 120.302C62.6761 119.908 62.3273 118.921 62.7226 118.099L62.2719 117.882ZM65.1538 116.87C64.0779 116.358 62.7875 116.81 62.2719 117.882L62.7226 118.099C63.1182 117.276 64.1103 116.927 64.9389 117.322L65.1538 116.87ZM66.1709 119.741C66.6868 118.668 66.2304 117.383 65.1538 116.87L64.9389 117.322C65.7667 117.716 66.1155 118.702 65.7202 119.524L66.1709 119.741ZM62.5491 122.292C64.4791 123.211 66.7931 122.4 67.7173 120.477L67.2666 120.261C66.4624 121.934 64.4467 122.642 62.7641 121.841L62.5491 122.292ZM60.7255 117.146C59.801 119.069 60.6185 121.373 62.5491 122.292L62.7641 121.841C61.0821 121.04 60.3722 119.035 61.1762 117.363L60.7255 117.146ZM65.8937 115.331C63.9637 114.412 61.6497 115.224 60.7255 117.146L61.1762 117.363C61.9804 115.69 63.9961 114.981 65.6787 115.783L65.8937 115.331ZM67.7173 120.477C68.6418 118.554 67.8243 116.25 65.8937 115.331L65.6787 115.783C67.3607 116.583 68.0706 118.588 67.2666 120.261L67.7173 120.477ZM77.3187 147.446C73.0983 152.352 65.6802 152.924 60.7505 148.724L60.4262 149.104C65.5652 153.483 73.2976 152.887 77.6977 147.772L77.3187 147.446ZM60.7505 148.724C55.8215 144.524 55.247 137.143 59.4668 132.238L59.0877 131.912C54.687 137.027 55.2866 144.725 60.4262 149.104L60.7505 148.724ZM59.4668 132.238C63.6871 127.332 71.1052 126.76 76.0349 130.961L76.3592 130.58C71.2203 126.201 63.4878 126.797 59.0877 131.912L59.4668 132.238ZM76.0349 130.961C80.964 135.16 81.5384 142.541 77.3187 147.446L77.6977 147.772C82.0984 142.657 81.4989 134.959 76.3592 130.58L76.0349 130.961ZM103.286 114.998H290.143V114.498H103.286V114.998ZM289.893 114.748V130.103H290.393V114.748H289.893ZM290.143 129.853H103.286V130.353H290.143V129.853ZM103.536 130.103V114.748H103.036V130.103H103.536ZM103.286 133.765H247.286V133.265H103.286V133.765ZM247.036 133.515V159.106H247.536V133.515H247.036ZM247.286 158.856H103.286V159.356H247.286V158.856ZM103.536 159.106V133.515H103.036V159.106H103.536ZM159.857 108.174H286.714V107.674H159.857V108.174ZM286.464 107.924V114.748H286.964V107.924H286.464ZM286.714 114.498H159.857V114.998H286.714V114.498ZM160.107 114.748V107.924H159.607V114.748H160.107ZM103.286 108.174H163.286V107.674H103.286V108.174ZM163.036 107.924V123.278H163.536V107.924H163.036ZM163.286 123.028H103.286V123.528H163.286V123.028ZM103.536 123.278V107.924H103.036V123.278H103.536ZM290.143 118.41H295.286V117.91H290.143V118.41ZM296.75 119.866V124.984H297.25V119.866H296.75ZM295.286 126.441H290.143V126.941H295.286V126.441ZM290.393 126.691V118.16H289.893V126.691H290.393ZM296.75 124.984C296.75 125.787 296.096 126.441 295.286 126.441V126.941C296.369 126.941 297.25 126.066 297.25 124.984H296.75ZM295.286 118.41C296.096 118.41 296.75 119.063 296.75 119.866H297.25C297.25 118.785 296.369 117.91 295.286 117.91V118.41ZM247.286 140.589H257.571V140.089H247.286V140.589ZM259.036 142.045V153.988H259.536V142.045H259.036ZM257.571 155.444H247.286V155.944H257.571V155.444ZM247.536 155.694V140.339H247.036V155.694H247.536ZM259.036 153.988C259.036 154.791 258.381 155.444 257.571 155.444V155.944C258.655 155.944 259.536 155.069 259.536 153.988H259.036ZM257.571 140.589C258.381 140.589 259.036 141.242 259.036 142.045H259.536C259.536 140.964 258.655 140.089 257.571 140.089V140.589ZM33.6325 192.264L2.7754 255.389L3.2246 255.608L34.0817 192.484L33.6325 192.264ZM2.86726 255.71L26.0101 270.212L26.2756 269.788L3.13274 255.287L2.86726 255.71ZM26.3662 270.112L31.5091 259.876L31.0623 259.651L25.9195 269.888L26.3662 270.112ZM31.5345 259.789C31.6755 258.385 32.0994 256.236 32.9081 254.361C33.724 252.468 34.893 250.941 36.4774 250.625L36.3798 250.135C34.5355 250.502 33.276 252.245 32.449 254.163C31.6148 256.097 31.1816 258.299 31.037 259.739L31.5345 259.789ZM36.6786 250.38C36.6786 248.976 36.8911 246.875 37.5208 245.134C38.157 243.375 39.1708 242.1 40.7143 242.1V241.6C38.8292 241.6 37.7001 243.168 37.0506 244.964C36.3947 246.777 36.1786 248.941 36.1786 250.38H36.6786ZM40.9643 241.85C40.9643 240.59 41.1763 238.705 41.8034 237.145C42.4334 235.577 43.4417 234.423 45 234.423V233.923C43.1297 233.923 41.9952 235.327 41.3395 236.958C40.6809 238.597 40.4643 240.551 40.4643 241.85H40.9643ZM45.2493 234.192C45.3911 232.357 45.8168 229.652 46.6268 227.5C47.0325 226.423 47.5267 225.505 48.1124 224.902C48.6907 224.307 49.3414 224.032 50.0941 224.181L50.1917 223.691C49.2301 223.5 48.4164 223.871 47.7537 224.554C47.0983 225.229 46.5746 226.22 46.1589 227.324C45.3261 229.537 44.8946 232.292 44.7507 234.153L45.2493 234.192ZM50.3755 224.028L58.0898 204.408L57.6245 204.225L49.9102 223.845L50.3755 224.028ZM57.9685 204.093L33.9685 192.15L33.7458 192.598L57.7458 204.54L57.9685 204.093ZM125.395 165.753C121.879 169.243 117.28 175.655 114.887 183.566C112.492 191.484 112.305 200.913 117.637 210.41L118.073 210.165C112.821 200.81 113.002 191.526 115.366 183.711C117.731 175.889 122.282 169.548 125.748 166.107L125.395 165.753ZM117.981 210.072C112.577 206.901 102.458 194.168 105.976 168.737L105.481 168.668C101.943 194.248 112.108 207.206 117.728 210.503L117.981 210.072ZM105.763 168.95L125.606 166.178L125.537 165.682L105.694 168.455L105.763 168.95ZM105 128.647H273V128.147H105V128.647ZM272.75 128.397V136.927H273.25V128.397H272.75ZM273 136.677H105V137.177H273V136.677ZM105.25 136.927V128.397H104.75V136.927H105.25ZM193.893 125.837C193.893 128.054 192.087 129.853 189.857 129.853V130.353C192.361 130.353 194.393 128.332 194.393 125.837H193.893ZM189.857 129.853C187.627 129.853 185.821 128.054 185.821 125.837H185.321C185.321 128.332 187.353 130.353 189.857 130.353V129.853ZM185.821 125.837C185.821 123.621 187.627 121.822 189.857 121.822V121.322C187.353 121.322 185.321 123.343 185.321 125.837H185.821ZM189.857 121.822C192.087 121.822 193.893 123.621 193.893 125.837H194.393C194.393 123.343 192.361 121.322 189.857 121.322V121.822ZM161.321 145.457C161.321 148.145 159.132 150.325 156.429 150.325V150.825C159.406 150.825 161.821 148.423 161.821 145.457H161.321ZM156.429 150.325C153.725 150.325 151.536 148.145 151.536 145.457H151.036C151.036 148.423 153.451 150.825 156.429 150.825V150.325ZM151.536 145.457C151.536 142.77 153.725 140.589 156.429 140.589V140.089C153.451 140.089 151.036 142.491 151.036 145.457H151.536ZM156.429 140.589C159.132 140.589 161.321 142.77 161.321 145.457H161.821C161.821 142.491 159.406 140.089 156.429 140.089V140.589ZM153.607 144.604V147.163H154.107V144.604H153.607ZM157.286 150.825H182.143V150.325H157.286V150.825ZM182.208 150.817C185.325 149.971 189.586 147.681 192.402 143.538C195.227 139.383 196.578 133.392 193.916 125.197L193.44 125.351C196.061 133.418 194.717 139.244 191.989 143.257C189.253 147.282 185.104 149.513 182.077 150.334L182.208 150.817ZM192.081 123.881H188.624V124.381H192.081V123.881ZM186.647 126.31C187.205 129.294 187.531 132.99 186.972 135.928C186.692 137.397 186.196 138.652 185.419 139.537C184.65 140.413 183.592 140.942 182.143 140.942V141.442C183.732 141.442 184.928 140.854 185.795 139.867C186.653 138.889 187.175 137.536 187.463 136.022C188.04 132.993 187.701 129.225 187.139 126.218L186.647 126.31ZM182.143 140.942H157.283V141.442H182.143V140.942ZM188.624 123.881C187.344 123.881 186.416 125.074 186.647 126.31L187.139 126.218C186.962 125.273 187.674 124.381 188.624 124.381V123.881ZM193.916 125.197C193.659 124.405 192.908 123.881 192.081 123.881V124.381C192.7 124.381 193.253 124.773 193.44 125.351L193.916 125.197ZM153.607 147.163C153.607 149.187 155.255 150.825 157.286 150.825V150.325C155.529 150.325 154.107 148.909 154.107 147.163H153.607ZM154.107 144.604C154.107 142.859 155.526 141.442 157.283 141.442V140.942C155.252 140.942 153.607 142.581 153.607 144.604H154.107Z" fill="black"/>
</svg>
