<svg width="320" height="320" viewBox="0 0 320 320" fill="none" xmlns="http://www.w3.org/2000/svg">
<g clip-path="url(#clip0_47_2)">
<g style="mix-blend-mode:hard-light" filter="url(#filter0_f_47_2)">
<ellipse cx="207.43" cy="113.739" rx="52.8752" ry="112.038" transform="rotate(29.8617 207.43 113.739)" fill="#33E9C6" fill-opacity="0.073"/>
</g>
<g style="mix-blend-mode:hard-light" filter="url(#filter1_f_47_2)">
<path d="M175.662 198.516C193.638 119.475 279.262 111.665 239.02 19.2679L222.571 84.3705L164.706 154.58L175.662 198.516Z" stroke="#00A8A8" stroke-width="2.99985"/>
</g>
<g style="mix-blend-mode:hard-light" filter="url(#filter2_f_47_2)">
<path d="M171.319 194.794C164.706 150.748 284.846 101.74 239.02 19.2679L222.571 84.3705L164.706 154.58L171.319 194.794Z" stroke="#00A8A8" stroke-width="3.92288"/>
</g>
<g style="mix-blend-mode:hard-light" filter="url(#filter3_ddi_47_2)">
<path d="M171.319 198.516C171.319 141.443 286.124 110.182 239.02 19.2679L222.571 84.3705L164.706 154.58L171.319 198.516Z" stroke="#33E9C6" stroke-opacity="0.2" stroke-width="2.99985"/>
</g>
<g filter="url(#filter4_f_47_2)">
<path d="M174.421 197.275C168.886 149.508 286.124 110.182 239.02 19.2679L222.571 84.3705L164.706 154.58L174.421 197.275Z" stroke="#33E9E9" stroke-width="1.84606"/>
</g>
<path d="M132.438 145.165C112.839 145.833 116.668 158.749 114.866 163.871L154.066 201.284C178.397 202.887 168.709 234.02 160.824 249.386C177.721 228.007 183.803 212.641 179.072 191.263C175.288 174.16 146.406 153.405 132.438 145.165Z" fill="black"/>
<path d="M238.319 25.4348C226.904 81.5157 164.909 134.412 135.338 153.85V169.359L176.282 204.099C162.634 146.406 275.54 102.98 238.319 25.4348Z" fill="url(#paint0_linear_47_2)"/>
<path d="M238.319 25.4348C226.904 81.5157 164.909 134.412 135.338 153.85V169.359L176.282 204.099C162.634 146.406 275.54 102.98 238.319 25.4348Z" fill="url(#paint1_linear_47_2)"/>
<path fill-rule="evenodd" clip-rule="evenodd" d="M58.4132 268.617L77.0241 272.96C91.2924 263.034 88.811 260.553 88.811 246.905C111.237 208.135 133.88 211.648 149.385 217.926C152.026 218.996 154.459 220.145 156.649 221.179C158.39 222.002 159.978 222.752 161.394 223.331L166.356 196.035L127.274 160.674C125.155 162.769 123.088 164.78 121.07 166.709C79.5941 206.367 59.1977 211.626 54.0706 209.062C29.4592 214.056 27.8031 221.794 28.0154 230.775C28.0985 234.29 28.0154 235.738 29.8623 242.562L58.4132 268.617Z" fill="url(#paint2_linear_47_2)"/>
<path d="M127.274 160.674L166.356 196.035L161.394 223.331C159.978 222.752 158.39 222.002 156.649 221.179C154.459 220.145 152.026 218.996 149.385 217.926L166.356 231.396C166.356 210.055 172.146 202.445 175.041 196.035L127.274 151.989L121.07 166.709C123.088 164.78 125.155 162.769 127.274 160.674Z" fill="#00FFFF" fill-opacity="0.73"/>
<path fill-rule="evenodd" clip-rule="evenodd" d="M58.4132 268.617L77.0241 272.96C91.2924 263.034 88.811 259.312 88.811 246.905C111.237 208.135 133.88 211.648 149.385 217.926C152.026 218.996 154.459 220.145 156.649 221.179C158.39 222.002 159.978 222.752 161.393 223.331L166.356 196.035L127.274 160.674C125.155 162.769 123.088 164.78 121.07 166.709C79.5941 206.367 59.1977 211.626 54.0706 209.062C29.4592 214.056 29.65 222.126 29.8623 231.107C29.9454 234.622 31.2583 238.277 29.8623 241.942L58.4132 268.617Z" fill="url(#paint3_linear_47_2)"/>
<path d="M127.274 160.674L166.356 196.035L161.393 223.331C159.978 222.752 158.39 222.002 156.649 221.179C154.459 220.145 152.026 218.996 149.385 217.926L166.356 231.396C166.356 210.055 172.146 202.445 175.041 196.035L127.274 151.989L121.07 166.709C123.088 164.78 125.155 162.769 127.274 160.674Z" fill="#00FFFF" fill-opacity="0.73"/>
</g>
<defs>
<filter id="filter0_f_47_2" x="125.109" y="2.94055" width="164.643" height="221.597" filterUnits="userSpaceOnUse" color-interpolation-filters="sRGB">
<feFlood flood-opacity="0" result="BackgroundImageFix"/>
<feBlend mode="normal" in="SourceGraphic" in2="BackgroundImageFix" result="shape"/>
<feGaussianBlur stdDeviation="5.05359" result="effect1_foregroundBlur_47_2"/>
</filter>
<filter id="filter1_f_47_2" x="152.96" y="4.53552" width="108.304" height="204.451" filterUnits="userSpaceOnUse" color-interpolation-filters="sRGB">
<feFlood flood-opacity="0" result="BackgroundImageFix"/>
<feBlend mode="normal" in="SourceGraphic" in2="BackgroundImageFix" result="shape"/>
<feGaussianBlur stdDeviation="5.05359" result="effect1_foregroundBlur_47_2"/>
</filter>
<filter id="filter2_f_47_2" x="159.257" y="10.62" width="95.5434" height="187.861" filterUnits="userSpaceOnUse" color-interpolation-filters="sRGB">
<feFlood flood-opacity="0" result="BackgroundImageFix"/>
<feBlend mode="normal" in="SourceGraphic" in2="BackgroundImageFix" result="shape"/>
<feGaussianBlur stdDeviation="1.68453" result="effect1_foregroundBlur_47_2"/>
</filter>
<filter id="filter3_ddi_47_2" x="158.743" y="14.0584" width="97.502" height="192.43" filterUnits="userSpaceOnUse" color-interpolation-filters="sRGB">
<feFlood flood-opacity="0" result="BackgroundImageFix"/>
<feColorMatrix in="SourceAlpha" type="matrix" values="0 0 0 0 0 0 0 0 0 0 0 0 0 0 0 0 0 0 127 0" result="hardAlpha"/>
<feOffset dy="2.99985"/>
<feGaussianBlur stdDeviation="1.15379"/>
<feColorMatrix type="matrix" values="0 0 0 0 0 0 0 0 0 0.3 0 0 0 0 0.275 0 0 0 0.7 0"/>
<feBlend mode="multiply" in2="BackgroundImageFix" result="effect1_dropShadow_47_2"/>
<feColorMatrix in="SourceAlpha" type="matrix" values="0 0 0 0 0 0 0 0 0 0 0 0 0 0 0 0 0 0 127 0" result="hardAlpha"/>
<feOffset dy="3.36906"/>
<feGaussianBlur stdDeviation="2.18989"/>
<feColorMatrix type="matrix" values="0 0 0 0 0 0 0 0 0 0.6 0 0 0 0 0.6 0 0 0 1 0"/>
<feBlend mode="color-dodge" in2="effect1_dropShadow_47_2" result="effect2_dropShadow_47_2"/>
<feBlend mode="normal" in="SourceGraphic" in2="effect2_dropShadow_47_2" result="shape"/>
<feColorMatrix in="SourceAlpha" type="matrix" values="0 0 0 0 0 0 0 0 0 0 0 0 0 0 0 0 0 0 127 0" result="hardAlpha"/>
<feOffset dx="-0.299985" dy="0.59997"/>
<feGaussianBlur stdDeviation="0.149992"/>
<feComposite in2="hardAlpha" operator="arithmetic" k2="-1" k3="1"/>
<feColorMatrix type="matrix" values="0 0 0 0 1 0 0 0 0 1 0 0 0 0 1 0 0 0 0.5 0"/>
<feBlend mode="normal" in2="shape" result="effect3_innerShadow_47_2"/>
</filter>
<filter id="filter4_f_47_2" x="163.243" y="16.2224" width="88.3479" height="181.719" filterUnits="userSpaceOnUse" color-interpolation-filters="sRGB">
<feFlood flood-opacity="0" result="BackgroundImageFix"/>
<feBlend mode="normal" in="SourceGraphic" in2="BackgroundImageFix" result="shape"/>
<feGaussianBlur stdDeviation="0.230758" result="effect1_foregroundBlur_47_2"/>
</filter>
<linearGradient id="paint0_linear_47_2" x1="134.718" y1="84.9897" x2="216.606" y2="138.961" gradientUnits="userSpaceOnUse">
<stop offset="0.526042" stop-color="#FF0000"/>
<stop offset="0.791667" stop-color="#FFBEA2"/>
<stop offset="1" stop-color="#FFD600"/>
</linearGradient>
<linearGradient id="paint1_linear_47_2" x1="134.718" y1="194.174" x2="246.383" y2="21.7126" gradientUnits="userSpaceOnUse">
<stop offset="0.142724"/>
<stop offset="1" stop-color="#FF78E1" stop-opacity="0.26"/>
</linearGradient>
<linearGradient id="paint2_linear_47_2" x1="101.839" y1="151.989" x2="101.839" y2="272.96" gradientUnits="userSpaceOnUse">
<stop stop-color="#001049"/>
<stop offset="1" stop-color="#4B4B4B"/>
</linearGradient>
<linearGradient id="paint3_linear_47_2" x1="101.839" y1="151.989" x2="101.839" y2="272.96" gradientUnits="userSpaceOnUse">
<stop offset="0.307292"/>
<stop offset="1" stop-color="#1A3763" stop-opacity="0"/>
</linearGradient>
<clipPath id="clip0_47_2">
<rect width="320" height="320" fill="white"/>
</clipPath>
</defs>
</svg>
