<svg width="300" height="300" viewBox="0 0 300 300" fill="none" xmlns="http://www.w3.org/2000/svg">
<path d="M37.8284 254.25L75.2498 216.828L81.6137 223.192L44.1924 260.614L37.8284 254.25Z" fill="#0B0000" stroke="black" stroke-width="4"/>
<path d="M106.515 273H101.697L104.106 252.505L188.428 138.575L207.5 104.5L216.133 95.1729L211.315 84.3224H204L108.924 160.276L26.4092 198.252L24 192.827L286 15L106.515 273Z" fill="#68DE3E"/>
<path d="M106.515 273H101.697L104.106 252.505L188.428 138.575L207.5 104.5L216.133 95.1729L211.315 84.3224H204L108.924 160.276L26.4092 198.252L24 192.827L286 15L106.515 273Z" stroke="#90FA69" stroke-width="3.5"/>
<path d="M106.515 273H101.697L104.106 252.505L188.428 138.575L207.5 104.5L216.133 95.1729L211.315 84.3224H204L108.924 160.276L26.4092 198.252L24 192.827L286 15L106.515 273Z" stroke="#797373" stroke-opacity="0.11" stroke-width="3.5"/>
<g filter="url(#filter0_i_11_87)">
<path d="M103.5 263H99.5L101.5 246L171.5 151.5L190.5 128.5L197 119L194.5 106.5H180L105.5 169.5L37 201L35 196.5L252.5 49L103.5 263Z" fill="#9B9797"/>
</g>
<path d="M103.5 263H99.5L101.5 246L171.5 151.5L190.5 128.5L197 119L194.5 106.5H180L105.5 169.5L37 201L35 196.5L252.5 49L103.5 263Z" stroke="#DED9D9" stroke-width="0.5"/>
<path d="M117.728 170.263L88 209L132 182.5L188 115L117.728 170.263Z" fill="#FFF500"/>
<defs>
<filter id="filter0_i_11_87" x="34.6866" y="48.7931" width="218.019" height="218.457" filterUnits="userSpaceOnUse" color-interpolation-filters="sRGB">
<feFlood flood-opacity="0" result="BackgroundImageFix"/>
<feBlend mode="normal" in="SourceGraphic" in2="BackgroundImageFix" result="shape"/>
<feColorMatrix in="SourceAlpha" type="matrix" values="0 0 0 0 0 0 0 0 0 0 0 0 0 0 0 0 0 0 127 0" result="hardAlpha"/>
<feOffset dy="4"/>
<feGaussianBlur stdDeviation="2"/>
<feComposite in2="hardAlpha" operator="arithmetic" k2="-1" k3="1"/>
<feColorMatrix type="matrix" values="0 0 0 0 0 0 0 0 0 0 0 0 0 0 0 0 0 0 0.25 0"/>
<feBlend mode="normal" in2="shape" result="effect1_innerShadow_11_87"/>
</filter>
</defs>
</svg>
